<svg xmlns="http://www.w3.org/2000/svg" viewBox="0 0 2047 1919"><defs><linearGradient id="about-1-a" x1="20.219%" x2="49.928%" y1="18%" y2="81.845%"><stop offset="0%" stop-color="#669292"/><stop offset="100%" stop-color="#336d6e"/></linearGradient><linearGradient id="about-1-b" x1="0%" x2="100%" y1="42%" y2="58%"><stop offset="0%" stop-color="#669292"/><stop offset="100%" stop-color="#00494a"/></linearGradient><linearGradient id="about-1-c" x1="63.012%" x2="0%" y1="41.348%" y2="66.33%"><stop offset="0%" stop-color="#9fc4c4"/><stop offset="100%" stop-color="#336d6e"/></linearGradient><linearGradient id="about-1-d" x1="77.925%" x2="50%" y1="39.984%" y2="60.016%"><stop offset="0%" stop-color="#572b00"/><stop offset="100%" stop-color="#8a4400"/></linearGradient><linearGradient id="about-1-e" x1="30.065%" x2="100%" y1="53.816%" y2="53.816%"><stop offset="0%" stop-color="#336d6e"/><stop offset="100%" stop-color="#001d1e"/></linearGradient><linearGradient id="about-1-f" x1="100%" x2="50%" y1=".037%" y2="99.963%"><stop offset="0%" stop-color="#669292"/><stop offset="100%" stop-color="#00494a"/></linearGradient><linearGradient id="about-1-g" x1="42.321%" x2="83.912%" y1="-2.865%" y2="100%"><stop offset="0%" stop-color="#572b00"/><stop offset="100%" stop-color="#b85b00"/></linearGradient><linearGradient id="about-1-h" x1="61.57%" x2="61.57%" y1="14.751%" y2="218.596%"><stop offset="0%" stop-color="#669292"/><stop offset="100%" stop-color="#336d6e"/></linearGradient><linearGradient id="about-1-i" x1="34.971%" x2="34.971%" y1="0%" y2="69.087%"><stop offset="0%" stop-color="#669292"/><stop offset="100%" stop-color="#00494a"/></linearGradient><linearGradient id="about-1-j" x1="0%" x2="0%" y1="0%" y2="60.435%"><stop offset="0%" stop-color="#572b00"/><stop offset="100%" stop-color="#b85b00"/></linearGradient><linearGradient id="about-1-k" x1="100%" x2="0%" y1="27.778%" y2="54.638%"><stop offset="0%" stop-color="#572b00"/><stop offset="100%" stop-color="#8a4400"/></linearGradient><linearGradient id="about-1-l" x1="0%" x2="100%" y1="29.889%" y2="29.889%"><stop offset="0%" stop-color="#669292"/><stop offset="100%" stop-color="#336d6e"/></linearGradient><linearGradient id="about-1-m" x1="50%" x2="50%" y1="12.933%" y2="81.996%"><stop offset="0%" stop-color="#9fc4c4"/><stop offset="100%" stop-color="#336d6e"/></linearGradient></defs><g fill="none" fill-rule="evenodd"><path fill="#d8dedc" d="m1592.111 1318.273-227.444 511.708H398.028l250.189-511.708zM1223.906 0l-143.545 294.731 113.722 56.862z"/><path fill="#c0c6c3" d="M1080.361 294.731v56.862h113.722zM1194.083 351.593l113.723 56.861-34.83 22.933z"/><path fill="#001d1e" d="m1307.806 408.454 170.583 227.444-205.413-204.511z"/><path fill="#d8dedc" d="m1194.083 351.593-80.64 113.722 364.946 170.583z"/><path fill="#f70" d="M1080.361 351.593h113.722l-80.64 113.722z"/><path fill="#d8dedc" d="M1113.443 465.315 739.194 579.037l341.167-227.444z"/><path fill="#001d1e" d="m1113.443 465.315 137.501 701.28-97.069-758.141z"/><path fill="#d8dedc" d="m1250.944 1166.595-170.583-75.808 33.082-625.472zM603.841 294.731 489.006 530.517l90.977 45.489z"/><path fill="#c0c6c3" d="M489.006 530.517v45.489h90.977zM579.983 576.006l90.978 45.488-27.864 18.347z"/><path fill="#001d1e" d="m670.961 621.494 136.467 182.785-164.331-164.354z"/><path fill="#d8dedc" d="m579.983 576.006-64.512 91.309 291.957 136.964z"/><path fill="#f70" d="M489.006 576.006h90.977l-64.512 90.977z"/><path fill="#d8dedc" d="m515.471 666.983-299.399 90.978 272.934-181.955z"/><path fill="#001d1e" d="m515.471 667.045 110.001 561.792-77.655-607.343z"/><path fill="#d8dedc" d="m625.472 1228.812-170.583 33.004 60.582-594.833zM1575.888 618.84l-86.127 176.839 68.233 34.116z"/><path fill="#c0c6c3" d="M1489.761 795.679v34.116h68.233zM1557.994 829.795l68.234 34.117-20.898 13.76z"/><path fill="#001d1e" d="m1626.228 863.912 102.35 136.347L1605.33 877.66z"/><path fill="#d8dedc" d="m1557.994 829.795-48.384 68.186 218.968 102.278z"/><path fill="#f70" d="M1489.761 829.795h68.233l-48.384 68.234z"/><path fill="#d8dedc" d="m1509.61 898.029-224.549 68.233 204.7-136.467z"/><path fill="#001d1e" d="m1509.61 898.02 82.501 420.657-58.242-454.765z"/><path fill="#d8dedc" d="m1592.111 1318.677-102.35-45.472 19.849-375.176z"/><path fill="#669292" d="m1080.361 1090.787-341.167 113.722 284.306 113.722z"/><path fill="url(#about-1-a)" d="M1023.5 1318.231h284.306l-227.445-227.444z"/><path fill="#001d1e" d="M1307.806 1318.231h284.305l-511.75-227.444z"/><path fill="url(#about-1-b)" d="M739.194 1204.509v113.722H1023.5z"/><path fill="#336d6e" d="m739.194 1204.509-398.027 227.466 251.411-.021 55.639-113.681h90.977z"/><path fill="url(#about-1-c)" d="m739.194 1204.509-284.305 56.861-113.722 170.605z"/><path fill="#001d1e" d="M682.333 1375.134h170.584l-113.723 113.681z"/><path fill="url(#about-1-d)" d="m713.884 1437.917 25.31 50.898H625.472z"/><path fill="url(#about-1-e)" d="m625.472 1488.815 88.412-50.898-31.551-62.783z"/><path fill="url(#about-1-f)" d="M739.194 1488.815h56.862l56.861-113.681z"/><path fill="#001d1e" d="M909.778 1375.134h170.583l-113.722 113.681z"/><path fill="url(#about-1-d)" d="m941.329 1437.917 25.31 50.898H852.917z"/><path fill="url(#about-1-e)" d="m852.917 1488.815 88.412-50.898-31.551-62.783z"/><path fill="url(#about-1-f)" d="M966.639 1488.815h56.861l56.861-113.681z"/><path fill="#001d1e" d="M1137.222 1375.134h170.584l-113.723 113.681z"/><path fill="url(#about-1-d)" d="m1168.773 1437.917 25.31 50.898h-113.722z"/><path fill="url(#about-1-e)" d="m1080.361 1488.815 88.412-50.898-31.551-62.783z"/><path fill="url(#about-1-f)" d="M1194.083 1488.815h56.861l56.862-113.681z"/><path fill="#001d1e" d="M1364.667 1375.134h170.583l-113.722 113.681z"/><path fill="url(#about-1-d)" d="m1396.218 1437.917 25.31 50.898h-113.722z"/><path fill="url(#about-1-e)" d="m1307.806 1488.815 88.412-50.898-31.551-62.783z"/><path fill="url(#about-1-f)" d="M1421.528 1488.815h56.861l56.861-113.681z"/><path fill="#001d1e" d="M615.237 1517.287h170.584l-113.723 113.681z"/><path fill="url(#about-1-d)" d="m646.788 1580.069 25.31 50.899H558.376z"/><path fill="url(#about-1-e)" d="m558.376 1630.968 88.412-50.899-31.551-62.782z"/><path fill="url(#about-1-f)" d="M672.098 1630.968h56.861l56.862-113.681z"/><path fill="#001d1e" d="M842.682 1517.287h170.583l-113.722 113.681z"/><path fill="url(#about-1-d)" d="m874.233 1580.069 25.31 50.899H785.821z"/><path fill="url(#about-1-e)" d="m785.821 1630.968 88.412-50.899-31.551-62.782z"/><path fill="url(#about-1-f)" d="M899.543 1630.968h56.861l56.861-113.681z"/><path fill="#001d1e" d="M1070.126 1517.287h170.583l-113.722 113.681z"/><path fill="url(#about-1-d)" d="m1101.677 1580.069 25.31 50.899h-113.722z"/><path fill="url(#about-1-e)" d="m1013.265 1630.968 88.412-50.899-31.551-62.782z"/><path fill="url(#about-1-f)" d="M1126.987 1630.968h56.861l56.861-113.681z"/><path fill="#001d1e" d="M1297.571 1517.287h170.583l-113.722 113.681z"/><path fill="url(#about-1-d)" d="m1329.122 1580.069 25.31 50.899h-113.723z"/><path fill="url(#about-1-e)" d="m1240.709 1630.968 88.413-50.899-31.551-62.782z"/><path fill="url(#about-1-f)" d="M1354.432 1630.968h56.861l56.861-113.681z"/><path fill="#001d1e" d="M543.592 1659.44h170.584l-113.723 113.68z"/><path fill="#8a4400" d="m575.143 1722.222 25.31 50.898H486.731z"/><path fill="url(#about-1-e)" d="m486.731 1773.12 88.412-50.898-31.551-62.782z"/><path fill="url(#about-1-f)" d="M600.453 1773.12h56.861l56.862-113.68z"/><path fill="#001d1e" d="M771.037 1659.44H941.62l-113.722 113.68z"/><path fill="url(#about-1-d)" d="m802.588 1722.222 25.31 50.898H714.176z"/><path fill="url(#about-1-e)" d="m714.176 1773.12 88.412-50.898-31.551-62.782z"/><path fill="url(#about-1-f)" d="M827.898 1773.12h56.861l56.861-113.68z"/><path fill="#001d1e" d="M998.481 1659.44h170.583l-113.722 113.68z"/><path fill="url(#about-1-d)" d="m1030.032 1722.222 25.31 50.898H941.62z"/><path fill="url(#about-1-e)" d="m941.62 1773.12 88.412-50.898-31.551-62.782z"/><path fill="url(#about-1-f)" d="M1055.342 1773.12h56.861l56.861-113.68z"/><path fill="#001d1e" d="M1225.926 1659.44h170.583l-113.722 113.68z"/><path fill="url(#about-1-d)" d="m1257.477 1722.222 25.31 50.898h-113.723z"/><path fill="url(#about-1-e)" d="m1169.064 1773.12 88.413-50.898-31.551-62.782z"/><path fill="url(#about-1-f)" d="M1282.787 1773.12h56.861l56.861-113.68z"/><path fill="#00494a" d="m1592.111 1318.231 113.722 170.584H1535.25z"/><path fill="#001d1e" d="m1592.111 1318.273-227.444 511.708h58.575zM398.028 1829.981h1025.214l-27.024 88.573z"/><path fill="url(#about-1-g)" d="m1404.797 1886.843 73.592-227.445 113.722 227.445z"/><path fill="url(#about-1-h)" d="m1592.111 1318.273 284.306-56.903L2047 1318.231z"/><path fill="#001d1e" d="M341.167 1431.975 0 1431.954l454.889-170.584z"/><path fill="#00494a" d="m1535.25 1488.815 56.861 398.028-113.722-227.445z"/><path fill="url(#about-1-i)" d="M1535.25 1488.815h170.583l-113.722 398.028z"/><path fill="#8a4400" d="M1592.111 1318.273H2047l-341.167 170.542z"/><path fill="url(#about-1-j)" d="m341.167 1431.975 56.861 398.006 194.55-398.027z"/><path fill="#336d6e" d="M341.167 1431.954 0 1829.981h398.028z"/><path fill="#001d1e" d="M341.167 1431.975 0 1659.398v170.583z"/><path fill="url(#about-1-k)" d="M341.167 1431.954 0 1488.815v170.583z"/><path fill="#336d6e" d="m0 1431.954 341.167.021L0 1488.815z"/><path fill="#001d1e" d="M1705.833 1488.815 2047 1886.843h-454.889z"/><path fill="url(#about-1-l)" d="M1705.833 1488.815 2047 1318.273v568.57z"/><path fill="url(#about-1-m)" d="M0 1431.954v-227.445l454.889 56.861z"/></g></svg>