<svg xmlns="http://www.w3.org/2000/svg" viewBox="0 0 160 62"><g fill="none"><path fill="#acacb4" fill-rule="evenodd" d="M49.546 27.992c-3.485-.052-6.688-.098-9.637-.16-1.354.246-5.293.671-12.03.324-2.665-.094-4.791-.313-10.548-1.433-1.046-.204-2.035-.575-2.097-.477.392 1.489 3.662 4.384 8.742 5.639 4.965 1.227 22.556 1.418 27.235 1.37-2.105-1.073-3.52-3.148-1.665-5.263"/><path fill="#acacb4" fill-rule="evenodd" d="M7.302 19.102c.754.69 5.381 4.798 9.856 5.99 7.958 2.12 30.265 2.57 30.26 2.57-1.907-.948-4.162-3.222-2.173-4.916-2.054.419-4.288-.034-6.077-.766-1.452.038-4.57-.027-6.25.05-14.502.503-24.698-2.991-25.175-3.118-.876-.337-.445.192-.441.19"/><path fill="#acacb4" fill-rule="evenodd" d="M7.252 17.238c9.297 3.014 23.337 4.668 31.373 4.643-2.918-1.509-5.19-4.285-4.62-5.68-1.58-.149-14.994-3.582-16.069-4.98C11.004 9.996 5.16 9.616.928 10.914l-.635.181a.414.414 0 0 0-.276.514l.099.336c1.182 1.952 3.674 4.171 7.137 5.293zM59.216 39.064l-1.192 6.4c-3.59-.91-8.13-2.252-11.112-5.02 3.687-.331 12.304-1.38 12.304-1.38M57.126 38.876c-1.925.247-9.358 1.363-12.585 1.383-3.274.019-7.871-.408-11.82-2.038-6.226-2.57-7.296-4.105-7.82-4.54-.045-.038-.072-.034-.093-.004 0-.048.008-.125.18-.137.33-.023 8.338 1.605 23.006.15 2.191-.076 2.347-.023 4.75-.078 1.517.076 4.442 5.303 4.383 5.264z"/><path fill="#acacb4" fill-rule="evenodd" d="M45.466 22.606c-1.486 1.547-.98 4.525 4.49 5.173.032.003.045.018.045.035v.003c0 .018-.018.04-.05.053-1.556 1.539-1.596 4.75 4 5.521.073.01.053.079-.033.101.239.54 3.802 5.186 3.802 5.186l2.273-.395 2.3-12.85-.01-.002c-2.456-.894-4.057-2.459-4.76-4.65-.942-2.94.699-4.67 1.224-5.13.564-.494.809-1.136.685-1.797-.208-1.11-1.47-2.193-3.38-2.89 0 0 .005-.013 0-.015a17.4 17.4 0 0 0-7.418-1.025l-.03.088c-2.33.347-6.534 1.752-6.972 4.2-.325 1.818 1.527 4.258 3.722 6.883.694.72.984 1.25.111 1.511z"/><path fill="#acacb4" fill-rule="evenodd" d="M45.564 22.677c-7.08.629-12.4-4.934-11.376-6.619-6.73-1.272-14.667-3.503-16.463-5.513-.08-.241-.141-.467-.107-.66.026-.14.12-.288.227-.416.172-.207.766-.56.973-.636 2.092-.766 4.974-.092 6.976.272 1.435.262 14.623 4.394 14.734 4.235-.5.724-.107 2.403.345 3.157 1.198 2 2.745 3.82 4.831 5.046.575.35.598 1.205-.14 1.134"/><path fill="#1b1b25" d="M52.745 33.613c.405.011.802-.027 1.173-.12.087-.023.107-.092.033-.101-5.596-.772-5.556-3.983-4-5.521.032-.014.05-.036.05-.054v-.002c0-.017.239-.237.208-.242-5.47-.646-6.226-3.32-4.74-4.867.093-.066.156-.13.091-.126-7.031.367-12.119-4.94-11.095-6.626-6.76-1.277-15.014-3.417-16.763-5.434l.234.702c1.493 2.375 13.985 5.144 15.565 5.292-.57 1.396 1.318 3.48 4.236 4.99-8.035.024-20.965-1.597-30.262-4.612-3.462-1.122-6.178-2.995-7.36-4.947.4 1.35 2.287 4.318 6.584 5.882.38.138 1.776.541 2.175.646 5.79 1.72 16.6 3.11 23.911 3.615 2.612.18 4.885.174 6.338.136 1.502.563 3.17.984 5.156 1.02-.894 1.788-.354 3.005 1.553 3.953.004 0 .09.046.094.047-9.58-.213-20.986-.61-28.944-2.73-4.475-1.192-8.926-4.723-9.68-5.411.704 1.482 4.303 4.256 7.692 5.69 6.649 2.815 16.471 2.904 33.972 3.16-1.373 1.648-.924 3.898 1.181 4.972-4.68.047-20.764-.407-25.73-1.634-5.079-1.255-8.79-3.555-9.183-5.044-.436.687 1.927 2.583 2.252 2.828 1.73 1.3 4.26 2.623 6.258 3.097 4.655 1.106 16.114 1.731 29 1.44zM42.339 17.857c.184.26 2.396 2.982 2.992 3.477.266.22.63.35.147-.228-2.195-2.625-4.006-5.025-3.68-6.842.438-2.448 4.474-3.904 6.806-4.252l.034-.102c-2.325.245-7.774 1.516-7.677 4.484.042 1.251.655 2.442 1.378 3.463m5.564 22.658c3.686-.331 7.883-.907 9.285-1.087 1.185-.098-1.237-.607-1.237-.607-1.927.247-8.398.969-11.625.988-3.274.019-7.44-.394-11.39-2.023-6.225-2.57-7.511-3.67-8.035-4.106-.08-.066-.122-.015-.063.095.312.806 4.481 3.555 7.613 4.695 4.015 1.461 8.196 2.322 11.469 2.302.273-.002.73.028 1.066.012 1.114.008 1.895.152 2.24.336.419.221 5.652 4.301 11.234 5.265l.268-1.023c-3.62-.91-7.786-2.026-10.825-4.847"/><path fill="#1b1b25" fill-rule="evenodd" d="m53.808 10.19-1.143 34.24-2.456-1.363z" opacity=".25"/><path fill="#acacb4" fill-rule="evenodd" d="M110.454 27.992c3.486-.052 6.689-.098 9.637-.16 1.355.246 5.294.671 12.031.324 2.665-.094 4.791-.313 10.548-1.433 1.046-.204 2.035-.575 2.097-.477-.393 1.489-3.662 4.384-8.742 5.639-4.966 1.227-22.556 1.418-27.235 1.37 2.106-1.073 3.521-3.148 1.664-5.263"/><path fill="#acacb4" fill-rule="evenodd" d="M152.7 19.102c-.754.69-5.382 4.798-9.857 5.99-7.959 2.12-30.265 2.57-30.26 2.57 1.907-.948 4.163-3.222 2.173-4.916 2.054.419 4.288-.034 6.077-.766 1.452.038 4.57-.027 6.249.05 14.503.503 24.7-2.991 25.176-3.118.876-.337.445.192.441.19z"/><path fill="#acacb4" fill-rule="evenodd" d="M152.748 17.238c-9.297 3.014-23.337 4.668-31.372 4.643 2.918-1.509 5.19-4.285 4.62-5.68 1.58-.149 14.994-3.582 16.069-4.98 6.932-1.225 12.778-1.605 17.008-.307l.634.181a.415.415 0 0 1 .277.514l-.1.336c-1.181 1.952-3.674 4.171-7.136 5.293M100.784 39.064l1.194 6.4c3.588-.91 8.129-2.252 11.11-5.02-3.686-.331-12.304-1.38-12.304-1.38M102.874 38.876c1.927.247 9.36 1.363 12.587 1.383 3.273.019 7.87-.408 11.82-2.038 6.224-2.57 7.295-4.105 7.82-4.54.044-.038.07-.034.092-.004 0-.048-.008-.125-.181-.137-.329-.023-8.337 1.605-23.005.15-2.192-.076-2.347-.023-4.75-.078-1.517.076-4.442 5.303-4.383 5.264"/><path fill="#acacb4" fill-rule="evenodd" d="M114.535 22.606c1.486 1.547.98 4.525-4.49 5.173-.032.003-.045.018-.045.035v.003c0 .018.018.04.049.053 1.557 1.539 1.597 4.75-3.999 5.521-.073.01-.053.079.033.101-.239.54-3.802 5.186-3.802 5.186l-2.273-.396-2.298-12.85.008-.002c2.457-.894 4.058-2.459 4.76-4.65.942-2.94-.697-4.67-1.223-5.13-.563-.494-.808-1.136-.685-1.797.208-1.11 1.47-2.193 3.38-2.89 0 0-.005-.013-.001-.015a17.4 17.4 0 0 1 7.42-1.025l.029.088c2.33.347 6.534 1.752 6.972 4.2.326 1.818-1.528 4.258-3.722 6.883-.693.72-.984 1.25-.112 1.511z"/><path fill="#acacb4" fill-rule="evenodd" d="M114.437 22.677c7.08.629 12.4-4.934 11.376-6.619 6.73-1.272 14.667-3.503 16.463-5.513.08-.241.14-.467.107-.66-.026-.14-.12-.288-.227-.416-.172-.207-.766-.56-.973-.636-2.092-.766-4.973-.091-6.976.272-1.435.262-14.624 4.394-14.733 4.235.499.724.107 2.403-.345 3.157-1.2 2-2.746 3.82-4.832 5.046-.576.35-.597 1.205.14 1.134"/><path fill="#1b1b25" d="M107.255 33.613a4.3 4.3 0 0 1-1.173-.12c-.086-.023-.107-.091-.033-.101 5.597-.772 5.556-3.983 4-5.521-.032-.014-.049-.036-.05-.054v-.001c0-.018-.239-.238-.208-.243 5.471-.646 6.227-3.32 4.74-4.867-.093-.066-.156-.13-.09-.126 7.031.367 12.119-4.94 11.094-6.625 6.76-1.278 15.015-3.418 16.763-5.435l-.234.702c-1.493 2.375-13.984 5.144-15.565 5.292.57 1.396-1.318 3.48-4.236 4.99 8.035.024 20.966-1.597 30.263-4.612 3.46-1.122 6.177-2.995 7.358-4.947-.397 1.35-2.285 4.318-6.583 5.882-.38.138-1.776.541-2.175.646-5.79 1.72-16.6 3.11-23.91 3.615-2.612.18-4.887.174-6.338.136-1.503.564-3.17.984-5.157 1.02.895 1.788.355 3.005-1.553 3.953-.004 0-.089.046-.094.047 9.58-.213 20.986-.61 28.944-2.73 4.476-1.192 8.927-4.723 9.68-5.411-.704 1.482-4.303 4.256-7.692 5.69-6.649 2.815-16.47 2.904-33.972 3.16 1.373 1.648.924 3.898-1.18 4.972 4.679.047 20.763-.407 25.729-1.634 5.079-1.255 8.79-3.555 9.183-5.044.437.687-1.926 2.583-2.252 2.828-1.728 1.3-4.259 2.623-6.258 3.097-4.655 1.106-16.114 1.731-29 1.44zm10.406-15.755c-.184.259-2.395 2.981-2.992 3.476-.265.22-.63.35-.147-.228 2.195-2.625 4.006-5.025 3.68-6.842-.438-2.448-4.474-3.904-6.806-4.252l-.034-.102c2.325.245 7.774 1.516 7.677 4.484-.041 1.251-.655 2.442-1.378 3.464m-5.564 22.657c-3.686-.331-7.883-.907-9.284-1.087-1.186-.098 1.237-.607 1.237-.607 1.926.247 8.397.969 11.624.988 3.274.02 7.44-.394 11.39-2.023 6.225-2.57 7.511-3.67 8.035-4.105.08-.067.122-.016.063.094-.311.806-4.481 3.555-7.613 4.695-4.015 1.461-8.195 2.322-11.469 2.302-.272-.002-.73.028-1.066.012-1.114.008-1.895.152-2.24.336-.419.222-5.651 4.301-11.234 5.265l-.268-1.023c3.62-.91 7.787-2.026 10.825-4.847"/><path fill="#1b1b25" fill-rule="evenodd" d="m106.192 10.19 1.143 34.24 2.456-1.363z" opacity=".25"/><path fill="#9d191d" fill-rule="evenodd" d="M80.039 62a7 7 0 0 1-2.958-.658l-19.946-9.314a9.05 9.05 0 0 1-5.222-8.653l1.868-32.979a8.53 8.53 0 0 1 7.514-8.12L78.99.065l.017-.003a8.6 8.6 0 0 1 2.061 0l.018.003L98.78 2.276a8.53 8.53 0 0 1 7.514 8.12l1.868 32.98.003.08a9.05 9.05 0 0 1-5.224 8.573l-19.946 9.313a7 7 0 0 1-2.957.658z"/><path fill="#fff" d="M80.039 58.657c-.533 0-1.06-.118-1.543-.344L58.55 49a5.71 5.71 0 0 1-3.299-5.436l1.87-33.001a5.2 5.2 0 0 1 4.59-4.97L79.405 3.38q.632-.076 1.262 0l17.704 2.213a5.2 5.2 0 0 1 4.586 4.968l1.868 33.002.001.023A5.71 5.71 0 0 1 101.527 49l-19.945 9.313a3.6 3.6 0 0 1-1.543.344M57.923 43.701a3.05 3.05 0 0 0 1.759 2.875l19.945 9.314a.97.97 0 0 0 .823 0l19.946-9.315a3.05 3.05 0 0 0 1.759-2.874l-1.869-33-.001-.022a2.54 2.54 0 0 0-2.242-2.433L80.34 6.033a2.5 2.5 0 0 0-.609.001L62.04 8.247a2.54 2.54 0 0 0-2.249 2.456L57.922 43.7z"/><path fill="#fff" d="m83.279 24.075.108 19.54-2.881-.003-.001-29.2 12.066 19.677-.447-18.923 2.724.004.855 29.292z"/><path fill="#fff" fill-rule="evenodd" d="M65.392 43.77c-.39 0-.78 0-1.123-.131l.098-3.042c.348.16.73.233 1.112.217 3.4.003 5.896-2.362 5.957-5.767.09-4.897-5.845-6.555-5.665-12.618.14-4.62 3.785-7.675 8.238-7.671h.205l-.035 2.585h-.205c-2.915-.003-5.346 2.012-5.421 5.088-.11 4.503 5.812 6.439 5.734 12.618-.064 5.124-3.701 8.725-8.895 8.721"/></g></svg>