<svg xmlns="http://www.w3.org/2000/svg" viewBox="0 0 1920 1920"><g fill="none" fill-rule="evenodd"><path fill="#cdbabe" d="M-1595 776h616.368l69.985-52 214.454 136.5h416.91q24.495-14 38.492-14t34.493 14l318.931-23q33.34 23 59.987 23 26.649 0 46.99-23L420.567 928q71.985-62.5 84.482-62.5t79.483 62.5L733 759l2 269-2330-11.5z"/><path fill="#e9a273" d="m1930 797.377-4.5 251.299a11245 11245 0 0 1-131.855 20.457c33.624 10.886 53.867 24.923 53.867 40.244 0 16.803-24.348 32.062-63.989 43.32 59.581 11.177 98.984 30.562 98.984 52.603 0 34.628-97.253 62.7-217.22 62.7-119.966 0-217.219-28.072-217.219-62.7 0-15.88 20.454-30.382 54.172-41.43-26.89-4.163-50.398-9.753-69.13-16.388l-.014-.005.013.005c1.62 3.206 2.461 6.5 2.461 9.857 0 34.628-89.642 62.7-200.221 62.7s-200.222-28.072-200.222-62.7q0-.832.069-1.658a10900 10900 0 0 1-411.959 24.785c11.68 6.128 17.946 12.62 17.946 19.339 0 37.663-196.855 68.195-439.688 68.195s-439.687-30.532-439.687-68.195c0-6.289 5.487-12.378 15.76-18.16h.014l-.011-.001.011.002q-205.796-8.223-412.957-24.89c-15.35 7.466-35.624 13.848-59.387 18.693-16.753 29.325-98.62 51.584-197.088 51.584-56.668 0-107.838-7.372-144.263-19.221-3.926 2.694-11.284 4.508-19.713 4.508-12.563 0-22.747-4.029-22.747-8.999 0-3.518 5.104-6.565 12.543-8.045-8.06-4.44-14.438-9.217-18.865-14.248-23.137 2.927-48.426 4.538-74.917 4.538-110.579 0-200.221-28.072-200.221-62.7 0-16.164 19.533-30.9 51.612-42.019a11101 11101 0 0 1-285.579-45.16v-75.44q619.615-7.777 843.88 0c224.265 7.776 556.174 109.367 1204.33 40.467 648.154-68.9 899.545-181.127 999.358-195.843q99.812-14.715 476.432-7.494"/><path fill="#e9a273" d="m545 994.359 40.994-108.984 30.996-161.977 57.492-20.997 6.499 55.992h40.994l28.496-151.978 49.493-85.488 81.988 6.499 5.999 45.493 34.995 13.498 49.993-255.463 68.99-224.968L1147.914 4l172.476 51.493 33.995 75.989 183.974 80.488v260.963l46.993-117.983 107.485-50.993h47.993l47.494-30.995 93.486 38.494 43.494 43.494v639.409z"/><path fill="#c07c68" d="m1726.572 303.85-95.965 405.795 21.992-29.485-40.486 162.918-444.339 37.98q39.486-338.829 111.46-338.829t44.484 209.395l55.98-252.873q42.984-55.472 94.465-55.472t63.977 29.485l46.983-117.94 107.461-50.975zm-372.187-172.368 15.498 6.499-90.487 288.959zM672.954 702.649l-33.488 44.477-39.486 246.376H545l40.985-108.445 30.989-161.919zM1147.782 4l-51.454 219.818q-7.245 5.237-8.025 8.567t3.364 11.344l-42.85 183.058 1.589-.903q49.515-35.33 49.515-27.94 0 7.5-70.99 188.973l.092-.743-.198.533-73.973 406.795H681.45l66.475-389.304 51.982-83.458 39.485 2.999-35.987 115.441-25.49 208.895q47.948-105.65 74.972-145.926 27.026-40.277 57.48-51.474l62.477-319.84 68.975-224.886z"/><path fill="#ae7261" d="m1788.05 272.865 93.466 38.48v242.378l-54.98 82.459-28.99-332.333h-31.488l-8.733 159.92-7.761-159.92h-8.997zM1235.25 401.3c-20.392 95.91-62.716 221.23-66.976 218.39-4.26-2.839 42.938-210.673 48.982-230.384 6.045-19.71 38.385-83.915 17.994 11.994M1369.7 137.933l168.44 73.962v260.87q-36.488-35.983-83.47-23.989-46.985 11.994-74.973 49.975l-51.36-36.79q-1.13-7.904-3.62-9.686-2.49-1.784-10.132-.165l-35.352-25.323zM1263.24 120.94q6.054 0 0 62.969 24.662 50.97 22.991 96.451c-1.67 45.48-25.66 125.544-31.488 134.932s15.135-63.774 13.495-105.947q-1.64-42.173-22.492-125.436 11.439-62.97 17.494-62.969m-74.473-104.447 56.98 16.491q-97.965 270.864-104.963 269.365-6.997-1.5 47.983-285.856m-68.475 475.76c2.724 0 6.997 71.798 6.997 107.946 0 36.149-2.948 73.463-4.498 73.463s-4.499-37.648-4.499-73.463-.724-107.946 2-107.946M680.95 758.121h40.985L681.45 998zm206.925-185.407 5.498 86.956 16.994-8.995 12.495-64.468zm804.708-268.865h33.988l-95.965 405.296z"/><path fill="#805559" d="M1075.308 73.965 893.374 994.002l-67.976-.5 67.976-333.832 16.994-8.995 24.49-129.935 36.987-201.898 69.975-212.893zm-275.4 446.775 39.485 2.999-13.495 42.978-77.972 37.481zm785.215-165.916 50.982-24.488-142.949 663.166h-138.95l80.551-249.426q8.648-4.864 10.417-9.444 1.77-4.579-.097-17.271z"/><path fill="#e9a273" d="m172 1028.462 271.461-1.5-40.494-121.983-7.999-119.983L374.471 760l-47.993 20.497-36.995 55.492-58.491-4.999-24.997 138.48z"/><path fill="#c07c68" d="m349.475 770.499 17.497 18.997 9.499 196.972-18.497-54.992-16.998 5.499-22.497-31.496-18.497 5.5-9.999 117.483H172l33.495-58.492 25.497-138.98 58.491 4.999 36.995-55.492z"/><path fill="#805559" d="m299.898 910.956-9.499 117.484h-48.493l17.998-92.987zm-39.495-77.49 28.996 2.5q-60.14 101.865-66.99 107.986c-6.851 6.12 20.34-47.865 29.496-74.49q9.156-26.625 8.498-35.995m83.489-60.49-5 120.983V774.976z"/><path fill="#ae7261" d="m311.243 907.225 6.987-1.996 2.496 3.494-4.492 107.3zm37.93-136.745L374.127 760l20.462 24.953-27.948 4.492z"/><path fill="#e9a273" d="M-256 1028.339q48.78-149.955 85.488-198.972 36.706-49.017 81.988-24.497l30.996-90.487q124.483-80.488 137.98-63.49c7.02 8.838 26.497 109.984 40.495 264.462q3.791 41.838 43.993 112.984z"/><path fill="#b3704d" d="m-165.013 1023.84 32.995-137.981h40.995l34.495 142.48h29.995Q3.841 936.44-7.126 915.429c-2.909-5.573 1.362-7.774 1.941-11.054Q7.86 830.541 13.36 806.103c.384-1.71-2.269-3.637-1.898-5.232.453-1.951 3.927-3.542 4.36-5.323q8.61-35.458 17.137-60.668 29.239-86.456 56.492-53.492-2.71-12.19-4.5-18.497-1.788-6.309-4.999-14.998-10.427-4.414-46.993 12.998-36.565 17.412-89.487 51.992l-31.996 91.987q-47.982-23.414-81.988 21.997T-252.5 1023.84z"/><path fill="#ae7261" d="M71 697.84c2.725 0 7 71.76 7 107.89s-2.949 73.423-4.5 73.423S69 841.526 69 805.73c0-35.796-.725-107.889 2-107.889m-185.5 187.807h8.5l-4.5 108.888z"/><path fill="#805559" d="M43.458 656.883Q9.316 683.71-5.036 711.875T-36.53 813.86q-33.955-13.976-52.493 0-18.537 13.976-42.994 71.99l-33.995 142.48H-256q43.72-146.1 82.988-198.972 39.27-52.87 83.988-26.496l30.496-90.987q40.272-24.509 68.99-39.994 28.718-15.486 32.996-14.998M-91.023 885.85l52.492 142.48h-17.997z"/><path fill="#e9a273" stroke="#7e4e36" stroke-linecap="round" stroke-width="2.5" d="M1369.948 1031.676q1.843-25.348-2-31.936c-3.842-6.589-12.69-11.379-15.497-12.475s-1.605 6.618-7.5 3.493c-5.893-3.125-5.018-12.949-8.498-11.976s-2.703 12.608-4 15.469c-.773 1.707-3.268 4.582-5.499 5.489s-1.634-6.777-7.998 0c-6.365 6.776-3.08 16.36-7 15.968s-4.955-16.136-7.998-17.465-4.222 9.512-8 10.479-7.791-7.741-11.498-5.49c-3.706 2.253 2.043 11.408 0 12.476-2.042 1.068-6.799-11.206-10.498-6.986-3.7 4.22 1.724 17.167 0 18.962-1.724 1.796-6.468-6.986-11.998-6.986s-4.231 8.512-10.499 6.986c-6.267-1.526-8.975-3.366-9.998-11.976-1.024-8.61 6.499-9.474 6.499-17.465s-2.766-14.186-6.5-15.968-9.98 7.687-16.497 4.99-2.244-12.5-4-13.473q-1.755-.975-4.999 8.483-8.108-16.368-12.998-8.483c-4.89 7.884.76 27.375 0 29.44-.76 2.067-5.648-9.634-8.999-4.99-3.35 4.646 1.121 15.764 0 17.466s-9.715-6.33-11.498 0 8.373 14.14 6.999 15.968c-1.374 1.829-9.468-5.409-15.998-3.992s-1.4 11.209-6.499 8.982-2.996-15.968-9.498-15.968c-6.503 0-10.648 15.968-15.998 15.968s-2.729-14.422-6-15.968-7.07 9.545-12.998 6.986c-5.927-2.558-2.89-13.017-5.499-14.97s-8.436-4.149-14.498 0-.27 10.614-3 11.976c-2.728 1.362-9.757-8.305-12.997-3.992s6.514 13.458 3.999 15.968-15.482-3.305-19.997 0 7.423 8.931 5 10.978-16.272-4.824-17.998 0 13.507 11.938 12.998 13.972c-.51 2.035-5.329-4.116-16.498 0-11.169 4.117-14.663 6.164-15.998 11.977-1.334 5.812 10.499 7.623 10.499 11.976q0 4.353-42.494 34.431M1472.584 990.018c28.503-31.187 57.911-70.005 64.49-74.355q12.087-7.99 41.995 0 95.25-92.147 140.48-76.352t20.997 145.717"/><path fill="#7e4e36" d="M1645.56 873.81c1.845-8.858-15.437 27.08-20.998 43.494-5.56 16.414-17.317 63.154-9.998 47.994s29.15-82.629 30.995-91.487"/><path fill="#e9a273" stroke="#7e4e36" stroke-linecap="round" stroke-width="2.5" d="M1157.479 1093.504q-7.367-9.814-5-11.999c2.367-2.184 11.412 6.952 17.998 0 6.585-6.951-1.32-17.218 0-18.997s4.467 6.84 11.498 3.5 4.977-12.251 8.499-12.998c3.522-.748 2.151 11.869 7.999 9.498 5.847-2.37 3.413-16.997 9.498-16.997 6.086 0 7.635 16.997 14.498 16.997s10.2-16.997 13.498-16.997-3.683 15.463 0 16.997 12.334-12.802 17.998-9.498c5.663 3.303-3.699 15.97 0 19.997s21.056-2.063 22.497 4.499q1.44 6.562-17.998 15.998"/><path fill="#e9a273" d="M0 1176q617.868-131.018 953.434-131.018H1920V2670H0z"/><path fill="#c07c68" d="M1384.751 1261.634q8.145 3.687 29.702 0c21.556-3.687 40.645-9.015 67-16.54s48.86-11.473 48.86-16.539q0-5.067-48.86-13.807h-71.701zm-607.373 290.723q136.714-10.248 207.607-20.538 70.893-10.289 144.284-30.533 469.242-47.388 469.242-56.738c0-9.35-165.356-5.25-165.356-14.007s345.223-54.889 318.354-75.361q-26.869-20.474-476.15-44.87h-56.221v134.238z"/><path fill="#000" d="M1284.333 1282.802c2.165 3.416 4.115 10.288 1.66 11.878-1.81 1.174-5.32-1.067-7.877-3.646q-8.669 7.083-9.133 6.594-.466-.49 7.373-8.627a12 12 0 0 1-.488-.711c-2.09-3.296-3.616-9.966-1.226-11.516 2.39-1.549 7.526 2.613 9.691 6.028m-50.763-237.015c1.783 0 3.228 5.06 3.228 11.3s-1.445 11.3-3.228 11.3c-1.604 0-2.934-4.092-3.186-9.455l-12.967-.96v-2.687h12.965c.247-5.385 1.58-9.498 3.188-9.498m-18.631-77.336c3.072-.542 6.317 3.29 7.245 8.557.93 5.268-.809 9.978-3.882 10.52-2.643.466-5.414-2.305-6.727-6.442l-9.158 2.972v-2.012l8.54-3.713c-.687-5.005 1.033-9.362 3.982-9.882m-34.297-88.42c2.797 1.669 6.333 6.928 5.242 8.525-.79 1.158-4.549.964-7.547.18l-3.144 6.84-1.904-.448 1.48-7.971c-2.497-1.932-5.438-6.365-4.412-7.868 1.122-1.642 7.487-.929 10.285.741m-69.412-3.23c2.797 1.67 6.333 6.93 5.242 8.527-.79 1.157-4.549.963-7.547.18l-3.144 6.84-1.905-.449 1.481-7.97c-2.497-1.932-5.438-6.366-4.412-7.868 1.122-1.642 7.487-.929 10.285.74m-124.975-12.574c5.46-1.769 11.593-1.201 12.545.848s-3.373 7.845-7.96 9.02c-.783.2-1.6.34-2.422.422l-4.263 7.331h-3.005l4.52-7.264c-2.95-.152-5.499-1.025-6.134-2.392-.999-2.148 1.258-6.196 6.719-7.965m316.727 508.997c3.566 0 6.457 5.059 6.457 11.3 0 6.24-2.89 11.3-6.457 11.3-2.661 0-4.947-2.819-5.935-6.843q-8.715 4.164-8.715 3.046 0-1.085 8.205-6.767-.011-.367-.012-.737c0-6.24 2.891-11.3 6.457-11.3m-487.149-518.9c2.987-1.742 9.41-3.05 10.132-1.875.578.939-2.345 4.096-4.927 6.131q1.135 2.176.916 4.94c-.35 4.398-3.609 9.517-4.093 9.892-.483.375 1.666-4.879 1.367-7.778q-.21-2.034-1.494-5.057c-2.894 1.226-6.959 2.044-7.554 1.077-.708-1.152 2.666-5.589 5.653-7.33"/><path fill="#c07c68" d="m357.01 1337.055 82.511 15.254-26.512 4.87-47.469-4.87 32.725 10.235-39.275 9.191-59.346-5.393q-50.927 3.026-70.442 11.81c-19.515 8.782-15.728 21.783-11.53 27.683s46.543 25.167 161.762 67.432q115.218 42.265 373.678 127.645l80.404 62.973-74.893 23.783 7.035-37.057-47.875-46.14-224.149-75.072-153.403-56.132-128.65-54.482q-11.576-7.487-11.576-21.307t13.185-24.266q10.288-7.843 26.666-10.668 16.377-2.825 34.856-2.825h24.932v-22.664z"/><path fill="#e5b99a" d="m376.576 1158.256 417.236 61.381-16.434 332.72-275.955-64.812v-2.887l-104.605-27.538q-6.052-48.093-7.616-74.603-1.563-26.511-1.614-81.893z"/><path fill="#f0d6c3" d="M376.576 1158.256q172.26-14.722 258.586-24.328 86.326-9.608 192.255-25.845l391.285 40.329v9.844l-424.723 61.42z"/><path fill="#e5b99a" d="m823.245 1107.979-41.963-224.355 389.002 26.113 107.054 520.804-56.622-3.351-2.054-278.901z"/><path fill="#c0988b" d="m1277.338 1430.541 22.154-10.78-114.445-525.416-14.69 15.397z"/><path fill="#f0d6c3" d="m1185.047 894.345-14.702 15.404-389.063-26.125 22.428-14.672z"/><path fill="#c0988b" d="M436.036 1160.576q154.213-13.24 232.44-21.729 78.23-8.488 173.41-22.305l323.314 36.704-371.223 56.462z"/><path stroke="red" stroke-linecap="round" stroke-width="1.614" d="m856.761 1278.78 317.893-69.072-9.454 203.012-196.07 46.113q-3.36 5.012-32.195 12.189t-85.588 17.13z"/><path fill="#997366" d="m436.036 1160.576 358.04 49.132 100.957-16.51-41.01-75.375-12.025-1.281q-71.87 11.666-156.157 20.809-84.286 9.143-249.805 23.225"/><path fill="#b7897b" d="m1219.323 1148.218 1.432 278.973 56.583 3.35z"/><path fill="#d29f7a" d="M777.378 1552.357q108.129-20.98 191.508-41.153 83.378-20.173 251.96-66.331l-1.525-286.818-425.497 61.582z"/><path fill="#7a5c52" d="m1220.749 1426.406 56.589 4.135-56.492 14.263z"/><path fill="#e5b99a" d="m1333.72 1238.992 39.68-20.627 101.705-16.83q13.262 27.02 10.051 32.039t-82.826 9.593q-4.944-10.146-8.584-12.293c-3.64-2.145-8.026-3.493-16.427-2.452s-9.317 3.889-12.712 6.063q-3.394 2.175-7.465 6.864z"/><path fill="#e5b99a" d="M1351.393 1249.59q21.15 1.229 30.31-4.037 9.158-5.266 6.278-16.998 8.111.694 12.59 7.161c4.477 6.467 9.164 15.415 0 21.68-9.165 6.267-24.765 4.316-34.854 2.15q-10.089-2.166-14.324-9.955"/><path fill="#f0d6c3" d="M1475.105 1201.536q-44.475-27.363-51.481-25.879c-7.007 1.484-89.903 22.232-96.248 29.187-6.344 6.954-20.662 27.516-20.662 30.832q0 3.315 27.007 3.316l39.679-20.627zM1407.715 1673c15.601 0 28.249-5.42 28.249-12.107s-12.648-12.107-28.25-12.107-28.249 5.42-28.249 12.107 12.648 12.107 28.25 12.107M196.249 1556.464c15.602 0 28.25-5.42 28.25-12.107s-12.648-12.107-28.25-12.107S168 1537.67 168 1544.357s12.648 12.107 28.25 12.107m107.99-304.055c15.601 0 28.25-3.252 28.25-7.264s-12.649-7.264-28.25-7.264-28.25 3.252-28.25 7.264 12.648 7.264 28.25 7.264m817.756 377.007c11.144 0 20.178-3.614 20.178-8.072s-9.034-8.07-20.178-8.07-20.178 3.613-20.178 8.07 9.034 8.072 20.178 8.072m-840.191-53.581c11.144 0 20.178-3.614 20.178-8.072s-9.034-8.07-20.178-8.07-20.178 3.613-20.178 8.07 9.034 8.072 20.178 8.072m916.867 16.453c22.288 0 40.356-5.42 40.356-12.107s-18.068-12.106-40.356-12.106-40.356 5.42-40.356 12.106c0 6.687 18.068 12.107 40.356 12.107M298.39 1691.58c-15.601 0-28.249 5.421-28.249 12.107 0 6.687 12.648 12.107 28.25 12.107 15.6 0 28.248-5.42 28.248-12.107s-12.647-12.106-28.249-12.106m1211.466 116.537c-15.602 0-28.25 5.42-28.25 12.107s12.648 12.106 28.25 12.106 28.249-5.42 28.249-12.106c0-6.687-12.648-12.107-28.25-12.107m-107.99 304.054c-15.602 0-28.25 3.252-28.25 7.264s12.648 7.264 28.25 7.264 28.249-3.252 28.249-7.264-12.648-7.264-28.25-7.264M584.11 1735.165c-11.144 0-20.178 3.614-20.178 8.071 0 4.458 9.034 8.071 20.178 8.071s20.178-3.613 20.178-8.07-9.034-8.072-20.178-8.072m840.191 53.581c-11.144 0-20.178 3.614-20.178 8.071 0 4.458 9.034 8.071 20.178 8.071s20.178-3.613 20.178-8.07-9.034-8.072-20.178-8.072m-916.867-16.454c-22.288 0-40.356 5.42-40.356 12.107s18.068 12.107 40.356 12.107 40.356-5.42 40.356-12.107-18.068-12.107-40.356-12.107"/><path fill="#1e292d" d="m274.712 1359.719 26.065 9.634 58.213 2.382v-17.103l-48.814-6.928 48.814-2.187v-17.272l-55.035-6.188-29.243 11.19q-48.187 0-71.12 14.457c-22.933 14.458-32.533 36.327-34.168 42.422-1.636 6.095-5.017 21.47 8.085 38.064q13.102 16.593 43.36 27.09 122.876 50.961 210.9 83.322 88.026 32.361 264.205 91.343l59.213 57.723h3.436l7.035-37.057-47.875-46.14q-196.389-63.91-292.765-99.608c-96.376-35.699-209.32-81.41-218.053-89.6s-11.05-27.955 4.918-41.046q15.967-13.091 62.83-14.498"/><path stroke="#997366" stroke-linecap="round" stroke-width="1.614" d="m793.812 1209.708 16.875 4.302-2.931 83.977-2.385 81.107-3.121 87.002-3.904 82.73"/><path stroke="#997366" stroke-linecap="round" stroke-width="1.614" d="m382.313 1222.998 406.81 78.686 18.91-5.917M805.28 1379.141l-19.164 5.98-397.518-86.511M388.598 1379.573l392.684 91.132 20.968-5.711M870.988 1198.493l26.751 6.295-19.199 327.313M964.822 1183.908l24.42 7.826-18.639 319.03M1058.491 1488.152l3.622-307.082-26.477-7.871M1111.69 1161.063l32.686 8.259-1.646 296.567M1207.297 1448.439v-290.388l-43.447-5.029M904.124 1116.542l-50.179-227.191 25.09-14.141M953.246 880.191l-19.126 13.808 53.041 230.621M1063.957 1132.365l-51.619-232.697 20.277-14.22M1115.668 891.114l-21.573 13.919 52.027 236.167"/><path stroke="#000" stroke-linecap="round" stroke-width="1.614" d="M1186.432 1068.496q-5.407 5.157-6.106 10.034-.7 4.878 1.675 14.38M1173.405 992.6q-8.882 3.18-13.641 2.65t-13.642-5.69M1146.122 942.417l12.551-17.435M1077.764 910.831l-10.155 10.779M964.017 904.424q-2.7 4.233-3.376 8.812t0 14.085M949.98 901.342q-6.628 6.461-10.304 8.407-3.677 1.947-10.304 2.505M798.237 901.342q-7.605 4.732-11.942 5.456-4.34.725-11.943-1.47M801.07 925.287q-7.29 1.636-10.96 3.513-3.668 1.879-10.959 7.702M812.146 971.365q-8.355 3.808-12.926 4.626-4.572.819-12.925 0M833.269 1077.062q-6.984 3.606-11.752 4.41-4.767.806-14.387 0"/><path stroke="#997366" stroke-linecap="round" stroke-width="1.614" d="m1203.311 1230.097 16.012-1.87M1219.323 1310.309l-15.269 3.041M1220.749 1385.587l-16.695 3.001"/><path stroke="#000" stroke-linecap="round" stroke-width="1.614" d="M1257.237 1418.714q-4.794 7.44-6.292 11.827-1.497 4.387-2.615 14.263M1255.075 1405.512q-6.993 4.209-11.072 5.16-4.08.95-11.07 0M1244.003 1313.35l-16.03 6.26"/><path fill="#f0d6c3" d="m859.276 1276.636 315.378-62.401-9.454 196.983q-80.804 21.967-143.18 37.258-62.378 15.29-170.673 39.676z"/><path fill="#5c453d" fill-rule="nonzero" d="M916.095 1301.985c3.222-.726 7.807-1.707 11.036-2.916.373-.13.993-.306 1.01-1.514l.1-6.821c.008-.483-.603-.912-1.158-.87-1.728.078-5.312.62-8.899 1.282-4.39.811-8.844 1.816-10.022 2.215-1.798.575-2.43 1.48-2.519 2.95-.898 15.445-1.306 30.98-.962 46.186.04 1.143.593 1.518 1.715 1.294l20.135-4.14c1.06-.212 1.692-.94 1.71-2.147l.101-7.001c.006-.363-.364-.53-.738-.457l-12.013 2.425.183-11.03 7.955-1.721c.87-.169 1.183-.41 1.506-1.316.716-2.307.655-6.512.544-7.394-.053-.532-.726-1.066-1.408-.936l-8.438 1.73zm27.227-13.264c.017-1.382-.41-1.783-1.77-1.531l-7.173 1.326c-1.484.274-2.048.92-2.066 2.185-.584 15.264-.81 31.302-.836 46.46-.015 1.085.663 1.49 1.785 1.266l20.072-4.126c1.185-.237 1.752-.947 1.764-2.144l.068-6.64c.007-.658-.364-.824-.986-.702l-11.764 2.376zm25.974 3.271c3.221-.724 7.805-1.703 11.03-2.901.371-.13.99-.305.998-1.49l.041-6.703c.003-.475-.612-.894-1.168-.85-1.73.082-5.315.625-8.901 1.288-4.39.81-8.844 1.812-10.02 2.208-1.795.57-2.421 1.462-2.497 2.908-.768 15.178-1.042 30.444-.568 45.384.05 1.123.607 1.49 1.73 1.265l20.134-4.138c1.06-.211 1.686-.929 1.693-2.115l.042-6.879c.002-.356-.37-.52-.744-.446l-12.012 2.424.088-10.838 7.953-1.718c.87-.168 1.182-.407 1.498-1.298.697-2.269.6-6.4.481-7.266-.058-.523-.737-1.045-1.419-.915l-8.437 1.728zm14.921-12.925c-.618.174-.808.92-.75 1.441l7.46 44.635c.122.862.492 1.497 1.303 1.335 1.932-.445 9.1-1.758 12.217-2.615.686-.196 1.434-.404 1.686-1.865l7.7-46.936c.124-.727-.741-1.095-1.421-.969-1.237.229-6.802 1.08-7.977 1.474-.495.15-.742.314-.805.914-1.202 10.348-2.599 22.153-4.182 32.708l-.746.027-4.35-30.841c-.12-.863-.737-.867-1.294-.764-.989.183-7.418 1.134-8.84 1.456m43.235 2.002c3.22-.722 7.803-1.7 11.021-2.886.372-.128.99-.302.986-1.465l-.023-6.572c-.001-.465-.622-.875-1.178-.83-1.732.087-5.319.633-8.905 1.296-4.39.81-8.841 1.808-10.016 2.201-1.793.566-2.412 1.442-2.474 2.86-.624 14.887-.754 29.86-.137 44.509.062 1.101.623 1.458 1.745 1.234l20.133-4.136c1.06-.211 1.681-.917 1.677-2.08l-.025-6.745c0-.349-.375-.508-.749-.435l-12.011 2.423-.016-10.628 7.952-1.715c.87-.168 1.18-.403 1.488-1.278.676-2.227.54-6.277.412-7.127-.063-.512-.748-1.022-1.43-.892l-8.436 1.726zm35.33 5.497c.002.173-.246.278-.31.06l-6.152-19.548c-.316-1.042-.874-1.113-1.492-1.056-.867.044-2.042.203-3.278.432-2.597.48-5.502 1.248-6.305 1.57-.865.335-1.355 1.414-1.412 2.645-.695 11.697-.612 31.679.121 43.102.068 1.323.758 2.174 1.882 2.298.375.1 1.31-.087 2.37-.299 1.558-.311 3.365-.73 4.549-1.082.56-.228.995-.547 1.115-1.44.528-5.61-.29-17.27-.131-22.11-.003-.405.12-.602.244-.684.186-.094.249-.048.312.114l6.991 21.202c.44.433.94.564 1.627.6.687-.021 2.37-.357 4.115-.706 1.745-.348 3.49-.696 4.113-.936.995-.429 1.05-1.304 1.105-2.064.572-12.5.412-29.923.092-44.495-.067-.62-.441-.84-1.122-.83-.929.057-6.185 1.029-7.297 1.35-.925.402-1.29 1.22-1.284 2.144zm20.81 20.242c.012 1.088.64 1.365 1.263 1.24l8.165-1.63c1.184-.236 1.553-.767 1.533-2.251-.061-4.737-1.172-32.964-.469-36.244 1.3-.3 3.718-.526 5.576-.875 1.177-.22 1.358-.597 1.528-1.714.098-1.845.296-5.364.28-6.445s-.578-1.434-2.062-1.16l-23.182 4.685c-.99.183-1.233.63-1.227 1.205.004.402-.123 6.585-.115 7.39s.63.917 1.434.766l6.38-1.198zm19.589-49.605c-.803.205-1.166.843-.907 1.65l10.809 27.632c.088 1.632.502 11.676.544 14.285.013.793.335 1.355 1.208 1.237 1.872-.26 5.862-1 7.917-1.523.56-.169 1.053-.607 1.036-1.568l-.07-14.218c2.034-8.044 5.646-21.131 9.054-31.155.411-1.15-.033-1.633-.9-1.53-1.98.254-6.801 1.258-8.037 1.543-.554.216-1.17.443-1.342 1.268l-3.912 17.757-.744.142-4.432-16.045c-.201-.93-.515-1.156-1.32-1.064-2.352.264-7.854 1.338-8.904 1.589m-186.528 94.36c.01-.614-.264-.966-.895-.906-1.121.09-3.508.505-5.755.96-2.458.496-4.776 1.033-5.202 1.392-.357.345-.502.647-.51 1.057l-.982 53.989c-.016.89.893 1.372 1.601 1.217 1.416-.241 8.144-1.508 9.496-2.143.783-.375 1.145-.93 1.226-1.558.484-3.705.908-47.057 1.021-54.008m26.532 19.157c-.002.203-.285.33-.352.074l-6.52-22.808c-.334-1.215-.963-1.29-1.664-1.216-.981.063-2.315.265-3.72.549-2.948.596-6.253 1.535-7.169 1.923-.986.403-1.566 1.673-1.658 3.116-1.054 13.713-1.419 37.123-.85 50.495.046 1.55.808 2.535 2.077 2.665.422.11 1.485-.122 2.69-.385 1.771-.388 3.827-.905 5.175-1.335.64-.275 1.14-.655 1.295-1.702.726-6.578.067-20.223.356-25.895.006-.474.15-.707.292-.805.213-.112.282-.06.35.13l7.433 24.73c.488.5 1.052.646 1.829.679.778-.035 2.69-.454 4.675-.887 1.984-.434 3.968-.868 4.678-1.157 1.136-.517 1.218-1.543 1.298-2.434.928-14.641 1.14-35.036 1.105-52.09-.063-.726-.48-.978-1.251-.956-1.052.078-7.022 1.286-8.287 1.677-1.057.483-1.489 1.446-1.502 2.527zm47.123 1.214c-.424.09-.775-.3-.702-.78.737-6.87 1.48-15.264 2.632-21.216.071-.28.775-.426.844-.175 1.241 6.381 1.918 13.607 2.598 20.098.07.516-.356 1.005-.78 1.095zm18.762 14.573c.638-.14 1.135-1.041 1.066-2.083-1.396-12.715-4.11-33.234-7.378-48.71-.139-.833-.415-2.433-2.662-2.177-4.353.681-9.758 1.441-14.747 2.982-1.475.498-1.621 1.526-1.98 2.73-1.725 7.014-3.112 15.43-4.142 22.578-1.545 9.996-3.097 20.402-3.943 30.329-.082 1.486 1.194 1.14 1.69 1.099 1.415-.043 8.147-1.514 9.282-2.095 2.341-1.11 2.083-6.173 2.45-8.779.073-.614.498-.905 1.135-1.042 1.91-.413 4.457-.896 6.155-1.395.425-.092.778-.035.847.348.417 2.297.335 5.564.753 7.463.139.765.562 1.137 1.484.935zm34.672-19.09c.06-2.759.036-8.378.165-11.218-.004-.98.7-1.456 1.689-1.665 3.881-.82 6.159 2.156 6.39 5.695.243 5.363-2.369 6.839-6.895 8.075l-.212.046c-.778.168-1.133-.148-1.137-.932m6.923-29.421c.02 3.846-1.587 6.661-4.899 7.352-1.268.265-1.833.186-2.19-.851-.286-.856-.452-7.036-.317-8.372.065-1.387.907-2.017 2.806-2.407 2.673-.548 4.584 1.28 4.6 4.278m-19.245-8.626c-.246 16.658-.21 33.785.32 50.278.003 1.181.572 1.779 1.776 1.516 1.559-.341 12.754-2.853 14.88-3.448 10.41-2.991 16.231-11.996 15.748-19.627-.178-4.707-2.682-8.794-7.853-10.962l2.736-2.722c4.965-6.174 4.192-15.18-1.112-18.716-3.955-2.521-9.227-2.303-14.633-1.21-3.441.695-6.88 1.718-10.04 2.684-1.264.387-1.824 1.026-1.822 2.207m51.47-12.444c12.008-2.428 17.043 5.167 17.311 24.589.264 19.037-4.674 26.932-15.87 29.382-16.088 3.52-17.694-10.808-17.787-22.349-.145-18.09 4.338-29.193 16.346-31.622m39.117-7.782 9.902-2.003c.842-.17 1.34.047 1.072.737-3.216 8.803-6.562 18.798-9.592 27.279l9.658 23.043c.298.699-.115 1.362-.895 1.533l-9.424 2.06c-1.56.34-2.135-.045-2.428-.556-1.348-3.989-2.871-10.054-3.795-14.397l-.707.15c-.732 2.91-2.645 11.9-3.935 15.704-.407 1.242-.755 1.703-1.96 1.966-2.976.651-5.953 1.238-8.932 1.696-1.418.246-1.863-1.136-1.522-2.176 3.063-9.469 6.623-18.192 9.255-26.766l-9.571-22.23c-.216-.341-.018-1.282.825-1.452 1.264-.256 7.793-1.705 10.321-2.216 1.054-.213 1.268 0 1.564.836l4.404 14.777.634-.132 3.673-16.282c.198-.807.61-1.4 1.453-1.571m-39.145 18.127c-3.377.694-4.189 4.095-4.04 18.688.117 11.558 1.433 15.48 5.111 14.687 3.042-.656 4.26-5.63 4.132-16.636-.154-13.13-1.616-17.476-5.203-16.739m-174.127 114.698c-.732.168-1.16-.33-1.183-1.128-.049-1.388.172-3.571.04-4.416-.03-.307-.17-.625-.461-.665-.328-.03-4.716.962-5.156 1.132-.256.093-.48.319-.593.59-.116.341-.182 1.933-.264 2.442-.707 6.713 1.767 9.018 7.337 7.738 4.213-.968 7.588-4.255 7.973-7.797.804-6.879.443-20.68.541-22.27.006-.386-.2-1.073-.637-1.08-.618.031-4.01.817-5.179 1.18-.366.151-.59.48-.602 1.217-.199 5.252-.016 11.605-.289 16.909-.057 1.236.017 3.28-.295 4.47-.16.84-.682 1.553-1.232 1.678m21.346-28.464c-.183.04-.367.22-.37.43.027.689-.157 5.943-.173 7.093-.059 4.15-.19 8.315-.249 12.464-.016 1.15-.267 3.432-1.951 3.816-1.72.392-1.725-1.799-1.817-2.96-.32-5.53.2-13.65.208-19.114.006-.349-.172-.658-.646-.553-1.059.34-3.83.918-4.634 1.166-.694.223-.847.71-.856 1.305-.072 4.582-.097 10.826-.217 16.186-.203 8.271 2.054 10.994 7.843 9.665 5.715-1.313 8.105-5.227 8.142-13.596.036-5.455.22-11.152.292-16.545.004-.348-.248-.535-.503-.479zm14.71 1.796c1.46-.325 1.888.444 1.856 3.218-.006.589.246.844.757.73 1.169-.263 3.104-.662 4.164-.934.475-.107.881-.647.886-1.097.063-5.987-2.276-8.438-7.126-7.33-5.434 1.237-7.814 5.3-7.725 9.685.13 6.835 9.095 7.268 9.047 11.464-.017 1.421-.907 2.627-1.822 2.836-1.574.359-2.11-.592-2.07-3.924.007-.59-.209-.853-.794-.72-.987.223-3.145.678-3.803.827-.951.216-1.32.542-1.332 1.411-.086 6.644 2.587 8.977 8.23 7.68 4.36-1 7.545-5.012 7.738-9.51.34-8.05-9.437-7.336-9.375-12.439.011-.971.566-1.718 1.37-1.897m12.956 19.725c-.006.657.358.814.724.73l4.8-1.102c.696-.16.918-.486.926-1.382.025-2.862-.264-19.897.19-21.89.767-.206 2.19-.386 3.284-.63.694-.154.805-.385.92-1.064.082-1.118.245-3.25.25-3.904s-.321-.857-1.196-.663l-13.679 3.27c-.583.128-.732.403-.735.749-.003.242-.151 3.969-.156 4.453s.358.541.833.436l3.76-.84zm28.618-15.281c-.22.05-.4-.149-.363-.396.384-3.54.771-7.866 1.37-10.94.038-.145.403-.226.439-.098.64 3.274.987 6.988 1.337 10.324.035.266-.186.52-.405.57zm9.696 7.38c.33-.077.587-.545.553-1.082-.708-6.553-2.093-17.118-3.775-25.066-.071-.428-.214-1.25-1.38-1.094-2.26.398-5.068.849-7.659 1.696-.766.272-.842.802-1.028 1.425-.895 3.622-1.614 7.96-2.147 11.64-.799 5.146-1.6 10.5-2.034 15.601-.042.763.618.578.874.553.732-.03 4.212-.83 4.8-1.136 1.21-.586 1.078-3.188 1.268-4.531.038-.317.258-.47.588-.545.988-.225 2.306-.492 3.185-.76.22-.05.402-.024.438.173.214 1.18.17 2.863.385 3.839.07.393.29.582.766.472zm8.916-24.794c1.095-.244 2.116-.132 2.77 1.217.692 1.34.944 3.966.94 6.514-.004 2.175.063 5.997-.854 7.666-.44.78-1.247 1.44-2.418 1.775-.293.1-.66.184-1.06-.405-.067-2.67-.17-5.3-.165-7.92.005-2.075.087-5.732.091-7.842.002-.578.258-.907.696-1.005m-5.86-4.109c-.73.298-.986.764-.989 1.514l-.085 25.706c-.002.546.583 1.025 1.205.916a40 40 0 0 0 2.711-.52c3.37-.775 8.684-2.436 10.738-5.52 1.832-2.724 2.53-7.358 2.605-11.747.002-3.628-.507-7.073-1.382-9.014-1.638-3.57-7.253-3.312-11.264-2.424-1.277.282-2.48.685-3.539 1.09m24.804-.115c1.095-.244 2.118-.134 2.777 1.205.696 1.33.955 3.94.96 6.473.002 2.16.081 5.959-.831 7.619-.439.775-1.243 1.432-2.415 1.767-.292.1-.658.184-1.062-.4-.075-2.655-.187-5.268-.189-7.871-.001-2.063.07-5.697.067-7.793 0-.575.255-.902.693-1m-5.876-4.075c-.73.297-.985.76-.985 1.505l-.006 25.546c0 .543.586 1.018 1.209.909a41 41 0 0 0 2.71-.521c3.371-.775 8.683-2.433 10.729-5.5 1.825-2.71 2.51-7.316 2.571-11.678-.01-3.605-.53-7.028-1.41-8.955-1.651-3.546-7.27-3.281-11.28-2.394-1.277.283-2.48.685-3.538 1.088m30.963-6.82c.912-.136 1.095.025 1.173.847.195 2.405 1.606 13.29 1.831 14.212l.403-.057 1.885-15.538c.07-.384.252-.525.58-.598l3.537-.883c.401-.089.658.022.696.28.684 3.83 1.35 10.136 2.26 14.747l.512-.15 1.205-15.277c.034-.408.179-.54.543-.655 1.093-.375 3.463-1.034 4.74-1.183.95-.143.842.18.775.83-.19 3.444-2.361 20.051-3.117 26.5-.034.309-.434.835-.836.994-.183.109-.842.26-1.575.429-1.246.286-2.821.614-3.335.699-.44.067-.808-.183-.884-.533l-2.537-12.51-.183.041-2.042 13.595c-.07.485-.436.736-.692.829-.586.201-1.502.445-2.417.655-.916.21-1.87.396-2.492.472-.403.06-.77.11-.846-.477l-3.703-25.396c-.075-.487.325-.845.544-.927.51-.18 2.99-.83 3.975-.947m32.749-7.318c1.168-.159 1.323.638 1.4 1.052 1.804 7.7 3.349 17.94 4.156 24.293.042.521-.21.978-.54 1.053l-5.165 1.187c-.476.109-.699-.073-.776-.454-.23-.945-.21-2.578-.442-3.722-.039-.19-.223-.215-.442-.165-.878.267-2.196.534-3.185.76-.33.075-.548.225-.582.532-.17 1.304 0 3.829-1.206 4.405-.585.301-4.065 1.1-4.799 1.135-.257.026-.916.21-.885-.53.361-4.953 1.087-10.154 1.812-15.152.481-3.575 1.139-7.788 1.985-11.308.177-.606.245-1.121 1.01-1.39 2.587-.84 5.397-1.295 7.659-1.696m18.416-4.11c.876-.193 1.207-.002 1.216.623.009.626-.109 2.667-.167 3.737-.101.65-.208.873-.901 1.027-1.096.244-2.52.43-3.287.634-.414 1.912.24 18.205.276 20.943.012.857-.205 1.172-.9 1.331l-4.8 1.103c-.367.084-.736-.063-.743-.691l-.546-20.891-3.76.839c-.474.105-.84.054-.846-.41-.005-.463.065-4.03.062-4.261-.004-.331.14-.595.723-.725zm-22.391 12.41c-.556 2.986-.882 7.186-1.215 10.623-.034.24.151.431.37.382l2.378-.54c.22-.05.437-.298.398-.555-.4-3.236-.802-6.837-1.493-10.008-.038-.125-.403-.043-.438.098m31.668-8.795c1.897-.49 4.597-1.157 6.49-1.908.219-.082.583-.196.572-.851l-.061-3.702c-.004-.262-.374-.477-.703-.437-1.023.095-3.14.498-5.255.966-2.589.573-5.213 1.253-5.905 1.505-1.055.366-1.414.875-1.44 1.673-.246 8.375-.2 16.785.284 24.996.045.617.379.805 1.038.653l11.833-2.783c.623-.143.984-.555.973-1.21l-.063-3.8c-.004-.196-.225-.277-.445-.227l-7.064 1.644-.092-5.977 4.68-1.158c.511-.115.692-.255.868-.755.383-1.271.272-3.549.19-4.024-.04-.287-.448-.557-.85-.467l-4.968 1.182zm15.87-4.065c2.405-.733 3.553-.137 3.811 1.935.391 3.22-.174 6.361-3.647 7.113zm-5.35 23.532c.404-.027.88-.137 1.393-.254 1.063-.245 2.27-.588 3.26-.815.403-.092.846-.03.939-1.003.124-1.274-.025-7.472.001-8.036l.769-.141 2.824 7.615c.117.3.413.396.816.304l5.53-1.401c.512-.118.543-.42.467-.565-1.187-2.344-2.608-5.39-4.031-8.7 2.587-2.94 4.004-5.516 3.818-9.332-.312-6.436-4.294-7.745-10.967-6.268-1.386.307-3.172.768-4.302 1.05-1.02.292-1.812 1.092-1.794 2.14l.604 24.772c.007.425.085.67.673.634"/></g></svg>