<svg xmlns="http://www.w3.org/2000/svg" viewBox="0 0 1220 544"><g fill="none" fill-rule="evenodd" transform="translate(20 20)"><ellipse cx="590" cy="252" fill="#fff" stroke="#0e233f" stroke-linecap="round" stroke-width="20" rx="600" ry="262"/><ellipse cx="590" cy="252" fill="#9d181d" rx="575" ry="240"/><path fill="#fff" fill-rule="nonzero" d="m305.637 385.986 11.257 3.152q3.17.887 5.668 2.604t4.003 4.138q1.503 2.42 1.918 5.48t-.604 6.7l-4.963 17.728q-1.02 3.64-2.963 6.04t-4.495 3.721q-2.55 1.32-5.579 1.491-3.028.17-6.196-.717l-11.257-3.152zm3.657 5.894-10.683 38.153 6.202 1.736q2.157.604 4.214.526a8.7 8.7 0 0 0 3.807-1.006q1.75-.927 3.116-2.69 1.365-1.761 2.12-4.458l4.813-17.189q.774-2.763.522-4.979-.252-2.215-1.285-3.849-1.032-1.633-2.75-2.769-1.718-1.134-3.875-1.739zm-36.501-16.133 4.665 1.5 5.372 40.253.066.021 11.223-34.92 4.731 1.52-14.992 46.65-4.665-1.499-5.433-39.833-.067-.021-11.094 34.521-4.798-1.542zm-12.32-4.147 4.82 1.697-16.274 46.219-4.82-1.698zm121.703 32.28q2.47.508 4.556 1.651 2.088 1.144 3.505 3.115 1.417 1.97 1.945 4.794.527 2.824-.124 6.692l-4.94-.657q.495-2.757.184-4.715-.313-1.958-1.191-3.246a6.4 6.4 0 0 0-2.193-2.023 9.6 9.6 0 0 0-2.754-1.03q-3.086-.635-5.57.499t-3.118 4.219l-.098.48q-.41 1.988.056 3.727.465 1.74 1.438 3.261a18 18 0 0 0 2.332 2.91q1.359 1.386 2.793 2.753a407 407 0 0 1 3.434 3.457 19.6 19.6 0 0 1 2.932 3.818 15.2 15.2 0 0 1 1.747 4.54q.53 2.466-.105 5.552l-.253 1.234q-1.058 5.143-5.105 7.455-4.05 2.313-10.014 1.087-2.743-.564-4.912-1.831a10.6 10.6 0 0 1-3.559-3.375q-1.389-2.109-1.825-5.2-.437-3.09.271-7.233l4.939.658q-.525 3.25-.228 5.456.296 2.205 1.148 3.63.85 1.425 2.157 2.194 1.308.769 2.816 1.079 3.77.774 6.229-.578 2.457-1.353 3.077-4.37l.113-.549q.45-2.195 0-4.002-.45-1.808-1.471-3.446a19 19 0 0 0-2.434-3.109q-1.413-1.47-2.834-2.905a145 145 0 0 1-3.235-3.38 22 22 0 0 1-2.856-3.838 15.6 15.6 0 0 1-1.761-4.471q-.544-2.4.048-5.279l.24-1.165q.957-4.663 4.943-6.845 3.986-2.183 9.677-1.013m-44.455-9.179 4.967 1.2-8.504 35.178q-.97 4.014.614 6.845 1.584 2.832 5.19 3.704 3.606.87 6.309-.924 2.702-1.795 3.673-5.81l8.503-35.176 4.967 1.2-8.553 35.381q-.756 3.13-2.327 5.307t-3.674 3.433-4.666 1.573q-2.56.317-5.35-.358-2.722-.657-4.856-2.11t-3.465-3.538-1.735-4.74.354-5.784zm90.39 18.209 12.056 1.732q6.722.966 10.154 4.64 3.432 3.676 2.526 9.982l-.717 4.988q-.646 4.505-3.218 7.14-2.57 2.637-6.56 3.336l6.022 20.596-5.682-.816-5.677-19.556-1.039-.15-7.137-1.025-2.638 18.362-5.058-.727zm-30.75-5.172 25.862 4.49-.802 4.62-10.414-1.807-7.578 43.657-5.035-.874 7.578-43.657-10.414-1.808zm35.141 10.54-2.986 20.787 6.79.976q4.642.668 7.416-.915 2.773-1.582 3.4-5.947l.597-4.157q.657-4.573-1.563-6.837t-6.863-2.93zm29.166-.753 5.072.618-5.925 48.64-5.073-.617zm33.53 48-.463 4.668-24.729-2.455 4.84-48.76 24.66 2.448-.464 4.667-19.574-1.943-1.742 17.553 18.668 1.853-.463 4.668-18.669-1.854-1.708 17.206zm17.85 6.776q-2.792-.198-5.11-1.169a10.6 10.6 0 0 1-3.971-2.878q-1.655-1.905-2.495-4.913t-.683-7.206l4.983.002q-.093 3.291.492 5.438.584 2.146 1.616 3.448 1.03 1.3 2.427 1.89a9.1 9.1 0 0 0 2.933.7q3.84.271 6.099-1.393 2.257-1.665 2.475-4.737l.04-.559q.158-2.235-.526-3.967a12 12 0 0 0-1.913-3.223 19 19 0 0 0-2.822-2.761 284 284 0 0 0-3.19-2.507 145 145 0 0 1-3.653-2.925 22 22 0 0 1-3.336-3.429 15.6 15.6 0 0 1-2.335-4.2q-.855-2.307-.646-5.239l.084-1.187q.336-4.748 4-7.436 3.663-2.688 9.46-2.278 2.513.178 4.733 1.037a10.5 10.5 0 0 1 3.884 2.626q1.665 1.767 2.559 4.497t.757 6.65l-4.982-.002q.128-2.798-.44-4.698-.567-1.9-1.607-3.061a6.4 6.4 0 0 0-2.44-1.717 9.6 9.6 0 0 0-2.866-.659q-3.142-.222-5.455 1.228t-2.536 4.593l-.034.489q-.144 2.025.546 3.687a11.6 11.6 0 0 0 1.854 3.044q1.166 1.38 2.695 2.577 1.53 1.195 3.131 2.362 1.932 1.47 3.86 2.974a19.6 19.6 0 0 1 3.408 3.4 15.2 15.2 0 0 1 2.33 4.27q.849 2.376.627 5.518l-.09 1.257q-.37 5.236-4.079 8.062t-9.783 2.395m35.52-47.92 5.105.215-2.051 48.957-5.106-.214zm13.29.415 4.9.101 16.669 37.032.07.002.757-36.672 4.969.102-1.012 48.99-4.899-.101-16.608-36.61-.07-.002-.748 36.252-5.039-.104zm48.553 50.213q-3.01.024-5.608-.899t-4.503-2.728q-1.905-1.803-3.012-4.455-1.107-2.65-1.135-6.08l-.184-22.12q-.028-3.43 1.034-6.099t2.938-4.504 4.457-2.802 5.662-.992q2.73-.023 5.222.796 2.491.82 4.363 2.764 1.87 1.945 3.017 5.085t1.254 7.69l-4.898.251q-.1-3.639-.89-5.943-.788-2.303-2.06-3.623-1.27-1.32-2.815-1.797a10.3 10.3 0 0 0-3.154-.463q-4.06.033-6.559 2.54-2.499 2.505-2.458 7.405l.177 21.35q.041 4.899 2.581 7.398 2.541 2.5 6.601 2.465 4.06-.033 6.311-2.922t2.336-9.54l4.972.169q-.069 8.54-3.675 12.77t-9.974 4.284m34.385-.884q-2.938.108-5.528-.777a13.5 13.5 0 0 1-4.58-2.632q-1.991-1.748-3.172-4.331t-1.305-5.94l-.825-22.316q-.124-3.357.863-6.02.987-2.664 2.844-4.554a13 13 0 0 1 4.375-2.928q2.518-1.039 5.456-1.148t5.526.742a13 13 0 0 1 4.58 2.598q1.99 1.747 3.171 4.33 1.182 2.584 1.306 5.941l.824 22.315q.124 3.357-.863 6.02-.987 2.664-2.844 4.554a13.5 13.5 0 0 1-4.373 2.964q-2.517 1.073-5.455 1.182m-.173-4.687q3.847-.142 6.306-2.79 2.46-2.647 2.288-7.264l-.81-21.895q-.17-4.617-2.816-7.041t-6.494-2.282q-3.777.14-6.272 2.754t-2.325 7.23l.81 21.896q.17 4.617 2.853 7.074 2.682 2.457 6.46 2.318m43.882 1.3-9.644-17.934-1.048.072-7.193.49 1.263 18.508-5.098.348-3.337-48.886 12.151-.83q6.775-.462 10.9 2.413t4.56 9.231l.343 5.028q.309 4.54-1.653 7.656t-5.717 4.635l10.2 18.879zm-11.365-22.587q4.679-.32 7.06-2.447t2.08-6.527l-.286-4.19q-.315-4.61-2.96-6.358-2.646-1.75-7.325-1.43l-6.844.468 1.43 20.95zm31.146-28.511q6.755-.684 10.976 2.089t4.857 9.041l.579 5.711q.614 6.06-2.986 9.766t-10.146 4.37l-7.173.727 1.8 17.76-5.084.514-4.941-48.75zm10.798 12.133q-.459-4.527-3.163-6.223t-7.371-1.223l-6.825.692 2.188 21.59 6.825-.692q4.666-.473 6.969-2.747 2.301-2.274 1.871-6.522zm28.727 33.203q-2.913.4-5.578-.222a13.5 13.5 0 0 1-4.82-2.163q-2.154-1.541-3.587-3.994-1.433-2.452-1.89-5.781l-3.043-22.122q-.458-3.329.26-6.077.717-2.748 2.376-4.814a13 13 0 0 1 4.061-3.35q2.403-1.283 5.315-1.684 2.913-.4 5.573.187a13 13 0 0 1 4.815 2.13q2.155 1.54 3.587 3.993t1.89 5.781l3.043 22.122q.458 3.329-.26 6.077-.717 2.748-2.375 4.814a13.5 13.5 0 0 1-4.057 3.384q-2.399 1.319-5.31 1.72m-.64-4.646q3.814-.525 5.998-3.404 2.183-2.88 1.553-7.456l-2.985-21.706q-.63-4.576-3.504-6.725t-6.689-1.624q-3.744.516-5.967 3.365-2.221 2.85-1.593 7.426l2.985 21.706q.63 4.576 3.544 6.755 2.914 2.178 6.659 1.663m43.747-3.308-11.516-16.794-1.034.184-7.1 1.261 3.247 18.264-5.032.894-8.573-48.244 11.992-2.131q6.686-1.188 11.096 1.228t5.525 8.687l.882 4.962q.796 4.48-.82 7.789t-5.186 5.223l12.17 17.673zm-13.728-21.236q4.618-.82 6.756-3.19 2.139-2.372 1.367-6.713l-.735-4.136q-.809-4.548-3.626-6.003-2.819-1.454-7.436-.634l-6.754 1.2 3.674 20.677zm30.528-32.784 22.877 45.391-5.193 1.157-4.552-9.17-15.305 3.41-.162 10.22-5.193 1.156 1.447-50.81zm35.65-8.672 1.186 4.538-10.226 2.674 11.209 42.869-4.944 1.292-11.209-42.868-10.226 2.673-1.187-4.537zm-37.188 16.257-.068.016-.494 28.366 13.119-2.923zm65.074-24.815 1.37 4.486L853.81 396l5.15 16.871 17.943-5.477 1.37 4.485-17.943 5.478 5.048 16.536 18.88-5.763 1.37 4.485-23.767 7.256-14.308-46.865zm27.233-5.75q2.628 1.1 4.739 3.355t3.39 5.81l6.223 17.327q1.278 3.557 1.084 6.64-.195 3.081-1.508 5.636-1.314 2.555-3.683 4.447-2.37 1.893-5.466 3.005l-11.002 3.953-16.566-46.115 11.001-3.952q3.096-1.113 6.129-1.16 3.032-.049 5.66 1.053m-6.168 3.74q-2.058.07-4.166.827l-6.06 2.177 13.395 37.287 6.06-2.177q2.109-.757 3.74-2.013a8.7 8.7 0 0 0 2.52-3.025q.89-1.77.982-3.998.093-2.227-.854-4.862l-6.035-16.799q-.97-2.7-2.46-4.36-1.488-1.66-3.276-2.393-1.79-.734-3.846-.664"/><g fill-rule="nonzero"><path fill="#0e233f" d="M516.4 86.253a8.1 8.1 0 0 1 8.102 8.1v31.573a8.1 8.1 0 0 1-8.101 8.101h-20.343a8.1 8.1 0 0 0-8.1 8.101v233.196a8.1 8.1 0 0 1-8.102 8.1h-33.712a8.1 8.1 0 0 1-8.101-8.1V142.128a8.1 8.1 0 0 0-8.101-8.1H409.42a8.1 8.1 0 0 1-8.101-8.102V94.354a8.1 8.1 0 0 1 8.1-8.101zm-187.942 23.094q17.649 0 32.711 6.713 15.064 6.714 26.027 19.341 8.596 9.9 13.74 22.652a8.1 8.1 0 0 1-4.06 10.361l-32.238 15.18a8.096 8.096 0 0 1-10.29-2.991 23.3 23.3 0 0 0-4.142-4.92q-4.813-4.317-10.518-6.395-5.704-2.078-11.052-2.078-6.953 0-11.053 3.037c-2.733 2.025-4.1 9.11-4.1 13.16q0 7.992 7.13 10.23 7.105 2.23 17.57 2.873.066.003.131.009a390 390 0 0 1 17.24 1.754q9.091 1.12 17.916 4.475 8.824 3.357 16.044 10.55t11.498 19.82c2.852 8.42 4.278 15.187 4.278 28.4q0 24.937-8.378 43.319t-23.71 28.452q-15.33 10.07-36.544 10.07-18.361 0-33.87-7.512-15.51-7.513-26.473-21.58-8.925-11.451-13.893-26.292a8.1 8.1 0 0 1 4.25-9.908l31.321-14.653a8.1 8.1 0 0 1 10.581 3.529q4.208 7.891 10.346 12.319 8.646 6.233 19.164 6.233c11.053 0 16.579-8.204 16.579-16.516q0-8.632-7.577-11.19-7.556-2.55-18.572-3.51l-.068-.007q-8.196-.64-17.191-2.237-8.392-1.49-16.398-5.064c-.388-.173-12.035-2.982-16.67-7.99q-6.953-7.513-11.142-19.821-4.19-12.308-4.19-30.85 0-25.256 8.023-42.839t22.729-26.853 34.85-9.271M602.89 398q-31.91 0-49.201-36.931-17.292-36.93-17.292-105.148V69.252a8.1 8.1 0 0 1 8.1-8.1h33.714a8.1 8.1 0 0 1 8.1 8.1V297.01q0 51.28 16.58 51.28 16.578 0 16.578-51.28V69.252a8.1 8.1 0 0 1 8.1-8.1h33.714a8.1 8.1 0 0 1 8.1 8.1v186.67q0 68.215-17.291 105.147Q634.8 397.999 602.89 398m79.685-22.676V94.354a8.1 8.1 0 0 1 8.101-8.101h95.79a8.1 8.1 0 0 1 8.1 8.06l.163 32.383a8.1 8.1 0 0 1-8.101 8.14h-45.794a8.1 8.1 0 0 0-8.101 8.102v59.913a8.1 8.1 0 0 0 8.1 8.1h26.583a8.1 8.1 0 0 1 8.1 8.102v32.382a8.1 8.1 0 0 1-8.1 8.1h-26.598a8.1 8.1 0 0 0-8.101 8.086l-.211 107.719a8.1 8.1 0 0 1-8.101 8.085h-33.729a8.1 8.1 0 0 1-8.1-8.101m123.474-45.18V122.561a8.1 8.1 0 0 1 8.1-8.1h95.75a8.1 8.1 0 0 1 8.101 8.1v32.515a8.1 8.1 0 0 1-8.1 8.1h-45.836a8.1 8.1 0 0 0-8.1 8.101v32.268a8.1 8.1 0 0 0 8.1 8.101h26.582a8.1 8.1 0 0 1 8.101 8.101v31.687a8.1 8.1 0 0 1-8.1 8.1h-26.583a8.1 8.1 0 0 0-8.1 8.102v62.506a8.1 8.1 0 0 1-8.101 8.101H814.15a8.1 8.1 0 0 1-8.101-8.1"/><path fill="#fff" stroke="#0e233f" stroke-width="4.861" d="M516.4 74.102a8.1 8.1 0 0 1 8.102 8.1v31.573a8.1 8.1 0 0 1-8.101 8.1h-20.343a8.1 8.1 0 0 0-8.1 8.102v233.196a8.1 8.1 0 0 1-8.102 8.1h-33.712a8.1 8.1 0 0 1-8.101-8.1V129.977a8.1 8.1 0 0 0-8.101-8.101H409.42a8.1 8.1 0 0 1-8.101-8.1V82.202a8.1 8.1 0 0 1 8.1-8.101zM328.459 97.195q17.649 0 32.711 6.714 15.064 6.712 26.027 19.341 8.596 9.9 13.74 22.651a8.1 8.1 0 0 1-4.06 10.362l-32.238 15.179a8.096 8.096 0 0 1-10.29-2.99 23.3 23.3 0 0 0-4.142-4.921q-4.813-4.316-10.518-6.394-5.704-2.078-11.052-2.078-6.953 0-11.053 3.037c-2.733 2.025-4.1 9.11-4.1 13.16q0 7.992 7.13 10.23 7.105 2.23 17.57 2.872l.131.01q8.178.638 17.24 1.753 9.091 1.119 17.916 4.476 8.824 3.357 16.044 10.55t11.498 19.82c2.852 8.42 4.278 15.187 4.278 28.4q0 24.936-8.378 43.318-8.379 18.383-23.71 28.453-15.33 10.07-36.544 10.07-18.361 0-33.87-7.513-15.51-7.512-26.473-21.579-8.925-11.451-13.893-26.292a8.1 8.1 0 0 1 4.25-9.908l31.321-14.653a8.1 8.1 0 0 1 10.581 3.528q4.208 7.893 10.346 12.32 8.646 6.233 19.164 6.233c11.053 0 16.579-8.204 16.579-16.516q0-8.632-7.577-11.19-7.556-2.55-18.572-3.511l-.068-.006q-8.196-.64-17.191-2.237-8.392-1.49-16.398-5.064c-.388-.173-12.035-2.982-16.67-7.99q-6.953-7.514-11.142-19.821-4.19-12.31-4.19-30.85 0-25.256 8.023-42.839t22.729-26.854q14.706-9.27 34.85-9.27ZM602.89 385.85q-31.91 0-49.201-36.931-17.292-36.931-17.292-105.148V57.1a8.1 8.1 0 0 1 8.1-8.1h33.714a8.1 8.1 0 0 1 8.1 8.1V284.86q0 51.28 16.58 51.28 16.578 0 16.578-51.28V57.1a8.1 8.1 0 0 1 8.1-8.101h33.714a8.1 8.1 0 0 1 8.1 8.1v186.67q0 68.217-17.291 105.148-17.292 36.93-49.202 36.93Zm79.685-22.676V82.203a8.1 8.1 0 0 1 8.101-8.101h95.79a8.1 8.1 0 0 1 8.1 8.06l.163 32.382a8.1 8.1 0 0 1-8.101 8.142h-45.794a8.1 8.1 0 0 0-8.101 8.1V190.7a8.1 8.1 0 0 0 8.1 8.1h26.583a8.1 8.1 0 0 1 8.1 8.101v32.383a8.1 8.1 0 0 1-8.1 8.1h-26.598a8.1 8.1 0 0 0-8.101 8.085l-.211 107.72a8.1 8.1 0 0 1-8.101 8.085h-33.729a8.1 8.1 0 0 1-8.1-8.101Zm123.474-45.18V110.41a8.1 8.1 0 0 1 8.1-8.1h95.75a8.1 8.1 0 0 1 8.101 8.1v32.514a8.1 8.1 0 0 1-8.1 8.101h-45.836a8.1 8.1 0 0 0-8.1 8.101v32.268a8.1 8.1 0 0 0 8.1 8.1h26.582a8.1 8.1 0 0 1 8.101 8.102v31.687a8.1 8.1 0 0 1-8.1 8.1h-26.583a8.1 8.1 0 0 0-8.1 8.101v62.507a8.1 8.1 0 0 1-8.101 8.1H814.15a8.1 8.1 0 0 1-8.101-8.1Z"/></g></g></svg>