<svg xmlns="http://www.w3.org/2000/svg" viewBox="0 0 585 585"><g fill="none" fill-rule="evenodd"><circle cx="292.5" cy="292.5" r="282.5" fill="#fff" stroke="#0e233f" stroke-linecap="round" stroke-width="20"/><circle cx="293" cy="293" r="253" fill="#9d181d"/><g fill-rule="nonzero"><path fill="#0e233f" d="M243.92 202.562a5.347 5.347 0 0 1 5.346 5.347v20.789a5.347 5.347 0 0 1-5.347 5.347h-13.427a5.347 5.347 0 0 0-5.347 5.347v153.656a5.347 5.347 0 0 1-5.347 5.347h-22.253a5.347 5.347 0 0 1-5.347-5.347V239.392a5.347 5.347 0 0 0-5.347-5.347h-13.545a5.347 5.347 0 0 1-5.348-5.347v-20.789a5.347 5.347 0 0 1 5.348-5.347zm-124.055 15.219q11.649 0 21.592 4.424t17.18 12.745q5.668 6.52 9.063 14.914a5.35 5.35 0 0 1-2.684 6.846l-21.272 10a5.346 5.346 0 0 1-6.789-1.97 15.4 15.4 0 0 0-2.735-3.245q-3.177-2.844-6.942-4.213t-7.296-1.37q-4.588 0-7.295 2.002c-1.804 1.334-2.706 6.003-2.706 8.672q0 5.267 4.706 6.741 4.69 1.47 11.599 1.893l.085.006q5.397.42 11.38 1.156 6 .738 11.825 2.95 5.825 2.211 10.59 6.952 4.766 4.74 7.59 13.061c1.882 5.548 2.823 10.008 2.823 18.715q0 16.432-5.53 28.546t-15.65 18.75-24.121 6.636q-12.12 0-22.357-4.95t-17.474-14.22q-5.887-7.543-9.166-17.315a5.344 5.344 0 0 1 2.803-6.542l20.678-9.658a5.346 5.346 0 0 1 6.978 2.326q2.776 5.202 6.83 8.12 5.706 4.108 12.649 4.108c7.295 0 10.943-5.407 10.943-10.884q0-5.688-5.001-7.374-4.993-1.683-12.271-2.315l-.044-.004q-5.404-.42-11.336-1.473a46.4 46.4 0 0 1-10.824-3.337c-.256-.114-7.944-1.965-11.003-5.266q-4.59-4.95-7.354-13.062-2.766-8.11-2.766-20.33 0-16.643 5.295-28.23t15.003-17.696 23.004-6.11M301.008 408q-21.063 0-32.476-24.337t-11.414-69.291V191.368a5.347 5.347 0 0 1 5.347-5.347h22.253a5.347 5.347 0 0 1 5.347 5.347v150.08q0 33.794 10.943 33.794t10.943-33.793V191.368a5.347 5.347 0 0 1 5.347-5.347h22.252a5.347 5.347 0 0 1 5.347 5.347v123.004q0 44.954-11.413 69.29Q322.069 408 301.008 408m52.597-14.952V207.909a5.347 5.347 0 0 1 5.347-5.347h63.227a5.347 5.347 0 0 1 5.347 5.32l.107 21.323a5.347 5.347 0 0 1-5.347 5.374H392.06a5.347 5.347 0 0 0-5.347 5.347v39.464a5.347 5.347 0 0 0 5.347 5.347h17.546a5.347 5.347 0 0 1 5.347 5.347v21.323a5.347 5.347 0 0 1-5.347 5.347h-17.556a5.347 5.347 0 0 0-5.348 5.336l-.139 70.969a5.347 5.347 0 0 1-5.347 5.336h-22.263a5.347 5.347 0 0 1-5.347-5.347m81.5-29.773V226.499a5.347 5.347 0 0 1 5.347-5.348h63.2A5.347 5.347 0 0 1 509 226.5v21.409a5.347 5.347 0 0 1-5.347 5.347h-30.254a5.347 5.347 0 0 0-5.347 5.347v21.247a5.347 5.347 0 0 0 5.347 5.347h17.546a5.347 5.347 0 0 1 5.347 5.347v20.864a5.347 5.347 0 0 1-5.347 5.347h-17.546a5.347 5.347 0 0 0-5.347 5.347v41.174a5.347 5.347 0 0 1-5.347 5.347h-22.253a5.347 5.347 0 0 1-5.347-5.347"/><path fill="#fff" stroke="#0e233f" stroke-width="3.208" d="M243.92 194.542a5.347 5.347 0 0 1 5.346 5.347v20.788a5.347 5.347 0 0 1-5.347 5.347h-13.427a5.347 5.347 0 0 0-5.347 5.347v153.656a5.347 5.347 0 0 1-5.347 5.348h-22.253a5.347 5.347 0 0 1-5.347-5.348V231.371a5.347 5.347 0 0 0-5.347-5.347h-13.545a5.347 5.347 0 0 1-5.348-5.347V199.89a5.347 5.347 0 0 1 5.348-5.347zM119.864 209.76q11.649 0 21.592 4.424t17.18 12.746q5.668 6.519 9.063 14.914a5.35 5.35 0 0 1-2.684 6.845l-21.272 10a5.346 5.346 0 0 1-6.789-1.97 15.4 15.4 0 0 0-2.735-3.245q-3.177-2.844-6.942-4.213t-7.296-1.37q-4.588 0-7.295 2.002c-1.804 1.334-2.706 6.004-2.706 8.672q0 5.267 4.706 6.742 4.69 1.47 11.599 1.893l.085.005q5.397.421 11.38 1.156 6 .738 11.825 2.95t10.59 6.952q4.766 4.74 7.59 13.062c1.882 5.547 2.823 10.007 2.823 18.715q0 16.432-5.53 28.546t-15.65 18.75-24.121 6.636q-12.12 0-22.357-4.951t-17.474-14.22q-5.887-7.542-9.166-17.315a5.344 5.344 0 0 1 2.803-6.542l20.678-9.658a5.346 5.346 0 0 1 6.978 2.326q2.776 5.202 6.83 8.12 5.706 4.108 12.649 4.108c7.295 0 10.943-5.407 10.943-10.884q0-5.688-5.001-7.374-4.993-1.682-12.271-2.315l-.044-.003q-5.404-.422-11.336-1.474a46.4 46.4 0 0 1-10.824-3.337c-.256-.114-7.944-1.965-11.003-5.266q-4.59-4.95-7.354-13.061-2.766-8.11-2.766-20.33 0-16.642 5.295-28.23 5.295-11.587 15.003-17.696t23.004-6.11Zm181.143 190.22q-21.063 0-32.476-24.338-11.414-24.337-11.414-69.29V183.346a5.347 5.347 0 0 1 5.347-5.347h22.253a5.347 5.347 0 0 1 5.347 5.347v150.081q0 33.793 10.943 33.793t10.943-33.793v-150.08a5.347 5.347 0 0 1 5.347-5.348h22.252a5.347 5.347 0 0 1 5.347 5.347v123.004q0 44.955-11.413 69.291-11.415 24.337-32.476 24.337Zm52.597-14.953V199.89a5.347 5.347 0 0 1 5.347-5.347h63.227a5.347 5.347 0 0 1 5.347 5.32l.107 21.322a5.347 5.347 0 0 1-5.347 5.374H392.06a5.347 5.347 0 0 0-5.347 5.347v39.465a5.347 5.347 0 0 0 5.347 5.347h17.546a5.347 5.347 0 0 1 5.347 5.347v21.322a5.347 5.347 0 0 1-5.347 5.347h-17.556a5.347 5.347 0 0 0-5.348 5.337l-.139 70.968a5.347 5.347 0 0 1-5.347 5.337h-22.263a5.347 5.347 0 0 1-5.347-5.348Zm81.5-29.773V218.478a5.347 5.347 0 0 1 5.347-5.347h63.2a5.347 5.347 0 0 1 5.348 5.347v21.41a5.347 5.347 0 0 1-5.347 5.346h-30.254a5.347 5.347 0 0 0-5.347 5.347v21.247a5.347 5.347 0 0 0 5.347 5.347h17.546a5.347 5.347 0 0 1 5.347 5.347v20.864a5.347 5.347 0 0 1-5.347 5.347h-17.546a5.347 5.347 0 0 0-5.347 5.347v41.174a5.347 5.347 0 0 1-5.347 5.347h-22.253a5.347 5.347 0 0 1-5.347-5.347Z"/></g></g></svg>