<svg xmlns="http://www.w3.org/2000/svg" viewBox="0 0 48 48" class="icon-social"><path fill="#dfab4d" fill-rule="evenodd" d="M10 2a8 8 0 0 0-8 8v28a8 8 0 0 0 8 8h28a8 8 0 0 0 8-8V10a8 8 0 0 0-8-8zM8 29.82V18.18h2.91v11.64zm4.364 0V18.18H16L17.454 24l1.456-5.82h3.636v11.64h-2.91v-5.092l-1.454 5.09h-1.454l-1.456-5.09v5.09h-2.908zm11.636 0h4.364a2.91 2.91 0 0 0 2.908-2.91v-5.82c0-1.606-1.3-2.908-2.908-2.908H24V29.82m2.908-9.456h.728c.402 0 .728.326.728.728v5.818c0 .4-.326.726-.728.726h-.728zm5.82-2.182h2.908v3.566c.486-.354 1.206-.658 2.182-.658 1.746 0 2.182.97 2.182 1.456v5.818c0 .484-.436 1.454-2.18 1.454-.98 0-1.698-.304-2.184-.656v.656h-2.908zm4.362 8.728V24a.728.728 0 0 0-1.454 0v2.91a.728.728 0 0 0 1.454 0"/></svg>