<svg xmlns="http://www.w3.org/2000/svg" viewBox="0 0 48 48" class="icon-social"><path fill="#dfab4d" fill-rule="evenodd" d="M10 2h28a8 8 0 0 1 8 8v28a8 8 0 0 1-8 8H10a8 8 0 0 1-8-8V10a8 8 0 0 1 8-8m14 5C14.611 7 7 14.611 7 24s7.611 17 17 17c1.9 0 3.73-.312 5.44-.89a1.821 1.821 0 0 0-1.165-3.451 13.3 13.3 0 0 1-4.275.698c-7.377 0-13.357-5.98-13.357-13.357S16.623 10.643 24 10.643 37.357 16.623 37.357 24v2.429a2.429 2.429 0 1 1-4.857 0V24a8.5 8.5 0 1 0-2.48 6.002A6.071 6.071 0 0 0 41 26.429V24c0-9.389-7.611-17-17-17m0 12.143a4.857 4.857 0 1 1 0 9.714 4.857 4.857 0 0 1 0-9.714"/></svg>