<svg xmlns="http://www.w3.org/2000/svg" viewBox="0 0 48 48" class="icon-social"><path fill="#dfab4d" fill-rule="evenodd" d="M10 2a8 8 0 0 0-8 8v28a8 8 0 0 0 8 8h28a8 8 0 0 0 8-8V10a8 8 0 0 0-8-8zM8.884 21.82C8.884 39.156 16.368 40 22.702 40c4.442 0 5.666-.64 6.64-1.15.214-.11.414-.214.632-.304v-2.91C23.88 37.098 17.61 36.786 17.61 32c.5 0 1.26.126 2.188.28 1.438.236 3.268.54 5.12.54h.184c4.588 0 14.014.004 14.014-11C39.116 8.592 33.672 8 24.156 8h-.38c-7.224-.004-14.892-.008-14.892 13.82m11.272-5.046a2.5 2.5 0 0 0-2.5 2.5v8.362h-3v-8.362a5.5 5.5 0 0 1 9.5-3.776 5.5 5.5 0 0 1 9.5 3.774v8.364h-3v-8.362a2.5 2.5 0 1 0-5 0V24h-3v-4.726a2.5 2.5 0 0 0-2.5-2.5"/></svg>