<svg xmlns="http://www.w3.org/2000/svg" viewBox="0 0 48 48" class="icon-social"><path fill="#dfab4d" fill-rule="evenodd" d="M10 2h28a8 8 0 0 1 8 8v28a8 8 0 0 1-8 8H10a8 8 0 0 1-8-8V10a8 8 0 0 1 8-8m6.555 18.017a2.286 2.286 0 0 0-3.233 0l-2.286 2.286c-4.048 4.048-4.048 10.612 0 14.66 4.049 4.05 10.613 4.05 14.662 0l2.285-2.285a2.286 2.286 0 1 0-3.232-3.233l-2.286 2.286a5.796 5.796 0 1 1-8.196-8.196l2.286-2.286a2.286 2.286 0 0 0 0-3.232m12.49-1.062a2.286 2.286 0 0 0-3.233 0l-6.857 6.857a2.286 2.286 0 0 0 3.233 3.233l6.857-6.857a2.286 2.286 0 0 0 0-3.233m-6.743-7.919-2.285 2.286a2.286 2.286 0 1 0 3.232 3.233l2.286-2.286a5.795 5.795 0 1 1 8.196 8.196l-2.286 2.286a2.286 2.286 0 0 0 3.233 3.232l2.286-2.286c4.048-4.048 4.048-10.612 0-14.66-4.05-4.05-10.613-4.05-14.662 0"/></svg>