<svg xmlns="http://www.w3.org/2000/svg" viewBox="0 0 48 48" class="icon-social"><path fill="#dfab4d" fill-rule="evenodd" d="M10 2a8 8 0 0 0-8 8v28a8 8 0 0 0 8 8h28a8 8 0 0 0 8-8V10a8 8 0 0 0-8-8zM9 24c0-2.148.1-4.174.234-5.874a5.08 5.08 0 0 1 4.72-4.716q5.018-.338 10.046-.32c4.314 0 7.624.148 10.046.32a5.08 5.08 0 0 1 4.72 4.716c.132 1.7.234 3.726.234 5.874 0 2.226-.108 4.32-.248 6.056-.2 2.478-2.088 4.37-4.524 4.54A150 150 0 0 1 24 34.91c-4.356 0-7.78-.144-10.228-.314-2.436-.17-4.324-2.062-4.524-4.54A77 77 0 0 1 9 24m11.272-5.09 8.5 5.09-8.5 5.092V18.908z"/></svg>