<svg xmlns="http://www.w3.org/2000/svg" viewBox="0 0 48 48" class="icon-social"><path fill="#dfab4d" fill-rule="evenodd" d="M10 2a8 8 0 0 0-8 8v28a8 8 0 0 0 8 8h28a8 8 0 0 0 8-8V10a8 8 0 0 0-8-8zm9.364 12.546A6.546 6.546 0 0 1 25.908 8h5.82c.4 0 .726.326.726.728v5.818c0 .4-.326.726-.726.726h-2.91a2.18 2.18 0 0 0-2.18 2.182v2.182h5.09a.728.728 0 0 1 .704.904l-1.454 5.82a.726.726 0 0 1-.706.548h-3.636v12.364a.73.73 0 0 1-.728.728H20.09a.73.73 0 0 1-.726-.728V26.91h-3.636a.73.73 0 0 1-.728-.728v-5.82c0-.4.326-.726.728-.726h3.636z"/></svg>