<svg xmlns="http://www.w3.org/2000/svg" viewBox="0 0 48 48" class="icon-social"><path fill="#dfab4d" fill-rule="evenodd" d="M10 2a8 8 0 0 0-8 8v28a8 8 0 0 0 8 8h28a8 8 0 0 0 8-8V10a8 8 0 0 0-8-8zm14 7a15 15 0 0 0-13.12 22.28l-1.334 7.174 7.176-1.336A15 15 0 1 0 24 9m-3.894 6.76c-.64-.032-1.832.048-2.724.94-1.454 1.454-1.47 3.738-.9 5.814.58 2.114 1.828 4.27 3.28 5.722 1.456 1.454 3.61 2.7 5.724 3.282 2.076.57 4.36.554 5.814-.9.892-.892.972-2.08.94-2.724a1.76 1.76 0 0 0-.768-1.34l-1.82-1.3a2.046 2.046 0 0 0-2.634.22l-.92.918c-.74-.304-1.934-.916-2.754-1.736s-1.432-2.014-1.734-2.754l.918-.92c.706-.706.8-1.82.22-2.634l-1.3-1.82a1.76 1.76 0 0 0-1.34-.77z"/></svg>