<svg xmlns="http://www.w3.org/2000/svg" viewBox="0 0 48 48" class="icon-social"><path fill="#dfab4d" fill-rule="evenodd" d="M10 2a8 8 0 0 0-8 8v28a8 8 0 0 0 8 8h28a8 8 0 0 0 8-8V10a8 8 0 0 0-8-8zM9 18a9 9 0 0 1 9-9h12a9 9 0 0 1 9 9v12a9 9 0 0 1-9 9H18a9 9 0 0 1-9-9zm9-7a7 7 0 0 0-7 7v12a7 7 0 0 0 7 7h12a7 7 0 0 0 7-7V18a7 7 0 0 0-7-7zm16 5.334a1.667 1.667 0 1 1-3.334 0 1.667 1.667 0 0 1 3.334 0M16.334 24a7.666 7.666 0 1 1 15.332 0 7.666 7.666 0 0 1-15.332 0M24 18.334a5.666 5.666 0 1 0 0 11.332 5.666 5.666 0 0 0 0-11.332"/></svg>