<svg xmlns="http://www.w3.org/2000/svg" viewBox="0 0 48 48" class="icon-social"><path fill="#dfab4d" fill-rule="evenodd" d="M10 2h28a8 8 0 0 1 8 8v28a8 8 0 0 1-8 8H10a8 8 0 0 1-8-8V10a8 8 0 0 1 8-8m25.456 8.185c-6.476 2.608-9.851 7.682-11.456 11.5-1.605-3.818-4.98-8.892-11.456-11.5-1.695-.682-3.407.611-3.487 2.412-.057 1.3-.087 2.79-.013 3.994.072 1.154.266 2.676.469 4.066.355 2.433 2.011 4.478 4.35 5.154.825.238 1.668.46 2.504.66-.73.16-1.464.338-2.188.531-2.246.602-3.417 3.098-2.299 5.192a23.2 23.2 0 0 0 4.392 5.816c1.698 1.639 4.4 1.167 5.591-.852A23.6 23.6 0 0 0 24 32.49a23.6 23.6 0 0 0 2.137 4.667c1.192 2.019 3.893 2.49 5.59.852a23.2 23.2 0 0 0 4.393-5.816c1.118-2.094-.052-4.59-2.3-5.192a49 49 0 0 0-2.187-.531c.836-.2 1.679-.422 2.504-.66 2.339-.676 3.995-2.721 4.35-5.154.203-1.39.397-2.912.469-4.066.074-1.204.044-2.694-.013-3.994-.08-1.8-1.792-3.094-3.487-2.412"/></svg>