<svg xmlns="http://www.w3.org/2000/svg" viewBox="0 0 48 48" class="icon-social"><path fill="#dfab4d" fill-rule="evenodd" d="M10 2a8 8 0 0 0-8 8v28a8 8 0 0 0 8 8h28a8 8 0 0 0 8-8V10a8 8 0 0 0-8-8zm13.848 5.534c-3.872 0-7.448 1.43-10.028 4.44-2.56 2.99-3.986 7.346-3.986 12.946 0 5.728 1.986 9.7 5 12.21 2.954 2.46 6.686 3.336 9.934 3.336 6.564 0 11.912-4.04 12.17-9.848.13-2.916-1.16-5.34-3.302-6.974a10.5 10.5 0 0 0-1.888-1.14q-.01-.188-.024-.374c-.23-3.05-1.534-4.97-3.18-6.064a7.4 7.4 0 0 0-4.004-1.19c-2.288 0-4.286.95-5.898 2.8a1.75 1.75 0 1 0 2.64 2.298c1-1.148 2.06-1.598 3.26-1.598.426 0 1.304.1 2.066.606.554.368 1.196 1.044 1.49 2.434a16.5 16.5 0 0 0-2.512-.188c-2.98 0-5.074.758-6.374 2.15-1.296 1.386-1.484 3.062-1.418 4.194a5.28 5.28 0 0 0 1.98 3.82c1.25 1.008 2.96 1.496 4.994 1.346 2.208-.162 4.134-1.286 5.4-3.208.596-.904 1.03-1.96 1.296-3.14l.048.036c1.304.996 2.006 2.354 1.93 4.036-.15 3.39-3.38 6.504-8.674 6.504-2.682 0-5.54-.732-7.696-2.526-2.096-1.746-3.738-4.67-3.738-9.52 0-5.034 1.282-8.494 3.144-10.668 1.84-2.146 4.396-3.218 7.37-3.218 3.154 0 5.654.756 7.444 2.04 1.764 1.264 2.96 3.126 3.402 5.612a1.75 1.75 0 0 0 3.446-.614c-.594-3.328-2.26-6.014-4.808-7.842-2.524-1.81-5.792-2.696-9.484-2.696m1.738 17.194c.928 0 1.792.09 2.58.256-.164 1.116-.5 1.984-.92 2.62-.678 1.028-1.626 1.562-2.736 1.644-1.332.098-2.114-.236-2.542-.58a1.8 1.8 0 0 1-.68-1.3c-.036-.608.086-1.178.482-1.6.392-.42 1.372-1.04 3.816-1.04"/></svg>