<svg xmlns="http://www.w3.org/2000/svg" viewBox="0 0 50 43" width="50"><g fill="#00494a" fill-rule="evenodd"><path d="M49.73 42.964 24.924 86.315.115 42.964 24.923-.388zm-9.984 0-14.9-26.011-14.9 26.01 14.9 26.012zm-5.99.077-8.91 15.56-8.91-15.56 8.91-15.56zm-6.145 1.084-2.688-4.722-2.689 4.722 2.689 4.722z"/><path d="M49.73 42.964 24.924 86.315.115 42.964 24.923-.388zm-9.984 0-14.9-26.011-14.9 26.01 14.9 26.012zm-5.99.077-8.91 15.56-8.91-15.56 8.91-15.56zm-6.145 1.084-2.688-4.722-2.689 4.722 2.689 4.722z"/></g></svg>