<svg xmlns="http://www.w3.org/2000/svg" viewBox="0 0 1920 800" id="animation-contact">

<defs>
<filter id="animation-contact-glow-filter" x="-120%" y="-120%" width="340%" height="340%" color-interpolation-filters="sRGB">
<feGaussianBlur in="SourceGraphic" stdDeviation="3" result="blur-near"/>
<feGaussianBlur in="SourceGraphic" stdDeviation="8" result="blur-far"/>
<feMerge>
<feMergeNode in="blur-far"/>
<feMergeNode in="blur-near"/>
<feMergeNode in="SourceGraphic"/>
</feMerge>
</filter>
<filter id="animation-contact-lightning-blur-filter" x="-10%" y="-10%" width="120%" height="120%" color-interpolation-filters="sRGB">
<feGaussianBlur in="SourceGraphic" stdDeviation=".75"/>
</filter>
</defs>

<!-- lightning -->
<g id="animation-contact-lightnings" aria-hidden="true" fill-rule="evenodd" filter="url(#animation-contact-lightning-blur-filter)">

<path fill="#ffbf00" class="animation-contact-lightning" d="M1767.051-14 1778-7.975l-31.487 55.916 15.076 19.838.476.796 11.95 12.262.922.944-.009.828-.373 41.98-4.432-41.744-11.855-6.15-33.005 31.06 1.219 22.532-.013 1.24-.179.306 14.539 49.44.128.442-.004.352-1.9 36.14 33.897 15.353.837.378-.215.85-12.76 50.363 10.667-50.849-33.877-12.706-1.094-.442-.026-1.253-.772-37.371.112.327-.12-.79.008.463-14.328-42.195-5.836 10.116-5.174 8.96c-1.798 2.939-3.652 5.848-5.475 8.77l-21.702 34.631-.212.615 10.683 49.299 29.731 23.908 1.12.896-.146 1.262-4.299 37.148 5.479 15.615.081.232-.073.193-6.675 17.134 5.508-17.546-6.62-15.298-.09-.214.013-.31 1.793-37.353-26.347-17.147-10.901 58.547-.18.97-.743.57-38.896 28.948-.94 56.685 32.777 37.636 18.974-2.059.643-.069.322.533 14.238 23.828-.17-.086.257.232-.087-.146 18.617 9.376.253.124-.068.266-6.427 25.223 5.758-25.386-18.848-8.569-.159-.073-.098-.159-14.956-23.588-17.525 2.948-3.142 42.069 14.017 12.758-14.558-11.602-30.89 35.778 30.452-36.738-.008.157.112-.28-.104.123 2.365-43.45-33.885-36.945-.356-.39-.005-.558-.549-54.559-32.477 8.228.274-.193-.523.257.249-.064-8.208 5.845 8.98 10.98.249.31-.108.338-10.961 34.479 9.541-34.485.25.264-.143-.648-.107.384-10.053-10.625-26.14-.946L1535 420.569l33.207-53.75.172-.28.352-.008 26.394-.416 9.194-7.265.206-.158.322-.1 35.707-11.003 37.657-30.208 9.68-62.533-8.887-39.874-5.362 15.565-.386 1.116-.88.373-17.573 6.5-1.51 33.501-1.506-33.5-.039-.88.893-.48 16.38-7.99 6.91-28.005-.118-.544.776-1.3 21.19-35.371c1.76-2.948 3.549-5.883 5.282-8.848l4.968-9.02 9.936-18.04-.653-18.256-45.515 15.377 1.317 26.905-.025 1.42-1.206.588-30.443 14.776.24-.28-.524.42.284-.14-12.683 14.953-.408.48-.588-.008-33.07-1.116-10.03 36.731 8.709-37.066.12-.502.54-.013 33.731-.6 11.382-15.22.194-.25.33-.176 30.178-16.005-1.759-27.515-.034-1.905 1.875-.708 47.46-17.95 1.21-1.184 32.561-31.38-13.027-19.325-27.914-1.11-20.877 15.886-1.068.768-1.073-.27-21.374-5.304-25.416 33.9 24.356-36.633.584-.88 1.184.193 19.585 4.098 21.79-18.464.872-.738 1.437-.06 27.633-1.097z"/>

<path fill="#ffbf00" class="animation-contact-lightning" d="m1167.872-14 22.833 59.983 1.066 2.794-1.661 2.37-24.521 26.888 49.51 23.521 40.722 2.555 3.443.214.562 3.277 6.338 36.764 52.683 29.674.638.376 35.374 7.242.747.155.377.588 16.022 25.047 30.626.072.39.008.143.34L1415 236.27l-12.369-27.594-31.6.596-.607.013-.37-.533-16.952-24.427-31.092-4.679 12.641 27.453.235.508-.008.49-.659 40.05 16.488 57.163 41.02 45.208.234.26-.046.336-11.723 84.074 10.26-84.267-41.872-44.403-.193-.205-.088-.286-16.095-52.622-9.817 28.49-.025.07-.025.05-14.03 26.118 26.998 47.008-27.958-46.442-.155-.255.138-.282 13.435-26.877-.018.06.05-.122-.032.062 10.09-32.262.009-.001-.034-.112-.004-.273-.58-39.979.22.442-.227-1.002.007.56-14.942-30.119.737.408-1.149-1.237.412.829-54.681-30.231-1.464-.81-.356-1.753-7.403-36.563-32.761 1.851-2.592 26.007-.155 1.531-1.003 1.066-22.467 24.331.09-.005-.006.103 26.75 17.016.788.533.428.768 19.002 34.332 26.76 11.79 2.731 1.205-1.3 2.441-12.734 22.418 8.469 16.23-10.767-14.808-.386-.529.315-.76 10.838-24.139-25.836-6.956-18.716 11.87-21.525 49.828 35.84 3.951 1.452.155.478 1.338 12.915 36.204 37.072 17.164 1.405.65-.609 1.35-10.204 21.529 14.613 23.009.104.168-.058.168-5.864 16.368 5.134-16.612-15.573-22.006-.29-.415.206-.516 9.084-21.692-35.846-14.265-20.205 31.468.547 33.28 29.69 7.016.691.16.097.688 3.867 28.153-.034-.098.042.151-.008-.053 7.905 22.34 28.434 10.119-28.288-8.806.18 45.809-.07-.084.072.184-.002-.1L1289.966 526l-20.376-23.63-.063-.08-.004-.104-.729-46.619.033.085-.034-.19.001.105-8.41-22.517-.025-.068-.013-.088-4.196-27.533-28.817-6.174-12.107 20.906 10.933 14.106.092.122-.008.138-2.92 38.178 2.16-38.073.089.105-.08-.26-.009.155-11.768-13.83-.37-.433.286-.537 11.825-22.175-1.663-34.137-.02-.478.26-.428 20.996-34.54-13.56-34.867-36.57-2.72-.163-.015-45.822 10.385-15.29 44.571 29.282 28.265.327.319-.004.436-.399 39.851-.004.168-.071.139-30.803 56.589 29.58-57.051.002.155.076-.302-.078.147-.396-39.696-28.01-25.788-.502 30.872-.009.415-.356.18-35.714 17.948.05-.165-.193.239.143-.074-5.545 18.796 4.865-19.162.038-.16.155-.08 35.22-18.336.008.399.364-.591-.372.192-.533-32.669-.47-.44.29-.898 14.658-45.502.319-.986 1.044-.281 46.522-12.464 21.114-54.155.357-.91.855-.567 18.357-11.092-19.98-32.925-21.718-13.763-1.22 24.695-.138 2.815-2.123 1.07-24.905 12.542-31.755 51.824 27.531-56.006.315-.642.86-.55 23.546-14.942-3.944-28.377-.112-.073 3.255-3.582 24.998-27.544 1.33-27.66-46.424-18.021-23.88 26.003-1.154 31.093-.038.998-.616.566-12.428 10.173 10.884 40.313-13.845-39.394-.293-.835.683-.73 11.262-11.091-1.158-31.093-.038-1.065.793-1.053 21.329-28.215 3.103-4.594 23.06-34.175-24.478-54.416z"/>

<path fill="#ffbf00" class="animation-contact-lightning"  d="m684.582-12 9.3 6.203-36.168 46.354 24.317 27.26 18.461 6.201 2.885.972-.061 2.87-1.918 19.783 28.468 21.989 1.56 1.205-.533 1.773-7.012 23.329-.3-.767.092 1.466.208-.699 5.792 14.747-.762-.323 1.035 1.017-.273-.694 24.175 10.267.15.065.088.062 14.878 10.378.415.292-.008.472-.533 25.07-.035-.083.034.161.001-.078L776 223.717l-7.892-16.186-.035-.069v-.092l-.527-24.64.4.256-.41-.764.01.508-14.764-9.397.098.038-.238-.127.14.089-25.264-9.489-.7-.26-.335-.757-7.048-15.924-.295-.668.203-.799 5.706-22.402 1.514 1.07-1.026-2.979-.488 1.909-27.862-19.691-1.398-.99-.04-1.862 2.344-18.792-16.635-4.812-14.704 25.657 8.612 20.205.672 1.577-.602 1.52-6.344 13.768 12.864 44.819 28.587 6.356 2.285.506-.039 2.242-1.018 11.346 17.31 17.28.989.986-.44 1.247-12.95 34.076 14.882 15.134 13.162 2.675.737.15-.012.722-.36 16.704 8.51 17.126.05.1-.035.096-4.653 14.385 4.154-14.539-9.08-16.623-.064-.12-.003-.153.433-16.101-13.247-2.219-.313-.05-.26-.245-15.982-14.885-.673-.625.29-.93 11.326-36.04-17.351-14.436-.77-.718-.019-1.14v-11.19l-26.084-4.527-6.428 15.088-.227 23.893-.005.541-.165.46-18.335 47.933 15.946 25.589 6.573-.798 2.28-.277.876 1.831 4.531 10.958 17.293 7.85 1.208.548-.232 1.163-3.583 15.41 15.218 12.014-16.218-10.624-.407-.265.061-.56 1.793-16.455-16.941-4.582-.732-.258-.503-.852-3.652-9.952-6.586 1.396-4.047 14.95 10.949 26.504.24.58-.158.575-15.12 52.672 16.068 15.113.02-.029 8.71 5.804.561.376-.15.626-3.014 10.486 17.409 12.232.216.153-.043.246-4.174 24.457 3.37-24.58-17.627-11.257-.419-.277.106-.514 2.741-10.355-7.881-4.887-8.393 17.008 8.564 25.228.009.027.004.016 8.493 32.774.024.1-.034.084L677.915 528l11.007-28.936.027.092.01-.185-.037.093-9.083-32.5.011.028-.013-.042.002.014-9.03-25.035-.116-.327.15-.326 8.623-18.945-14.562-12.281-9.723 9.99-.38.387-.396.084-16.931 2.898-.74 16.347-.742-16.347-.025-.541.583-.177 17.091-5.185 9.573-11.577 13.388-52.76-11.324-25.155-.259-.595.152-.668 4.296-18.903-15.906-23.339-15.653 6.424-2.748 11.288-.24.718.24 9.081.024.91-.574.537-13.981 12.087 5.129 16.527.111.36-.197.266-12.831 17.206 11.69-18-6.274-15.538-.267-.699.565-.602 13.384-14.278-1.083-6.543-23.982 2.278-5.336 13.722-.309.795-.744.23-8.495 1.543-.75 33.949-.009.395-.306.2-15.831 10.16-3.436 13.134 2.852-13.273.023-.107.1-.07 15.168-10.44-.749-33.948-.023-1.029 1.027-.364 9.362-3.355 3.672-12.916.366-1.082 1.21-.219 25.466-3.19 3.796-13.291.35-1.232 1.28-.591 16.78-7.768 16.249-47.872.006.492.17-1.006-.176.514-.087-9.211-3.822 4.71-.554.683-.538.15-15.397 4.294-4.226 14.325 2.753-15.66.09-.515.625-.272 14.634-6.43 6.338-11.503-.037-3.972-.006-.595.24-.614 7.366-18.934-13.312-40.853-35.038-1.072-11.697 20.623-.374.572-.46.26-28.97 16.436.171-.63-.663.91.492-.28-6.925 25.582-.041.15-.073.088L566 223.717l11.983-16.611-.023.118.113-.242-.09.124 5.455-26.48.114-.554.549-.356 27.81-18.122-.262.462.834-.833-.572.371L624.788 139l.87-1.528 1.958-.058 35.187-1.078 5.017-13.419-8.922-16.934-.806-1.796.899-1.839 16.753-27.658-23.958-25.854-14.336 3.001 4.402 19.238.294 1.282-.908.598-21.795 14.336 19.7-17.1-7.528-16.603-.862-2.303 2.525-1.348 16.669-8.908z"/>
<path fill="#ffbf00" class="animation-contact-lightning" d="M-12.997 82.1 15.46 52.208l2.377-2.5 2.87 1.675L52.945 70.16l56.597-21.284.698-.247 28.285-22.443.6-.472.692.089 29.486 3.826 19.741-23.415.257-.293.352.109 29.367 9.19-29.09-8.262-19.854 24.59-.382.474-.645-.06-29.61-2.714-23.569 20.81 29.156 7.962.54.147.37.322 30.256 26.247 54.388 24.114 60.998-2.364.35-.012.228.25 56.87 63.023-57.959-62.025-60.928 3.533-.282.016-.275-.116-50.657-21.495 15.514 25.832.038.065.023.052 10.989 27.535 53.364 9.535-53.548-8.435-.296-.045-.126-.287-11.953-27.568.034.051-.06-.116.026.065L174.7 87.875l.004-.007-.107-.046-.212-.172-30.999-25.254.48.116-.913-.47.433.354-32.677-7.914.787-.302-1.687.085.9.217-58.306 22.456-1.561.6-1.573-.853-32.767-17.831L-5.82 88.735z"/>
</g>



<!-- static elements -->
<g id="animation-contact-static" fill="none" fill-rule="evenodd">
<path fill="#c0c6c3" d="M1036 663H846l20 31.845 190 .501zM803 618h43v45h-43z"/><path fill="#d8dedc" d="m189 624.377 614 .003V663H189z"/><path fill="#9a311b" d="M1497 388h51v235h-51z"/><path fill="#da4728" d="M1548 387.516 1593 332l45 55.516V623h-90z"/><path fill="#9a311b" d="M1638 388h120v235h-120z"/><path fill="#da4728" d="M1333 388.245 1411 270l86 118.54v234.705h-164z"/><path fill="#b0381f" d="m1105 388 74-1v236h-74z"/><path fill="#9a311b" d="M1259 388h74v235h-74z"/><path fill="#da4728" d="m1179 387 40-55.516L1259 387v236h-80zM1758 388h98v235h-98zM1062 203h43v415h-43z"/><path fill="#d8dedc" d="M1036 618h68.803v5H1856v40h-820z"/><path fill="#c0c6c3" d="M265 305.73h287.749L552 386H265z"/><path fill="#003536" d="M304.141 347H265l-76 41 41.646.294z"/><path fill="#9a311b" d="M277 388h65l-.279 236.621-64.721-.244z"/><path fill="#da4728" d="M341.721 388.294 395.1 305.73 448.201 389v235.621h-106.48z"/><path fill="#9a311b" d="M767 388h36v236.377h-35.829z"/><path fill="#da4728" d="m706 388 30.586-55.516L767.171 388v236.377H706zM576.98 268.04 499 389v235.621h155.821V389zM846 218h190v445H846z"/><path fill="#003536" d="m395.1 305.73-63.546 25.9 10.167 56.664z"/><path fill="#f0f7f4" d="m231.266 388 100.288-56.37 10.167 56.664z"/><path fill="#002c2c" d="M304.141 347 189 388l41.646.294z"/><path fill="#b0381f" d="M265 305.73h20V347h-20z"/><path fill="#da4728" d="M285 305.73h8.008V347H285z"/><path fill="#9a311b" d="M448.201 389H499v235.621L448 625zM654.821 389 706 388v236.377l-51.179.244z"/><path fill="#b0381f" d="M448.201 389H499l-50.799 73.432z"/><path fill="#d8dedc" d="M736.586 306.812H602.084L654.821 389z"/><path fill="#00494a" d="M736.586 306.812H803V388z"/><path fill="#336d6e" d="M448.201 389H499l53.749-83.27z"/><path fill="#812817" d="M912.75 608.455h53v73h-53z"/><path fill="#c0c6c3" d="M992.5 621.455h20V663h-20z"/><path fill="#d8dedc" d="M992.5 621.455q-5.56-19.144-15.875-28.24-10.317-9.097-36.126-17.85v-20.91q32.96 11.134 48.37 24.388 15.41 13.253 23.63 42.612z"/><path fill="#c0c6c3" d="M888.75 621h-20v42h20z"/><path fill="#d8dedc" d="M888.75 621q5.559-19.144 15.874-28.24 10.317-9.097 35.875-17.395v-20.91q-32.708 10.68-48.118 23.933T868.75 621z"/><path fill="#003536" d="M888.5 681h27v-50.39q2.25-20.877 25.25-21.516t23.817 21.516v50.845h27.932V621q-6.075-20.51-17.43-29.388t-34.57-16.247q-24.518 7.627-35 16.247-10.48 8.62-17 29.388z"/><path fill="#002c2c" d="m874 258 7.5-15 7.5 15v30h-15zM894 258l7.5-15 7.5 15v30h-15zM914 258l7.5-15 7.5 15v30h-15zM934 258l7.5-15 7.5 15v30h-15zM954 258l7.5-15 7.5 15v30h-15zM974 258l7.5-15 7.5 15v30h-15zM994 258l7.5-15 7.5 15v30h-15z"/><path fill="#b0381f" d="m397 559-55.279 65.621 106.48.379z"/><path fill="#f0f7f4" d="m584 559-71.153 36.88h41.692z"/><path fill="#c0c6c3" d="m584 559-29.461 36.88H596z"/><path fill="#f0f7f4" d="m596 595.88 55.448 4.268L584 559z"/><path fill="#003536" d="M524.808 595.88v98.965H596V595.88z"/><path fill="#336d6e" d="m596 595.88 44.889 3.547v95.418H596z"/><path fill="#c0c6c3" d="m524.808 694.845-106.711 13.753 222.792-13.753z"/><path fill="#b0381f" d="M654.821 462.432 706 388l-51.179 1zM767 462.432 803 388h-36z"/><path fill="#812817" d="M706.054 462.432 706 388l-26.661 38.919zM706.119 559h-51.298l51.233-96.568z"/><path fill="#da4728" d="M189 388h88v236.377h-88z"/><path fill="#b0381f" d="M189 388h88v103h-88z"/><path fill="#003536" d="M204 629.91h70.647L239.324 489z"/><path fill="#002c2c" d="M224.1 629.91h50.547L239.324 489z"/><path fill="#002c2c" d="M234 668.306h10.54L239.27 624zM1839 718.306h10.54l-5.27-54zM134.353 671.874h10.54l-5.27-54zM58.353 671.874h10.54l-5.27-54zM2 617.478h130l-68.377-240z"/><path fill="#b0381f" d="m1259 462.432 74-74.138-74-.294zM1497 462.432l51-74.138-51-.294z"/><path fill="#da4728" d="M1548 462.432v-74.138l-26.553 38.749z"/><path fill="#b0381f" d="M1638 388h120l-120 107zM1548 559h-51l51-96.568z"/><path fill="#336d6e" d="m1105 388 114-79.249 114 79.543-74-.294-40-56.516L1179 387z"/><path fill="#00494a" d="M1384.621 308.751 1315.235 376 1333 388.294z"/><path fill="#d8dedc" d="M1105 388v-79.249h114z"/><path fill="#00494a" d="M1219 308.751h165.621L1315.235 376z"/><path fill="#336d6e" d="M1439.047 308.751H1603l132.068 54.966L1638 388l-45-55.516-45 55.81-51-.294z"/><path fill="#00494a" d="m1758 388.294-22.932-24.577L1638 388z"/><path fill="#336d6e" d="M1827.546 348.523 1856 388h-53.886z"/><path fill="#d8dedc" d="m1827.546 348.523-92.478 15.194L1758 388h44.114z"/><path fill="#da4728" d="M1740 309h21v50.46l-21 3.453z"/><path fill="#b0381f" d="m1740 309-9.028 5.408v47.599l4.096 1.71 4.932-.804z"/><path fill="#f0f7f4" d="m395.1 305.73 60.835 76.834-7.734 6.436zM736.586 306.812l-88.016 72.564 6.251 9.624z"/><path fill="#c0c6c3" d="M265 347 0 219.372l265-62.862z"/><path fill="#d8dedc" d="m265 156.51 287.749 149.22H265z"/><path fill="#b0381f" d="M803 203h43v415h-43z"/><path fill="#9a311b" d="M1036 218.181 1062 203v415h-26z"/><path fill="#d8dedc" d="M922.515 126.489 879.332 218H846v-15z"/><path fill="#da4728" d="M824.5 91.467 846 203h-43zM1083.5 91.467 1105 203h-43z"/><path fill="#f2f8f5" d="m1083.5 91.467 6.355 33.025h-12.792zM824.5 91.467l6.355 33.025h-12.792z"/><path fill="#336d6e" d="m879.332 218 43.183-91.511L984 218z"/><path fill="#00494a" d="M984 218h52l-47.606-88.089z"/><path fill="#00494a" d="m988.394 129.911-28.496 52.2L984 218z"/><path fill="#f2f8f5" d="M988.394 129.911 1062 203l-26 15z"/><path fill="#002c2c" d="M944 159.065h28.553l-12.655 23.046z"/><path fill="#001818" d="m960 8.14-19 81.233-4.068 2.094L941 102.115v24.374h-18.485L944 159.065h5v-57.764l-3.297-9.834 5.365-3.445z"/><path fill="#fff" d="M922.515 126.489 843.9 192.358 846 203z"/><path fill="#f2f8f5" d="M920.559 174 909 191.246h23.118z"/><path fill="#d8dedc" d="M920.559 174v17.246h11.559z"/><path fill="#f2f8f5" d="M912 191.246h17V218h-17z"/><path fill="#d8dedc" d="M912 191.246h17V218z"/><path fill="#002c2c" d="m912 191.246-14.462 4.657L912 218z"/><path fill="#336d6e" d="m941.5 694.845 807.77 5.064-747.77 41.898z"/><path fill="#c0c6c3" d="M640.889 694.845 425.467 771H587zM418.097 708.598 0 703.41v59.546z"/><path fill="#d8dedc" d="M1257.3 308.751 1315.235 376l69.386-67.249z"/><path fill="#f2f8f5" d="m1333 388.294 77.763-106.767L1497 388.294l-86.237-118.539zM1548 388.294l45-55.81L1638 388l-45-68.252zM499 389l77.98-110.622L654.821 389 576.98 268.04z"/><path fill="#d8dedc" d="m341.721 388.294 53.24-72.597L448.201 389 395.1 305.73z"/><path fill="#c0c6c3" d="M1062.803 676 1426 681.347l-331 16.576z"/><path fill="#285556" d="M78.044 629.91h130.153L139.623 428z"/><path fill="#336d6e" d="M78.044 629.91h86.94L139.623 428z"/><path fill="#003536" d="m1593.5 591 22.5 32h-45z"/><path fill="#002c2c" d="M1593.5 623h22.5v30h-22.5z"/><path fill="#336d6e" d="M1571 623h22.5v30H1571z"/><path fill="#003536" d="m1415.5 591 22.5 32h-45z"/><path fill="#002c2c" d="M1415.5 623h22.5v30h-22.5z"/><path fill="#336d6e" d="M1393 623h22.5v30H1393z"/><path fill="#c0c6c3" d="M1259 623h74v40h-74zM1105 623h74v40h-74zM1497 623h51v40h-51zM1638 623h174v40h-174z"/><path fill="#003536" d="m1296 591 20 32h-40z"/><path fill="#002c2c" d="M1293.5 623h22.5v30h-22.5z"/><path fill="#336d6e" d="M1276 623h20v30h-20z"/><path fill="#003536" d="m1521 591 20 32h-40z"/><path fill="#002c2c" d="M1518.5 623h22.5v30h-22.5z"/><path fill="#336d6e" d="M1501 623h20v30h-20z"/><path fill="#003536" d="m1670.5 591 22.5 32h-45z"/><path fill="#002c2c" d="M1670.5 623h22.5v30h-22.5z"/><path fill="#336d6e" d="M1648 623h22.5v30H1648zM1714 653.91h70.647l-35.323-201z"/><path fill="#2b5c5d" d="M1735.068 653.91h49.579l-35.323-201z"/><path fill="#002c2c" d="M1744 708.306h10.54l-5.27-54z"/><path fill="#003536" d="M1782.647 663.91h130l-68.377-201.478z"/><path fill="#002b2c" d="m1817.739 664.306 94.908-.396-68.377-201.478z"/><path fill="#d8dedc" d="M1036 618h26v45h-26z"/><path fill="#003536" d="m737 592 20 32h-40z"/><path fill="#002c2c" d="M734.5 624H757v30h-22.5z"/><path fill="#336d6e" d="M717 624h20v30h-20z"/><path fill="#003536" d="m785 592 15 32h-30z"/><path fill="#002c2c" d="M785 624h15v30h-15z"/><path fill="#336d6e" d="M770 624h15v30h-15z"/><path fill="#003536" d="m396 591 30 32h-60z"/><path fill="#002c2c" d="M395 623h31v30h-31z"/><path fill="#336d6e" d="M366 623h30v30h-30z"/><path fill="#c0c6c3" d="m448 625 51-.379V663h-51zM654.821 624.621l51.179-.244v37.59h-51.179zM277 624.377h64.721V663H277z"/><path fill="#003536" d="m474 592 20 32h-40z"/><path fill="#002c2c" d="M471.5 624H494v30h-22.5z"/><path fill="#336d6e" d="M454 624h20v30h-20z"/><path fill="#003536" d="m310 592 20 32h-40z"/><path fill="#002c2c" d="M307.5 624H330v30h-22.5z"/><path fill="#336d6e" d="M290 624h20v30h-20z"/><path fill="#003536" d="m680 592 15 32h-30z"/><path fill="#002c2c" d="M680 624h15v30h-15z"/><path fill="#336d6e" d="M665 624h15v30h-15z"/><path fill="#b0381f" d="M874 288h135v10z"/><path fill="#e47b65" d="M1014 397h22l26-10h43v-5.001h-43l-26 10h-22zM869 397h-66v-5.001h66z"/><path fill="#f2f8f5" d="M1062 203h43v5h-43zM803 203h43v5h-43z"/><path fill="#a3aba7" d="m846 618 22.75 3.455V663H846zM1036 617.955l-23.501 3.5V663H1036zM915 673h49.597v8.455H915z"/><g fill="#002122"><path d="M940 638.845h3v56h-3zM933 638.845h3v56h-3zM926 638.845h3v56h-3zM919 638.845h3v56h-3zM912 638.845h3v56h-3zM905 638.845h3v56h-3zM898 638.845h3v56h-3zM891 638.845h3v56h-3zM884 638.845h3v56h-3zM877 638.845h3v56h-3zM870 638.845h3v56h-3zM863 638.845h3v56h-3zM856 638.845h3v56h-3zM849 638.845h3v56h-3zM842 638.845h3v56h-3zM835 638.845h3v56h-3zM828 638.845h3v56h-3zM821 638.845h3v56h-3zM814 638.845h3v56h-3zM807 638.845h3v56h-3zM800 638.845h3v56h-3zM793 638.845h3v56h-3zM786 638.845h3v56h-3zM779 638.845h3v56h-3zM772 638.845h3v56h-3zM765 638.845h3v56h-3zM758 638.845h3v56h-3zM751 638.845h3v56h-3zM744 638.845h3v56h-3zM737 638.845h3v56h-3zM730 638.845h3v56h-3zM723 638.845h3v56h-3zM716 638.845h3v56h-3zM709 638.845h3v56h-3zM702 638.845h3v56h-3zM695 638.845h3v56h-3zM688 638.845h3v56h-3zM681 638.845h3v56h-3zM674 638.845h3v56h-3zM667 638.845h3v56h-3zM660 638.845h3v56h-3zM653 638.845h3v56h-3zM646 638.845h3v56h-3zM639 638.845h3v56h-3zM632 638.845h3v56h-3zM625 638.845h3v56h-3zM618 638.845h3v56h-3z"/><path d="M610 654h333v3H610z"/></g><path fill="#f2f8f5" d="m960 8.14 16.253 79.882 5.45 3.445-2.944 9.834v45.933l-6.206 11.831H949v-57.764l-3.297-9.834 5.365-3.445z"/><path fill="#d8dedc" d="M949 101.301h29.759l1.207-4.059-6.207-2.493H954l-6.333 2.493z"/><path fill="#001818" d="M988.394 129.911h-9.616v17.378z"/><path fill="#336d6e" d="m654.821 389 81.765-82.188L803 388h-35.829l-30.585-55.516L706.119 388z"/><path fill="#003536" d="m1143 591 20 32h-40z"/><path fill="#002c2c" d="M1140.5 623h22.5v30h-22.5z"/><path fill="#336d6e" d="M1123 623h20v30h-20z"/><path fill="#003536" d="m1218 591 20 32h-40z"/><path fill="#002c2c" d="M1215.5 623h22.5v30h-22.5z"/><path fill="#336d6e" d="M1198 623h20v30h-20z"/>
</g>



<!-- overlay -->

<g id="animation-contact-overlay" aria-hidden="true">
<path fill="#002b2c" d="M640.89 694.845 588 771H424.467zM1083.5 89.467 1105 203v185l71-.96V387l43-56.516L1262 387l-.013 1H1333v.245l49.559-77.008L1315.235 376 1219 308.751l165.285-.197 26.627-41.37L1497 388.54V388h51v-.484l2.686-3.316L1593 319.748l43.289 65.657 1.711 2.11V388h218v109.165l56.647 167.745h-68.318l5.211 53.396H1839l5.211-53.397-61.564.001.277-.91h-32.708l4.324 44.306H1744l.795-8.148-743.295 41.65-59.745-46.765-75.755-.198L846 663h-43v1H640.889v30.845l-116.08 8.52-102.402 5.021L0 763.956V702.41l421.876 5.7 102.932-13.265h-1v-30.846h-279.78l.512 4.307H234l.511-4.307-46.401.001-.001-34.09h-47.311l4.095 41.964h-10.54l4.095-41.965-60.404.001 3.79-12.432H2l61.623-240 44.148 154.957L139.623 428 188 570.44V388.294l.033-.002L265 360.92v-13.375L0 219.372l265.12-63.862v.215l287.558 149.32 24.302-38.005 71.66 112.276 87.426-72.078-.354-.426H803V203h44l-.036 15H1036l26-15zM1036.618 664l19.072 30.845.31.001 34.762.252-30.042-20.023 366.28 6.273-283.195 14.138 601.017 4.39 3.502-35.876zM63.623 617.874l5.27 54h-10.54zM706 624.377l-.629.002 97.629.001-35.829-.003zM1104.803 618v5h.197v-5zM446.287 386l1.914 3H499l1.917-3zm289.821-78.71L654.821 389l49.179-.962V388l32.586-57.516L769.17 388H803zM265 368.99l-34.102 19.161L277 388h64.91l1.293-2H265zM824.5 89.467l19.371 102.293 78.644-65.271L846 202.999 803 203zm154.278 39.593h9.616l-9.616 18.23z"/><path fill="#003536" d="m576.98 266.04 25.48 40.25 136.652.001-1.639 1.606L803 388h-35.829l-30.585-55.516L706.119 388l-51.298 1-77.841-110.622L499 389h-50.8l-53.24-73.303-53.24 72.597H231.267l.015-.01L189 388l76-41h39.141l-9.43 5.446 36.843-20.816 63.546-26.9 3.093 4.909 57.853 73.11 94.802-75.506zm833.783-.624 30.412 43.335H1603l131.209 54.607-3.237-1.35v-47.6L1740 309h21v49.154l66.546-9.631L1856 388h-53.886l-42.239.28.011.014-1.385-.004-.501.004-.004-.005L1638 388l-45-55.516-45 55.81-51-.294-5.12-7.002 5.12 7.296-86.237-106.767L1333 388.294l-74-.294-40-56.516L1179 387l-74 1v-80.172l114-.077 95.665 67.589-57.365-66.589h126.038zM960 6.14l16.253 80.882 6.45 4.445-2.944 10.834-.548 43.758 9.18-17.133.003-.04.199.374L1062 202.8v.32L1036 218H846v-15.911l75.774-75.497-.07-.103H941v-24.374l-4.068-10.648L941 89.373l18.591-79.486zm11.69 153.959h-26.095l14.794 21.093z"/>
<path fill="#002122" d="M940 638.845h3v56h-3zM933 638.845h3v56h-3zM926 638.845h3v56h-3zM919 638.845h3v56h-3zM912 638.845h3v56h-3zM905 638.845h3v56h-3zM898 638.845h3v56h-3zM891 638.845h3v56h-3zM884 638.845h3v56h-3zM877 638.845h3v56h-3zM870 638.845h3v56h-3zM863 638.845h3v56h-3zM856 638.845h3v56h-3zM849 638.845h3v56h-3zM842 638.845h3v56h-3zM835 638.845h3v56h-3zM828 638.845h3v56h-3zM821 638.845h3v56h-3zM814 638.845h3v56h-3zM807 638.845h3v56h-3zM800 638.845h3v56h-3zM793 638.845h3v56h-3zM786 638.845h3v56h-3zM779 638.845h3v56h-3zM772 638.845h3v56h-3zM765 638.845h3v56h-3zM758 638.845h3v56h-3zM751 638.845h3v56h-3zM744 638.845h3v56h-3zM737 638.845h3v56h-3zM730 638.845h3v56h-3zM723 638.845h3v56h-3zM716 638.845h3v56h-3zM709 638.845h3v56h-3zM702 638.845h3v56h-3zM695 638.845h3v56h-3zM688 638.845h3v56h-3zM681 638.845h3v56h-3zM674 638.845h3v56h-3zM667 638.845h3v56h-3zM660 638.845h3v56h-3zM653 638.845h3v56h-3zM646 638.845h3v56h-3zM639 638.845h3v56h-3zM632 638.845h3v56h-3zM625 638.845h3v56h-3zM618 638.845h3v56h-3z"/>
<path fill="#002122" d="M610 654h333v3H610z"/>
</g>



<!-- windows -->
<g id="animation-contact-windows">
<path fill="#b0381f" d="M392 340h10v20h-10Zm160 159h12v60h-12Zm32 0h12v60h-12Zm350 2h15v50h-15ZM724 376h10v6h-10Zm15 0h10v6h-10Zm680-28h10v40h-10ZM562 449l12.5-20 12.5 20v16h-25zm582 0 12.5-20 12.5 20v40h-25z"/><path fill="#f2f8f5" d="M390 499h15v60h-15Zm-5-119h10v30h-10Zm15 0h10v30h-10Zm324 2h10v24h-10Zm15 0h10v24h-10Zm-175-14h10v20h-10Zm15 0h10v20h-10Zm-209 81 12.5-20 12.5 20v40h-25zm1030 50h18v60h-18Zm-24-58 15-24 15 24v48h-30zm36 0 15-24 15 24v48h-30zm-880 8 12.5-20 12.5 20v40h-25zm60 16h25v24h-25zm277-121.333L881.5 317l12.5 26.667V397h-25zm60 0L941.5 317l12.5 26.667V397h-25zm60 0L1001.5 317l12.5 26.667V397h-25zm-120 95.666L881.5 416l12.5 23.333V486h-25zm30 0L911.5 416l12.5 23.333V486h-25zm60 0L971.5 416l12.5 23.333V486h-25zm30 0L1001.5 416l12.5 23.333V486h-25zM724 449l12.5-20 12.5 20v40h-25zm482-73h10v30h-10Zm15 0h10v30h-10Zm-15 73 12.5-20 12.5 20v40h-25zm365 0 10-20 10 20v40h-20zm25 0 10-20 10 20v40h-20z"/><path fill="#336d6e" d="M1389 348h10v40h-10zM1404 348h10v40h-10zM1376 499h24v60h-24zM1418 499h24v60h-24zM1231 449v40h-25zM1573 376h10v30h-10zM1588 376h10v30h-10z"/><path fill="#812817" d="M1603 376h10v30h-10z"/><path fill="#002c2c" d="M370 499h20v60h-20Zm35 0h20v60h-20Zm127 0h20v60h-20Zm32 0h20v60h-20Zm32 0h21v60h-21Zm128 0h25v60h-25Zm150 2h15v50h-15Zm30 0h15v50h-15Zm60 0h15v50h-15Zm30 0h15v50h-15ZM564 348h10v20h-10Zm15 0h10v20h-10Zm-17 117h25v24h-25zm337-83h25v15h-25zm60 0h25v15h-25zm0 79h25v25h-25zm30 0h25v25h-25zm217 38h25v60h-25Zm-62 0h25v60h-25Zm427 0h20v60h-20Zm25 0h20v60h-20ZM915 191.25h11v11h-11Z"/><path fill="#e47b65" d="M385 370h10v10h-10Zm15 0h10v10h-10Zm324 12h10v24zm15 0h10v24zm-339 67 12.5-20 12.5 20v40h-25zm192 0 12.5-20 12.5 20v40h-25zm-60 16h25v24h-25zm-162 0h25v24h-25zm529-121.333L911.5 317l12.5 26.667V397h-25zm30 0L941.5 317l12.5 26.667v20zm30 0L971.5 317l12.5 26.667V397h-25zm30 0L1001.5 317l12.5 26.667v20zm-60 95.666L941.5 416l12.5 23.333V486h-25zM749 469v20h-25z"/></g>

<!-- mask -->
<g id="animation-contact-mask" aria-hidden="true">
<path fill="#002b2c" fill-rule="evenodd" d="M343 400h31.718v-55.369l8.068-9.853h24.654l6.537 8.222 8.298 57h133.901l.824-57h39.092v57h120.431v-30h36.437v30h109.897v-87h158.657v87h177.731v-27.603h37.694V400h144.917v-55.369h53.908V400h133.47v-27.603H1616l.631 27.603H1643v188H343z"/>
</g>

<!-- glow fill="#f2f8f5" class="animation-contact-glow" -->
<g id="animation-contact-glows">
<path fill="#f2f8f5" class="animation-contact-glow" d="M392 340h10v20h-10z"/>
<pat fill="#f2f8f5" class="animation-contact-glow"h d="M395 380v30h-10v-40h10zm15 0v30h-10v-40h10z"/>
<path fill="#f2f8f5" class="animation-contact-glow" d="M552 499h12v60h-12Zm32 0h12v60h-12Z"/>
<path fill="#f2f8f5" class="animation-contact-glow" d="M724 499h25v60h-25z"/>
<path fill="#f2f8f5" class="animation-contact-glow" d="M874 501h15v50h-15Zm30 0h15v50h-15Zm30 0h15v50h-15Zm30 0h15v50h-15Zm30 0h15v50h-15Z"/>
<path fill="#f2f8f5" class="animation-contact-glow" d="M390 499h15v60h-15z"/>
<path fill="#f2f8f5" class="animation-contact-glow" d="M734 382v24h-10v-30h10zm15 0v24h-10v-30h10z"/>
<path fill="#f2f8f5" class="animation-contact-glow" d="M574 368v20h-10v-40h10zm15 0v20h-10v-40h10z"/>
<path fill="#f2f8f5" class="animation-contact-glow" d="M1389 348h10v40h-10Zm15 0h10v40h-10Zm15 0h10v40h-10Z"/>
<path fill="#f2f8f5" class="animation-contact-glow" d="m370 449 12.5-20 12.5 20v40h-25zm30 0 12.5-20 12.5 20v40h-25z"/>
<path fill="#f2f8f5" class="animation-contact-glow" d="M1400 499h18v60h-18z"/>
<path fill="#f2f8f5" class="animation-contact-glow" d="m532 449 12.5-20 12.5 20v40h-25zm30 0 12.5-20 12.5 20v40h-25zm30 0 12.5-20 12.5 20v40h-25z"/>
<path fill="#f2f8f5" class="animation-contact-glow" d="M869 343.667 881.5 317l12.5 26.667V397h-25zm30 0L911.5 317l12.5 26.667V397h-25z"/>
<path fill="#f2f8f5" class="animation-contact-glow" d="M929 343.667 941.5 317l12.5 26.667V397h-25zm30 0L971.5 317l12.5 26.667V397h-25zm30 0L1001.5 317l12.5 26.667V397h-25z"/>
<path fill="#f2f8f5" class="animation-contact-glow" d="M869 439.333 881.5 416l12.5 23.333V486h-25zm30 0L911.5 416l12.5 23.333V486h-25zm30 0L941.5 416l12.5 23.333V486h-25z"/>
<path fill="#f2f8f5" class="animation-contact-glow" d="M959 439.333 971.5 416l12.5 23.333V486h-25zm30 0L1001.5 416l12.5 23.333V486h-25z"/>
<path fill="#f2f8f5" class="animation-contact-glow" d="m724 449 12.5-20 12.5 20v40h-25z"/>
<path fill="#f2f8f5" class="animation-contact-glow" d="M1206 499h25v60h-25z"/>
<path fill="#f2f8f5" class="animation-contact-glow" d="M1144 499h25v60h-25z"/>
<path fill="#f2f8f5" class="animation-contact-glow" d="M1206 376h10v30h-10Zm15 0h10v30h-10Z"/>
<path fill="#f2f8f5" class="animation-contact-glow" d="m1206 449 12.5-20 12.5 20v40h-25z"/>
<path fill="#f2f8f5" class="animation-contact-glow" d="M1571 499h20v60h-20Zm25 0h20v60h-20Z"/>
<path fill="#f2f8f5" class="animation-contact-glow" d="M1573 376h10v30h-10Zm15 0h10v30h-10Zm15 0h10v30h-10Z"/>
<path fill="#f2f8f5" class="animation-contact-glow" d="m1571 449 10-20 10 20v40h-20zm25 0 10-20 10 20v40h-20z"/>
<path fill="#f2f8f5" class="animation-contact-glow" d="M915 191.25h11v11h-11z"/>
<path fill="#f2f8f5" class="animation-contact-glow" d="m1144 449 12.5-20 12.5 20v40h-25z"/>
</g>

<a aria-controls="animation-contact-overlay animation-contact-lightnings animation-contact-mask" aria-label="Toggle the contact illustration storm" aria-pressed="false" href="#" id="animation-contact-trigger" role="button">
<path fill="#ffbf00" fill-rule="evenodd" d="m1376 441 15-24 15 24v48h-30zm36 0 15-24 15 24v48h-30z"/>
</a>

</svg>
