<svg xmlns="http://www.w3.org/2000/svg" viewBox="0 0 2047 1883"><defs><linearGradient id="index-1-a" x1="50%" x2="50%" y1="0%" y2="100%"><stop offset="0%" stop-color="#001d1e"/><stop offset="100%" stop-color="#8a4400"/></linearGradient><linearGradient id="index-1-c" x1="43.467%" x2="72.315%" y1="39.226%" y2="100%"><stop offset="0%" stop-color="#001d1e"/><stop offset="100%" stop-color="#336d6e"/></linearGradient><linearGradient id="index-1-d" x1="35.033%" x2="35.033%" y1="56.686%" y2="100%"><stop offset="0%" stop-color="#001d1e"/><stop offset="100%" stop-color="#336d6e"/></linearGradient><linearGradient id="index-1-e" x1="35.033%" x2="35.033%" y1="56.686%" y2="100%"><stop offset="0%" stop-color="#001d1e"/><stop offset="100%" stop-color="#336d6e"/></linearGradient><linearGradient id="index-1-f" x1="50%" x2="44.444%" y1="50%" y2="100%"><stop offset="0%" stop-color="#336d6e"/><stop offset="100%" stop-color="#003a3b"/></linearGradient><linearGradient id="index-1-g" x1="50%" x2="72.222%" y1="50%" y2="100%"><stop offset="0%" stop-color="#669292"/><stop offset="100%" stop-color="#336d6e"/></linearGradient><linearGradient id="index-1-h" x1="50%" x2="50%" y1="0%" y2="100%"><stop offset="0%" stop-color="#8a4400"/><stop offset="100%" stop-color="#572b00"/></linearGradient><linearGradient id="index-1-i" x1="50%" x2="50%" y1="0%" y2="80.646%"><stop offset="0%" stop-color="#c0c6c3"/><stop offset="100%" stop-color="#f2f8f5"/></linearGradient><linearGradient id="index-1-j" x1="9.677%" x2="90.323%" y1="40.323%" y2="40.323%"><stop offset="0%" stop-color="#c0c6c3"/><stop offset="100%" stop-color="#f2f8f5"/></linearGradient><linearGradient id="index-1-k" x1="35.033%" x2="35.033%" y1="0%" y2="100%"><stop offset="0%" stop-color="#336d6e"/><stop offset="100%" stop-color="#001d1e"/></linearGradient><linearGradient id="index-1-l" x1="0%" x2="0%" y1="0%" y2="60.435%"><stop offset="0%" stop-color="#572b00"/><stop offset="100%" stop-color="#b85b00"/></linearGradient><linearGradient id="index-1-m" x1="100%" x2="0%" y1="50%" y2="50%"><stop offset="0%" stop-color="#336d6e"/><stop offset="100%" stop-color="#00494a"/></linearGradient><linearGradient id="index-1-n" x1="50%" x2="50%" y1="100%" y2="0%"><stop offset="0%" stop-color="#336d6e"/><stop offset="100%" stop-color="#00494a"/></linearGradient><linearGradient id="index-1-o" x1="50%" x2="50%" y1="22.243%" y2="100%"><stop offset="0%" stop-color="#c0c6c3"/><stop offset="100%" stop-color="#f2f8f5"/></linearGradient><linearGradient id="index-1-p" x1="35.033%" x2="35.033%" y1="56.686%" y2="100%"><stop offset="0%" stop-color="#001d1e"/><stop offset="100%" stop-color="#336d6e"/></linearGradient><linearGradient id="index-1-q" x1="0%" x2="100%" y1="50%" y2="50%"><stop offset="0%" stop-color="#f2f8f5"/><stop offset="100%" stop-color="#c0c6c3"/></linearGradient><linearGradient id="index-1-r" x1="35.033%" x2="35.033%" y1="0%" y2="100%"><stop offset="0%" stop-color="#336d6e"/><stop offset="100%" stop-color="#001d1e"/></linearGradient><linearGradient id="index-1-s" x1="100%" x2="100%" y1="27.697%" y2="159.382%"><stop offset="0%" stop-color="#001d1e"/><stop offset="100%" stop-color="#336d6e"/></linearGradient><linearGradient id="index-1-t" x1="35.033%" x2="35.033%" y1="15.698%" y2="100%"><stop offset="0%" stop-color="#336d6e"/><stop offset="100%" stop-color="#001d1e"/></linearGradient><linearGradient id="index-1-u" x1="50%" x2="50%" y1=".351%" y2="80.646%"><stop offset="0%" stop-color="#c0c6c3"/><stop offset="100%" stop-color="#f2f8f5"/></linearGradient><linearGradient id="index-1-v" x1="0%" x2="100%" y1="50%" y2="50%"><stop offset="0%" stop-color="#b85b00"/><stop offset="100%" stop-color="#8a4400"/></linearGradient><linearGradient id="index-1-w" x1="50%" x2="50%" y1="0%" y2="80.646%"><stop offset="0%" stop-color="#d4d8d6"/><stop offset="100%" stop-color="#f2f8f5"/></linearGradient><linearGradient id="index-1-x" x1="50%" x2="50%" y1="0%" y2="100%"><stop offset="0%" stop-color="#001d1e"/><stop offset="100%" stop-color="#8a4400"/></linearGradient><radialGradient id="index-1-b" cx="50%" cy="16.307%" r="50%" fx="50%" fy="16.307%"><stop offset="0%" stop-color="#ffaf00"/><stop offset="100%" stop-color="#f70"/></radialGradient></defs><g fill="none" fill-rule="evenodd"><path fill="#c0c6c3" d="m163.778 572.778 81.889-81.889 81.889 81.889z"/><path fill="url(#index-1-a)" d="m204.722 654.667 81.889 81.889h-81.889z"/><path fill="#001d1e" d="M204.722 654.667h81.889v81.889z"/><path fill="#f2f8f5" d="m204.722 572.778 40.945-81.889 40.944 81.889z"/><path fill="#c0c6c3" d="m204.722 654.667 40.945-81.889 40.944 81.889z"/><circle cx="245.667" cy="204.278" r="40.944" fill="url(#index-1-b)"/><path fill="#e67200" d="M204.722 572.778h40.945l-16.594 33.204z"/><path fill="#8a4400" d="m286.611 572.778-24.367 33.204-16.577-33.204z"/><path fill="#c0c6c3" d="M163.778 490.889 245.667 409l81.889 81.889z"/><path fill="#f2f8f5" d="M204.722 490.889 245.667 409l40.944 81.889z"/><path fill="#e67200" d="M204.722 490.889h40.945l-16.594 33.204z"/><path fill="#8a4400" d="m286.611 490.889-24.367 33.204-16.577-33.204z"/><path fill="#c0c6c3" d="m163.778 409 81.889-81.889L327.556 409z"/><path fill="#f2f8f5" d="m204.722 409 40.945-81.889L286.611 409z"/><path fill="#e67200" d="M204.722 409h40.945l-16.594 33.205z"/><path fill="#8a4400" d="m286.611 409-24.367 33.205L245.667 409z"/><path fill="#c0c6c3" d="m163.778 327.111 81.889-81.889 81.889 81.889z"/><path fill="#f2f8f5" d="m204.722 327.111 40.945-81.889 40.944 81.889z"/><path fill="#001d1e" d="m204.722 163.333 40.945-81.889 40.944 81.889z"/><path fill="#e67200" d="M204.722 327.111h40.945l-16.594 33.205z"/><path fill="#8a4400" d="m286.611 327.111-24.367 33.205-16.577-33.205z"/><path fill="#c0c6c3" d="m409.444 572.778 81.889-81.889 81.889 81.889z"/><path fill="url(#index-1-a)" d="m450.389 654.667 81.889 81.889h-81.889z"/><path fill="#001d1e" d="M450.389 654.667h81.889v81.889z"/><path fill="#f2f8f5" d="m450.389 572.778 40.944-81.889 40.945 81.889z"/><path fill="#c0c6c3" d="m450.389 654.667 40.944-81.889 40.945 81.889z"/><circle cx="491.333" cy="204.278" r="40.944" fill="url(#index-1-b)"/><path fill="#e67200" d="M450.389 572.778h40.944l-16.593 33.204z"/><path fill="#8a4400" d="m532.278 572.778-24.368 33.204-16.577-33.204z"/><path fill="#c0c6c3" d="M409.444 490.889 491.333 409l81.889 81.889z"/><path fill="#f2f8f5" d="M450.389 490.889 491.333 409l40.945 81.889z"/><path fill="#e67200" d="M450.389 490.889h40.944l-16.593 33.204z"/><path fill="#8a4400" d="m532.278 490.889-24.368 33.204-16.577-33.204z"/><path fill="#c0c6c3" d="m409.444 409 81.889-81.889L573.222 409z"/><path fill="#f2f8f5" d="m450.389 409 40.944-81.889L532.278 409z"/><path fill="#e67200" d="M450.389 409h40.944l-16.593 33.205z"/><path fill="#8a4400" d="m532.278 409-24.368 33.205L491.333 409z"/><path fill="#c0c6c3" d="m409.444 327.111 81.889-81.889 81.889 81.889z"/><path fill="#f2f8f5" d="m450.389 327.111 40.944-81.889 40.945 81.889z"/><path fill="#001d1e" d="m450.389 163.333 40.944-81.889 40.945 81.889z"/><path fill="#e67200" d="M450.389 327.111h40.944l-16.593 33.205z"/><path fill="#8a4400" d="m532.278 327.111-24.368 33.205-16.577-33.205z"/><path fill="#c0c6c3" d="M1269.056 490.889 1350.944 409l81.889 81.889z"/><path fill="#f2f8f5" d="M1310 490.889 1350.944 409l40.945 81.889z"/><path fill="#572b00" d="m1310 572.778 40.944-81.889 40.945 81.889z"/><path fill="#e67200" d="M1310 490.889h40.944l-16.593 33.204z"/><path fill="#8a4400" d="m1391.889 490.889-24.368 33.204-16.577-33.204z"/><path fill="#c0c6c3" d="m1269.056 409 81.888-81.889L1432.833 409z"/><path fill="#f2f8f5" d="m1310 409 40.944-81.889L1391.889 409z"/><path fill="#e67200" d="M1310 409h40.944l-16.593 33.205z"/><path fill="#8a4400" d="m1391.889 409-24.368 33.205L1350.944 409z"/><path fill="#c0c6c3" d="m1269.056 327.111 81.888-81.889 81.889 81.889z"/><path fill="#f2f8f5" d="m1310 327.111 40.944-81.889 40.945 81.889z"/><path fill="#e67200" d="M1310 327.111h40.944l-16.593 33.205z"/><path fill="#8a4400" d="m1391.889 327.111-24.368 33.205-16.577-33.205z"/><path fill="#e67200" d="M1310 245.222h40.944l-16.593 33.205z"/><path fill="#8a4400" d="m1391.889 245.222-24.368 33.205-16.577-33.205z"/><circle cx="1350.944" cy="122.833" r="40.944" fill="url(#index-1-b)"/><path fill="#001d1e" d="M1310 81.889 1350.944 0l40.945 81.889z"/><path fill="#c0c6c3" d="m1269.056 245.667 81.888-81.889 81.889 81.889z"/><path fill="#f2f8f5" d="m1310 245.667 40.944-81.889 40.945 81.889z"/><path fill="#c0c6c3" d="M655.111 572.778 737 490.889l81.889 81.889z"/><path fill="url(#index-1-a)" d="m696.056 654.667 81.888 81.889h-81.888z"/><path fill="#001d1e" d="M696.056 654.667h81.888v81.889z"/><path fill="#f2f8f5" d="M696.056 572.778 737 490.889l40.944 81.889z"/><path fill="#c0c6c3" d="M696.056 654.667 737 572.778l40.944 81.889z"/><circle cx="737" cy="204.278" r="40.944" fill="url(#index-1-b)"/><circle cx="1064.333" cy="204.278" r="40.944" fill="url(#index-1-b)"/><path fill="#001d1e" d="m1023.389 163.333 40.944-81.889 40.945 81.889z"/><path fill="#c0c6c3" d="m1064.333 245.222 81.889 81.889h-81.889z"/><path fill="#f2f8f5" d="M1064.444 245.222v81.889h-81.888z"/><path fill="#c0c6c3" d="M1064.333 327.111 1146.222 409h-81.889z"/><path fill="#f2f8f5" d="M1064.444 327.111V409h-81.888z"/><path fill="#c0c6c3" d="m1064.333 409 81.889 81.889h-81.889z"/><path fill="#f2f8f5" d="M1064.444 409v81.889h-81.888z"/><circle cx="1596.611" cy="204.278" r="40.944" fill="url(#index-1-b)"/><path fill="#001d1e" d="m1555.667 163.333 40.944-81.889 40.945 81.889z"/><path fill="#c0c6c3" d="m1596.611 245.222 40.945 81.889h-40.945z"/><path fill="#f2f8f5" d="M1596.611 245.222v81.889h-40.944z"/><path fill="#c0c6c3" d="M1596.611 327.111 1637.556 409h-40.945z"/><path fill="#f2f8f5" d="M1596.611 327.111V409h-40.944z"/><path fill="#c0c6c3" d="m1596.611 409 40.945 81.889h-40.945z"/><path fill="#f2f8f5" d="M1596.611 409v81.889h-40.944z"/><path fill="#c0c6c3" d="m1596.611 490.889 40.945 81.889h-40.945z"/><path fill="#f2f8f5" d="M1596.611 490.889v81.889h-40.944z"/><circle cx="1760.389" cy="204.278" r="40.944" fill="url(#index-1-b)"/><path fill="#001d1e" d="m1719.444 163.333 40.945-81.889 40.944 81.889z"/><path fill="#c0c6c3" d="m1760.389 245.222 40.944 81.889h-40.944z"/><path fill="#f2f8f5" d="M1760.389 245.222v81.889h-40.945z"/><path fill="#c0c6c3" d="M1760.389 327.111 1801.333 409h-40.944z"/><path fill="#f2f8f5" d="M1760.389 327.111V409h-40.945z"/><path fill="#c0c6c3" d="m1760.389 409 40.944 81.889h-40.944z"/><path fill="#f2f8f5" d="M1760.389 409v81.889h-40.945z"/><path fill="#c0c6c3" d="m1760.389 490.889 40.944 81.889h-40.944z"/><path fill="#f2f8f5" d="M1760.389 490.889v81.889h-40.945z"/><path fill="#e67200" d="M696.056 572.778H737l-16.594 33.204z"/><path fill="#8a4400" d="m777.944 572.778-24.367 33.204L737 572.778z"/><path fill="#c0c6c3" d="M655.111 490.889 737 409l81.889 81.889z"/><path fill="#f2f8f5" d="M696.056 490.889 737 409l40.944 81.889z"/><path fill="#e67200" d="M696.056 490.889H737l-16.594 33.204z"/><path fill="#8a4400" d="m777.944 490.889-24.367 33.204L737 490.889z"/><path fill="#c0c6c3" d="M655.111 409 737 327.111 818.889 409z"/><path fill="#f2f8f5" d="M696.056 409 737 327.111 777.944 409z"/><path fill="#e67200" d="M696.056 409H737l-16.594 33.205z"/><path fill="#8a4400" d="m777.944 409-24.367 33.205L737 409z"/><path fill="#c0c6c3" d="M655.111 327.111 737 245.222l81.889 81.889z"/><path fill="#f2f8f5" d="M696.056 327.111 737 245.222l40.944 81.889z"/><path fill="#001d1e" d="M696.056 163.333 737 81.444l40.944 81.889z"/><path fill="#e67200" d="M696.056 327.111H737l-16.594 33.205z"/><path fill="#8a4400" d="m777.944 327.111-24.367 33.205L737 327.111z"/><path fill="url(#index-1-c)" d="M163.778 736.556v245.155h163.778z"/><path fill="#f0f7f4" d="M163.778 736.556h81.889l81.889 245.155z"/><path fill="#b85b00" d="M327.556 736.556h81.888l-81.888 245.155"/><path fill="url(#index-1-d)" d="M327.556 981.711h245.666L409.444 736.556z"/><path fill="#c0c6c3" d="M573.222 981.711V736.812l-163.778-.256z"/><path fill="#336d6e" d="M573.222 736.556 737 981.711H573.222z"/><path fill="#c0c6c3" d="m573.222 736.556 245.667 245.155H737z"/><path fill="#f0f7f4" d="M818.889 981.711V736.556H573.222z"/><path fill="#f2f8f5" d="M163.778 981.711h163.778l-163.778 573.222zM327.556 981.711h245.666v327.556z"/><path fill="url(#index-1-e)" d="M573.222 981.711v491.334H737z"/><path fill="#f2f8f5" d="M573.222 981.711H737v491.334z"/><path fill="#336d6e" d="M737 981.711h163.778v491.334H737z"/><path fill="url(#index-1-f)" d="m737 981.711 163.778 491.334H737z"/><path fill="#336d6e" d="M737 1473.045h163.778v245.666H737z"/><path fill="#001d1e" d="M737 1473.045h163.778v245.666z"/><path fill="#669292" d="M573.222 1473.045H737v245.666H573.222z"/><path fill="url(#index-1-g)" d="M737 1473.045v245.666H573.222z"/><path fill="#f2f8f5" d="M900.778 1063.6h491.185l245.593 81.889H900.778z"/><path fill="#572b00" d="M1228.111 899.822h163.778V1063.6h-163.778z"/><path fill="#c0c6c3" d="M982.667 899.822h163.555V1063.6H982.667z"/><path fill="#8a4400" d="m1064.333 899.822 81.889 163.778h-81.889z"/><path fill="url(#index-1-h)" d="M1228.111 899.822 1310 981.711l81.889-81.889z"/><path fill="#001d1e" d="m1310 981.711 81.889 81.889h-163.778zM1310 572.778h81.889v81.889H1310z"/><path fill="#f2f8f5" d="M1310 654.667h81.889v163.266H1310z"/><path fill="url(#index-1-i)" d="m1310 654.667 81.889 163.266H1310z"/><path fill="#001d1e" d="M1310 817.933h81.889v81.889H1310z"/><path fill="#ffbf00" d="m1023.389 613.722 81.889 40.945h-81.889z"/><path fill="#f2f8f5" d="M1473.778 899.822h81.889V1063.6h-81.889z"/><path fill="url(#index-1-j)" d="M1391.889 899.822h86.802V1063.6h-86.802z"/><path fill="#336d6e" d="M1555.667 899.822h81.889l-81.889 163.778z"/><path fill="url(#index-1-k)" d="M1637.556 899.822V1063.6h-81.889z"/><path fill="#fff" d="M1637.556 899.822h81.888v81.889h-81.888zM1555.691 1271.598H900.778v-103.18h736.778z"/><path fill="#c0c6c3" d="M900.778 1718.711v-573.222h736.778v573.222z"/><path fill="url(#index-1-l)" d="m1391.889 1391.156-245.667 327.555v-327.555z"/><path fill="#b85b00" d="M1391.889 1391.156v327.555h-245.667z"/><path fill="url(#index-1-m)" d="M1391.889 1391.156v-81.889h-245.667v81.889z"/><path fill="url(#index-1-n)" d="M1146.222 1391.156h-81.889v327.555h81.889z"/><path fill="#00494a" d="m1146.222 1309.267-81.889 81.889h81.889z"/><path fill="url(#index-1-o)" d="m1637.556 1145.489-245.667 573.222h245.667z"/><path fill="url(#index-1-p)" d="m327.556 981.711 245.666 573.222H327.556z"/><path fill="#001d1e" d="M327.556 1554.933h245.666v163.778H327.556z"/><path fill="#f2f8f5" d="M409.444 1554.933h163.778v81.889z"/><path fill="#001d1e" d="M327.556 1718.711 0 1554.933v327.556z"/><path fill="#8a4400" d="m0 1882.489 327.556-163.778L737 1882.489z"/><path fill="url(#index-1-q)" d="m737 1718.711 327.333 81.889L737 1882.489z"/><path fill="#336d6e" d="M737 1718.711h163.667l163.666 81.889z"/><path fill="#fff" d="M737.819 1473.045v245.666"/><path fill="#336d6e" d="M1637.556 899.822v245.667l163.777-245.667zM1801.333 899.822v245.667h-81.889z"/><path fill="url(#index-1-r)" d="m1801.333 899.822-81.889 245.667h-81.888z"/><path fill="url(#index-1-s)" d="M1883.222 1391.156v327.555h-245.666z"/><path fill="url(#index-1-t)" d="m1637.556 1145.489 245.666 245.667-245.666 327.555z"/><path fill="#f2f8f5" d="M1883.222 1227.378h81.889v491.333z"/><path fill="url(#index-1-u)" d="m1883.222 1227.378 81.889 491.333h-81.889z"/><path fill="#001d1e" d="M1719.444 1227.378h163.778v72.062zM1801.333 1718.711H2047v163.778z"/><path fill="#8a4400" d="M1801.333 1718.711v163.778H2047z"/><path fill="#669292" d="M1391.889 1718.711h409.444v163.778z"/><path fill="#001d1e" d="M1391.889 1718.711V1883l409.444-.511z"/><path fill="#001d1e" d="M900.778 1718.711h491.111v163.778z"/><path fill="url(#index-1-v)" d="M1064.333 899.822v-81.889h81.889v81.889"/><path fill="url(#index-1-w)" d="M1064.333 817.933V654.667h40.945l40.944 163.266"/><path fill="#b85b00" d="M982.556 899.822v-81.889h81.888v81.889"/><path fill="#f2f8f5" d="m982.556 817.933 40.944-163.266h40.944v163.266"/><path fill="url(#index-1-a)" d="m1023.389 572.778 81.889 81.889h-81.889z"/><path fill="#001d1e" d="M1023.389 572.778h81.889v81.889zM1084.806 531.833l20.472 40.945h-40.945z"/><path fill="#572b00" d="m1043.861 531.833 20.472 40.945h-40.944z"/><path fill="#8a4400" d="M1064.333 490.889h40.945l-40.945 81.889z"/><path fill="#e67200" d="M1023.389 490.889h40.944v81.889z"/><path fill="#fff" d="M1301.811 736.3v81.889h-34.393z"/><path fill="#8a4400" d="M1310 572.778v327.044h-81.889z"/><path fill="#001d1e" d="M1637.556 572.778v245.155h-81.889z"/><path fill="#8a4400" d="M1555.667 572.778h81.889l-81.889 245.155z"/><path fill="#c0c6c3" d="M1555.667 817.933h81.889v81.889h-81.889z"/><path fill="url(#index-1-x)" d="M1555.667 817.933h81.889v40.945z"/><path fill="url(#index-1-w)" d="M1719.444 736.556h81.889l-81.889 163.266z"/><path fill="#f2f8f5" d="M1801.333 736.556v163.266h-81.889z"/><path fill="#001d1e" d="M1719.444 572.778h81.889v163.778h-81.889zM1801.333 981.711h163.778l-81.889 163.778h-81.889z"/><path fill="#f70" d="M1637.556 1145.489H2047l-163.778 81.889h-163.778z"/><path fill="#336d6e" d="M327.556 981.711v327.556l-163.778 245.666z"/><path fill="#c0c6c3" d="M163.778 1554.933h163.778v-245.666zM245.667 736.556h81.889v245.155z"/><path fill="#f2f8f5" d="M327.556 1718.711H737v163.778z"/><path fill="#00494a" d="m1883.222 1227.378 81.889-40.945v40.945z"/><path fill="#336d6e" d="m1719.444 1227.378 163.778 72.062v91.716z"/><path fill="#8a4400" d="m327.556 981.711 245.666 573.222v-245.666z"/><path fill="#00494a" d="m900.778 1718.711 327.407 163.778h163.704z"/><path fill="#f2f8f5" d="M0 1554.933h327.556v163.778z"/><path fill="#001d1e" d="M1391.889 1063.6h245.667v81.889zM900.778 1145.489h736.778l-35.026 81.889H900.778z"/><path fill="#f2f8f5" d="M737 1882.489h491.111l-163.704-81.889z"/></g></svg>