<svg xmlns="http://www.w3.org/2000/svg" viewBox="0 0 2047 1883" id="animation-sectors">

<!-- static elements -->

<g fill="none" fill-rule="evenodd"><path fill="#c0c6c3" d="m361.174 697.246 69.725 69.725h-139.45zm0-69.724 69.725 69.724h-139.45zm-34.862 209.174 34.862-69.725 34.862 69.725zm34.862-278.899 69.725 69.725h-139.45zm0-69.725 69.725 69.725h-139.45zm209.174 209.174 69.724 69.725H500.623zm0-69.724 69.724 69.724H500.623zm-34.863 209.174 34.863-69.725 34.862 69.725zm34.863-278.899 69.724 69.725H500.623zm0-69.725 69.724 69.725H500.623zm662.268 209.174 69.725-69.724 69.724 69.724zm69.725-139.449 69.724 69.725h-139.449zm0-69.725 69.724 69.725h-139.449zm0-69.724 69.724 69.724h-139.449zm0-69.725 69.724 69.725h-139.449zm0-69.724 69.724 69.724h-139.449zm0-69.725 69.724 69.725h-139.449zm0-69.725 69.724 69.725h-139.449zM779.52 697.246l69.725 69.725H709.797zm0-69.724 69.725 69.724H709.797zM744.66 836.696l34.863-69.725 34.862 69.725zm313.645-278.899 69.725 69.725h-69.725zm0-69.725 69.725 69.725h-69.725zm0 139.45 69.725 69.724h-69.725zm453.21-69.725 34.863 69.725h-34.862zm0-69.725 34.863 69.725h-34.862zm0 209.174 34.863 69.725h-34.862zm0-69.724 34.863 69.724h-34.862zm139.45-69.725 34.862 69.725h-34.862zm0-69.725 34.862 69.725h-34.862zm0 209.174 34.862 69.725h-34.862zm0-69.724 34.862 69.724h-34.862zm-871.442-69.725 69.724 69.725H709.797zm0-69.725 69.724 69.725H709.797z"/><path fill="#f70" d="m326.312 836.696 69.724 69.724h-69.724z"/><path fill="#d8dedc" d="m326.312 766.971 34.862-69.725 34.862 69.725z"/><path fill="#f70" d="M326.312 766.971h34.862l-14.129 28.272z"/><path fill="#e66b00" d="m396.036 766.971-20.748 28.272-14.114-28.272z"/><path fill="#d8dedc" d="m326.312 697.246 34.862-69.724 34.862 69.724z"/><path fill="#f70" d="M326.312 697.246h34.862l-14.129 28.272z"/><path fill="#e66b00" d="m396.036 697.246-20.748 28.272-14.114-28.272z"/><path fill="#d8dedc" d="m326.312 627.522 34.862-69.725 34.862 69.725z"/><path fill="#f70" d="M326.312 627.522h34.862l-14.129 28.272z"/><path fill="#e66b00" d="m396.036 627.522-20.748 28.272-14.114-28.272z"/><path fill="#d8dedc" d="m326.312 557.797 34.862-69.725 34.862 69.725z"/><path fill="#f70" d="M326.312 557.797h34.862l-14.129 28.272z"/><path fill="#e66b00" d="m396.036 557.797-20.748 28.272-14.114-28.272z"/><path fill="#f70" d="m535.485 836.696 69.725 69.724h-69.725z"/><path fill="#d8dedc" d="m535.485 766.971 34.863-69.725 34.862 69.725z"/><path fill="#f70" d="M535.485 766.971h34.863l-14.129 28.272z"/><path fill="#e66b00" d="m605.21 766.971-20.748 28.272-14.114-28.272z"/><path fill="#d8dedc" d="m535.485 697.246 34.863-69.724 34.862 69.724z"/><path fill="#f70" d="M535.485 697.246h34.863l-14.129 28.272z"/><path fill="#e66b00" d="m605.21 697.246-20.748 28.272-14.114-28.272z"/><path fill="#d8dedc" d="m535.485 627.522 34.863-69.725 34.862 69.725z"/><path fill="#f70" d="M535.485 627.522h34.863l-14.129 28.272z"/><path fill="#e66b00" d="m605.21 627.522-20.748 28.272-14.114-28.272z"/><path fill="#d8dedc" d="m535.485 557.797 34.863-69.725 34.862 69.725z"/><path fill="#f70" d="M535.485 557.797h34.863l-14.129 28.272z"/><path fill="#e66b00" d="m605.21 557.797-20.748 28.272-14.114-28.272z"/><path fill="#d8dedc" d="m1267.478 697.246 34.863-69.724 34.862 69.724z"/><path fill="#f70" d="m1267.478 766.971 34.863-69.725 34.862 69.725z"/><path fill="#e67200" d="M1267.478 697.246h34.863l-14.129 28.272z"/><path fill="#e66b00" d="m1337.203 697.246-20.748 28.272-14.114-28.272z"/><path fill="#d8dedc" d="m1267.478 627.522 34.863-69.725 34.862 69.725z"/><path fill="#f70" d="M1267.478 627.522h34.863l-14.129 28.272z"/><path fill="#e66b00" d="m1337.203 627.522-20.748 28.272-14.114-28.272z"/><path fill="#d8dedc" d="m1267.478 557.797 34.863-69.725 34.862 69.725z"/><path fill="#f70" d="M1267.478 557.797h34.863l-14.129 28.272z"/><path fill="#e66b00" d="m1337.203 557.797-20.748 28.272-14.114-28.272z"/><path fill="#d8dedc" d="m1267.478 488.072 34.863-69.724 34.862 69.724z"/><path fill="#f70" d="M1267.478 488.072h34.863l-14.129 28.273z"/><path fill="#e66b00" d="m1337.203 488.072-20.748 28.273-14.114-28.273z"/><path fill="#d8dedc" d="m1267.478 418.348 34.863-69.725 34.862 69.725z"/><path fill="#f70" d="M1267.478 418.348h34.863l-14.129 28.272z"/><path fill="#e66b00" d="m1337.203 418.348-20.748 28.272-14.114-28.272z"/><path fill="#d8dedc" d="m1267.478 348.623 34.863-69.724 34.862 69.724z"/><path fill="#f70" d="M1267.478 348.623h34.863l-14.129 28.272z"/><path fill="#e66b00" d="m1337.203 348.623-20.748 28.272-14.114-28.272z"/><path fill="#d8dedc" d="m1267.478 278.899 34.863-69.725 34.862 69.725z"/><path fill="#f70" d="M1267.478 278.899h34.863l-14.129 28.272z"/><path fill="#e66b00" d="m1337.203 278.899-20.748 28.272-14.114-28.272z"/><path fill="#d8dedc" d="m1267.478 209.174 34.863-69.725 34.862 69.725z"/><path fill="#f70" d="M1267.478 209.174h34.863l-14.129 28.272z"/><path fill="#e66b00" d="m1337.203 209.174-20.748 28.272-14.114-28.272z"/><path fill="#f70" d="m744.659 836.696 69.725 69.724h-69.725z"/><path fill="#d8dedc" d="m744.659 766.971 34.863-69.725 34.862 69.725z"/><path fill="#d8dedc" d="M1058.362 488.072v69.725h-69.724z"/><path fill="#d8dedc" d="M1058.362 557.797v69.725h-69.724z"/><path fill="#d8dedc" d="M1058.362 627.522v69.724h-69.724z"/><path fill="#d8dedc" d="M1511.515 488.072v69.725h-34.863z"/><path fill="#d8dedc" d="M1511.515 557.797v69.725h-34.863z"/><path fill="#d8dedc" d="M1511.515 627.522v69.724h-34.863z"/><path fill="#d8dedc" d="M1511.515 697.246v69.725h-34.863z"/><path fill="#d8dedc" d="M1650.964 488.072v69.725h-34.863z"/><path fill="#d8dedc" d="M1650.964 557.797v69.725h-34.863z"/><path fill="#d8dedc" d="M1650.964 627.522v69.724h-34.863z"/><path fill="#d8dedc" d="M1650.964 697.246v69.725h-34.863z"/><path fill="#f70" d="M744.659 766.971h34.863l-14.129 28.272z"/><path fill="#e66b00" d="m814.384 766.971-20.748 28.272-14.114-28.272z"/><path fill="#d8dedc" d="m744.659 697.246 34.863-69.724 34.862 69.724z"/><path fill="#f70" d="M744.659 697.246h34.863l-14.129 28.272z"/><path fill="#e66b00" d="m814.384 697.246-20.748 28.272-14.114-28.272z"/><path fill="#d8dedc" d="m744.659 627.522 34.863-69.725 34.862 69.725z"/><path fill="#f70" d="M744.659 627.522h34.863l-14.129 28.272z"/><path fill="#e66b00" d="m814.384 627.522-20.748 28.272-14.114-28.272z"/><path fill="#d8dedc" d="m744.659 557.797 34.863-69.725 34.862 69.725z"/><path fill="#f70" d="M744.659 557.797h34.863l-14.129 28.272z"/><path fill="#e66b00" d="m814.384 557.797-20.748 28.272-14.114-28.272z"/><path fill="#a3aba7" d="M291.449 906.42v209.174h139.45z"/><path fill="#d8dedc" d="M291.449 906.42h69.725l69.725 209.174z"/><path fill="#a3aba7" d="M430.899 906.42h69.724l-69.724 209.174"/><path fill="#d8dedc" d="M430.899 1115.594h209.173L500.623 906.42z"/><path fill="#c0c6c3" d="M640.072 1115.594V906.639l-139.449-.219z"/><path fill="#d8dedc" d="m640.072 906.42 139.45 209.174h-139.45z"/><path fill="#c0c6c3" d="m640.072 906.42 209.174 209.174h-69.724z"/><path fill="#d8dedc" d="M849.246 1115.594V906.42H640.072z"/><path fill="#d8dedc" d="M291.449 1115.594h139.45l-139.45 488.072z"/><path fill="#d8dedc" d="M430.899 1115.594h209.173v278.899z"/><path fill="#bdc4c0" d="M640.072 1115.594v418.348h139.45z"/><path fill="#d8dedc" d="M640.072 1115.594h139.45v418.348z"/><path fill="#d8dedc" d="M779.522 1115.594h139.449v418.348H779.522z"/><path fill="#bdc4c0" d="m779.522 1115.594 139.449 418.348H779.522z"/><path fill="#bdc4c0" d="M779.522 1533.942h139.449v209.174H779.522z"/><path fill="#a3aba7" d="M779.522 1533.942h139.449v209.174z"/><path fill="#a3aba7" d="M640.072 1533.942h139.45v209.174h-139.45z"/><path fill="#d8dedc" d="M779.522 1533.942v209.174h-139.45z"/><path fill="#f2f8f5" d="M918.971 1185.319h418.271l209.135 69.724H918.971z"/><path fill="#572b00" d="M1197.754 1045.869h139.449v139.45h-139.449z"/><path fill="#f70" d="M988.696 1045.869h139.333v139.45H988.696z"/><path fill="#8a4400" d="m1197.754 1045.869 69.724 69.725 69.725-69.725z"/><path fill="#a3aba7" d="M1267.478 766.971h69.725v69.725h-69.725z"/><path fill="#d8dedc" d="M1267.478 836.696h69.725v139.449h-69.725z"/><path fill="#c0c6c3" d="m1267.478 836.696 69.725 139.449h-69.725z"/><path fill="#a3aba7" d="M1267.478 976.145h69.725v69.724h-69.725z"/><path fill="#ffbf00" d="m1023.442 801.833 69.725 34.863h-69.725z"/><path fill="#d8dedc" d="M1406.928 1045.869h69.724v139.45h-69.724z"/><path fill="#c0c6c3" d="M1337.203 1045.869h69.725v139.45h-69.725z"/><path fill="#c0c6c3" d="M1476.652 1045.869h69.725l-69.725 139.45z"/><path fill="#a3aba7" d="M1546.377 1045.869v139.45h-69.725z"/><path fill="#fff" d="M1546.377 1045.869h69.724v69.725h-69.724z"/><path fill="#fff" d="M1476.665 1362.419H918.971v-87.853h627.406z"/><path fill="#c0c6c3" d="M918.971 1743.116v-488.073h627.406v488.073z"/><path fill="#f70" d="m1337.203 1464.217-209.174 278.899v-278.899z"/><path fill="#3e4441" d="M1337.203 1464.217v-69.724h-209.174v69.724z"/><path fill="#3e4441" d="M1128.029 1464.217h-69.725v278.899h69.725z"/><path fill="#001d1e" d="m1128.029 1394.493-69.725 69.724h69.725z"/><path fill="#d8dedc" d="m1546.377 1255.043-209.174 488.073h209.174z"/><path fill="#a3aba7" d="m430.899 1115.594 209.173 488.072H430.899z"/><path fill="#bdc4c0" d="M430.899 1603.666h209.173v139.45H430.899z"/><path fill="#d8dedc" d="M500.623 1603.666h139.449v69.725z"/><path fill="#8a4400" d="m152 1882.565 278.899-139.449 348.623 139.449z"/><path fill="#c0c6c3" d="m779.522 1743.116 278.782 69.724-278.782 69.725z"/><path fill="#336d6e" d="m1058.343 1812.84 139.41 69.725H779.523zm-139.43-69.724 139.391 69.724-278.782-69.724zm766.913 0v139.449l-348.623-139.45zm361 0v139.449L1895 1743.275v139.29l-209.174-139.45h361"/><path fill="#fff" d="M778.824 1533.942v209.174"/><path fill="#d8dedc" d="M1546.377 1045.869v209.174l139.449-209.174z"/><path fill="#d8dedc" d="M1685.826 1045.869v209.174h-69.725z"/><path fill="#a3aba7" d="m1685.826 1045.869-69.725 209.174h-69.724z"/><path fill="#c0c6c3" d="m1546.377 1255.043 209.174 209.174-209.174 278.899z"/><path fill="#d8dedc" d="M1755.551 1324.768h69.724v418.348z"/><path fill="#c0c6c3" d="m1755.551 1324.768 69.724 418.348h-69.724z"/><path fill="#00494a" d="m1894.826 1743.116 152 139.449h-361v-139.45l209 139.334zm-975.855 0 278.821 139.449h139.411z"/><path fill="#8a4400" d="M-.174 1743.116v139.449h152z"/><path fill="#001d1e" d="M918.971 1743.116h418.232v139.449z"/><path fill="#c0c6c3" d="M1058.304 976.145V836.696h34.863l34.862 139.449"/><path fill="#f70" d="M988.638 1045.869v-69.724h69.724v69.724"/><path fill="#d8dedc" d="m988.638 976.145 34.862-139.449h34.862v139.449"/><path fill="#f70" d="m1023.442 766.971 69.725 69.725h-69.725z"/><path fill="#e66b00" d="M1023.442 766.971h69.725v69.725z"/><path fill="#e66b00" d="m1075.736 732.109 17.431 34.862h-34.863z"/><path fill="#e66b00" d="m1040.873 732.109 17.431 34.862h-34.862z"/><path fill="#e66b00" d="M1058.304 697.246h34.863l-34.863 69.725z"/><path fill="#f70" d="M1023.442 697.246h34.862v69.725z"/><path fill="#fff" d="M1260.506 906.42v69.725h-29.284z"/><path fill="#f70" d="M1267.478 766.971v278.898h-69.724z"/><path fill="#f70" d="M1476.652 766.971h69.725l-69.725 209.174z"/><path fill="#d8dedc" d="M1476.652 976.145h69.725v69.724h-69.725z"/><path fill="#f70" d="M1476.652 976.145h69.725v34.862z"/><path fill="#c0c6c3" d="M1616.101 906.42h69.725l-69.725 139.449z"/><path fill="#d8dedc" d="M1685.826 906.42v139.449h-69.725z"/><path fill="#e66b00" d="M1616.101 766.971h69.725V906.42h-69.725z"/><path fill="#a3aba7" d="M1685.826 1115.594h139.449l-69.724 139.449h-69.725z"/><path fill="#bdc4c0" d="M430.899 1115.594v278.899l-139.45 209.173z"/><path fill="#c0c6c3" d="M291.449 1603.666h139.45v-209.173z"/><path fill="#c0c6c3" d="M361.174 906.42h69.725v209.174z"/><path fill="#bdc4c0" d="M430.899 1743.116h348.623v139.449z"/><path fill="#572b00" d="m1755.551 1324.768 69.724-34.862v34.862z"/><path fill="#d8dedc" d="m1616.101 1324.768 139.45 61.358v78.091z"/><path fill="#c0c6c3" d="m430.899 1115.594 209.173 488.072v-209.173z"/><path fill="#d8dedc" d="M152 1603.666h278.899v139.45z"/><path fill="#a3aba7" d="M1337.203 1185.319h209.174v69.724z"/><path fill="#001d1e" d="m326.312 418.348 34.862-69.725 34.862 69.725zm209.173 0 34.863-69.725 34.862 69.725zm731.993-348.623L1302.341 0l34.862 69.725zm-244.036 348.623 34.862-69.725 34.863 69.725zm453.21 0 34.863-69.725 34.862 69.725zm139.45 0 34.862-69.725 34.862 69.725zm-871.443 0 34.863-69.725 34.862 69.725zm522.82 697.246 69.724 69.725h-139.45zm69.724 627.522 348.623 139.449-348.623.435zm418.348-278.899v278.899h-209.174zm-139.45-139.45h139.45v61.359zm-69.724-69.724H1895l-139.45 69.725h-139.449zm-627.406 0h627.406l-29.826 69.725H918.97z"/><path fill="#e66b00" d="M326.312 836.696h69.724v69.724zm209.173 0h69.725v69.724zm209.174 0h69.725v69.724zm313.645 209.173 69.725 139.45h-69.725zm69.725-69.724v69.724h-69.725v-69.724zm209.174 488.072v278.899h-209.174zm-906.304 278.899L152 1603.666v278.899zm-431.073 0h152v139.449zm1546.55-976.145v209.174h-69.724z"/></g>

<g>
<circle fill="#ffbf00" cx="361.174" cy="453.21" r="34.862" class="animation-sectors-glow" style="--animation-sectors-delay: -0.2s;"/>
<circle fill="#ffbf00" cx="570.348" cy="453.21" r="34.862" class="animation-sectors-glow" style="--animation-sectors-delay: -0.55s;"/>
<circle fill="#ffbf00" cx="1302.341" cy="104.587" r="34.862" class="animation-sectors-glow" style="--animation-sectors-delay: -0.9s;"/>
<circle fill="#ffbf00" cx="779.522" cy="453.21" r="34.862" class="animation-sectors-glow" style="--animation-sectors-delay: -1.25s;"/>
<circle fill="#ffbf00" cx="1058.304" cy="453.21" r="34.862" class="animation-sectors-glow" style="--animation-sectors-delay: -1.6s;"/>
<circle fill="#ffbf00" cx="1511.515" cy="453.21" r="34.862" class="animation-sectors-glow" style="--animation-sectors-delay: -1.95s;"/>
<circle fill="#ffbf00" cx="1650.964" cy="453.21" r="34.862" class="animation-sectors-glow" style="--animation-sectors-delay: -2.3s;"/>
</g>


</svg>
