<svg xmlns="http://www.w3.org/2000/svg" viewBox="0 0 1921 1798"><g fill="none" fill-rule="evenodd"><path fill="#f1f3f2" d="M0 249.704 152 402v1395.528L0 1674.667z"/><path fill="#d8dedc" d="m0 249.704 152 1547.824-152-120z"/><path fill="#003a3b" d="M615 350h1305v50H615zM615 800h1305v50H615zM615 1250h1305v50H615z"/><path fill="#959f9a" d="M351 1500h1399v250h-150.293v-50.252h-49.225V1750h-300.313v-50.252h-49.939V1750H900.304v-50.252h-50.001V1750H549.621v-50.252h-49.879V1750H351z"/><path fill="#001d1e" d="M351 1599.333h1399V1750h-150.293v-50.252h-49.225V1750h-300.313v-50.252h-49.939V1750H900.304v-50.252h-50.001V1750H549.621v-50.252h-49.879V1750H351z"/><path fill="#336d6e" d="M318 220h297v1280H318z"/><path fill="#003a3b" d="M314 220h301v1210z"/><path fill="#f1f3f2" d="M1178 81h322v70h-322z"/><g><path fill="#d8dedc" d="M550 275h50v200h-50z"/><path fill="#c0c6c3" d="M600 275v200h-50z"/></g><g><path fill="#d8dedc" d="M550 725h50v200h-50z"/><path fill="#c0c6c3" d="M600 725v200h-50z"/></g><g><path fill="#d8dedc" d="M550 1175h50v200h-50z"/><path fill="#c0c6c3" d="M600 1175v200h-50z"/></g><path fill="#f1f3f2" d="M317.707 0H431.26l118.686 116.672v116.163L433.826 350H317.707L199.946 232.835V116.672z"/><path fill="#d8dedc" d="M549.946 175v57.835L433.826 350H317.707L199.946 232.835V175z"/><path fill="#c0c6c3" d="M200 175h50l67.707 175L200 233.19zM549.946 175l.054 57.847L433.826 350l66.12-175z"/><path fill="#d8dedc" d="M549.946 116.672V175h-50z"/><path fill="#f1f3f2" d="M550 25h50v200h-50z"/><path fill="#d8dedc" d="M600 25v200h-50z"/><g><path fill="#f70" d="M550 225h50v50h-50z"/><path fill="#e66b00" d="m550 225 50 50h-50z"/></g><path fill="#959f9a" d="M600 50h15v200h-15z"/><path fill="#d8dedc" d="M615 50h35v200h-35z"/><path fill="#c0c6c3" d="m615 50 35 200h-35z"/><g><path fill="#d8dedc" d="M928 50h50v200h-50z"/><path fill="#c0c6c3" d="M928 150h50v100h-50z"/><path fill="#d8dedc" d="M1128 50h50v200h-50z"/><path fill="#f1f3f2" d="M1017.672 80h69.508l40.289 46.282v77.543L1087.57 250h-69.898L978 203.825v-77.543z"/><path fill="#d8dedc" d="M1127.469 203.825 1087.57 250h-69.898L978 203.825v-77.543z"/><path fill="#959f9a" d="M1041.271 140h23.252L1078 153.612v22.807L1064.653 190h-23.382L1028 176.419v-22.807z"/><path fill="#001d1e" d="M1041.271 140h23.252L1078 153.612l-50 22.807v-22.807z"/><path fill="#f1f3f2" d="M1029 0h50v80h-50z"/><path fill="#d8dedc" d="M1079 0v80h-50z"/><path fill="#001d1e" d="m928 250 50 50h51v-50h-11.328L978 203.825V250zM1178 250l-50.531 50H1079v-50h8.57l40.43-46.77V250z"/><path fill="#c0c6c3" d="M1029 250h50v50h-50z"/><path fill="#a5aea9" d="M1029 250h50l-50 50z"/><path fill="#959f9a" d="M978 80h39.672L978 126.282zM1086.212 80H1128v46.282z"/><path fill="#c0c6c3" d="M978 300h150v50H978z"/><path fill="#a5aea9" d="M978 300h150l-150 50z"/><path fill="#c0c6c3" d="M1128 150h50v100h-50z"/><path fill="#e6eae8" d="m1178 80 80 70h-80z"/></g><path fill="#f1f3f2" d="M650 80h278v70H650z"/><path fill="#e6eae8" d="m650 80 70 70h-70z"/><path fill="#d8dedc" d="M650 150h278v70H650z"/><path fill="#cdd2d0" d="M928 150v70H650z"/><path fill="#d8dedc" d="M1178 150h322v70h-322z"/><path fill="#cdd2d0" d="M1500 150v70h-322z"/><path fill="#f1f3f2" d="M1750 80h170v70h-170z"/><path fill="#d8dedc" d="M1750 150h170v70h-170z"/><path fill="#cdd2d0" d="M1750 150h170l-170 70z"/><path fill="#f1f3f2" d="M550.054 475h50v200h-50z"/><path fill="#959f9a" d="M600.054 500h15v200h-15z"/><path fill="#d8dedc" d="M615.054 500h35v200h-35z"/><path fill="#f1f3f2" d="M650.054 532h278v70h-278z"/><path fill="#d8dedc" d="M650.054 600h278v70h-278z"/><path fill="#cdd2d0" d="M928.054 600v70h-278z"/><path fill="#f1f3f2" d="M1178.054 530h322v70h-322z"/><path fill="#d8dedc" d="M1178.054 600h322v70h-322z"/><path fill="#cdd2d0" d="M1500.054 600v70h-322z"/><path fill="#f1f3f2" d="M1750.054 530h170v70h-170z"/><path fill="#d8dedc" d="M1750.054 600h170v70h-170z"/><path fill="#cdd2d0" d="M1750.054 600h170l-170 70z"/><path fill="#f1f3f2" d="M550.054 925h50v200h-50z"/><path fill="#959f9a" d="M600.054 950h15v200h-15z"/><path fill="#d8dedc" d="M615.054 950h35v200h-35z"/><path fill="#f1f3f2" d="M650.054 980h278v70h-278z"/><path fill="#d8dedc" d="M650.054 1050h278v70h-278z"/><path fill="#cdd2d0" d="M928.054 1050v70h-278z"/><path fill="#f1f3f2" d="M1178.054 980h322v70h-322z"/><path fill="#d8dedc" d="M1178.054 1050h322v70h-322z"/><path fill="#cdd2d0" d="M1500.054 1050v70h-322z"/><path fill="#f1f3f2" d="M1750.054 980h170v70h-170z"/><path fill="#d8dedc" d="M1750.054 1050h170v70h-170z"/><path fill="#cdd2d0" d="M1750.054 1050h170l-170 70z"/><g><path fill="#d8dedc" d="M300 387h250v25H300z"/><path fill="#c0c6c3" d="M300 387h250v25z"/></g><g><path fill="#003a3b" d="M800 220h50v310h-50z"/><path fill="#336d6e" d="M750 220h50v310h-50z"/><path fill="#003a3b" d="M800 670h50v310h-50z"/><path fill="#336d6e" d="M750 670h50v310h-50z"/><path fill="#003a3b" d="M800 1120h50v380h-50zM750 220h50v50zM750 670h50v50zM750 1120h50v50z"/><path fill="#336d6e" d="M750 1120h50v354h-50z"/><g><path fill="#003a3b" d="M1400 220h50v310h-50z"/><path fill="#336d6e" d="M1350 220h50v310h-50z"/><path fill="#003a3b" d="M1400 670h50v310h-50z"/><path fill="#336d6e" d="M1350 670h50v310h-50z"/><path fill="#003a3b" d="M1400 1120h50v330h-50zM1350 220h50v50zM1350 670h50v50zM1350 1120h50v50z"/><path fill="#336d6e" d="M1350 1120h50v330h-50z"/><path fill="#003a3b" d="M1350 1120h50v50z"/></g></g><path fill="#f70" d="M0 549.704 50 601v200L0 750.5zM102 650.704 152 702v200l-50-50.5zM0 249.704 50 301v200L0 450.5zM102 350.704 152 402v200l-50-50.5zM0 848.704 50 900v200l-50-50.5zM102 949.704 152 1001v200l-50-50.5zM0 1148.704 50 1200v200l-50-50.5zM102 1249.704 152 1301v200l-50-50.5z"/><path fill="#e66b00" d="M0 549.704 50 601v200zM102 650.704 152 702v200zM0 249.704 50 301v200zM102 350.704 152 402v200zM0 848.704 50 900v200zM102 949.704 152 1001v200zM0 1148.704 50 1200v200zM102 1249.704 152 1301v200z"/><path fill="#f1f3f2" d="M317.707 450H431.26l118.686 116.672v116.163L433.826 800H317.707L199.946 682.835V566.672z"/><path fill="#d8dedc" d="M549.946 625v57.835L433.826 800H317.707L199.946 682.835V625z"/><path fill="#c0c6c3" d="M200 625h50l67.707 175L200 683.19zM549.946 625l.054 57.847L433.826 800l66.12-175z"/><path fill="#d8dedc" d="M549.946 566.672V625h-50z"/><g><path fill="#d8dedc" d="M300 837h250v25H300z"/><path fill="#c0c6c3" d="M300 837h250v25z"/></g><path fill="#f1f3f2" d="M317.707 899H431.26l118.686 116.672v116.163L433.826 1249H317.707l-117.761-117.165v-116.163z"/><path fill="#d8dedc" d="M549.946 1074v57.835L433.826 1249H317.707l-117.761-117.165V1074z"/><path fill="#c0c6c3" d="M200 1074h50l67.707 175L200 1132.19zM549.946 1074l.054 57.847L433.826 1249l66.12-175z"/><path fill="#d8dedc" d="M549.946 1015.672V1074h-50z"/><g><path fill="#d8dedc" d="M300 1286h250v25H300z"/><path fill="#c0c6c3" d="M300 1286h250v25z"/></g><g><path fill="#f70" d="M550 675h50v50h-50z"/><path fill="#e66b00" d="m550 675 50 50h-50z"/></g><g><path fill="#f70" d="M550 1125h50v50h-50z"/><path fill="#e66b00" d="m550 1125 50 50h-50z"/></g><path fill="#c0c6c3" d="m615 500 35 200h-35zM615 950l35 200h-35z"/><path fill="#e6eae8" d="m650 530 70 70h-70zM650 980l70 70h-70z"/><path fill="#336d6e" d="M1002 350h100v1101h-100z"/><path fill="#003a3b" d="M1002 350h100l-100 50zM1002 800h100l-100 50zM1002 1250h100l-100 50z"/><g><path fill="#336d6e" d="M1574 350h100v1150h-100z"/><path fill="#003a3b" d="M1574 350h100l-100 50zM1574 800h100l-100 50zM1574 1250h100l-100 50z"/></g><g><path fill="#d8dedc" d="M928 500h50v200h-50z"/><path fill="#c0c6c3" d="M928 600h50v100h-50z"/><path fill="#d8dedc" d="M1128 500h50v200h-50z"/><path fill="#f1f3f2" d="M1017.672 530h69.508l40.289 46.282v77.543L1087.57 700h-69.898L978 653.825v-77.543z"/><path fill="#d8dedc" d="M1127.469 653.825 1087.57 700h-69.898L978 653.825v-77.543z"/><path fill="#959f9a" d="M1041.271 590h23.252L1078 603.612v22.807L1064.653 640h-23.382L1028 626.419v-22.807z"/><path fill="#001d1e" d="M1041.271 590h23.252L1078 603.612l-50 22.807v-22.807z"/><path fill="#f1f3f2" d="M1029 450h50v80h-50z"/><path fill="#d8dedc" d="M1079 450v80h-50z"/><path fill="#001d1e" d="m928 700 50 50h51v-50h-11.328L978.5 653.688V700zM1178 700l-50.531 50H1079v-50h8.57l40.43-46.312V700z"/><path fill="#c0c6c3" d="M1029 700h50v50h-50z"/><path fill="#a5aea9" d="M1029 700h50l-50 50z"/><path fill="#959f9a" d="M978 530h39.672L978 576.282zM1086.212 530H1128v46.282z"/><path fill="#c0c6c3" d="M978 750h150v50H978z"/><path fill="#a5aea9" d="M978 750h150l-150 50z"/><path fill="#c0c6c3" d="M1128 600h50v100h-50z"/><path fill="#e6eae8" d="m1178 530 80 70h-80z"/></g><g><path fill="#d8dedc" d="M928 950h50v200h-50z"/><path fill="#c0c6c3" d="M928 1050h50v100h-50z"/><path fill="#d8dedc" d="M1128 950h50v200h-50z"/><path fill="#f1f3f2" d="M1017.672 980h69.508l40.289 46.282v77.543L1087.57 1150h-69.898L978 1103.825v-77.543z"/><path fill="#d8dedc" d="M1127.469 1103.825 1087.57 1150h-69.898L978 1103.825v-77.543z"/><path fill="#959f9a" d="M1041.271 1040h23.252l13.477 13.612v22.807L1064.653 1090h-23.382L1028 1076.419v-22.807z"/><path fill="#001d1e" d="M1041.271 1040h23.252l13.477 13.612-50 22.807v-22.807z"/><path fill="#f1f3f2" d="M1029 900h50v80h-50z"/><path fill="#d8dedc" d="M1079 900v80h-50z"/><path fill="#001d1e" d="m928 1150 50 50h51v-50h-11.328l-39.172-46.312V1150zM1178 1150l-50.531 50H1079v-50h8.57l40.43-46.312V1150z"/><path fill="#c0c6c3" d="M1029 1150h50v50h-50z"/><path fill="#a5aea9" d="M1029 1150h50l-50 50z"/><path fill="#959f9a" d="M978 980h39.672L978 1026.282zM1086.212 980H1128v46.282z"/><path fill="#c0c6c3" d="M978 1200h150v50H978z"/><path fill="#a5aea9" d="M978 1200h150l-150 50z"/><path fill="#c0c6c3" d="M1128 1050h50v100h-50z"/><path fill="#e6eae8" d="m1178 980 80 70h-80z"/></g><g transform="rotate(-30 819.878 -1829.013)"><path fill="#f70" d="M14 0h21l15 200H0z"/><path fill="#c0c6c3" d="m11.496 35.624-4.653 66.595-55.177-31.856z"/><circle cx="25.5" cy="14.5" r="5.5" fill="#000"/><path fill="#e66b00" d="m14 0 36 200H0z"/></g><g transform="rotate(-30 1659.589 -1604.013)"><path fill="#f70" d="M14 0h21l15 200H0z"/><path fill="#c0c6c3" d="m11.496 35.624-4.653 66.595-55.177-31.856z"/><circle cx="25.5" cy="14.5" r="5.5" fill="#000"/><path fill="#e66b00" d="m14 0 36 200H0z"/></g><g transform="rotate(-30 2499.3 -1379.013)"><path fill="#f70" d="M14 0h21l15 200H0z"/><path fill="#c0c6c3" d="m11.496 35.624-4.653 66.595-55.177-31.856z"/><circle cx="25.5" cy="14.5" r="5.5" fill="#000"/><path fill="#e66b00" d="m14 0 36 200H0z"/></g><path fill="#003a3b" d="M318 1311h231.946l.108 64zM434.027 1249l116.027-124v161z"/><g><path fill="#d8dedc" d="M1500 50h50v200h-50z"/><path fill="#c0c6c3" d="M1500 150h50v100h-50z"/><path fill="#d8dedc" d="M1700 50h50v200h-50z"/><path fill="#f1f3f2" d="M1589.672 80h69.508l40.289 46.282v77.543L1659.57 250h-69.898L1550 203.825v-77.543z"/><path fill="#d8dedc" d="M1699.469 203.825 1659.57 250h-69.898L1550 203.825v-77.543z"/><path fill="#959f9a" d="M1613.271 140h23.252L1650 153.612v22.807L1636.653 190h-23.382L1600 176.419v-22.807z"/><path fill="#001d1e" d="M1613.271 140h23.252L1650 153.612l-50 22.807v-22.807z"/><path fill="#f1f3f2" d="M1601 0h50v80h-50z"/><path fill="#d8dedc" d="M1651 0v80h-50z"/><path fill="#001d1e" d="m1500 250 50 50h51v-50h-11.328L1550 203.825V250zM1750 250l-50.531 50H1651v-50h8.57l40.43-46.77V250z"/><path fill="#c0c6c3" d="M1601 250h50v50h-50z"/><path fill="#a5aea9" d="M1601 250h50l-50 50z"/><path fill="#959f9a" d="M1550 80h39.672L1550 126.282zM1658.212 80H1700v46.282z"/><path fill="#c0c6c3" d="M1550 300h150v50h-150z"/><path fill="#a5aea9" d="M1550 300h150l-150 50z"/><path fill="#c0c6c3" d="M1700 150h50v100h-50z"/><path fill="#e6eae8" d="m1750 80 80 70h-80z"/></g><g><path fill="#d8dedc" d="M1500 500h50v200h-50z"/><path fill="#c0c6c3" d="M1500 600h50v100h-50z"/><path fill="#d8dedc" d="M1700 500h50v200h-50z"/><path fill="#f1f3f2" d="M1589.672 530h69.508l40.289 46.282v77.543L1659.57 700h-69.898L1550 653.825v-77.543z"/><path fill="#d8dedc" d="M1699.469 653.825 1659.57 700h-69.898L1550 653.825v-77.543z"/><path fill="#959f9a" d="M1613.271 590h23.252L1650 603.612v22.807L1636.653 640h-23.382L1600 626.419v-22.807z"/><path fill="#001d1e" d="M1613.271 590h23.252L1650 603.612l-50 22.807v-22.807z"/><path fill="#f1f3f2" d="M1601 450h50v80h-50z"/><path fill="#d8dedc" d="M1651 450v80h-50z"/><path fill="#001d1e" d="m1500 700 50 50h51v-50h-11.328l-39.172-46.312V700zM1750 700l-50.531 50H1651v-50h8.57l40.43-46.312V700z"/><path fill="#c0c6c3" d="M1601 700h50v50h-50z"/><path fill="#a5aea9" d="M1601 700h50l-50 50z"/><path fill="#959f9a" d="M1550 530h39.672L1550 576.282zM1658.212 530H1700v46.282z"/><path fill="#c0c6c3" d="M1550 750h150v50h-150z"/><path fill="#a5aea9" d="M1550 750h150l-150 50z"/><path fill="#c0c6c3" d="M1700 600h50v100h-50z"/><path fill="#e6eae8" d="m1750 530 80 70h-80z"/></g><g><path fill="#d8dedc" d="M1500 950h50v200h-50z"/><path fill="#c0c6c3" d="M1500 1050h50v100h-50z"/><path fill="#d8dedc" d="M1700 950h50v200h-50z"/><path fill="#f1f3f2" d="M1589.672 980h69.508l40.289 46.282v77.543L1659.57 1150h-69.898L1550 1103.825v-77.543z"/><path fill="#d8dedc" d="M1699.469 1103.825 1659.57 1150h-69.898L1550 1103.825v-77.543z"/><path fill="#959f9a" d="M1613.271 1040h23.252l13.477 13.612v22.807L1636.653 1090h-23.382L1600 1076.419v-22.807z"/><path fill="#001d1e" d="M1613.271 1040h23.252l13.477 13.612-50 22.807v-22.807z"/><path fill="#f1f3f2" d="M1601 900h50v80h-50z"/><path fill="#d8dedc" d="M1651 900v80h-50z"/><path fill="#001d1e" d="m1500 1150 50 50h51v-50h-11.328l-39.172-46.312V1150zM1750 1150l-50.531 50H1651v-50h8.57l40.43-46.312V1150z"/><path fill="#c0c6c3" d="M1601 1150h50v50h-50z"/><path fill="#a5aea9" d="M1601 1150h50l-50 50z"/><path fill="#959f9a" d="M1550 980h39.672L1550 1026.282zM1658.212 980H1700v46.282z"/><path fill="#c0c6c3" d="M1550 1200h150v50h-150z"/><path fill="#a5aea9" d="M1550 1200h150l-150 50z"/><path fill="#c0c6c3" d="M1700 1050h50v100h-50z"/><path fill="#e6eae8" d="m1750 980 80 70h-80z"/></g><g transform="rotate(-30 1105.878 -2896.38)"><path fill="#f70" d="M14 0h21l15 200H0z"/><path fill="#c0c6c3" d="m11.496 35.624-4.653 66.595-55.177-31.856z"/><circle cx="25.5" cy="14.5" r="5.5" fill="#000"/><path fill="#e66b00" d="m14 0 36 200H0z"/></g><g transform="rotate(-30 1945.589 -2671.38)"><path fill="#f70" d="M14 0h21l15 200H0z"/><path fill="#c0c6c3" d="m11.496 35.624-4.653 66.595-55.177-31.856z"/><circle cx="25.5" cy="14.5" r="5.5" fill="#000"/><path fill="#e66b00" d="m14 0 36 200H0z"/></g><g transform="rotate(-30 2785.3 -2446.38)"><path fill="#f70" d="M14 0h21l15 200H0z"/><path fill="#c0c6c3" d="m11.496 35.624-4.653 66.595-55.177-31.856z"/><circle cx="25.5" cy="14.5" r="5.5" fill="#000"/><path fill="#e66b00" d="m14 0 36 200H0z"/></g><g transform="translate(1603.322 1450)"><path fill="#f1f3f2" d="M0 97.91 100 1h99.792l101.377 96.91v100.022l-101.377 99.735H100L0 197.932z"/><path fill="#c0c6c3" d="M0 147.91h301.169v50.022l-101.377 99.735H100L0 197.932z"/><path fill="#d8dedc" d="M45 112.946 115.06 45h69.915L256 112.946v70.128L184.975 253H115.06L45 183.074z"/><path fill="#959f9a" d="M116 45h70v25h-70z"/><circle cx="150" cy="149" r="35" fill="#f1f3f2"/><circle cx="150" cy="149" r="25" fill="#f70"/><path fill="#f1f3f2" d="M256 114v70l-71 69zM115.06 253 45 112.946v70.128z"/><path fill="#959f9a" d="M184.975 253 256 184l-56.208 113.667zM115 253l-15 44.667-55-114.593zM76.566 23.886H45v30.461zM223.731 23.886h31.835v30.461z"/><path fill="#001d1e" d="M151 297.667 50.048 347.528l50.476-49.861z"/><path fill="#001d1e" d="M150 297.667h49.792l50.504 49.861z"/></g><g transform="translate(1252.492 1450)"><path fill="#f1f3f2" d="M0 97.91 100 1h99.792l101.377 96.91v100.022l-101.377 99.735H100L0 197.932z"/><path fill="#c0c6c3" d="M0 147.91h301.169v50.022l-101.377 99.735H100L0 197.932z"/><path fill="#d8dedc" d="M45 112.946 115.06 45h69.915L256 112.946v70.128L184.975 253H115.06L45 183.074z"/><path fill="#959f9a" d="M116 45h70v25h-70z"/><circle cx="150" cy="149" r="35" fill="#f1f3f2"/><circle cx="150" cy="149" r="25" fill="#f70"/><path fill="#f1f3f2" d="M256 114v70l-71 69zM115.06 253 45 112.946v70.128z"/><path fill="#959f9a" d="M184.975 253 256 184l-56.208 113.667zM115 253l-15 44.667-55-114.593zM76.566 23.886H45v30.461zM223.731 23.886h31.835v30.461z"/><path fill="#001d1e" d="M151 297.667 50.048 347.528l50.476-49.861z"/><path fill="#001d1e" d="M150 297.667h49.792l50.504 49.861z"/></g><g transform="translate(902 1450)"><path fill="#f1f3f2" d="M0 97.91 100 1h99.792l101.377 96.91v100.022l-101.377 99.735H100L0 197.932z"/><path fill="#c0c6c3" d="M0 147.91h301.169v50.022l-101.377 99.735H100L0 197.932z"/><path fill="#d8dedc" d="M45 112.946 115.06 45h69.915L256 112.946v70.128L184.975 253H115.06L45 183.074z"/><path fill="#959f9a" d="M116 45h70v25h-70z"/><circle cx="150" cy="149" r="35" fill="#f1f3f2"/><circle cx="150" cy="149" r="25" fill="#f70"/><path fill="#f1f3f2" d="M256 114v70l-71 69zM115.06 253 45 112.946v70.128z"/><path fill="#959f9a" d="M184.975 253 256 184l-56.208 113.667zM115 253l-15 44.667-55-114.593zM76.566 23.886H45v30.461zM223.731 23.886h31.835v30.461z"/><path fill="#001d1e" d="M151 297.667 50.048 347.528l50.476-49.861z"/><path fill="#001d1e" d="M150 297.667h49.792l50.504 49.861z"/></g><g transform="translate(550.83 1450)"><path fill="#f1f3f2" d="M0 97.91 100 1h99.792l101.377 96.91v100.022l-101.377 99.735H100L0 197.932z"/><path fill="#c0c6c3" d="M0 147.91h301.169v50.022l-101.377 99.735H100L0 197.932z"/><path fill="#d8dedc" d="M45 112.946 115.06 45h69.915L256 112.946v70.128L184.975 253H115.06L45 183.074z"/><path fill="#959f9a" d="M116 45h70v25h-70z"/><circle cx="150" cy="149" r="35" fill="#f1f3f2"/><circle cx="150" cy="149" r="25" fill="#f70"/><path fill="#f1f3f2" d="M256 114v70l-71 69zM115.06 253 45 112.946v70.128z"/><path fill="#959f9a" d="M184.975 253 256 184l-56.208 113.667zM115 253l-15 44.667-55-114.593zM76.566 23.886H45v30.461zM223.731 23.886h31.835v30.461z"/><path fill="#001d1e" d="M151 297.667 50.048 347.528l50.476-49.861z"/><path fill="#001d1e" d="M150 297.667h49.792l50.504 49.861z"/></g><g transform="translate(200 1450)"><path fill="#f1f3f2" d="M0 97.91 100 1h99.792l101.377 96.91v100.022l-101.377 99.735H100L0 197.932z"/><path fill="#c0c6c3" d="M0 147.91h301.169v50.022l-101.377 99.735H100L0 197.932z"/><path fill="#d8dedc" d="M45 112.946 115.06 45h69.915L256 112.946v70.128L184.975 253H115.06L45 183.074z"/><path fill="#959f9a" d="M116 45h70v25h-70z"/><circle cx="150" cy="149" r="35" fill="#f1f3f2"/><circle cx="150" cy="149" r="25" fill="#f70"/><path fill="#f1f3f2" d="M256 114v70l-71 69zM115.06 253 45 112.946v70.128z"/><path fill="#959f9a" d="M184.975 253 256 184l-56.208 113.667zM115 253l-15 44.667-55-114.593zM76.566 23.886H45v30.461zM223.731 23.886h31.835v30.461z"/><path fill="#001d1e" d="M151 297.667 50.048 347.528l50.476-49.861z"/><path fill="#001d1e" d="M150 297.667h49.792l50.504 49.861z"/></g><path fill="#d8dedc" d="M600 475v200h-50zM600 925v200h-50z"/></g></svg>