<svg xmlns="http://www.w3.org/2000/svg" viewBox="0 0 2047 1919" id="animation-about">

<!-- static elements -->
<g fill="none" fill-rule="evenodd">

<path fill="#001d1e" d="m1113.443 465.315 137.501 701.28-97.069-758.141zm-597.972 201.73 110.001 561.792-77.655-607.343zm994.14 230.975 82.5 420.657-58.242-454.765z"/>

<path fill="#d8dedc" d="m1250.944 1166.596-170.583-75.809 33.082-625.472zm-625.472 62.216-170.583 33.004 60.582-594.833zm966.64 89.865-102.35-45.472 19.848-375.176z"/>

<path fill="#d8dedc" d="m1592.111 1309.486-227.444 511.941H398.028l250.189-511.941z"/><path fill="#336d6e" d="m739.194 1195.722-398.027 227.466 113.722-170.605zm-739.194 0 454.889 56.861L0 1423.167zM1080.361 1082l-56.861 227.444-284.306-113.722zm511.75 227.486 284.306-56.903L2047 1309.444zm113.722 170.612L2047 1309.486v568.802z"/><path fill="#285556" d="M1023.5 1309.444h284.306L1080.36 1082zm-284.306-113.722v113.764h-90.977l-55.639 113.68-251.41.02 56.86 398.241H0l341.145-398.237L0 1480.028v-56.861l341.148.019.019-.02.001.019zm796.056 284.306h170.583l-113.722 398.26z"/><path fill="#001d1e" d="M1307.806 1309.444h284.305L1080.361 1082zm-966.64 113.744L0 1821.428v-170.684zm113.723-170.605-113.722 170.605L0 1423.167zm1250.944 227.445L2047 1878.288h-454.889z"/><path fill="#00494a" d="M739.194 1195.722v113.722H1023.5zm852.917 113.722 113.722 170.584H1535.25zm-56.861 170.584 56.861 398.26-113.722-227.577z"/><path fill="#8a4400" d="m713.884 1429.13 25.31 50.898H625.472zm227.445 0 25.31 50.898H852.917zm227.444 0 25.31 50.898h-113.722zm227.445 0 25.31 50.898h-113.722zm-749.43 142.385 25.31 50.898H558.376zm227.445 0 25.31 50.898H785.82zm227.444 0 25.31 50.898h-113.722zm227.445 0 25.31 50.898h-113.723zm-753.979 142.153 25.31 50.898H486.731zm227.445 0 25.31 50.898H714.176zm227.444 0 25.31 50.898H941.62zm227.445 0 25.31 50.898h-113.723z"/><path fill="#336d6e" d="m625.472 1480.028 88.412-50.898-31.55-62.783zm227.445 0 88.412-50.898-31.551-62.783zm227.444 0 88.412-50.898-31.55-62.783zm227.445 0 88.412-50.898-31.551-62.783zm-749.43 142.385 88.412-50.898-31.55-62.782zm227.445 0 88.412-50.898-31.551-62.782zm227.444 0 88.412-50.898-31.55-62.782zm227.444 0 88.413-50.898-31.551-62.782zm-753.978 142.153 88.412-50.898-31.55-62.782zm227.445 0 88.412-50.898-31.551-62.782zm227.444 0 88.412-50.898-31.55-62.782zm227.444 0 88.413-50.898-31.551-62.782z"/><path fill="#669292" d="M739.194 1480.028h56.862l56.86-113.68zm227.445 0h56.861l56.861-113.68zm227.444 0h56.861l56.862-113.68zm227.445 0h56.86l56.862-113.68zm-749.43 142.385h56.861l56.862-113.68zm227.445 0h56.86l56.862-113.68zm227.444 0h56.861l56.861-113.68zm227.445 0h56.86l56.862-113.68zm-753.979 142.153h56.861l56.862-113.68zm227.445 0h56.86l56.862-113.68zm227.444 0h56.861l56.861-113.68zm227.445 0h56.86l56.862-113.68z"/><path fill="#001d1e" d="m1592.111 1309.486-168.869 511.941-27.024 88.573-998.19-88.573h966.639zm-877.935 341.4-113.723 113.68-56.86-113.68zm227.444 0-113.722 113.68-56.861-113.68zm227.444 0-113.722 113.68-56.86-113.68zm227.445 0-113.722 113.68-56.861-113.68zM785.82 1508.733l-113.723 113.68-56.86-113.68zm227.444 0-113.722 113.68-56.861-113.68zm227.444 0-113.722 113.68-56.86-113.68zm227.445 0-113.722 113.68-56.861-113.68zm-615.237-142.386-113.723 113.68-56.86-113.68zm227.444 0-113.722 113.68-56.861-113.68zm227.445 0-113.723 113.68-56.86-113.68zm227.444 0-113.722 113.68-56.861-113.68z"/><path fill="#f70" d="m1404.797 1878.288 73.592-227.444 113.722 227.444zm187.314-568.802H2047l-341.167 170.542zM341.167 1423.188l56.86 398.24 194.551-398.261zm0-.021L0 1480.086v170.758z"/>
</g>

<g class="animation-about-blades">
<g fill="none" stroke-width="0">
<path d="M1295 638.2h444L1295 1082z"/>
<path d="m1295 638.2 444 443.8h-444z"/>
<path d="M1739 638.2 1295 1082h444z"/>
</g>

<path fill="#d8dedc" d="m1572.787 634-81.91 168.132 64.892 32.437z"/>
<path fill="#c0c6c3" d="M1490.877 802.18v32.389h64.892z"/>
<path fill="#c0c6c3" d="m1555.769 834.569 64.893 32.446-19.875 13.087z"/>
<path fill="#001d1e" d="M1620.662 867.015 1718 996.8l-117.213-116.698z"/>
<path fill="#d8dedc" d="m1555.769 834.569-46.015 64.893L1718 996.8z"/>
<path fill="#ffbf00" d="M1490.877 834.569h64.892l-46.015 64.893z" class="animation-about-light" style="--animation-about-delay: -0.15s;"/>
<path fill="#d8dedc" d="M1509.754 899.462 1296.2 964.354l194.677-129.785z"/>
</g>

<g class="animation-about-blades">
<g fill="none" stroke-width="0">
<path d="M758 50h740L758 790z"/>
<path d="m758 50 740 740H758z"/>
<path d="M1498 50 758 790h740z"/>
</g>

<path fill="#d8dedc" d="m1220.978 43-136.516 280.5 108.153 54.115z"/>
<path fill="#c0c6c3" d="M1084.462 323.3v54.315h108.153z"/>
<path fill="#c0c6c3" d="m1192.615 377.615 108.154 54.077-33.124 21.811z"/>
<path fill="#001d1e" d="M1300.769 431.692 1463 648l-195.355-194.497z"/>
<path fill="#d8dedc" d="m1192.615 377.615-76.691 108.154L1463 648z"/>
<path fill="#ffbf00" d="M1084.462 377.615h108.153l-76.691 108.154z" class="animation-about-light" style="--animation-about-delay: -0.45s;"/>
<path fill="#d8dedc" d="M1115.924 485.769 760 593.923l324.462-216.308z"/>
</g>

<g class="animation-about-blades">
<g fill="none" stroke-width="0">
<path d="M158 236h740L158 976z"/>
<path d="m158 236 740 740H158z"/>
<path d="M898 236 158 976h740z"/>
</g>

<path fill="#d8dedc" d="M620.978 229 484.462 509.5l108.153 54.115z"/>
<path fill="#c0c6c3" d="M484.462 509.3v54.315h108.153z"/>
<path fill="#c0c6c3" d="m592.615 563.615 108.154 54.077-33.124 21.811z"/>
<path fill="#001d1e" d="M700.769 617.692 863 834 667.645 639.503z"/>
<path fill="#d8dedc" d="m592.615 563.615-76.691 108.154L863 834z"/>
<path fill="#ffbf00" d="M484.462 563.615h108.153l-76.691 108.154z" class="animation-about-light" style="--animation-about-delay: -0.75s;"/>
<path fill="#d8dedc" d="M515.924 671.769 160 779.923l324.462-216.308z"/>
</g>

</svg>
