<svg xmlns="http://www.w3.org/2000/svg" viewBox="0 0 1920 800"><g fill="none" fill-rule="evenodd"><path fill="#c0c6c3" d="M1036 663H846l20 31.845 190 .501zM803 618h43v45h-43z"/><path fill="#d8dedc" d="m189 624.377 614 .003V663H189z"/><path fill="#9a311b" d="M1497 388h51v235h-51z"/><path fill="#da4728" d="M1548 387.516 1593 332l45 55.516V623h-90z"/><path fill="#9a311b" d="M1638 388h120v235h-120z"/><path fill="#da4728" d="M1333 388.245 1411 270l86 118.54v234.705h-164z"/><path fill="#b0381f" d="m1105 388 74-1v236h-74z"/><path fill="#9a311b" d="M1259 388h74v235h-74z"/><path fill="#da4728" d="m1179 387 40-55.516L1259 387v236h-80zM1758 388h98v235h-98zM1062 203h43v415h-43z"/><path fill="#d8dedc" d="M1036 618h68.803v5H1856v40h-820z"/><path fill="#c0c6c3" d="M265 305.73h287.749L552 386H265z"/><path fill="#003536" d="M304.141 347H265l-76 41 41.646.294z"/><path fill="#9a311b" d="M277 388h65l-.279 236.621-64.721-.244z"/><path fill="#da4728" d="M341.721 388.294 395.1 305.73 448.201 389v235.621h-106.48z"/><path fill="#9a311b" d="M767 388h36v236.377h-35.829z"/><path fill="#da4728" d="m706 388 30.586-55.516L767.171 388v236.377H706zM576.98 268.04 499 389v235.621h155.821V389zM846 218h190v445H846z"/><path fill="#003536" d="m395.1 305.73-63.546 25.9 10.167 56.664z"/><path fill="#f0f7f4" d="m231.266 388 100.288-56.37 10.167 56.664z"/><path fill="#002c2c" d="M304.141 347 189 388l41.646.294z"/><path fill="#b0381f" d="M265 305.73h20V347h-20z"/><path fill="#da4728" d="M285 305.73h8.008V347H285z"/><path fill="#9a311b" d="M448.201 389H499v235.621L448 625zM654.821 389 706 388v236.377l-51.179.244z"/><path fill="#b0381f" d="M448.201 389H499l-50.799 73.432z"/><path fill="#d8dedc" d="M736.586 306.812H602.084L654.821 389z"/><path fill="#00494a" d="M736.586 306.812H803V388z"/><path fill="#336d6e" d="M448.201 389H499l53.749-83.27z"/><path fill="#b0381f" d="M392 340h10v20h-10z"/><path fill="#e47b65" d="M385 370h10v10h-10z"/><path fill="#002c2c" d="M370 499h20v60h-20zM405 499h20v60h-20zM532 499h20v60h-20z"/><path fill="#b0381f" d="M552 499h12v60h-12zM584 499h12v60h-12z"/><path fill="#002c2c" d="M564 499h20v60h-20zM596 499h21v60h-21zM724 499h25v60h-25zM874 501h15v50h-15zM904 501h15v50h-15z"/><path fill="#812817" d="M934 501h15v50h-15zM912.75 608.455h53v73h-53z"/><path fill="#c0c6c3" d="M992.5 621.455h20V663h-20z"/><path fill="#d8dedc" d="M992.5 621.455q-5.56-19.144-15.875-28.24-10.317-9.097-36.126-17.85v-20.91q32.96 11.134 48.37 24.388 15.41 13.253 23.63 42.612z"/><path fill="#c0c6c3" d="M888.75 621h-20v42h20z"/><path fill="#d8dedc" d="M888.75 621q5.559-19.144 15.874-28.24 10.317-9.097 35.875-17.395v-20.91q-32.708 10.68-48.118 23.933T868.75 621z"/><path fill="#003536" d="M888.5 681h27v-50.39q2.25-20.877 25.25-21.516t23.817 21.516v50.845h27.932V621q-6.075-20.51-17.43-29.388t-34.57-16.247q-24.518 7.627-35 16.247-10.48 8.62-17 29.388z"/><path fill="#002c2c" d="M964 501h15v50h-15zM994 501h15v50h-15z"/><path fill="#f2f8f5" d="M390 499h15v60h-15z"/><path fill="#e47b65" d="M400 370h10v10h-10z"/><path fill="#f2f8f5" d="M385 380h10v30h-10zM400 380h10v30h-10zM724 382h10v24h-10zM739 382h10v24h-10z"/><path fill="#e47b65" d="M724 382h10v24zM739 382h10v24z"/><path fill="#9a311b" d="M724 376h10v6h-10zM739 376h10v6h-10z"/><path fill="#f2f8f5" d="M564 348h10v40h-10zM579 348h10v40h-10z"/><path fill="#002c2c" d="M564 348h10v20h-10zM579 348h10v20h-10z"/><path fill="#336d6e" d="M1389 348h10v40h-10zM1404 348h10v40h-10z"/><path fill="#812817" d="M1419 348h10v40h-10z"/><path fill="#f2f8f5" d="m370 449 12.5-20 12.5 20v40h-25z"/><path fill="#e47b65" d="m400 449 12.5-20 12.5 20v40h-25z"/><path fill="#336d6e" d="M1376 499h24v60h-24zM1418 499h24v60h-24z"/><path fill="#f2f8f5" d="M1400 499h18v60h-18zM1376 441l15-24 15 24v48h-30zM1412 441l15-24 15 24v48h-30zM532 449l12.5-20 12.5 20v40h-25z"/><path fill="#9a311b" d="m562 449 12.5-20 12.5 20v40h-25z"/><path fill="#e47b65" d="m592 449 12.5-20 12.5 20v40h-25zM532 465h25v24h-25zM370 465h25v24h-25z"/><path fill="#002c2c" d="M562 465h25v24h-25z"/><path fill="#c0c6c3" d="M592 465h25v24h-25z"/><path fill="#f2f8f5" d="M869 343.667 881.5 317l12.5 26.667V397h-25z"/><path fill="#e47b65" d="M899 343.667 911.5 317l12.5 26.667V397h-25z"/><path fill="#f2f8f5" d="M929 343.667 941.5 317l12.5 26.667V397h-25z"/><path fill="#e47b65" d="M929 343.667 941.5 317l12.5 26.667v20zM959 343.667 971.5 317l12.5 26.667V397h-25z"/><path fill="#002c2c" d="M899 382h25v15h-25zM959 382h25v15h-25z"/><path fill="#f2f8f5" d="M989 343.667 1001.5 317l12.5 26.667V397h-25zM869 343.667 881.5 317l12.5 26.667V397h-25z"/><path fill="#e47b65" d="M989 343.667 1001.5 317l12.5 26.667v20z"/><path fill="#002c2c" d="m874 258 7.5-15 7.5 15v30h-15zM894 258l7.5-15 7.5 15v30h-15zM914 258l7.5-15 7.5 15v30h-15zM934 258l7.5-15 7.5 15v30h-15zM954 258l7.5-15 7.5 15v30h-15zM974 258l7.5-15 7.5 15v30h-15zM994 258l7.5-15 7.5 15v30h-15z"/><path fill="#f2f8f5" d="M869 439.333 881.5 416l12.5 23.333V486h-25zM899 439.333 911.5 416l12.5 23.333V486h-25z"/><path fill="#e47b65" d="M929 439.333 941.5 416l12.5 23.333V486h-25z"/><path fill="#f2f8f5" d="M959 439.333 971.5 416l12.5 23.333V486h-25zM989 439.333 1001.5 416l12.5 23.333V486h-25z"/><path fill="#002c2c" d="M959 461h25v25h-25zM989 461h25v25h-25z"/><path fill="#f2f8f5" d="m724 449 12.5-20 12.5 20v40h-25z"/><path fill="#e47b65" d="M749 469v20h-25z"/><path fill="#b0381f" d="m397 559-55.279 65.621 106.48.379z"/><path fill="#f0f7f4" d="m584 559-71.153 36.88h41.692z"/><path fill="#c0c6c3" d="m584 559-29.461 36.88H596z"/><path fill="#f0f7f4" d="m596 595.88 55.448 4.268L584 559z"/><path fill="#003536" d="M524.808 595.88v98.965H596V595.88z"/><path fill="#336d6e" d="m596 595.88 44.889 3.547v95.418H596z"/><path fill="#c0c6c3" d="m524.808 694.845-106.711 13.753 222.792-13.753z"/><path fill="#b0381f" d="M654.821 462.432 706 388l-51.179 1zM767 462.432 803 388h-36z"/><path fill="#812817" d="M706.054 462.432 706 388l-26.661 38.919zM706.119 559h-51.298l51.233-96.568z"/><path fill="#da4728" d="M189 388h88v236.377h-88z"/><path fill="#b0381f" d="M189 388h88v103h-88z"/><path fill="#003536" d="M204 629.91h70.647L239.324 489z"/><path fill="#002c2c" d="M224.1 629.91h50.547L239.324 489z"/><path fill="#002c2c" d="M234 668.306h10.54L239.27 624zM1839 718.306h10.54l-5.27-54zM134.353 671.874h10.54l-5.27-54zM58.353 671.874h10.54l-5.27-54zM2 617.478h130l-68.377-240zM1206 499h25v60h-25zM1144 499h25v60h-25z"/><path fill="#f2f8f5" d="M1206 376h10v30h-10zM1221 376h10v30h-10z"/><path fill="#c0c6c3" d="M1206 376h10l-10 15zM1221 376h10v15z"/><path fill="#f2f8f5" d="m1206 449 12.5-20 12.5 20v40h-25z"/><path fill="#336d6e" d="M1231 449v40h-25z"/><path fill="#b0381f" d="m1259 462.432 74-74.138-74-.294z"/><path fill="#002c2c" d="M1571 499h20v60h-20zM1596 499h20v60h-20z"/><path fill="#336d6e" d="M1573 376h10v30h-10zM1588 376h10v30h-10z"/><path fill="#812817" d="M1603 376h10v30h-10z"/><path fill="#f2f8f5" d="m1571 449 10-20 10 20v40h-20zM1596 449l10-20 10 20v40h-20z"/><path fill="#b0381f" d="m1497 462.432 51-74.138-51-.294z"/><path fill="#da4728" d="M1548 462.432v-74.138l-26.553 38.749z"/><path fill="#b0381f" d="M1638 388h120l-120 107zM1548 559h-51l51-96.568z"/><path fill="#336d6e" d="m1105 388 114-79.249 114 79.543-74-.294-40-56.516L1179 387z"/><path fill="#00494a" d="M1384.621 308.751 1315.235 376 1333 388.294z"/><path fill="#d8dedc" d="M1105 388v-79.249h114z"/><path fill="#00494a" d="M1219 308.751h165.621L1315.235 376z"/><path fill="#336d6e" d="M1439.047 308.751H1603l132.068 54.966L1638 388l-45-55.516-45 55.81-51-.294z"/><path fill="#00494a" d="m1758 388.294-22.932-24.577L1638 388z"/><path fill="#336d6e" d="M1827.546 348.523 1856 388h-53.886z"/><path fill="#d8dedc" d="m1827.546 348.523-92.478 15.194L1758 388h44.114z"/><path fill="#da4728" d="M1740 309h21v50.46l-21 3.453z"/><path fill="#b0381f" d="m1740 309-9.028 5.408v47.599l4.096 1.71 4.932-.804z"/><path fill="#f0f7f4" d="m395.1 305.73 60.835 76.834-7.734 6.436zM736.586 306.812l-88.016 72.564 6.251 9.624z"/><path fill="#c0c6c3" d="M265 347 0 219.372l265-62.862z"/><path fill="#d8dedc" d="m265 156.51 287.749 149.22H265z"/><path fill="#b0381f" d="M803 203h43v415h-43z"/><path fill="#9a311b" d="M1036 218.181 1062 203v415h-26z"/><path fill="#d8dedc" d="M922.515 126.489 879.332 218H846v-15z"/><path fill="#da4728" d="M824.5 91.467 846 203h-43zM1083.5 91.467 1105 203h-43z"/><path fill="#f2f8f5" d="m1083.5 91.467 6.355 33.025h-12.792zM824.5 91.467l6.355 33.025h-12.792z"/><path fill="#336d6e" d="m879.332 218 43.183-91.511L984 218z"/><path fill="#00494a" d="M984 218h52l-47.606-88.089z"/><path fill="#00494a" d="m988.394 129.911-28.496 52.2L984 218z"/><path fill="#f2f8f5" d="M988.394 129.911 1062 203l-26 15z"/><path fill="#002c2c" d="M944 159.065h28.553l-12.655 23.046z"/><path fill="#001818" d="m960 8.14-19 81.233-4.068 2.094L941 102.115v24.374h-18.485L944 159.065h5v-57.764l-3.297-9.834 5.365-3.445z"/><path fill="#fff" d="M922.515 126.489 843.9 192.358 846 203z"/><path fill="#f2f8f5" d="M920.559 174 909 191.246h23.118z"/><path fill="#d8dedc" d="M920.559 174v17.246h11.559z"/><path fill="#f2f8f5" d="M912 191.246h17V218h-17z"/><path fill="#d8dedc" d="M912 191.246h17V218z"/><path fill="#002c2c" d="M915 191.25h11v11h-11zM912 191.246l-14.462 4.657L912 218z"/><path fill="#336d6e" d="m941.5 694.845 807.77 5.064-747.77 41.898z"/><path fill="#c0c6c3" d="M640.889 694.845 425.467 771H587zM418.097 708.598 0 703.41v59.546z"/><path fill="#d8dedc" d="M1257.3 308.751 1315.235 376l69.386-67.249z"/><path fill="#f2f8f5" d="m1333 388.294 77.763-106.767L1497 388.294l-86.237-118.539zM1548 388.294l45-55.81L1638 388l-45-68.252zM499 389l77.98-110.622L654.821 389 576.98 268.04z"/><path fill="#d8dedc" d="m341.721 388.294 53.24-72.597L448.201 389 395.1 305.73z"/><path fill="#c0c6c3" d="M1062.803 676 1426 681.347l-331 16.576z"/><path fill="#285556" d="M78.044 629.91h130.153L139.623 428z"/><path fill="#336d6e" d="M78.044 629.91h86.94L139.623 428z"/><path fill="#003536" d="m1593.5 591 22.5 32h-45z"/><path fill="#002c2c" d="M1593.5 623h22.5v30h-22.5z"/><path fill="#336d6e" d="M1571 623h22.5v30H1571z"/><path fill="#003536" d="m1415.5 591 22.5 32h-45z"/><path fill="#002c2c" d="M1415.5 623h22.5v30h-22.5z"/><path fill="#336d6e" d="M1393 623h22.5v30H1393z"/><path fill="#003536" d="m1156 591 20 32h-40z"/><path fill="#002c2c" d="M1153.5 623h22.5v30h-22.5z"/><path fill="#336d6e" d="M1136 623h20v30h-20z"/><path fill="#003536" d="m1218 591 20 32h-40z"/><path fill="#002c2c" d="M1215.5 623h22.5v30h-22.5z"/><path fill="#336d6e" d="M1198 623h20v30h-20z"/><path fill="#c0c6c3" d="M1259 623h74v40h-74zM1497 623h51v40h-51zM1638 623h174v40h-174z"/><path fill="#003536" d="m1296 591 20 32h-40z"/><path fill="#002c2c" d="M1293.5 623h22.5v30h-22.5z"/><path fill="#336d6e" d="M1276 623h20v30h-20z"/><path fill="#003536" d="m1521 591 20 32h-40z"/><path fill="#002c2c" d="M1518.5 623h22.5v30h-22.5z"/><path fill="#336d6e" d="M1501 623h20v30h-20z"/><path fill="#003536" d="m1670.5 591 22.5 32h-45z"/><path fill="#002c2c" d="M1670.5 623h22.5v30h-22.5z"/><path fill="#336d6e" d="M1648 623h22.5v30H1648zM1714 653.91h70.647l-35.323-201z"/><path fill="#2b5c5d" d="M1735.068 653.91h49.579l-35.323-201z"/><path fill="#002c2c" d="M1744 708.306h10.54l-5.27-54z"/><path fill="#003536" d="M1782.647 663.91h130l-68.377-201.478z"/><path fill="#002b2c" d="m1817.739 664.306 94.908-.396-68.377-201.478z"/><path fill="#d8dedc" d="M1036 618h26v45h-26z"/><path fill="#003536" d="m737 592 20 32h-40z"/><path fill="#002c2c" d="M734.5 624H757v30h-22.5z"/><path fill="#336d6e" d="M717 624h20v30h-20z"/><path fill="#003536" d="m785 592 15 32h-30z"/><path fill="#002c2c" d="M785 624h15v30h-15z"/><path fill="#336d6e" d="M770 624h15v30h-15z"/><path fill="#003536" d="m396 591 30 32h-60z"/><path fill="#002c2c" d="M395 623h31v30h-31z"/><path fill="#336d6e" d="M366 623h30v30h-30z"/><path fill="#c0c6c3" d="m448 625 51-.379V663h-51zM654.821 624.621l51.179-.244v37.59h-51.179zM277 624.377h64.721V663H277z"/><path fill="#003536" d="m474 592 20 32h-40z"/><path fill="#002c2c" d="M471.5 624H494v30h-22.5z"/><path fill="#336d6e" d="M454 624h20v30h-20z"/><path fill="#003536" d="m310 592 20 32h-40z"/><path fill="#002c2c" d="M307.5 624H330v30h-22.5z"/><path fill="#336d6e" d="M290 624h20v30h-20z"/><path fill="#003536" d="m680 592 15 32h-30z"/><path fill="#002c2c" d="M680 624h15v30h-15z"/><path fill="#336d6e" d="M665 624h15v30h-15z"/><path fill="#812817" d="m1144 449 12.5-20 12.5 20v40h-25z"/><path fill="#b0381f" d="M874 288h135v10z"/><path fill="#e47b65" d="M1014 397h22l26-10h43v-5.001h-43l-26 10h-22zM869 397h-66v-5.001h66z"/><path fill="#f2f8f5" d="M1062 203h43v5h-43zM803 203h43v5h-43z"/><path fill="#a3aba7" d="m846 618 22.75 3.455V663H846zM1036 617.955l-23.501 3.5V663H1036zM915 673h49.597v8.455H915z"/><g fill="#002122"><path d="M940 638.845h3v56h-3zM933 638.845h3v56h-3zM926 638.845h3v56h-3zM919 638.845h3v56h-3zM912 638.845h3v56h-3zM905 638.845h3v56h-3zM898 638.845h3v56h-3zM891 638.845h3v56h-3zM884 638.845h3v56h-3zM877 638.845h3v56h-3zM870 638.845h3v56h-3zM863 638.845h3v56h-3zM856 638.845h3v56h-3zM849 638.845h3v56h-3zM842 638.845h3v56h-3zM835 638.845h3v56h-3zM828 638.845h3v56h-3zM821 638.845h3v56h-3zM814 638.845h3v56h-3zM807 638.845h3v56h-3zM800 638.845h3v56h-3zM793 638.845h3v56h-3zM786 638.845h3v56h-3zM779 638.845h3v56h-3zM772 638.845h3v56h-3zM765 638.845h3v56h-3zM758 638.845h3v56h-3zM751 638.845h3v56h-3zM744 638.845h3v56h-3zM737 638.845h3v56h-3zM730 638.845h3v56h-3zM723 638.845h3v56h-3zM716 638.845h3v56h-3zM709 638.845h3v56h-3zM702 638.845h3v56h-3zM695 638.845h3v56h-3zM688 638.845h3v56h-3zM681 638.845h3v56h-3zM674 638.845h3v56h-3zM667 638.845h3v56h-3zM660 638.845h3v56h-3zM653 638.845h3v56h-3zM646 638.845h3v56h-3zM639 638.845h3v56h-3zM632 638.845h3v56h-3zM625 638.845h3v56h-3zM618 638.845h3v56h-3z"/><path d="M610 654h333v3H610z"/></g><path fill="#f2f8f5" d="m960 8.14 16.253 79.882 5.45 3.445-2.944 9.834v45.933l-6.206 11.831H949v-57.764l-3.297-9.834 5.365-3.445z"/><path fill="#d8dedc" d="M949 101.301h29.759l1.207-4.059-6.207-2.493H954l-6.333 2.493z"/><path fill="#001818" d="M988.394 129.911h-9.616v17.378z"/><path fill="#336d6e" d="m654.821 389 81.765-82.188L803 388h-35.829l-30.585-55.516L706.119 388z"/></g></svg>