<svg xmlns="http://www.w3.org/2000/svg" viewBox="0 0 1500 1300" id="animation-about">

<style>
#index-nuclear {
animation: index-nuclear-pulse 4.8s ease-in-out infinite;
opacity: .55; }

@keyframes index-nuclear-pulse {
0%, 100% {
opacity: .4; }

50% {
opacity: .75; } }

@media (prefers-reduced-motion: reduce) {
#index-nuclear {
animation: none;
opacity: .55; } }
</style>

<defs>
<filter id="index-nuclear-glow" width="193%" height="224%" x="-46.5%" y="-62%" filterUnits="objectBoundingBox">
<feGaussianBlur in="SourceGraphic" stdDeviation="31"/>
</filter>
</defs>

<g id="index-nuclear">
<ellipse cx="1170" cy="146" fill="#ffbf00" filter="url(#index-nuclear-glow)" rx="100" ry="75"/>
</g>

<!-- static elements -->
<g fill="none" fill-rule="evenodd">
<g><path fill="#a4bfbf" d="M450 800 150 900 50 850 150 800 0 700 150 700 324.258 583.522z" transform="translate(0 150)"/><path fill="#006c6e" d="M1050.03418,50 L1100.02735,100 L1350,100 L1050,200 L1200.93255,400 L1150.02052,400 L1150.02052,450 L1150,450 L1050,550 L1100,600 L1000,700 L1100,800 L950,850 L1150,900 L1000,1000 L950,1000 L900,1050 L800,1000 L700,1000 L650,1100 L550,1000 L350,1000 L200.623,950.207 L200.257248,950.428746 C200.020458,950.570821 199.713328,950.494038 199.571254,950.257248 C199.429179,950.020458 199.505962,949.713328 199.742752,949.571254 L449.742752,799.571254 L449.748,799.567 L246.336676,450 L550.102513,250 L450.116179,150 L300.136678,100 L800.068349,50 L900.054683,100 L1050.03418,50 Z" transform="translate(0 150)"/><path fill="#a4bfbf" d="M1350 100 1201 400 1200 150z" transform="translate(0 150)"/><path fill="#669292" d="M1300.144 399.81 1450 400 1350 500z" transform="translate(0 150)"/><path fill="#336d6e" d="M1000 1050 1150 1150 1350 1000z" transform="translate(0 150)"/><path fill="#a4bfbf" d="M1150 399.81 1300 399.81 1350 500 1500 550 1300 700 1400 750 1350 800 1450 800 1300 950 1350 1000 1000 1050 950 1000 1150 900 950 850 1100 800 1000 700 1100 600 1050 550 1150 450z" transform="translate(0 150)"/><path fill="#005d5f" d="M1100 600 1100 650 1000 700z" transform="translate(0 150)"/><path fill="#669292" d="M1000 700 1100 700 1100 650z" transform="translate(0 150)"/><path fill="#005d5f" d="M1100 800 1100 850 950 850z" transform="translate(0 150)"/><path fill="#669292" d="M950 850 1100 850 1150 900z" transform="translate(0 150)"/><path fill="#00494a" d="M1150 399.81 1300 399.81 1350 500z" transform="translate(0 150)"/><path fill="#336d6e" d="M1150 450 1150 400 1350 500z" transform="translate(0 150)"/><path fill="#669292" d="M1050 550 1350 500 1150 450z" transform="translate(0 150)"/><path fill="#00494a" d="M1050 550 1200.919 462.553 1150 449.905z" transform="translate(0 150)"/><path fill="#fff" d="M1290 545 1330 575 1250 575zM1150 585 1190 615 1110 615z" transform="translate(0 150)"/><path fill="#fff" d="M1185 595 1225 625 1145 625z" transform="translate(0 150)"/><path fill="#e0e9e9" d="M207 800 247 830 167 830z" transform="translate(0 150)"/><path fill="#e0e9e9" d="M250 785 290 815 210 815z" transform="translate(0 150)"/><path fill="#e0e9e9" d="M290 773 330 803 250 803z" transform="translate(0 150)"/><path fill="#fff" d="M1250 560 1290 590 1210 590z" transform="translate(0 150)"/><path fill="#00494a" d="M800 1000 800 1050 850 1100z" transform="translate(0 150)"/><path fill="#669292" d="M800 1000 900 1050 850 1100z" transform="translate(0 150)"/><path fill="#00494a" d="M850 1100 1000 1050 950 1000z" transform="translate(0 150)"/><path fill="#336d6e" d="M800 1050 750 1050 800 1000z" transform="translate(0 150)"/><path fill="#00494a" d="M750 1050 700 1000 800 1000z" transform="translate(0 150)"/><path fill="#005d5f" d="M750 1050 650 1100 700 1000z" transform="translate(0 150)"/><path fill="#00494a" d="M550 1000 550 1150 650 1100z" transform="translate(0 150)"/><path fill="#b85b00" d="M550 1000 450 1050 350 1000z" transform="translate(0 150)"/><path fill="#005d5f" d="M450 1050 550 1075 550 1000z" transform="translate(0 150)"/><path fill="#669292" d="M450 1050 450 1100 550 1075z" transform="translate(0 150)"/><path fill="#336d6e" d="M450 1100 550 1150 550 1075z" transform="translate(0 150)"/><path fill="#005d5f" d="M350 1000 350 1050 450 1050z" transform="translate(0 150)"/><path fill="#e0e9e9" d="M350 1050 450 1050 450 1100z" transform="translate(0 150)"/><path fill="#006c6e" d="M450 1100 300 1150 100 1000 250 1050 350 1000 350 1050z" transform="translate(0 150)"/><path fill="#a4bfbf" d="M100 1000 150 900 200 950z" transform="translate(0 150)"/><path fill="#005d5f" d="M200 950 250 1050 100 1000z" transform="translate(0 150)"/><path fill="#669292" d="M200 950 350 1000 250 1050z" transform="translate(0 150)"/><path fill="#336d6e" d="M126.362 950 50 950 100 1000z" transform="translate(0 150)"/><path fill="#669292" d="M50 950 100 900 126.362 950zM200 450 450 500 150 650 0 600z" transform="translate(0 150)"/><path fill="#b85b00" d="M200 450 450 500 0 600z" transform="translate(0 150)"/><path fill="#336d6e" d="M0 600 150 700 150 650z" transform="translate(0 150)"/><path fill="#00494a" d="M450 500 150 700 150 650z" transform="translate(0 150)"/><path fill="#b85b00" d="M500 250 350 300.79 500 350 650 300z" transform="translate(0 150)"/><path fill="#005d5f" d="M500 250 500 350 650 300z" transform="translate(0 150)"/><path fill="#336d6e" d="M500 350 350 384.337 433.331 328.017z" transform="translate(0 150)"/><path fill="#669292" d="M433.331 328.017 317.578 336.962 350 384.337z" transform="translate(0 150)"/><path fill="#00494a" d="M350 300.79 350 334.511 433.331 328.017zM650 300 550 400 500 350z" transform="translate(0 150)"/><path fill="#005d5f" d="M750 54.862 700 0 550 0 350 50 300 100 600 150z" transform="translate(0 150)"/><path fill="#00494a" d="M1027 75 1125 75 1300.144 100z" transform="translate(0 150)"/><path fill="#336d6e" d="M1050.034 50 1200 50 1300.144 100z" transform="translate(0 150)"/><path fill="#00494a" d="M550 550 391.666 612.298 391.666 700z" transform="translate(0 150)"/><path fill="#a4bfbf" d="M850 900 950 1000 900 1050z" transform="translate(0 150)"/><path fill="#336d6e" d="M850 900 800 1000 900 1050z" transform="translate(0 150)"/><path fill="#a4bfbf" d="M850 900 750 950 800 1000z" transform="translate(0 150)"/><path fill="#005d5f" d="M750 950 700 1000 800 1000z" transform="translate(0 150)"/><path fill="#00494a" d="M879.806 864.039 755 903 885.661 816.976zM850 350 900 399.81 754.232 499.661zM1052 301 952 301 1002 251zM750 652 638 700 688 650zM800.068 50 1050.034 50 900.055 100z" transform="translate(0 150)"/><path fill="#669292" d="M350 50 550 75 300.137 100zM550 75 700 0 750 54.862z" transform="translate(0 150)"/><path fill="#00494a" d="M550 75 550 0 700 0z" transform="translate(0 150)"/><path fill="#005d5f" d="M1150 449.905 1100 499.952 952.319 450z" transform="translate(0 150)"/><path fill="#00494a" d="M750 100 802.399 150 643.788 200z" transform="translate(0 150)"/><path fill="#669292" d="M150 900 450 800 200 950z" transform="translate(0 150)"/><path fill="#005d5f" d="M1150 900 1000 1050 950 1000z" transform="translate(0 150)"/><g><path fill="#d8dedc" d="M25 0 0 200 50 200z" transform="translate(875 853)"/><path fill="#c0c6c3" d="M25 0 25 200 50 200z" transform="translate(875 853)"/></g><g><path fill="#d8dedc" d="M25 0 0 200 50 200z" transform="translate(705 853)"/><path fill="#c0c6c3" d="M25 0 25 200 50 200z" transform="translate(705 853)"/></g><g><path fill="#d8dedc" d="M25 0 0 200 50 200z" transform="translate(1200 900)"/><path fill="#c0c6c3" d="M25 0 25 200 50 200z" transform="translate(1200 900)"/></g><path fill="#669292" d="M1050.034 200 1200 150 1201 400z" transform="translate(0 150)"/></g><g><g><path fill="#669292" d="M103 50 78 100 128 100z" transform="translate(247 550)"/><path fill="#336d6e" d="M103 50 103 100 128 100z" transform="translate(247 550)"/><path fill="#003a3b" d="M75 50 50 100 100 100z" transform="translate(247 550)"/><path fill="#001d1e" d="M75 50 75 99.952 100 100z" transform="translate(247 550)"/><path fill="#669292" d="M25 0 0 100 50 100z" transform="translate(247 550)"/><path fill="#336d6e" d="M25 0 25 100 50 100z" transform="translate(247 550)"/></g><g><path fill="#669292" d="M103 50 78 100 128 100z" transform="translate(449 850)"/><path fill="#336d6e" d="M103 50 103 100 128 100z" transform="translate(449 850)"/><path fill="#003a3b" d="M75 50 50 100 100 100z" transform="translate(449 850)"/><path fill="#001d1e" d="M75 50 75 99.952 100 100z" transform="translate(449 850)"/><path fill="#669292" d="M25 0 0 100 50 100z" transform="translate(449 850)"/><path fill="#336d6e" d="M25 0 25 100 50 100z" transform="translate(449 850)"/></g><g><path fill="#001d1e" d="M25 50 0 100 50 100z" transform="translate(225 1000)"/><path fill="#003a3b" d="M47 0 22 100 72 100z" transform="translate(225 1000)"/><path fill="#001d1e" d="M47 0 47 100 72 100z" transform="translate(225 1000)"/></g><g><path fill="#003a3b" d="M50 50 25 100 75 100z" transform="translate(434 504)"/><path fill="#001d1e" d="M50 50 50 100 75 100z" transform="translate(434 504)"/><path fill="#003a3b" d="M-24 50-49 100 1 100z" transform="translate(434 504)"/><path fill="#001d1e" d="M-24 50-24 100 1 100z" transform="translate(434 504)"/><path fill="#003a3b" d="M25 0 0 100 50 100z" transform="translate(434 504)"/><path fill="#001d1e" d="M25 0 25 100 50 100z" transform="translate(434 504)"/></g><g><path fill="#003a3b" d="M50 50 25 100 75 100z" transform="translate(849 700)"/><path fill="#001d1e" d="M50 50 50 100 75 100z" transform="translate(849 700)"/><path fill="#003a3b" d="M-24 50-49 100 1 100z" transform="translate(849 700)"/><path fill="#001d1e" d="M-24 50-24 100 1 100z" transform="translate(849 700)"/><path fill="#003a3b" d="M25 0 0 100 50 100z" transform="translate(849 700)"/><path fill="#001d1e" d="M25 0 25 100 50 100z" transform="translate(849 700)"/></g><g><path fill="#003a3b" d="M50 50 25 100 75 100z" transform="translate(775 650)"/><path fill="#001d1e" d="M50 50 50 100 75 100z" transform="translate(775 650)"/><path fill="#003a3b" d="M-24 50-49 100 1 100z" transform="translate(775 650)"/><path fill="#001d1e" d="M-24 50-24 100 1 100z" transform="translate(775 650)"/><path fill="#003a3b" d="M25 0 0 100 50 100z" transform="translate(775 650)"/><path fill="#001d1e" d="M25 0 25 100 50 100z" transform="translate(775 650)"/></g><g><path fill="#003a3b" d="M50 50 25 100 75 100z" transform="translate(875 600)"/><path fill="#001d1e" d="M50 50 50 100 75 100z" transform="translate(875 600)"/><path fill="#003a3b" d="M-24 50-49 100 1 100z" transform="translate(875 600)"/><path fill="#001d1e" d="M-24 50-24 100 1 100z" transform="translate(875 600)"/><path fill="#003a3b" d="M25 0 0 100 50 100z" transform="translate(875 600)"/><path fill="#001d1e" d="M25 0 25 100 50 100z" transform="translate(875 600)"/></g><g><path fill="#003a3b" d="M25 0 0 50 50 50z" transform="translate(50 678)"/><path fill="#001d1e" d="M25 0 25 50 50 50z" transform="translate(50 678)"/></g><g><path fill="#003a3b" d="M25 0 0 50 50 50z" transform="translate(975 650)"/><path fill="#001d1e" d="M25 0 25 50 50 50z" transform="translate(975 650)"/></g><g><path fill="#003a3b" d="M25 0 0 50 50 50z" transform="translate(924 700)"/><path fill="#001d1e" d="M25 0 25 50 50 50z" transform="translate(924 700)"/></g></g><g><path fill="#001d1e" d="M291.387279,0 L266.251,50 L340.978508,50 L300,132.843068 L224.603,132.843 L215.978508,150 L140.978508,150 L65.9785076,150 L74.603,132.843 L-2.84217094e-13,132.843068 L40.9785076,50 L116.251,50 L141.387279,0 L216.387279,0 L291.387279,0 Z" transform="translate(284.022 1000)"/><path fill="#002c2d" d="M216.387279,0 L65.9785076,150 L115.423,50.616 L-7.81597009e-13,132.843068 L40.9785076,50 L115.73,50 L140.606194,0 L216.387279,0 Z M291.387279,0 L140.978508,150 L216.387279,0 L291.387279,0 Z M340.978508,50 L224.464034,132.843068 L265.978508,50 L340.978508,50 Z" transform="translate(284.022 1000)"/><g stroke="#fff" stroke-linecap="round"><path d="M65.401 50 24.901 132.843M285.401 50 244.901 132.843M163.401 0 88.401 150M200.401 0 125.401 150M238.401 0 163.401 150M13 75 88.401 75M0 100 300.901 100.5M239 74.5 314.401 74.5M101 49.5 250.901 49.5" transform="translate(299.599 1000)"/></g></g><g><g><path fill="#b85b00" d="M0 0 0 200 25 200 25 0z" transform="translate(1076)"/><path fill="#8a4400" d="M0 0 0 200 15 200 15 0z" transform="translate(1076)"/><path fill="#001d1e" d="M0 0 0 15 25 15 25 0z" transform="translate(1076)"/><path fill="#d8dedc" d="M0 35 0 50 25 50 25 35zM0 85 0 100 25 100 25 85z" transform="translate(1076)"/><path fill="#c0c6c3" d="M0 35 0 50 15 50 15 35zM0 85 0 100 15 100 15 85z" transform="translate(1076)"/></g><g><path fill="#b85b00" d="M0 0 0 200 25 200 25 0z" transform="translate(1325 50)"/><path fill="#8a4400" d="M0 0 0 200 15 200 15 0z" transform="translate(1325 50)"/><path fill="#001d1e" d="M0 0 0 15 25 15 25 0z" transform="translate(1325 50)"/><path fill="#d8dedc" d="M0 35 0 50 25 50 25 35zM0 85 0 100 25 100 25 85z" transform="translate(1325 50)"/><path fill="#c0c6c3" d="M0 35 0 50 15 50 15 35zM0 85 0 100 15 100 15 85z" transform="translate(1325 50)"/></g><g><path fill="#ca0" d="M0 53 13.403 31.913 22.557 49.14z" transform="translate(1112 101)"/><path fill="#ffd500" d="M22.557 49.14 47.306 49.14 41.24 13.307z" transform="translate(1112 101)"/><path fill="#e6c000" d="M41.24 13.307 72.056 24.636 47.306 49.14z" transform="translate(1112 101)"/><path fill="#ffda1a" d="M41.24 13.307 68.929 23.564 60.951 0z" transform="translate(1112 101)"/><path fill="#fff3b3" d="M41.24 13.307 24.518 11.208 42.689 3.136z" transform="translate(1112 101)"/><path fill="#ffe666" d="M42.689 3.136 60.951 0 41.24 13.307z" transform="translate(1112 101)"/><path fill="#e6c000" d="M13.403 32.084 41.24 13.307 22.557 49.14z" transform="translate(1112 101)"/><path fill="#ffe666" d="M24.518 11.208 13.403 31.913 41.24 13.271z" transform="translate(1112 101)"/><path fill="#fff3b3" d="M13.403 31.913 9.258 26.696 24.518 11.208" transform="translate(1112 101)"/><path fill="#ffd500" d="M13.403 31.913 9.258 26.605.227 52.685zM77.436 13.307 96.806 49.14 47.306 49.14z" transform="translate(1112 101)"/><path fill="#e6c000" d="M77.436 13.307 106.659 31.209 96.806 49.14z" transform="translate(1112 101)"/><path fill="#ffda1a" d="M77.436 13.254 96.155 10.179 106.659 31.03z" transform="translate(1112 101)"/><path fill="#fff3b3" d="M60.951 0 77.436 13.307 96.155 10.179 80.179 2.48z" transform="translate(1112 101)"/><path fill="#ffd500" d="M106.659 31.03 121.555 49.14 96.806 49.14z" transform="translate(1112 101)"/><path fill="#ca0" d="M106.659 31.03 123.453 40.651 121.555 49.14z" transform="translate(1112 101)"/><path fill="#e6c000" d="M123.453 40.651 127 49.14 121.555 49.14z" transform="translate(1112 101)"/><path fill="#ffe666" d="M96.155 10.179 115.056 25.311 123.453 40.651 106.659 31.142z" transform="translate(1112 101)"/><path fill="#e6c000" d="M60.951 0 77.436 13.307 68.929 23.564z" transform="translate(1112 101)"/></g><path fill="#b85b00" d="M199.681 150H348.681V250H199.681z" transform="translate(901.319)"/><path fill="#8a4400" d="M348.681 150 348.681 250 199.681 250z" transform="translate(901.319)"/><path fill="#d8dedc" d="M348.681 150H448.681V250H348.681z" transform="translate(901.319)"/><path fill="#c0c6c3" d="M348.681 150 448.681 250 348.681 250zM273.681 175H323.681V250H273.681z" transform="translate(901.319)"/><path fill="#959f9a" d="M323.681 175 323.681 250 273.681 250z" transform="translate(901.319)"/><path fill="#eb8e33" d="M134.681 200H199.681V250H134.681z" transform="translate(901.319)"/><path fill="#b85b00" d="M134.681 200 199.681 250 134.681 250z" transform="translate(901.319)"/><path fill="#d8dedc" d="M199.681 200H299.681V250H199.681z" transform="translate(901.319)"/><path fill="#959f9a" d="M206.681 225H216.681V250H206.681zM221.681 225H231.681V250H221.681zM236.681 225H246.681V250H236.681zM251.681 225H261.681V250H251.681zM266.681 225H276.681V250H266.681zM281.681 225H291.681V250H281.681z" transform="translate(901.319)"/><path fill="#fff" d="M50.681 50 100.716 50 150.699 250 1 250z" transform="translate(901.319)"/><path fill="#d8dedc" d="M50.681 50 75.733 50 75.733 250 1 250z" transform="translate(901.319)"/><path fill="#001d1e" d="M50.6814151,50 L100.681415,50 L75.6899611,83.3333333 L50.6814151,50 Z M46.7825309,219.311662 L75.7326815,250 L1,250 L46.7825309,219.311662 Z" transform="translate(901.319)"/><path fill="#c0c6c3" d="M113.297945,100 L150.698507,250 L75.7326815,150 L113.297945,100 Z M75.7326815,150 L98.6814151,250 L75.7326815,250 L75.7326815,150 Z M100.681415,50 L113.297945,100 L75.7109256,83.2932387 L100.681415,50 Z" transform="translate(901.319)"/><path fill="#fff" d="M13.3945975,199.809923 L75.6814151,200.069993 L1,250 L13.3945975,199.809923 Z M50.6814151,50 L75.7326815,83.2932387 L13.3945975,199.809923 L50.6814151,50 Z" transform="translate(901.319)"/><path fill="#001d1e" d="M373.681 200H424.681V250H373.681z" transform="translate(901.319)"/><path fill="#003a3b" d="M424.681 200 424.681 250 373.681 250z" transform="translate(901.319)"/></g><g><path fill="#f4f5f5" d="M282 50 81.5 0 32 25 232 75z" transform="translate(118 700)"/><path fill="#d8dedc" d="M282 50 32 25 232 75z" transform="translate(118 700)"/><path fill="#c0c6c3" d="M232 75 207 200 7 150 32 25z" transform="translate(118 700)"/><path fill="#959f9a" d="M232 75 282 50 332 150 207 200z" transform="translate(118 700)"/><path fill="#a5aea9" d="M232 75 332 150 207 200z" transform="translate(118 700)"/><path fill="#e0e9e9" d="M119 177.995 44 193.456 91.895 171.326zM75 167 0 182.456 48 160.232z" transform="translate(118 700)"/><path fill="#959f9a" d="M155.171 91.753 182 98.849 164 189.213 137 182.456zM110.325 80.463 137 87.439 119 177.995 92 171z" transform="translate(118 700)"/><path fill="#959f9a" d="M110.324762,80.4628173 L137,87.438989 L119,177.994839 L91.8946972,171.326493 L110.324762,80.4628173 Z M66.0363948,70.0216173 L93.0911422,76.5628869 L75,167 L48,160.232479 L66.0363948,70.0216173 Z M155.17077,91.7525376 L182,98.848609 L164.098715,188.634567 L137,182.455647 L155.17077,91.7525376 Z" transform="translate(118 700)"/><path fill="#001d1e" d="M155.17077,91.7525376 L182,98.848609 L137,182.455647 L155.17077,91.7525376 Z M110.324762,80.4628173 L137,87.438989 L91.8946972,171.326493 L110.324762,80.4628173 Z M66.0363948,70.0216173 L93.0911422,76.5628869 L48,160.232479 L66.0363948,70.0216173 Z" transform="translate(118 700)"/><path fill="#e0e9e9" d="M164 189.213 107 208.456 137 182.456z" transform="translate(118 700)"/></g><g stroke-linecap="round"><path stroke="#ffbf00" d="M829.5 296.257 972.601 389.101" transform="translate(146.899 110.9)"/><path stroke="#f70" d="M830 258.257 971.601 339.101" transform="translate(146.899 110.9)"/><path stroke="#fff" d="M820 213.233 971.601 289.101" transform="translate(146.899 110.9)"/><path stroke="#ffbf00" d="M387.101 682.348 528 495.101 726.601 296.257 551.5 122.257 292.172 58.596 302 295.101-.5 530.101" transform="translate(146.899 110.9)"/><path stroke="#f70" d="M520.451 631.825 631 456.233 830 258.233 655 82.233 364.752 32.139 405 256.233 103 491.233" transform="translate(146.899 110.9)"/><path stroke="#fff" d="M507.453 573.332 621 411.233 820 213.233 645 37.233 357.765 0 395 211.233 93 446.233" transform="translate(146.899 110.9)"/><path stroke="#ffbf00" d="M520.451 680.825 631 494.257 829.5 296.257 654.5 122.257 364.101 58.596 405 294.257 102.5 529.257" transform="translate(146.899 110.9)"/><path stroke="#f70" d="M386.751 633.125 528 457.233 727 259.233 552 83.233 292.451 32.139 302 257.233 0 492.233" transform="translate(146.899 110.9)"/><path stroke="#fff" d="M398.45 573.332 537 411.233 736 213.233 561 37.233 298.739 0 311 213.233 9 446.233" transform="translate(146.899 110.9)"/></g><g stroke="#fff" stroke-linecap="round"><g stroke-width="2"><path d="M79.833 184.637 61.717 25.646 51.717 0 41.717 25.646 23.601 184.637" transform="translate(873.399 267.024)"/><path d="M10.101 40.976 93.5 40.976 61.717 25.646 41.717 25.646zM.101 85.976 103.5 85.976 66.886 70.646 36.684 70.646zM.101 123.976 103.5 123.976 71.427 109.072 32.469 109.072zM74.626 140.976 28.663 140.976M37.936 57.108 65.268 57.108M23.601 184.637 74.626 140.976M28.601 140.976 79.833 184.637M32.469 109.072 74.626 140.976M71.427 109.072 28.663 140.976M68.423 85.976 32.469 109.072M34.701 85.976 71.427 109.072" transform="translate(873.399 267.024)"/><path d="M39.738 40.976 64.159 57.108 36.684 70.646" transform="translate(873.399 267.024)"/><path d="M66.886 70.646 39.378 57.108 63.335 40.976M93.5 40.976 93.5 57.108M103.5 86 103.5 102.132M.5 86 .5 102.132M103 124 103 140.132M0 124 0 140.132M9.5 40.976 9.5 57.108" transform="translate(873.399 267.024)"/></g><g stroke-width="2"><path d="M79.833 184.637 61.717 25.646 51.717 0 41.717 25.646 23.601 184.637" transform="translate(448.399 265.024)"/><path d="M10.101 40.976 93.5 40.976 61.717 25.646 41.717 25.646zM.101 85.976 103.5 85.976 66.886 70.646 36.684 70.646zM.101 123.976 103.5 123.976 71 108.646 32.469 108.646zM74.626 140.976 28.663 140.976M37.936 57.108 65.268 57.108M23.601 184.637 74.626 140.976M28.601 140.976 79.833 184.637M32.469 109.072 74.626 140.976M71.427 109.072 28.663 140.976M68.423 85.976 32.469 109.072M34.701 85.976 71 109.072" transform="translate(448.399 265.024)"/><path d="M39.738 40.976 64.159 57.108 36.684 70.646" transform="translate(448.399 265.024)"/><path d="M66.886 70.646 39.378 57.108 63.335 40.976M93.5 40.976 93.5 57.108M103.5 85.976 103.5 102.108M.5 86.976.5 103.108M103.5 124 103.5 140.132M.5 124 .5 140.132M9.5 40.976 9.5 57.108" transform="translate(448.399 265.024)"/></g><g stroke-width="2"><path d="M79.833 184.637 61.717 25.646 51.717 0 41.717 25.646 23.601 184.637" transform="translate(146.399 500.024)"/><path d="M10.101 40.976 93.5 40.976 61.717 25.646 41.717 25.646zM.101 85.976 103.5 85.976 66.886 70.646 36.684 70.646zM.101 123.976 103.5 123.976 71.427 108.646 32.469 108.646zM74.626 140.976 28.663 140.976M37.936 57.108 65.268 57.108M23.601 184.637 74.626 140.976M28.601 140.976 79.833 184.637M32.469 109.072 74.626 140.976M71.427 109.072 28.663 140.976M68.423 85.976 32.469 109.072M34.701 85.976 71.427 109.072" transform="translate(146.399 500.024)"/><path d="M39.738 40.976 64.159 57.108 36.684 70.646" transform="translate(146.399 500.024)"/><path d="M66.886 70.646 39.378 57.108 63.335 40.976M93.5 40.976 93.5 57.108M103.5 86 103.5 102.132M.5 86 .5 102.132M103 124 103 140.132M0 124 0 140.132M9.5 40.976 9.5 57.108" transform="translate(146.399 500.024)"/></g><g stroke-width="2"><path d="M79.833 184.637 61.717 25.646 51.717 0 41.717 25.646 23.601 184.637" transform="translate(698.399 91.024)"/><path d="M10.101 40.976 93.5 40.976 61.717 25.646 41.717 25.646zM.101 85.976 103.5 85.976 66.886 70.646 36.684 70.646zM.101 124.976 103.5 124.976 71.427 108.976 32.469 108.976zM74.626 140.976 28.663 140.976M37.936 57.108 65.268 57.108M23.601 184.637 74.626 140.976M28.601 140.976 79.833 184.637M32.469 109.072 74.626 140.976M71.427 109.072 28.663 140.976M68.423 85.976 32.469 109.072M34.701 85.976 71.427 109.072" transform="translate(698.399 91.024)"/><path d="M39.738 40.976 64.159 57.108 36.684 70.646" transform="translate(698.399 91.024)"/><path d="M66.886 70.646 39.378 57.108 63.335 40.976M93.5 40.976 93.5 57.108M103.5 86 103.5 102.132M.5 86 .5 102.132M103 126 103 142.132M0 126 0 142.132M9.5 40.976 9.5 57.108" transform="translate(698.399 91.024)"/></g><g stroke-width="1.397"><path d="M56.115 129 43.349 17.918 36.302 0 29.256 17.918 16.489 129" transform="translate(439 71)"/><path d="M7.057 28.628 65.664 28.628 43.329 17.918 29.275 17.918zM.071 60.068 72.651 60.068 46.95 49.358 25.749 49.358zM.071 87.068 72.651 87.068 50.242 76.358 22.685 76.205zM52.307 98.495 20.194 98.495M26.673 39.899 45.769 39.899M16.489 129 52.477 98.495M19.983 98.495 56.115 129M22.685 76.205 52.477 98.495M50.242 76.205 20.026 98.495M48.143 60.068 22.685 76.205M24.245 60.068 50.242 76.205" transform="translate(439 71)"/><path d="M27.801 28.628 45.164 39.9 25.63 49.358" transform="translate(439 71)"/><path d="M47.069 49.358 27.512 39.9 44.545 28.628M65.664 28.628 65.664 39.9M72.349 60 72.349 71.271M.349 60 .349 71.271M72 87 72 98.271M0 87 0 98.271M6.637 28.628 6.637 39.9" transform="translate(439 71)"/></g><g stroke-width="2"><path d="M79.833 184.637 61.717 25.646 51.717 0 41.717 25.646 23.601 184.637" transform="translate(674.399 465.024)"/><path d="M10.101 40.976 93.5 40.976 61.717 25.646 41.717 25.646zM.101 85.976 103.5 85.976 66.886 70.646 36.684 70.646zM.101 123.976 103.5 123.976 71.427 108.646 32.469 109.072zM74.626 140.976 28.663 140.976M37.936 57.108 65.268 57.108M23.601 184.637 74.626 140.976M28.601 140.976 79.833 184.637M32.469 109.072 74.626 140.976M71.427 109.072 28.663 140.976M68.423 85.976 32.469 109.072M34.701 85.976 71.427 109.072" transform="translate(674.399 465.024)"/><path d="M39.738 40.976 64.159 57.108 36.684 70.646" transform="translate(674.399 465.024)"/><path d="M66.886 70.646 39.378 57.108 63.335 40.976M93.5 40.976 93.5 57.108M103.5 85.976 103.5 102.108M.5 86.976.5 103.108M103.5 124 103.5 140.132M.5 124 .5 140.132M9.5 40.976 9.5 57.108" transform="translate(674.399 465.024)"/></g><g stroke-width="2.6"><path d="M103.587 240 80.098 33.336 67.132 0 54.167 33.336 30.678 240" transform="translate(533 610)"/><path d="M13.13 53.262 121.352 53.262 80.109 33.336 54.156 33.336zM.131 111.755 134.35 111.755 86.822 91.829 47.618 91.829zM.131 160.755 134.35 160.755 92.66 140.829 42.205 140.829zM96.911 183.247 37.166 183.247M49.311 74.232 84.655 74.232M30.678 240 96.818 183.247M37.177 183.247 103.587 240M42.205 141.777 96.818 183.247M92.66 141.777 37.257 183.247M88.755 111.755 42.205 141.777M45.106 111.755 92.66 141.777" transform="translate(533 610)"/><path d="M51.633 53.262 83.213 74.232 47.683 91.829" transform="translate(533 610)"/><path d="M86.757 91.829 51.186 74.232 82.166 53.262M121.352 53.262 121.352 74.232M134.35 111.755 134.35 132.725M.65 113.055.65 134.025M134.7 160.755 134.7 181.725M1 162.055 1 183.025M12.349 53.262 12.349 74.232" transform="translate(533 610)"/></g></g><path fill="#fff" d="M1247.26693,1077.02736 L1290,1114 L1264.999,1113.999 L1185,1114 L1160,1114 L1201.94964,1084.2652 L1213.064,1092.951 L1225,1084 L1233.677,1090.508 L1247.26693,1077.02736 Z"/><g><path fill="#c0c6c3" d="M74.601 130.843H223.601V180.843H74.601z" transform="translate(976.399 369.157)"/><path fill="#d8dedc" d="M123.601 131.843 123.601 180.843 74.601 180.843z" transform="translate(976.399 369.157)"/><path fill="#959f9a" d="M223.601 130.843H324.601V180.843H223.601z" transform="translate(976.399 369.157)"/><path fill="#b0b7b4" d="M223.601 130.843 324.601 180.843 223.601 180.843z" transform="translate(976.399 369.157)"/><path fill="#7a8781" d="M324.601 130.843H373.601V180.843H324.601z" transform="translate(976.399 369.157)"/><path fill="#6e7974" d="M324.601222,130.843283 L373.601222,180.843283 L324.601222,180.843283 L324.601222,130.843283 Z M74.6012216,180.843283 L123.601222,180.843283 L123.601222,230.843283 L74.6012216,180.843283 Z M265.601222,149.843283 L276.601222,149.843283 L276.601222,160.843283 L265.601222,160.843283 Z M286.601222,149.843283 L297.601222,149.843283 L297.601222,160.843283 L286.601222,160.843283 Z M244.601222,149.843283 L255.601222,149.843283 L255.601222,160.843283 L244.601222,160.843283 Z" transform="translate(976.399 369.157)"/><path fill="#001d1e" d="M130.601222,155.843283 L155.601222,155.843283 L155.601222,180.843283 L130.601222,180.843283 Z M160.601222,155.843283 L185.601222,155.843283 L185.601222,180.843283 L160.601222,180.843283 Z M190.601222,155.843283 L215.601222,155.843283 L215.601222,180.843283 L190.601222,180.843283 Z M160.601222,55.8432829 L185.601222,55.8432829 L185.601222,80.8432829 L160.601222,80.8432829 Z M130.601222,55.8432829 L155.601222,55.8432829 L155.601222,80.8432829 L130.601222,80.8432829 Z M190.601222,55.8432829 L215.601222,55.8432829 L215.601222,80.8432829 L190.601222,80.8432829 Z M220.601222,55.8432829 L245.601222,55.8432829 L245.601222,80.8432829 L220.601222,80.8432829 Z M280.601222,55.8432829 L305.601222,55.8432829 L305.601222,80.8432829 L280.601222,80.8432829 Z M310.601222,55.8432829 L335.601222,55.8432829 L335.601222,80.8432829 L310.601222,80.8432829 Z M111.601222,105.843283 L111.601222,130.843283 L86.6012216,130.843283 L86.6012216,105.843283 L111.601222,105.843283 Z M155.601222,105.843283 L155.601222,130.843283 L130.601222,130.843283 L130.601222,105.843283 L155.601222,105.843283 Z M185.601222,105.843283 L185.601222,130.843283 L160.601222,130.843283 L160.601222,105.843283 L185.601222,105.843283 Z M215.601222,105.843283 L215.601222,130.843283 L190.601222,130.843283 L190.601222,105.843283 L215.601222,105.843283 Z M245.601222,105.843283 L245.601222,130.843283 L220.601222,130.843283 L220.601222,105.843283 L245.601222,105.843283 Z M275.601222,105.843283 L275.601222,130.843283 L250.601222,130.843283 L250.601222,105.843283 L275.601222,105.843283 Z M305.601222,105.843283 L305.601222,130.843283 L280.601222,130.843283 L280.601222,105.843283 L305.601222,105.843283 Z M335.601222,105.843283 L335.601222,130.843283 L310.601222,130.843283 L310.601222,105.843283 L335.601222,105.843283 Z" transform="translate(976.399 369.157)"/><path fill="#fff" d="M137.601222,130.843283 L148.601222,130.843283 L148.601222,155.843283 L137.601222,155.843283 Z M168.601222,130.843283 L179.601222,130.843283 L179.601222,155.843283 L168.601222,155.843283 Z M197.601222,130.843283 L208.601222,130.843283 L208.601222,155.843283 L197.601222,155.843283 Z M104.601222,80.8432829 L104.601222,105.843283 L93.6012216,105.843283 L93.6012216,80.8432829 L104.601222,80.8432829 Z M148.601222,80.8432829 L148.601222,105.843283 L137.601222,105.843283 L137.601222,80.8432829 L148.601222,80.8432829 Z M179.601222,80.8432829 L179.601222,105.843283 L168.601222,105.843283 L168.601222,80.8432829 L179.601222,80.8432829 Z M208.601222,80.8432829 L208.601222,105.843283 L197.601222,105.843283 L197.601222,80.8432829 L208.601222,80.8432829 Z M238.601222,80.8432829 L238.601222,105.843283 L227.601222,105.843283 L227.601222,80.8432829 L238.601222,80.8432829 Z M268.601222,80.8432829 L268.601222,105.843283 L257.601222,105.843283 L257.601222,80.8432829 L268.601222,80.8432829 Z M299.601222,80.8432829 L299.601222,105.843283 L288.601222,105.843283 L288.601222,80.8432829 L299.601222,80.8432829 Z M328.601222,80.8432829 L328.601222,105.843283 L317.601222,105.843283 L317.601222,80.8432829 L328.601222,80.8432829 Z M148.601222,30.8432829 L148.601222,55.8432829 L137.601222,55.8432829 L137.601222,30.8432829 L148.601222,30.8432829 Z M178.601222,30.8432829 L178.601222,55.8432829 L167.601222,55.8432829 L167.601222,30.8432829 L178.601222,30.8432829 Z M209.601222,30.8432829 L209.601222,55.8432829 L198.601222,55.8432829 L198.601222,30.8432829 L209.601222,30.8432829 Z M238.601222,30.8432829 L238.601222,55.8432829 L227.601222,55.8432829 L227.601222,30.8432829 L238.601222,30.8432829 Z M299.601222,30.8432829 L299.601222,55.8432829 L288.601222,55.8432829 L288.601222,30.8432829 L299.601222,30.8432829 Z M328.601222,30.8432829 L328.601222,55.8432829 L317.601222,55.8432829 L317.601222,30.8432829 L328.601222,30.8432829 Z" transform="translate(976.399 369.157)"/><path fill="#c0c6c3" d="M123.601 180.843 373.601 180.843 373.601 230.653 123.601 230.843z" transform="translate(976.399 369.157)"/><path fill="#d8dedc" d="M123.601 180.843 373.601 180.843 123.601 230.843z" transform="translate(976.399 369.157)"/></g>
</g>

<!-- animated elements -->

<g class="animation-about-blades">
<g fill="none" stroke-width="0"><path d="M627 743h210v210H627z"/></g>

<g>
<path fill="#d8dedc" d="m755.794 749-35.059 73.255 27.775 14.132z"/>
<path fill="#c0c6c3" d="M720.735 822.202v14.185h27.652z"/>
<path fill="#c0c6c3" d="m748.387 836.387 28.245 14.123-8.65 5.696z"/>
<path fill="#001d1e" d="M776.632 850.51 819 907l-51.018-50.794z"/>
<path fill="#d8dedc" d="m748.387 836.387-20.028 28.245L819 907z"/>
<path fill="#ffbf00" d="M720.735 836.387h27.652l-19.608 28.245z"/>
<path fill="#d8dedc" d="M728.359 864.632 636 892.877l84.194-56.49z"/>
</g>
</g>

<g class="animation-about-blades">
<g fill="none" stroke-width="0"><path d="M1123 798h210v210h-210z"/></g>
<g>
<path fill="#d8dedc" d="m1251.794 804-35.059 73.255 27.775 14.132z"/>
<path fill="#c0c6c3" d="M1216.735 877.202v14.185h27.652z"/>
<path fill="#c0c6c3" d="m1244.387 891.387 28.245 14.123-8.65 5.696z"/>
<path fill="#001d1e" d="M1272.632 905.51 1315 962l-51.018-50.794z"/>
<path fill="#d8dedc" d="m1244.387 891.387-20.028 28.245L1315 962z"/>
<path fill="#ffbf00" d="M1216.735 891.387h27.652l-19.608 28.245z"/>
<path fill="#d8dedc" d="M1224.359 919.632 1132 947.877l84.194-56.49z"/>
</g>
</g>

<g class="animation-about-blades">
<g fill="none" stroke-width="0"><path d="M798 741h210v210H798z"/></g>
<g>
<path fill="#d8dedc" d="m926.794 748-35.059 73.255 27.775 14.132z"/>
<path fill="#c0c6c3" d="M891.735 821.202v14.185h27.652z"/>
<path fill="#c0c6c3" d="m919.387 835.387 28.245 14.123-8.65 5.696z"/>
<path fill="#001d1e" d="M947.632 849.51 990 906l-51.018-50.794z"/>
<path fill="#d8dedc" d="m919.387 835.387-20.028 28.245L990 906z"/>
<path fill="#ffbf00" d="M891.735 835.387h27.652l-19.608 28.245z"/>
<path fill="#d8dedc" d="M899.359 863.632 807 891.877l84.194-56.49z"/>
</g>
</g>



</svg>
