<svg xmlns="http://www.w3.org/2000/svg" viewBox="0 0 1015 512"><g fill="none"><path fill="#669292" fill-rule="evenodd" d="M146.682 97.796c-14.917 7.964-47.278 27.178-49.933 29.707-1.643 1.517-4.298 5.056-5.688 7.71-2.276 4.425-2.402 8.091-2.402 36.533 0 27.81.253 32.235 2.402 36.912 1.39 2.908 3.54 6.32 4.93 7.459 5.436 4.677 54.104 31.855 58.402 32.614l4.551.758v10.113c0 10.618 2.655 18.709 7.458 22.88 1.39 1.264 14.158 8.975 28.317 17.192 27.178 15.675 32.488 17.571 41.336 14.664 2.529-.885 16.181-8.343 30.466-16.56 25.03-14.664 25.914-15.296 29.454-22.122l3.666-6.953v-29.327c0-16.18-.632-31.603-1.39-34.13-.633-2.655-3.161-6.953-5.563-9.608-5.562-6.194-54.357-34.13-59.666-34.13h-3.666v20.478c0 19.593-.253 20.605-3.666 27.304-3.54 6.7-4.678 7.585-24.904 19.468-26.293 15.422-35.648 20.352-39.187 20.352-2.529 0-2.655-.759-2.655-21.364 0-23.26.885-26.925 7.711-33.498 5.31-4.93 51.576-31.35 57.138-32.488l4.804-1.011v-11.504c0-10.618-.38-11.882-3.919-17.065-2.275-3.16-6.952-7.458-10.618-9.607-42.475-24.903-47.405-27.431-55.116-27.431-4.804 0-8.975.884-12.262 2.654"/><path fill="#00494a" d="M374.856 131.8c-.506.506-.885 35.27-.885 77.111v76.1l10.871-.38 10.998-.38 1.39-8.974c1.391-7.964 3.288-13.4 3.288-9.102 0 3.034 11.124 13.652 17.824 17.066 8.975 4.677 25.408 5.688 35.521 2.401 19.847-6.447 30.087-22.754 31.224-49.805 1.138-24.398-3.919-40.325-16.433-51.829-8.596-7.71-16.56-10.618-30.34-10.618-13.273 0-20.857 3.034-29.074 11.25-3.666 3.666-7.458 7.964-8.343 9.355-1.264 2.149-1.517-4.172-1.644-30.213v-32.866h-11.756c-6.447 0-12.135.505-12.641.885m70.411 65.987c9.987 5.183 15.296 15.043 16.055 29.706 1.39 25.915-8.47 38.809-29.454 38.809-13.906 0-21.996-4.425-27.81-15.17-2.403-4.55-2.908-7.584-2.908-19.973 0-13.02.379-15.295 3.413-21.11 3.666-7.206 7.458-10.619 15.296-13.4 6.194-2.402 19.846-1.77 25.408 1.138"/><path fill="#00494a" fill-rule="evenodd" d="M500.13 207.9v76.984h22.502V130.916H500.13z"/><path fill="#00494a" d="M569.53 175.286c-14.284 4.677-26.167 15.548-30.97 28.316-6.953 18.709-6.195 40.198 2.022 57.011 9.481 19.467 26.8 28.19 52.967 26.673 14.284-.885 21.49-3.287 30.592-10.113 13.778-10.492 19.973-27.305 18.961-50.564-1.137-24.145-9.48-38.935-26.799-47.91-8.722-4.424-9.734-4.55-25.156-4.93q-16.117-.19-21.616 1.517m28.822 18.203c14.159 3.034 21.87 16.307 21.617 37.038-.253 24.903-9.987 36.28-30.971 36.28-16.686 0-25.788-6.7-29.833-22.375-4.425-17.191-1.264-34.636 8.09-43.99 7.585-7.712 17.445-9.86 31.097-6.953M687.852 175.286c-20.479 6.7-32.108 21.237-35.395 44.497-4.298 29.327 7.964 54.988 30.465 64.09 6.574 2.654 9.987 3.034 24.271 3.034 15.296 0 17.066-.253 24.524-3.666 18.962-8.849 29.834-28.063 29.834-52.714 0-24.27-10.746-43.738-28.949-52.713-6.826-3.286-9.102-3.666-23.513-4.045-10.365-.126-17.697.38-21.237 1.517m35.775 21.237c8.722 5.183 12.894 14.158 13.779 29.327.758 16.307-1.896 25.788-9.481 33.373-4.425 4.298-7.08 5.815-13.02 7.079-12.642 2.528-24.019-.38-30.845-7.838-5.815-6.447-8.723-16.18-8.723-28.569 0-18.708 7.206-31.855 19.72-35.9 8.597-2.781 21.364-1.644 28.57 2.528"/><path fill="#00494a" fill-rule="evenodd" d="M772.17 229.137v55.747h23.891V254.04c0-34.131 1.264-42.98 7.585-51.197 8.596-11.377 27.558-10.618 33.752 1.264 4.171 7.838 5.183 17.824 5.183 49.806v30.97h23.892V252.65c0-35.9 1.01-42.6 7.964-50.564 5.182-5.941 10.365-7.838 18.835-7.08 5.688.507 7.585 1.391 11.124 5.31 2.402 2.655 4.93 7.08 5.689 9.86.885 3.034 1.39 19.341 1.39 39.946l.127 34.763h23.892l-.127-34.131c0-37.165-1.138-46.646-7.079-58.275-3.919-7.964-12.01-15.422-18.709-17.698-6.826-2.275-22.628-1.138-29.075 2.023-6.447 3.034-13.273 9.733-16.433 16.054l-2.402 4.677-4.045-7.711c-2.908-5.815-5.436-8.596-10.366-11.63-5.941-3.666-7.585-4.045-17.95-4.045-10.493 0-12.136.38-18.078 4.045-3.665 2.15-8.343 6.7-10.745 10.24l-4.298 6.32-.884-10.618-.885-10.745h-22.249z"/><path fill="#00494a" d="M83.313 401q1.672-4.51 3.5-9.45 1.826-4.94 3.498-9.412l7.075-19.078a28628 28628 0 0 0 6.557-17.674h7.315q1.575 4.286 3.088 8.42t3.404 9.286l7.011 19.142q1.685 4.602 3.474 9.461 1.788 4.86 3.395 9.305h-5.708q-1.78-4.996-3.676-10.286-1.895-5.29-3.571-9.98l-10.806-30.21h-.608l-10.884 29.93q-1.78 4.885-3.7 10.209A1836 1836 0 0 1 88.91 401zm9.47-14.62.39-4.433h29.094l.32 4.433zm70.799 15.42q-6.558 0-11.802-2.166t-8.915-6.056q-3.669-3.892-5.616-9.135t-1.946-11.375q0-8.436 3.475-14.905 3.476-6.47 9.608-10.12t14.132-3.65q2.773 0 5.39.406 2.617.404 4.936 1.091t4.27 1.472q1.951.786 3.362 1.586l-.558 5.382q-3.01-1.764-5.904-2.865a31.7 31.7 0 0 0-5.68-1.598 31 31 0 0 0-5.462-.498q-6.388 0-11.33 2.909-4.94 2.91-7.747 8.236-2.805 5.326-2.805 12.604 0 4.926 1.452 9.236 1.453 4.31 4.349 7.58 2.896 3.267 7.197 5.128 4.301 1.86 9.969 1.86 2.022 0 4.042-.253a30 30 0 0 0 4.006-.787 23 23 0 0 0 3.887-1.432 25 25 0 0 0 3.683-2.15l.538 5.341a21 21 0 0 1-3.607 1.872 28 28 0 0 1-4.09 1.299 36 36 0 0 1-4.365.745q-2.235.243-4.47.243m52.843 0q-6.558 0-11.802-2.166t-8.915-6.056-5.616-9.135-1.946-11.375q0-8.436 3.475-14.905 3.476-6.47 9.608-10.12t14.132-3.65q2.772 0 5.39.406 2.615.404 4.935 1.091t4.271 1.472q1.95.786 3.361 1.586l-.557 5.382q-3.01-1.764-5.904-2.865a31.7 31.7 0 0 0-5.68-1.598 31 31 0 0 0-5.462-.498q-6.389 0-11.33 2.909-4.94 2.91-7.747 8.236-2.805 5.326-2.805 12.604 0 4.926 1.452 9.236t4.349 7.58q2.896 3.267 7.197 5.128 4.302 1.86 9.968 1.86 2.022 0 4.043-.253a30 30 0 0 0 4.006-.787 23 23 0 0 0 3.887-1.432 25 25 0 0 0 3.683-2.15l.538 5.341a21 21 0 0 1-3.607 1.872 28 28 0 0 1-4.09 1.299 36 36 0 0 1-4.365.745q-2.235.243-4.47.243m28.067-.8v-55.614h18.128q6.236 0 10.34 1.501 4.105 1.502 6.137 4.76t2.032 8.531q0 4.467-1.738 8.209-1.739 3.743-5.868 6.003-4.13 2.262-11.27 2.3l1.528-2.501 9.101 10.933a880 880 0 0 1 4.5 5.396 2925 2925 0 0 0 4.648 5.604q2.272 2.733 4.047 4.878h-6.538l-5.699-6.925a2182 2182 0 0 0-5.426-6.567L258.25 375.03l3.423 2.547h-12.728v-4.626h10.904q5.365 0 8.821-1.225t5.131-3.94 1.675-7.15q0-3.814-1.23-5.961t-3.198-3.132a12.4 12.4 0 0 0-4.247-1.234 41 41 0 0 0-4.398-.25H246.35l3.534-3.921V401zm51.193 0v-55.614h33.902v4.796h-31.495l2.986-4.044V400.2l-2.742-3.996h31.295V401zm4.223-25.877v-4.674h28.037v4.674h-28.037M341.302 401v-55.614h18.812q6.471 0 11.465 1.862 4.995 1.86 8.423 5.439 3.429 3.577 5.19 8.677t1.762 11.584q0 5.89-1.563 10.979-1.564 5.089-4.946 8.924-3.38 3.834-8.869 5.992Q366.09 401 358.242 401h-16.939m5.483-4.68h11.506q8.498 0 13.53-3.073 5.031-3.074 7.239-8.39 2.207-5.318 2.207-12.015 0-5.17-1.302-9.37t-3.996-7.201q-2.694-3.003-6.872-4.604-4.178-1.602-9.903-1.602h-12.409v46.256M398.28 401v-55.614h5.553V401zm34.938 0v-54.863l2.23 4.193H413.5v-4.944h44.84v4.944h-21.948l2.295-4.193V401zm34.715 0v-55.614h33.9v4.796h-31.494l2.986-4.044V400.2l-2.742-3.996h31.295V401zm4.222-25.877v-4.674h28.037v4.674h-28.037M513.548 401v-55.614h18.812q6.471 0 11.465 1.862 4.995 1.86 8.423 5.439 3.429 3.577 5.19 8.677t1.762 11.584q0 5.89-1.563 10.979t-4.946 8.924q-3.38 3.834-8.869 5.992Q538.335 401 530.488 401h-16.939m5.483-4.68h11.507q8.496 0 13.528-3.073t7.24-8.39 2.207-12.015q0-5.17-1.302-9.37-1.301-4.2-3.996-7.201-2.694-3.003-6.872-4.604-4.177-1.602-9.903-1.602h-12.409v46.256m81.51 5.473q-3.495 0-6.987-.64t-6.432-1.628-4.73-1.995l.59-5.273a43 43 0 0 0 5.398 2.47 36 36 0 0 0 5.736 1.625q2.956.58 6.151.581 3.683 0 6.684-1.041 3.002-1.042 4.763-3.357 1.76-2.315 1.76-6.148 0-3.152-1.742-5.21t-5.075-3.566q-3.333-1.51-8.078-3.004-5.378-1.702-9.15-3.648-3.774-1.946-5.763-4.742-1.99-2.798-1.99-7.056 0-4.19 2.023-7.529t5.997-5.29 9.794-1.953a32 32 0 0 1 4.844.363 38 38 0 0 1 4.55.976q2.17.613 3.925 1.37 1.756.757 2.961 1.537l-.62 5.369a24.8 24.8 0 0 0-4.983-2.667 29.4 29.4 0 0 0-5.253-1.551q-2.618-.506-4.896-.506-3.348 0-6.216 1.01-2.867 1.01-4.625 3.156-1.757 2.147-1.757 5.531 0 2.841 1.47 4.73 1.471 1.89 4.591 3.365 3.12 1.474 8.08 3.078 6.693 2.163 10.542 4.327t5.467 4.934q1.62 2.769 1.619 6.732 0 4.384-1.96 7.924-1.958 3.538-6.083 5.632t-10.605 2.094m49.92.007q-7.586 0-12.363-2.66-4.779-2.661-7.037-7.458t-2.258-11.17v-35.126h5.47v34.425q0 5.344 1.579 9.18t5.13 5.884q3.552 2.048 9.465 2.048 5.94 0 9.466-2.048t5.071-5.884 1.546-9.244v-34.361h5.469v35.141q0 6.364-2.261 11.158-2.26 4.794-7.02 7.454-4.758 2.66-12.257 2.66m35.55-.8v-55.614h18.969q6.22 0 10.279 1.677 4.058 1.677 6.053 5.113 1.993 3.436 1.993 8.697 0 4.97-1.859 8.869-1.86 3.897-6.306 6.134-4.447 2.238-12.213 2.238h-12.25v-4.627h11.35q5.439 0 8.904-1.267t5.123-4.038q1.66-2.77 1.66-7.278 0-3.75-1.238-5.93-1.236-2.178-3.206-3.234a12.5 12.5 0 0 0-4.254-1.368 33 33 0 0 0-4.406-.312h-15.857l2.68-3.922V401zm47.854 0v-55.614h18.969q6.22 0 10.28 1.677 4.058 1.677 6.052 5.113 1.995 3.436 1.994 8.697 0 4.97-1.86 8.869-1.858 3.897-6.305 6.134t-12.214 2.238h-12.249v-4.627h11.349q5.44 0 8.904-1.267t5.124-4.038 1.66-7.278q0-3.75-1.238-5.93-1.238-2.178-3.206-3.234a12.5 12.5 0 0 0-4.255-1.368 33 33 0 0 0-4.405-.312h-15.858l2.681-3.922V401zm47.86 0v-55.614h5.484v54.799l-2.17-4.13h30.701V401zm43.93 0v-55.614h5.553V401zm20.38 0v-55.614h33.902v4.796h-31.495l2.986-4.044V400.2l-2.742-3.996h31.296V401zm4.224-25.877v-4.674h28.037v4.674h-28.037M891.647 401v-55.614h18.128q6.235 0 10.34 1.501 4.105 1.502 6.136 4.76 2.032 3.258 2.032 8.531 0 4.467-1.738 8.209t-5.867 6.003-11.27 2.3l1.527-2.501 9.102 10.933a880 880 0 0 1 4.5 5.396q2.374 2.87 4.647 5.604t4.047 4.878h-6.538l-5.698-6.925a2182 2182 0 0 0-5.426-6.567l-10.165-12.478 3.423 2.547H896.1v-4.626h10.904q5.364 0 8.82-1.225t5.132-3.94 1.675-7.15q0-3.814-1.23-5.961t-3.199-3.132a12.4 12.4 0 0 0-4.247-1.234 41 41 0 0 0-4.397-.25h-16.054l3.535-3.921V401z"/></g></svg>