<svg xmlns="http://www.w3.org/2000/svg" viewBox="0 0 1367 512"><g fill="none"><circle cx="246" cy="256" r="245" fill="#00494a" fill-rule="evenodd"/><path fill="#00494a" d="M644.258 233.955q-11.209 0-20.211-3.43-9.004-3.429-15.341-9.762-6.338-6.334-9.705-15.093-3.367-8.758-3.367-19.432 0-13.86 5.615-24.723t16.131-17.08q10.516-6.218 25.229-6.218 4.452 0 8.8.57 4.35.571 8.35 1.566a78 78 0 0 1 7.476 2.239q3.474 1.245 6.153 2.657l-1.61 19.772q-5.014-3.124-9.68-5.062-4.666-1.936-8.953-2.805-4.287-.867-8.178-.868-7.843 0-13.988 3.478-6.144 3.477-9.664 10.16t-3.52 16.282q0 6.134 1.807 11.604 1.807 5.472 5.448 9.658 3.64 4.187 9.14 6.584 5.497 2.397 12.858 2.396 3.008 0 6.084-.42t6.195-1.332a36.3 36.3 0 0 0 6.225-2.486 45 45 0 0 0 6.174-3.818l1.176 19.53q-2.753 1.554-6.132 2.702a55 55 0 0 1-7.077 1.88 74 74 0 0 1-7.617 1.092q-3.92.36-7.818.36m68.074-34.234-19.009-36.144-5.875-11.202q-2.82-5.377-6.49-12.286h24.171q2.373 5.35 4.054 9.196 1.68 3.847 3.2 7.279 1.519 3.43 3.338 7.59l5.947 13.433h1.739l5.879-13.068a1086 1086 0 0 0 3.561-7.902 911 911 0 0 1 3.354-7.436q1.766-3.872 4.114-9.092h23.449l-6.179 11.861q-3.091 5.937-6.025 11.562l-18.898 36.21zm-.45 32.51v-50.396h21.31v50.396zm95.844 0h-32.339v-92.142h37.261q9.47 0 15.832 1.519 6.361 1.518 10.143 4.32 3.78 2.8 5.408 6.683t1.628 8.658q0 5.9-2.203 10.242-2.204 4.342-6.01 7.136-3.805 2.796-8.6 4.01v1.615q5.538 1.215 9.813 3.804 4.274 2.587 6.678 7.05 2.403 4.46 2.403 11.284 0 5.777-1.852 10.52-1.85 4.743-6.32 8.168-4.467 3.425-12.226 5.279-7.757 1.854-19.616 1.854m-11.494-15.98h13.421q5.59 0 9.161-1.34t5.256-3.937 1.686-6.374q0-5.775-3.874-8.532-3.875-2.758-11.196-2.758h-19.458v-14.919h18.551q4.753 0 7.859-1.498 3.106-1.499 4.61-4.108 1.506-2.61 1.506-6.007 0-5.34-3.148-8.102-3.15-2.762-9.599-2.762h-14.775v60.337m64.722 15.98v-92.142h61.184v17.353h-50.55l10.173-13.99v85.417l-8.828-13.992h49.748v17.354zm15.97-38.365v-16.175h43.16v16.175h-43.16m61.117 38.365v-92.142h35.325q11.27 0 19.06 2.478 7.791 2.478 11.814 8.288t4.022 15.858q0 7.967-3.133 14.277-3.135 6.31-10.035 9.99-6.901 3.679-18.105 3.723l8.174-7.795 12.552 18.506q2.933 4.286 6.22 9.147 3.289 4.863 6.438 9.49 3.15 4.625 5.54 8.18h-24.156a3432 3432 0 0 0-12.982-20.119l-14.923-23.498 12.647 9.644h-21.44v-15.203h15.4q5.146 0 8.679-1.256 3.532-1.255 5.356-4.294t1.823-8.309q0-3.945-1.174-6.377-1.175-2.43-3.154-3.778a11.8 11.8 0 0 0-4.381-1.829 24.8 24.8 0 0 0-4.876-.481h-28.95l15.104-13.28v88.78zM599.83 354.077v-92.142h61.183v17.354h-50.549l10.173-13.992v85.418l-8.828-13.991h49.747v17.353zm15.97-38.364v-16.175h43.16v16.175H615.8m90.41 40.07q-5.731 0-11.783-.962-6.051-.964-11.312-2.452-5.26-1.49-8.542-3.06l1.526-18.658a67.6 67.6 0 0 0 9.394 4.261 66.4 66.4 0 0 0 9.739 2.753q4.86.972 9.349.972 4.416 0 7.714-1.088 3.297-1.087 5.127-3.345t1.83-5.782q0-3.598-2.367-5.968t-6.763-4.146q-4.397-1.777-10.455-3.526-8.4-2.43-14.347-5.702-5.947-3.273-9.097-8.407-3.15-5.133-3.15-13.212 0-8.097 3.548-14.275t10.75-9.658q7.2-3.48 18.156-3.48 4.297 0 8.652.553 4.356.551 8.44 1.46 4.085.907 7.571 2.074 3.487 1.166 6.071 2.439l-1.615 18.774a51.4 51.4 0 0 0-8.559-4.351q-4.455-1.76-8.723-2.659t-7.789-.898q-3.939 0-7.113 1.047t-5.057 3.17q-1.883 2.124-1.883 5.38 0 3.157 1.77 5.298t5.5 3.8q3.73 1.66 9.575 3.417 11.03 3.288 17.427 6.874t9.088 8.627 2.691 12.646q0 8.478-3.677 14.782t-11.5 9.803q-7.823 3.5-20.186 3.5m77.619 0q-5.732 0-11.783-.962-6.052-.964-11.312-2.452-5.26-1.49-8.542-3.06l1.525-18.658a67.6 67.6 0 0 0 9.395 4.261 66.4 66.4 0 0 0 9.738 2.753q4.86.972 9.35.972 4.416 0 7.713-1.088 3.297-1.087 5.128-3.345t1.83-5.782q0-3.598-2.367-5.968t-6.764-4.146-10.454-3.526q-8.4-2.43-14.347-5.702-5.947-3.273-9.097-8.407-3.15-5.133-3.15-13.212 0-8.097 3.548-14.275t10.749-9.658 18.156-3.48q4.298 0 8.653.553 4.356.551 8.44 1.46 4.084.907 7.57 2.074 3.488 1.166 6.072 2.439l-1.615 18.774a51.4 51.4 0 0 0-8.56-4.351q-4.455-1.76-8.722-2.659-4.269-.898-7.789-.898-3.94 0-7.114 1.047t-5.056 3.17-1.883 5.38q0 3.157 1.77 5.298t5.5 3.8q3.73 1.66 9.575 3.417 11.03 3.288 17.427 6.874t9.088 8.627q2.69 5.04 2.69 12.646 0 8.478-3.676 14.782-3.678 6.304-11.5 9.803-7.824 3.5-20.186 3.5m48.325-1.706v-92.142h61.183v17.354H842.79l10.173-13.992v85.418l-8.828-13.991h49.748v17.353zm15.97-38.364v-16.175h43.16v16.175h-43.16m61.135 38.364v-92.142h18.55q6.497 9.444 12.245 17.814t11.485 16.731l15 21.735h1.56v-56.28h19.946v92.142h-18.34a7651 7651 0 0 0-11.124-16.15q-5.798-8.398-12.698-18.357l-15.2-21.969h-1.48v56.476zm118.996 0v-88.785l8.038 15.176h-35.849v-18.533h76.804v18.533H1041.4l8.087-15.176v88.785zm61.793 0v-92.142h21.712v92.142zm33.918 0 5.11-15.63q2.685-8.213 5.111-15.564l10.352-31.636q2.813-8.586 5.073-15.46t4.533-13.852h27.373a9698 9698 0 0 0 4.588 14.094q2.235 6.849 4.97 15.242l10.3 31.686q2.508 7.624 5.128 15.689 2.62 8.064 4.997 15.43h-21.97q-2.092-7.333-4.289-15.084a3239 3239 0 0 0-4.176-14.609l-12.646-44.393h-1.578l-12.777 43.901a6280 6280 0 0 0-4.361 15.044 3146 3146 0 0 1-4.41 15.142zm22.201-19.251 2.247-15.916h41.176l1.845 15.916zm76.98 19.25v-92.141h21.309v88.735l-7.365-15.126h48.179v18.533zm104.265 1.707q-5.73 0-11.783-.962-6.051-.964-11.312-2.452-5.26-1.49-8.542-3.06l1.526-18.658a67.6 67.6 0 0 0 9.395 4.261 66.4 66.4 0 0 0 9.738 2.753q4.86.972 9.349.972 4.417 0 7.714-1.088 3.297-1.087 5.127-3.345t1.83-5.782q0-3.598-2.367-5.968t-6.763-4.146-10.455-3.526q-8.399-2.43-14.347-5.702-5.947-3.273-9.097-8.407-3.15-5.133-3.15-13.212 0-8.097 3.548-14.275t10.75-9.658q7.2-3.48 18.156-3.48 4.297 0 8.652.553 4.356.551 8.44 1.46 4.085.907 7.571 2.074 3.487 1.166 6.072 2.439l-1.616 18.774a51.4 51.4 0 0 0-8.559-4.351q-4.455-1.76-8.723-2.659t-7.789-.898q-3.939 0-7.113 1.047t-5.057 3.17-1.882 5.38q0 3.157 1.77 5.298t5.5 3.8q3.73 1.66 9.574 3.417 11.03 3.288 17.427 6.874t9.088 8.627 2.691 12.646q0 8.478-3.677 14.782t-11.5 9.803q-7.823 3.5-20.186 3.5M644.258 477.647q-11.209 0-20.211-3.43-9.004-3.429-15.341-9.762-6.338-6.333-9.705-15.092t-3.367-19.433q0-13.86 5.615-24.723 5.615-10.861 16.131-17.08 10.516-6.217 25.229-6.217 4.452 0 8.8.57 4.35.57 8.35 1.565a78 78 0 0 1 7.476 2.239q3.474 1.244 6.153 2.658l-1.61 19.771q-5.014-3.125-9.68-5.061-4.666-1.938-8.953-2.805t-8.178-.868q-7.843 0-13.988 3.477t-9.664 10.16q-3.52 6.682-3.52 16.283 0 6.133 1.807 11.604t5.448 9.657 9.14 6.584q5.497 2.397 12.858 2.397 3.008 0 6.084-.42t6.195-1.332a36.3 36.3 0 0 0 6.225-2.487 45 45 0 0 0 6.174-3.818l1.176 19.531q-2.753 1.553-6.132 2.701a55 55 0 0 1-7.077 1.88 74 74 0 0 1-7.617 1.092q-3.92.36-7.818.36m43.904-1.724v-92.141h61.184v17.353h-50.55l10.173-13.991v85.417l-8.828-13.991h49.748v17.353zm15.97-38.364v-16.175h43.16v16.175h-43.16m61.117 38.364v-92.141h35.325q11.27 0 19.06 2.478 7.791 2.478 11.814 8.287t4.022 15.858q0 7.968-3.133 14.278-3.135 6.31-10.036 9.989t-18.104 3.724l8.174-7.796 12.552 18.507a1952 1952 0 0 1 6.22 9.147q3.289 4.862 6.438 9.489 3.15 4.625 5.54 8.18h-24.156a3432 3432 0 0 0-12.982-20.119l-14.924-23.497 12.648 9.644h-21.44v-15.203h15.4q5.147 0 8.678-1.256t5.356-4.295 1.824-8.308q0-3.945-1.174-6.377-1.175-2.433-3.154-3.779a11.8 11.8 0 0 0-4.381-1.828 24.8 24.8 0 0 0-4.876-.482h-28.95l15.104-13.28v88.78zm108.859 0V387.14l8.037 15.175h-35.849v-18.532H923.1v18.532h-35.849l8.087-15.175v88.784zm61.792 0v-92.141h21.712v92.141zm40.271 0v-92.141h60.319v17.73h-48.058L997 387.138v88.784zm15.479-36.657v-17.008h42.751v17.008H991.65m59.516 36.657v-92.141h21.711v92.141zm40.253 0v-92.141h61.183v17.353h-50.549l10.173-13.991v85.417l-8.828-13.991h49.748v17.353zm15.97-38.364v-16.175h43.16v16.175h-43.16m61.135 38.364v-92.141h36.652q10.55 0 18.752 3.041 8.203 3.042 13.87 8.926 5.665 5.884 8.613 14.377t2.947 19.435q0 9.756-2.604 18.189t-8.322 14.756q-5.717 6.325-15.08 9.87-9.363 3.547-22.88 3.547h-31.948m21.31-17.008h10.608q9.906 0 15.773-3.864 5.865-3.864 8.424-10.574t2.558-15.206q0-6.425-1.5-11.654t-4.622-9.003-7.986-5.8-11.61-2.024h-11.645v58.125"/><path fill="#336d6e" fill-rule="evenodd" d="M112.125 182q36.721 50.998 103.975 50.998t94.201-45.803L246 429.852q-66.235-65.174-90.425-109.96-24.19-44.784-43.45-137.892"/><path fill="#669292" fill-rule="evenodd" d="M246 429.852Q315.79 272.216 429.137 182T666 79.91Q574.255-52.465 417.913 63.048 261.571 178.559 246 429.852"/></g></svg>