<svg xmlns="http://www.w3.org/2000/svg" viewBox="0 0 5677 483" id="logos-accreditations">

<g fill="none" fill-rule="evenodd">
<path fill="#00494a" class="logos-fill-1" fill-rule="nonzero" d="M1777.54 326.183q-8.848 0-15.956-2.707-7.109-2.708-12.111-7.706-5.004-5-7.662-11.913-2.658-6.915-2.658-15.34 0-10.94 4.433-19.514t12.735-13.482q8.302-4.908 19.917-4.908 3.515 0 6.948.45 3.435.45 6.593 1.236a62 62 0 0 1 5.901 1.767q2.743.982 4.858 2.098l-1.27 15.606q-3.96-2.466-7.643-3.995-3.684-1.53-7.069-2.214-3.384-.685-6.456-.685-6.192 0-11.043 2.745t-7.63 8.02-2.778 12.852q0 4.841 1.426 9.16 1.427 4.318 4.3 7.623 2.875 3.304 7.216 5.196 4.341 1.893 10.152 1.892 2.374 0 4.803-.331a33.6 33.6 0 0 0 4.89-1.052 28.7 28.7 0 0 0 4.915-1.963 35.4 35.4 0 0 0 4.875-3.013l.928 15.416q-2.174 1.226-4.841 2.133-2.668.906-5.587 1.484-2.918.577-6.014.861-3.093.284-6.172.284m69.39 0q-9.851 0-17.044-3.027t-11.838-8.31q-4.645-5.28-6.903-12.07t-2.257-14.283q0-10.59 4.203-19.176 4.203-8.587 12.555-13.646 8.351-5.058 20.826-5.058 9.495 0 16.582 2.93 7.088 2.929 11.805 8.128 4.718 5.199 7.058 12.045 2.34 6.848 2.341 14.714 0 10.837-4.295 19.367-4.294 8.53-12.623 13.458-8.328 4.928-20.41 4.928m-.267-13.819q5.077 0 8.836-1.918a17.85 17.85 0 0 0 6.266-5.275q2.508-3.357 3.753-7.662 1.244-4.305 1.244-9.079 0-5.05-1.35-9.416-1.35-4.365-3.928-7.639a18.1 18.1 0 0 0-6.302-5.108q-3.722-1.835-8.519-1.835-4.957 0-8.74 1.893a18.15 18.15 0 0 0-6.347 5.224q-2.563 3.33-3.878 7.668t-1.314 9.213q0 4.832 1.263 9.147 1.264 4.314 3.792 7.652t6.336 5.237 8.888 1.898m48.589 12.458V252.09h27.888q8.897 0 15.048 1.956t9.326 6.542 3.176 12.517q0 6.29-2.474 11.27t-7.922 7.885q-5.449 2.904-14.294 2.939l6.454-6.153 9.91 14.608q2.315 3.381 4.91 7.22 2.596 3.837 5.082 7.49 2.487 3.651 4.374 6.457h-19.07a2709 2709 0 0 0-10.25-15.88l-11.781-18.548 9.985 7.612h-16.927v-12h12.159q4.063 0 6.85-.992 2.79-.99 4.23-3.39 1.44-2.397 1.44-6.558 0-3.114-.928-5.033-.927-1.92-2.49-2.983a9.35 9.35 0 0 0-3.459-1.443 19.5 19.5 0 0 0-3.85-.38h-22.854l11.924-10.482v70.076zm70.558 0V252.09h29.143q8.832 0 14.775 2.185t8.946 7.205q3.002 5.02 3.002 13.524 0 7.197-2.57 12.665-2.572 5.469-8.265 8.557t-15.108 3.088h-15.497v-12.767h11.657q4.425 0 7.231-1.155t4.15-3.625 1.343-6.416q0-3.14-.946-5.115-.945-1.976-2.515-3.054a9.8 9.8 0 0 0-3.492-1.502 18 18 0 0 0-3.875-.423h-19.474l8.024-10.513v70.076zm100.966 1.361q-9.85 0-17.044-3.027-7.192-3.028-11.838-8.31-4.644-5.28-6.902-12.07t-2.258-14.283q0-10.59 4.203-19.176 4.203-8.587 12.555-13.646 8.351-5.058 20.827-5.058 9.494 0 16.581 2.93 7.087 2.929 11.805 8.128t7.059 12.045q2.34 6.848 2.34 14.714 0 10.837-4.294 19.367-4.295 8.53-12.623 13.458-8.33 4.928-20.41 4.928m-.267-13.819q5.078 0 8.836-1.918a17.85 17.85 0 0 0 6.266-5.275q2.508-3.357 3.753-7.662t1.244-9.079q0-5.05-1.35-9.416-1.35-4.365-3.928-7.639a18.1 18.1 0 0 0-6.301-5.108q-3.723-1.835-8.52-1.835-4.956 0-8.74 1.893a18.15 18.15 0 0 0-6.347 5.224q-2.563 3.33-3.877 7.668-1.315 4.338-1.315 9.213 0 4.832 1.264 9.147 1.263 4.314 3.79 7.652t6.338 5.237 8.887 1.898m48.59 12.458V252.09h27.888q8.896 0 15.047 1.956t9.326 6.542 3.176 12.517q0 6.29-2.474 11.27t-7.922 7.885q-5.448 2.904-14.293 2.939l6.453-6.153 9.91 14.608q2.315 3.381 4.91 7.22 2.596 3.837 5.083 7.49 2.486 3.651 4.373 6.457h-19.07a2709 2709 0 0 0-10.25-15.88l-11.78-18.548 9.984 7.612h-16.926v-12h12.158q4.062 0 6.851-.992 2.79-.99 4.228-3.39 1.44-2.397 1.44-6.558 0-3.114-.927-5.033t-2.49-2.983a9.35 9.35 0 0 0-3.458-1.443 19.5 19.5 0 0 0-3.85-.38h-22.855l11.924-10.482v70.076zm65.556 0q1.915-5.853 4.034-12.337 2.12-6.484 4.035-12.286l8.172-24.972q2.222-6.776 4.006-12.202t3.578-10.934h21.61q1.858 5.718 3.623 11.124l3.923 12.031 8.133 25.011q1.98 6.018 4.047 12.385 2.069 6.366 3.946 12.18h-17.345q-1.652-5.79-3.386-11.907a2557 2557 0 0 0-3.297-11.532l-9.984-35.04h-1.246l-10.087 34.652a4956 4956 0 0 0-3.443 11.875 2482 2482 0 0 1-3.481 11.952zm17.527-15.196 1.774-12.563h32.507l1.457 12.563zm69.634 15.196V254.74l6.345 11.978h-28.302v-14.628h60.635v14.628h-28.303l6.385-11.978v70.08zm48.452 0V252.09h48.303v13.697h-39.908l8.032-11.043v67.424l-6.97-11.045H2365v13.698zm12.608-30.283v-12.767h34.074v12.767h-34.074M1742.466 421v-72.731h29.143q8.832 0 14.775 2.186t8.946 7.205q3.002 5.02 3.002 13.523 0 7.197-2.57 12.665-2.572 5.469-8.265 8.557t-15.108 3.088h-15.497v-12.767h11.657q4.425 0 7.231-1.155t4.15-3.625 1.343-6.415q0-3.14-.946-5.116-.945-1.976-2.515-3.054a9.8 9.8 0 0 0-3.492-1.502 18 18 0 0 0-3.875-.423h-19.474l8.024-10.513V421zm55.501 0 4.035-12.337q2.12-6.483 4.034-12.286l8.173-24.972a14167 14167 0 0 1 4.005-12.202q1.785-5.426 3.579-10.934h21.61q1.857 5.718 3.622 11.124t3.924 12.032l8.132 25.01q1.98 6.018 4.048 12.385 2.068 6.366 3.945 12.18h-17.345q-1.651-5.79-3.386-11.907a2557 2557 0 0 0-3.296-11.532l-9.985-35.04h-1.245l-10.087 34.652a4957 4957 0 0 0-3.443 11.875 2482 2482 0 0 1-3.482 11.952zm17.527-15.196 1.775-12.563h32.506l1.457 12.563zM1876.253 421v-72.731h27.888q8.897 0 15.048 1.956t9.326 6.542 3.176 12.517q0 6.29-2.474 11.27t-7.922 7.885q-5.449 2.904-14.294 2.94l6.454-6.154 9.91 14.608q2.315 3.382 4.91 7.22t5.082 7.49q2.487 3.652 4.373 6.457h-19.07a2709 2709 0 0 0-10.249-15.88l-11.781-18.548 9.985 7.612h-16.927v-12h12.159q4.063 0 6.85-.991 2.79-.991 4.23-3.39t1.439-6.559q0-3.114-.927-5.033-.928-1.92-2.49-2.983a9.35 9.35 0 0 0-3.459-1.443 19.5 19.5 0 0 0-3.85-.38h-22.854l11.924-10.482V421zm85.941 0v-70.081l6.346 11.978h-28.303V348.27h60.635v14.628h-28.302l6.385-11.978V421zm48.467 0v-72.731h14.645q5.13 7.454 9.667 14.061l9.068 13.207 11.842 17.156h1.231v-44.424h15.747V421h-14.48q-4.203-6.119-8.78-12.748-4.58-6.629-10.026-14.49l-12-17.34h-1.168V421zm76.521 0v-72.731h48.303v13.698h-39.908l8.032-11.044v67.424l-6.97-11.045h39.275V421zm12.608-30.283V377.95h34.074v12.767h-34.074M2148.04 421v-72.731h27.888q8.897 0 15.048 1.956t9.326 6.542 3.176 12.517q0 6.29-2.474 11.27t-7.922 7.885q-5.449 2.904-14.294 2.94l6.454-6.154 9.91 14.608q2.315 3.382 4.91 7.22t5.082 7.49q2.487 3.652 4.373 6.457h-19.07a2709 2709 0 0 0-10.249-15.88l-11.781-18.548 9.985 7.612h-16.927v-12h12.159q4.063 0 6.85-.991 2.79-.991 4.23-3.39t1.44-6.559q0-3.114-.928-5.033t-2.49-2.983a9.35 9.35 0 0 0-3.459-1.443 19.5 19.5 0 0 0-3.85-.38h-22.854l11.924-10.482V421z"/>
<path fill="#00494a" class="logos-fill-1" d="M1602.82 259.942c6.427 6.435 8.208 12.792 8.303 21.584v3.356l.026 3.574c.026 3.218.035 6.444.035 9.662l.052 10.113c.035 6.374.06 12.757.078 19.131.026 7.27.07 14.531.105 21.8.078 14.94.139 29.871.19 44.811h4.476l.823-2.243c1.997-5.992 4.63-11.714 7.183-17.488l2.44-5.548 1.677-3.8c3.153-7.157 6.245-14.331 9.337-21.514a956 956 0 0 1 7.877-17.818 219 219 0 0 0 3.092-7.2l1.104-2.661 2.032-4.983c2.345-5.704 4.82-11.348 7.34-16.983l.99-2.218c1.51-3.348 3.048-6.66 4.724-9.93 1.46-2.879 2.51-5.775 3.518-8.835 2.814-7.34 7.166-13.357 14.453-16.723 7.417-2.417 14.66-2.026 21.722 1.261 6.758 3.652 9.754 8.592 12.316 15.81.704 4.93.105 129.621-.008 147.84h-18.24q-.669-144.336-2.032-146.006c-2.267-1.504-4.013-1.295-6.654-.965-2.145 1.748-3.196 3.548-4.29 6.07l-.886 2.035-.903 2.113-.904 2.07c-1.25 2.886-2.484 5.773-3.726 8.67-1.841 4.295-3.7 8.582-5.559 12.878l-1.207 2.791-3.908 9.027-1.355 3.122a24406 24406 0 0 1-13.602 31.331l-.964 2.209-4.542 10.418c-2.528 5.782-5.047 11.565-7.47 17.4l-3.057 7.296a345 345 0 0 0-2.015 4.93c-2.962 7.036-6.002 11.636-12.412 15.827-3.396 1.21-6.367 1.418-9.954 1.383l-1.989-.009c-5.124-.174-8.711-1.078-12.455-4.774l-1.311-1.27c-3.943-4.278-4.986-8.8-5.012-14.487l-.026-3.174-.009-3.443-.026-3.653-.052-9.887-.06-10.34-.105-19.565-.104-22.28c-.087-15.278-.165-30.548-.234-45.827-1.242-.218-2.493-.409-3.744-.6l-2.11-.34c-2.024-.13-2.024-.13-3.466 1.244-1.242 1.6-1.998 3.113-2.78 4.983l-.894 2.104-.903 2.166-1.772 4.026-4.977 11.322-2.137 4.852-3.118 7.088-.946 2.156a394 394 0 0 0-5.394 13 152 152 0 0 1-2.727 6.357l-1 2.21-1.007 2.208-2.015 4.444-.886 1.939c-.964 2.156-1.893 4.33-2.823 6.504-1.45 3.392-2.927 6.775-4.394 10.157l-2.18 5.01-1.147 2.634-7.044 16.218-1.155 2.66-1.12 2.584-2.98 6.852-4.047 9.33-1.433 3.305-1.955 4.505-1.085 2.495c-.92 2.131-.92 2.131-1.729 4.67h-19.976c.747-3.74 1.667-6.444 3.187-9.878l.712-1.627 2.346-5.287 1.632-3.704 3.414-7.74c2.519-5.713 5.02-11.426 7.521-17.148l2.285-5.209c2.536-5.8 5.02-11.626 7.443-17.479 1.694-4.043 3.5-8.043 5.298-12.044a426 426 0 0 0 4.743-11.035c2.588-6.252 5.35-12.418 8.12-18.592a900 900 0 0 0 7.323-16.792l3.908-9.183 1.902-4.521c6.428-15.384 6.428-15.384 12.256-20.636l2.171-2.07c9.32-6.043 21.028-3.791 29.86 1.974m-259.298-2.156c6.966 4.209 11.421 10.061 13.601 17.913q.774 6.48 1.114 85.22h36.234q-.434-53.044 2.606-63.48l.738-2.6c4.178-13.861 14.696-25.862 27.056-33.053 9.45-4.635 17.961-7.296 28.497-7.226l2.57.008c5.933.096 11.144.652 16.694 2.87l2.545.896c14.54 5.478 26.161 16.548 33.066 30.41 1.737 4.252 3.092 8.617 4.343 13.043l.469 1.644c3.413 15.679-.26 33.34-8.225 47.028-10.727 15.696-25.597 23.4-43.888 27.461q-4.491.584-48.231.392v42.61h-18.24v-42.61h-37.348v42.61h-18.24v-42.61H1299.8V360.92h39.085q-.582-82.056-2.033-84.794c-2.449-2.2-4.812-2.287-7.956-2.27l-2.032-.009c-2.033.044-2.033.044-4.482.983-.981 1.539-.981 1.539-1.737 3.478l-.92 2.166-1.008 2.46c-2.354 5.688-4.83 11.314-7.322 16.94a5256 5256 0 0 0-16.92 38.654l-1.129 2.6-7.443 17.183-.877 2.017-7.783 17.975-4.898 11.322-3.075 7.087-1.442 3.33a1295 1295 0 0 0-8.85 20.871H1239c1.12-3.913 2.006-6.94 3.691-10.487 2.997-6.435 5.794-12.957 8.495-19.514 2.944-7.14 6.028-14.218 9.146-21.288l2.605-5.913 1.685-3.835.765-1.748a208 208 0 0 1 4.976-10.426c1.13-2.304 2.007-4.696 2.884-7.105 1.303-3.478 2.684-6.809 4.395-10.113 1.555-3 2.831-6 4.004-9.166 2.797-7.374 5.967-14.583 9.137-21.809l3.057-6.992c3.119-7.13 6.298-14.217 9.737-21.192l.834-1.704c7.452-14.844 24.545-18.853 39.11-11.835m82.217 24.87c-9.267 9.487-13.428 21.47-13.428 34.584.026 1.687.052 3.383.061 5.078.009 3.027.035 6.044.07 9.07q.062 4.683.086 9.366.066 10.083.183 20.166c5.185.078 10.362.13 15.538.165l6.384.052c3.118.044 6.228.087 9.346.105l2.996.017c6.853.13 12.473-.513 18.943-2.878l2.38-.94c5.133-2 9.52-4.06 13.732-7.66 9.103-8.758 13.332-18.019 13.61-30.697l.018-2.783c.017-3.418-.044-6.766-.435-10.166-2.38-10.365-8.616-20.053-17.37-26.088-16.868-9.965-36.688-10.383-52.114 2.61"/>
<path stroke="#669292" class="logos-stroke-1" stroke-linecap="round" stroke-linejoin="round" stroke-width="15.787" d="m1259.523 102.436 129.622 104.225 126.914-98.88-52.109 116.612L1389.145 61l-75.509 163.393z"/>
<path fill="#669292" class="logos-fill-2" d="M2529.024 88.684c-15.07 8.05-47.767 27.474-50.45 30.03-1.66 1.533-4.342 5.111-5.747 7.795-2.299 4.473-2.426 8.178-2.426 36.93 0 28.114.255 32.587 2.426 37.315 1.405 2.94 3.577 6.39 4.982 7.54 5.492 4.728 54.664 32.202 59.006 32.969l4.598.767v10.223c0 10.734 2.682 18.912 7.536 23.13 1.405 1.277 14.305 9.072 28.61 17.379 27.46 15.845 32.823 17.762 41.764 14.823 2.554-.895 16.348-8.434 30.78-16.74 25.29-14.824 26.183-15.463 29.76-22.363l3.703-7.029v-29.647c0-16.356-.638-31.947-1.405-34.502-.638-2.684-3.193-7.029-5.62-9.712-5.62-6.262-54.92-34.503-60.284-34.503h-3.703v20.702c0 19.807-.256 20.83-3.704 27.602-3.576 6.773-4.726 7.667-25.161 19.68-26.566 15.59-36.017 20.573-39.594 20.573-2.554 0-2.682-.767-2.682-21.596 0-23.513.894-27.219 7.791-33.864 5.365-4.984 52.11-31.691 57.73-32.842l4.853-1.022v-11.629c0-10.734-.383-12.012-3.96-17.251-2.298-3.195-7.024-7.54-10.728-9.712-42.914-25.174-47.895-27.73-55.686-27.73-4.853 0-9.068.895-12.389 2.684"/>
<path fill="#00494a" class="logos-fill-1" fill-rule="nonzero" d="M2759.56 123.059c-.511.51-.894 35.653-.894 77.95v76.93l10.984-.384 11.111-.384 1.405-9.073c1.405-8.05 3.321-13.545 3.321-9.2 0 3.067 11.24 13.8 18.009 17.251 9.068 4.728 25.671 5.75 35.89 2.428 20.051-6.517 30.397-23.002 31.546-50.349 1.15-24.663-3.96-40.764-16.604-52.393-8.685-7.795-16.731-10.734-30.653-10.734-13.41 0-21.073 3.067-29.375 11.373-3.704 3.706-7.536 8.05-8.43 9.456-1.277 2.173-1.532-4.217-1.66-30.54v-33.226h-11.878c-6.514 0-12.261.511-12.772.895m71.14 66.705c10.09 5.24 15.454 15.207 16.22 30.03 1.406 26.197-8.557 39.231-29.758 39.231-14.05 0-22.224-4.472-28.099-15.334-2.426-4.6-2.937-7.667-2.937-20.19 0-13.163.383-15.463 3.448-21.341 3.704-7.284 7.536-10.735 15.454-13.546 6.259-2.428 20.052-1.789 25.672 1.15"/>
<path fill="#00494a" class="logos-fill-1" d="M2886.131 199.987v77.823h22.734V122.164h-22.734z"/>
<path fill="#00494a" class="logos-fill-1" fill-rule="nonzero" d="M2956.25 167.018c-14.433 4.728-26.439 15.718-31.292 28.624-7.025 18.913-6.258 40.637 2.043 57.633 9.58 19.68 27.077 28.497 53.515 26.963 14.433-.894 21.713-3.322 30.909-10.223 13.921-10.606 20.18-27.602 19.158-51.115-1.15-24.408-9.58-39.359-27.077-48.432-8.813-4.473-9.835-4.6-25.416-4.984q-16.285-.19-21.84 1.534m29.12 18.401c14.304 3.067 22.095 16.485 21.84 37.442-.256 25.175-10.09 36.676-31.292 36.676-16.859 0-26.055-6.773-30.142-22.619-4.47-17.38-1.277-35.014 8.174-44.47 7.664-7.795 17.626-9.968 31.42-7.029"/>
<path fill="#00494a" class="logos-fill-1" fill-rule="nonzero" d="M3075.796 167.018c-20.691 6.773-32.441 21.468-35.762 44.981-4.343 29.647 8.046 55.588 30.78 64.789 6.642 2.683 10.09 3.067 24.523 3.067 15.454 0 17.242-.256 24.778-3.706 19.158-8.945 30.142-28.369 30.142-53.288 0-24.535-10.857-44.215-29.248-53.288-6.897-3.322-9.196-3.705-23.756-4.089-10.473-.128-17.881.384-21.457 1.534m36.145 21.468c8.812 5.24 13.027 14.312 13.921 29.647.766 16.485-1.916 26.069-9.579 33.736-4.47 4.345-7.152 5.878-13.155 7.156-12.772 2.556-24.267-.383-31.164-7.923-5.875-6.517-8.813-16.356-8.813-28.88 0-18.912 7.28-32.202 19.925-36.292 8.685-2.81 21.584-1.66 28.865 2.556"/>
<path fill="#00494a" class="logos-fill-1" d="M3160.985 221.456v56.354h24.139v-31.18c0-34.503 1.278-43.448 7.664-51.754 8.685-11.501 27.843-10.735 34.1 1.277 4.216 7.923 5.237 18.019 5.237 50.35v31.307h24.14v-32.586c0-36.292 1.021-43.064 8.046-51.115 5.237-6.006 10.473-7.923 19.03-7.156 5.748.51 7.664 1.405 11.24 5.367 2.426 2.683 4.98 7.156 5.747 9.967.894 3.067 1.405 19.552 1.405 40.381l.128 35.142H3326l-.128-34.503c0-37.57-1.15-47.154-7.152-58.91-3.96-8.05-12.134-15.59-18.903-17.89-6.897-2.3-22.862-1.15-29.375 2.044-6.514 3.067-13.411 9.84-16.604 16.23l-2.427 4.727-4.087-7.795c-2.937-5.878-5.492-8.69-10.473-11.756-6.003-3.706-7.663-4.09-18.136-4.09-10.601 0-12.261.384-18.264 4.09-3.704 2.172-8.43 6.773-10.856 10.35l-4.343 6.39-.894-10.734-.894-10.862h-22.479z"/>
<path fill="#00494a" class="logos-fill-1" fill-rule="nonzero" d="m2465 395.192 3.537-9.554q1.846-4.994 3.537-9.514l7.152-19.286a28952 28952 0 0 0 6.628-17.866h7.395q1.592 4.332 3.122 8.511t3.441 9.388l7.088 19.35q1.703 4.653 3.51 9.565 1.809 4.912 3.433 9.406h-5.77q-1.8-5.05-3.716-10.398-1.915-5.349-3.61-10.09l-10.924-30.537h-.614l-11.003 30.254q-1.799 4.94-3.741 10.32a1856 1856 0 0 1-3.807 10.45zm9.573-14.78.395-4.481h29.41l.324 4.482zm71.57 15.588q-6.63 0-11.93-2.189-5.302-2.189-9.012-6.122-3.71-3.934-5.677-9.235-1.968-5.3-1.968-11.499 0-8.527 3.513-15.067t9.713-10.23q6.198-3.69 14.286-3.69 2.803 0 5.448.41 2.644.409 4.99 1.103 2.345.695 4.317 1.488 1.973.795 3.398 1.604l-.564 5.44q-3.043-1.783-5.968-2.896a32 32 0 0 0-5.742-1.615 31.3 31.3 0 0 0-5.52-.504q-6.459 0-11.455 2.94-4.995 2.942-7.83 8.326-2.838 5.385-2.837 12.742 0 4.98 1.468 9.337 1.469 4.358 4.396 7.662 2.928 3.303 7.276 5.184 4.35 1.881 10.077 1.881 2.044 0 4.086-.256a30 30 0 0 0 4.05-.796 23.4 23.4 0 0 0 3.93-1.447 25.3 25.3 0 0 0 3.723-2.173l.543 5.398a21.3 21.3 0 0 1-3.645 1.892q-1.984.806-4.135 1.313a36 36 0 0 1-4.413.754 42 42 0 0 1-4.518.245m53.419 0q-6.63 0-11.93-2.189-5.303-2.189-9.012-6.122-3.71-3.934-5.678-9.235t-1.967-11.499q0-8.527 3.513-15.067t9.712-10.23q6.2-3.69 14.286-3.69 2.804 0 5.449.41 2.644.409 4.99 1.103 2.345.695 4.317 1.488 1.972.795 3.398 1.604l-.564 5.44q-3.043-1.783-5.968-2.896a32 32 0 0 0-5.742-1.615 31.3 31.3 0 0 0-5.521-.504q-6.459 0-11.454 2.94-4.995 2.942-7.831 8.326t-2.836 12.742q0 4.98 1.468 9.337 1.468 4.358 4.396 7.662 2.928 3.303 7.276 5.184t10.077 1.881q2.043 0 4.086-.256a30 30 0 0 0 4.05-.796 23.4 23.4 0 0 0 3.929-1.447 25.3 25.3 0 0 0 3.724-2.173l.543 5.398a21.3 21.3 0 0 1-3.646 1.892q-1.983.806-4.135 1.313a36 36 0 0 1-4.412.754 42 42 0 0 1-4.518.245m28.373-.808v-56.22h18.326q6.303 0 10.453 1.518 4.15 1.517 6.203 4.811 2.055 3.294 2.054 8.624 0 4.515-1.757 8.298t-5.931 6.069-11.393 2.325l1.544-2.529 9.2 11.053a890 890 0 0 1 4.55 5.455q2.4 2.901 4.698 5.664t4.091 4.932h-6.609l-5.76-7a2205 2205 0 0 0-5.486-6.639l-10.275-12.615 3.46 2.576h-12.866v-4.677h11.023q5.422 0 8.917-1.238 3.494-1.239 5.187-3.984t1.693-7.228q0-3.855-1.243-6.025t-3.234-3.166a12.6 12.6 0 0 0-4.293-1.248 41 41 0 0 0-4.445-.251h-16.229l3.573-3.965v55.46zm51.751 0v-56.22h34.271v4.848h-31.838l3.019-4.088v54.652l-2.772-4.04h31.636v4.848zm4.27-26.16v-4.724h28.341v4.725h-28.341m41.844 26.16v-56.22h19.017q6.542 0 11.59 1.882 5.049 1.881 8.515 5.498t5.247 8.772q1.78 5.155 1.78 11.71 0 5.953-1.58 11.098t-4.999 9.021q-3.42 3.877-8.966 6.058-5.547 2.18-13.48 2.18H2725.8m5.543-4.73h11.632q8.59 0 13.676-3.107 5.085-3.108 7.318-8.483t2.232-12.145q0-5.227-1.316-9.472t-4.04-7.28-6.947-4.654q-4.223-1.62-10.01-1.619h-12.545v46.759m52.055 4.73v-56.22h5.613v56.22zm35.319 0V339.73l2.255 4.24h-22.188v-4.998h45.33v4.998h-22.189l2.32-4.24v55.462zm35.093 0v-56.22h34.27v4.848h-31.838l3.019-4.088v54.652l-2.772-4.04h31.636v4.848zm4.269-26.16v-4.724h28.342v4.725h-28.342m41.844 26.16v-56.22h19.017q6.542 0 11.59 1.882 5.049 1.881 8.515 5.498t5.247 8.772q1.78 5.155 1.78 11.71 0 5.953-1.58 11.098t-4.999 9.021-8.966 6.058q-5.546 2.18-13.48 2.18h-17.124m5.543-4.73h11.632q8.59 0 13.676-3.107t7.318-8.483 2.232-12.145q0-5.227-1.316-9.472t-4.04-7.28-6.947-4.654q-4.223-1.62-10.01-1.619h-12.545v46.759m82.399 5.532a39 39 0 0 1-7.064-.647q-3.53-.648-6.502-1.646-2.97-.999-4.782-2.017l.597-5.33a43 43 0 0 0 5.457 2.497 36.4 36.4 0 0 0 5.798 1.642q2.989.587 6.218.587 3.724 0 6.758-1.052t4.814-3.393q1.78-2.34 1.78-6.215 0-3.187-1.761-5.267-1.762-2.08-5.131-3.605-3.37-1.526-8.166-3.036-5.437-1.722-9.25-3.689-3.815-1.966-5.826-4.794t-2.01-7.132q-.001-4.236 2.044-7.61t6.062-5.35q4.018-1.973 9.9-1.973 2.49 0 4.897.367 2.407.366 4.6.986t3.968 1.385q1.775.766 2.994 1.554l-.628 5.427a25 25 0 0 0-5.036-2.696 29.7 29.7 0 0 0-5.31-1.567q-2.647-.512-4.95-.512-3.385 0-6.284 1.021t-4.675 3.19-1.776 5.592q0 2.873 1.486 4.782 1.487 1.91 4.64 3.4 3.155 1.491 8.168 3.113 6.765 2.185 10.657 4.374 3.89 2.187 5.527 4.988 1.636 2.8 1.636 6.805 0 4.433-1.98 8.01t-6.15 5.694-10.72 2.117m50.463.006q-7.666 0-12.498-2.69-4.83-2.688-7.113-7.538t-2.282-11.29v-35.51h5.528v34.8q0 5.403 1.597 9.28 1.596 3.878 5.186 5.948t9.568 2.07q6.006 0 9.57-2.07t5.126-5.948 1.562-9.345v-34.735h5.529v35.523q0 6.435-2.286 11.28-2.285 4.846-7.096 7.536-4.81 2.69-12.39 2.689m35.937-.808v-56.22h19.176q6.288 0 10.391 1.695t6.12 5.169 2.015 8.792q0 5.025-1.88 8.965t-6.375 6.201-12.346 2.262h-12.383v-4.677h11.472q5.5 0 9.002-1.281 3.5-1.281 5.18-4.082 1.677-2.801 1.677-7.357 0-3.792-1.25-5.994-1.252-2.204-3.242-3.27a12.6 12.6 0 0 0-4.3-1.383 33 33 0 0 0-4.454-.315h-16.03l2.71-3.965v55.46zm48.376 0v-56.22h19.176q6.288 0 10.391 1.695 4.104 1.695 6.12 5.169t2.015 8.792q0 5.025-1.88 8.965t-6.374 6.201-12.347 2.262h-12.383v-4.677h11.473q5.5 0 9.001-1.281 3.502-1.281 5.18-4.082t1.677-7.357q0-3.792-1.25-5.994-1.251-2.204-3.242-3.27a12.6 12.6 0 0 0-4.3-1.383 33 33 0 0 0-4.454-.315h-16.03l2.71-3.965v55.46zm48.383 0v-56.22h5.543v55.396l-2.193-4.175h31.035v4.999zm44.408 0v-56.22h5.614v56.22zm20.603 0v-56.22h34.27v4.848h-31.838l3.019-4.088v54.652l-2.772-4.04h31.636v4.848zm4.269-26.16v-4.724h28.342v4.725h-28.342m41.838 26.16v-56.22h18.326q6.303 0 10.453 1.518 4.15 1.517 6.203 4.811t2.054 8.624q0 4.515-1.756 8.298-1.758 3.783-5.932 6.069t-11.393 2.325l1.544-2.529 9.2 11.053a890 890 0 0 1 4.55 5.455q2.4 2.901 4.698 5.664t4.092 4.932h-6.61l-5.76-7a2205 2205 0 0 0-5.486-6.639l-10.275-12.615 3.46 2.576h-12.866v-4.677h11.023q5.423 0 8.917-1.238 3.494-1.239 5.187-3.984t1.693-7.228q0-3.855-1.243-6.025t-3.234-3.166a12.6 12.6 0 0 0-4.293-1.248 41 41 0 0 0-4.445-.251h-16.228l3.572-3.965v55.46z"/>
<path fill="#00494a" class="logos-fill-1" fill-rule="nonzero" d="m0 330.716 1.91-5.29q.998-2.769 1.91-5.269l3.862-10.685 3.58-9.9h5.202q.864 2.41 1.691 4.726l1.858 5.19 3.83 10.717 1.9 5.299q.977 2.722 1.856 5.212h-4.103a5242 5242 0 0 0-3.801-11.068l-5.671-16.507h-.382l-5.714 16.348q-.934 2.67-1.944 5.582t-1.976 5.645zm5.775-7.827.334-3.104h15.784l.275 3.104zm39.59 8.304q-3.697 0-6.658-1.202-2.959-1.2-5.033-3.372-2.074-2.17-3.174-5.112t-1.1-6.413q0-4.715 1.936-8.348 1.936-3.635 5.395-5.69Q40.191 299 44.777 299q1.541 0 3.008.22 1.467.218 2.777.593t2.42.81 1.925.89l-.362 3.8a22 22 0 0 0-3.298-1.627 17.4 17.4 0 0 0-3.148-.906 16.6 16.6 0 0 0-2.995-.283q-3.38 0-6 1.532-2.618 1.533-4.108 4.36t-1.489 6.725q0 2.612.77 4.904a11.6 11.6 0 0 0 2.308 4.035q1.537 1.74 3.829 2.733 2.291.993 5.317.993 1.108 0 2.22-.142a16 16 0 0 0 2.21-.443q1.1-.3 2.162-.81t2.068-1.222l.322 3.764q-.924.585-2.032 1.02a16 16 0 0 1-2.312.707q-1.204.273-2.472.407t-2.533.133m29.575 0q-3.697 0-6.657-1.202-2.96-1.2-5.034-3.372-2.073-2.17-3.174-5.112t-1.1-6.413q0-4.715 1.936-8.348 1.936-3.635 5.396-5.69T74.352 299q1.542 0 3.009.22 1.466.218 2.777.593 1.31.375 2.42.81t1.924.89l-.361 3.8a22 22 0 0 0-3.299-1.627 17.4 17.4 0 0 0-3.148-.906 16.6 16.6 0 0 0-2.995-.283q-3.38 0-5.999 1.532t-4.108 4.36-1.49 6.725q0 2.612.77 4.904a11.6 11.6 0 0 0 2.308 4.035q1.538 1.74 3.83 2.733 2.29.993 5.317.993 1.107 0 2.219-.142a16 16 0 0 0 2.211-.443q1.1-.3 2.161-.81 1.062-.51 2.068-1.222l.322 3.764q-.923.585-2.031 1.02a16 16 0 0 1-2.313.707q-1.203.273-2.472.407t-2.532.133m15.455-.477v-31.144h10.531q3.56 0 5.93.84 2.372.842 3.557 2.695 1.185 1.854 1.185 4.902 0 2.542-.99 4.66-.993 2.118-3.31 3.396t-6.27 1.3l1.262-1.727 4.916 6.15q1.15 1.424 2.432 3.038t2.512 3.151 2.183 2.739h-4.628l-2.98-3.803q-1.435-1.833-2.826-3.59l-5.583-7.196 2.423 1.951h-7.155v-3.268h5.917q2.733 0 4.508-.628 1.775-.627 2.643-2.04.868-1.41.868-3.741 0-1.959-.626-3.076-.625-1.117-1.635-1.648a6.3 6.3 0 0 0-2.186-.675 19 19 0 0 0-2.286-.144h-9.171l2.657-2.711v30.569zm28.926 0v-31.144h19.346v3.39h-17.655l2.187-2.815v29.976l-1.979-2.798h17.508v3.39zm3.015-14.139v-3.286h15.457v3.286h-15.457m22.568 14.139v-31.144h10.932q3.611 0 6.403 1.04 2.79 1.038 4.71 3.039 1.92 2 2.908 4.86.99 2.857.989 6.504 0 3.297-.877 6.148-.876 2.85-2.779 4.995-1.902 2.146-4.994 3.352-3.093 1.206-7.525 1.206h-9.767m3.956-3.29h5.83q4.458 0 7.096-1.633 2.64-1.632 3.796-4.458t1.156-6.388q0-2.74-.681-4.966t-2.093-3.821-3.603-2.446-5.198-.851h-6.303v24.562m27.934 3.29v-31.144h4.016v31.144zm19.814 0v-30.57l1.564 2.944h-12.254v-3.518h25.292v3.518h-12.254l1.596-2.945v30.571zm19.645 0v-31.144H235.6v3.39h-17.655l2.187-2.815v29.976l-1.978-2.798h17.507v3.39zm3.016-14.139v-3.286h15.456v3.286H219.27m22.567 14.139v-31.144h10.932q3.612 0 6.403 1.04 2.791 1.038 4.71 3.039 1.92 2 2.908 4.86.99 2.857.99 6.504 0 3.297-.877 6.148t-2.78 4.995q-1.9 2.146-4.994 3.352t-7.524 1.206h-9.768m3.957-3.29h5.83q4.456 0 7.096-1.633 2.639-1.632 3.795-4.458t1.157-6.388q0-2.74-.682-4.966-.681-2.227-2.093-3.821t-3.602-2.446-5.198-.851h-6.303v24.562M63.7 373.383q-1.952 0-3.927-.352a28 28 0 0 1-3.646-.89q-1.672-.54-2.7-1.09l.367-3.731a23.4 23.4 0 0 0 3.058 1.41 20.6 20.6 0 0 0 3.23.924q1.653.33 3.383.33 1.94 0 3.5-.534 1.558-.533 2.465-1.7.908-1.169.908-3.076 0-1.648-.938-2.727-.937-1.08-2.723-1.876t-4.31-1.578q-2.976-.925-5.068-2.02t-3.196-2.704Q53 352.162 53 349.681q0-2.431 1.149-4.349 1.148-1.917 3.42-3.028 2.27-1.111 5.624-1.111 1.392 0 2.755.2 1.363.201 2.614.536 1.25.334 2.275.751 1.023.417 1.744.854l-.393 3.766a14.7 14.7 0 0 0-2.81-1.498 17 17 0 0 0-2.944-.89 14 14 0 0 0-2.72-.294q-1.757 0-3.248.518-1.49.518-2.4 1.605t-.91 2.784q0 1.474.774 2.461.774.988 2.418 1.76 1.643.771 4.248 1.602 3.744 1.193 5.902 2.405t3.064 2.803.906 3.91q0 2.542-1.129 4.555-1.128 2.013-3.51 3.188t-6.129 1.175m16.284-.471v-31.144h4.015v31.144zm15.77-31.144v25.533l-.001 2.093h15.51v3.518H91.797v-31.144zm18.726 0 2.455 7.144q1.307 3.802 2.45 7.139l4.38 12.766h.38l4.42-12.842q1.168-3.397 2.433-7.066 1.266-3.67 2.448-7.141h4.247l-1.371 3.875q-.71 2.005-1.405 3.955-.696 1.948-1.297 3.642l-3.494 9.832q-.802 2.258-1.72 4.86a868 868 0 0 1-1.773 4.98h-5.368l-1.78-4.985q-.948-2.647-1.759-4.887l-3.501-9.772q-.595-1.666-1.3-3.627-.703-1.96-1.425-3.984-.723-2.022-1.393-3.89zm-18.727 27.626h-1.487l1.487 2.913zm46.851 3.518v-31.144h19.346v3.39h-17.655l2.187-2.815v29.976l-1.978-2.798h17.507v3.39zm3.016-14.139v-3.286h15.456v3.286H145.62m22.562 14.139v-31.144h10.532q3.559 0 5.93.84 2.37.842 3.556 2.695 1.185 1.854 1.186 4.902 0 2.542-.991 4.66-.992 2.118-3.309 3.396t-6.27 1.3l1.261-1.727 4.916 6.15q1.15 1.424 2.432 3.038t2.513 3.151 2.183 2.739h-4.629l-2.979-3.804a918 918 0 0 0-2.826-3.589l-5.584-7.196 2.424 1.951h-7.155v-3.268h5.916q2.733 0 4.509-.628 1.775-.627 2.642-2.04.868-1.41.868-3.741 0-1.959-.625-3.076-.626-1.117-1.635-1.648a6.3 6.3 0 0 0-2.186-.675 19 19 0 0 0-2.287-.144h-9.17l2.656-2.711v30.569zm36.09-2.588v-20.93h3.296v20.93zm-8.5-8.854v-3.223h20.296v3.223h-20.295M45.7 415.576q-1.952 0-3.927-.352a28 28 0 0 1-3.646-.891q-1.672-.54-2.7-1.09l.367-3.73a23.4 23.4 0 0 0 3.058 1.41 20.6 20.6 0 0 0 3.23.924q1.653.33 3.383.33 1.94 0 3.5-.534 1.558-.534 2.465-1.701.908-1.167.908-3.075 0-1.648-.938-2.728t-2.723-1.875-4.31-1.578q-2.976-.925-5.068-2.02t-3.196-2.704Q35 394.353 35 391.873q0-2.431 1.149-4.349 1.148-1.917 3.42-3.028 2.27-1.112 5.624-1.112 1.392 0 2.755.201t2.614.536 2.275.751q1.023.417 1.744.854l-.393 3.766a14.7 14.7 0 0 0-2.81-1.499 17 17 0 0 0-2.944-.888 14 14 0 0 0-2.72-.295q-1.757 0-3.248.518-1.49.517-2.4 1.605-.91 1.086-.91 2.784 0 1.473.774 2.461t2.418 1.76 4.248 1.602q3.744 1.192 5.902 2.404 2.158 1.213 3.064 2.804.906 1.592.906 3.91 0 2.541-1.129 4.555-1.128 2.013-3.51 3.188t-6.129 1.175m28.159.005q-4.358 0-7.08-1.498t-3.997-4.213-1.275-6.346v-19.563h3.944v19.17q0 2.832.827 4.857.825 2.025 2.671 3.102t4.898 1.077q3.077 0 4.905-1.077t2.632-3.102.803-4.889v-19.138h3.944v19.575q0 3.624-1.288 6.337-1.29 2.712-4.001 4.21t-6.983 1.498m19.62-.476V383.96h11.02q3.547 0 5.879.939t3.485 2.91q1.152 1.972 1.152 5.068 0 2.846-1.054 5.063-1.056 2.217-3.534 3.485-2.48 1.269-6.76 1.269h-6.815v-3.269h6.066q2.798 0 4.58-.657 1.782-.659 2.636-2.095t.855-3.77q0-1.929-.632-3.06-.631-1.134-1.642-1.69a6.5 6.5 0 0 0-2.192-.733 16 16 0 0 0-2.293-.174h-8.772l1.926-2.711v30.569zm27.061 0V383.96h11.02q3.547 0 5.879.939t3.484 2.91 1.153 5.068q0 2.846-1.055 5.063t-3.534 3.485q-2.478 1.269-6.76 1.269h-6.814v-3.269h6.065q2.8 0 4.58-.657 1.782-.659 2.637-2.095t.855-3.77q0-1.929-.632-3.06-.632-1.134-1.642-1.69a6.5 6.5 0 0 0-2.193-.733 16 16 0 0 0-2.292-.174h-8.773l1.926-2.711v30.569zm27.066 0V383.96h3.956v30.538l-1.488-2.912h16.998v3.518zm24.716 0V383.96h4.016v31.144zm11.809 0V383.96h19.346v3.39h-17.655l2.187-2.815v29.976l-1.978-2.798h17.507v3.39zm3.016-14.14v-3.285h15.456v3.286h-15.456m22.562 14.14V383.96h10.531q3.56 0 5.93.84 2.372.842 3.557 2.695 1.186 1.854 1.186 4.902 0 2.542-.992 4.66-.991 2.118-3.308 3.396-2.317 1.277-6.271 1.3l1.262-1.727 4.916 6.15q1.15 1.423 2.432 3.037t2.513 3.152 2.182 2.739h-4.628l-2.98-3.804a918 918 0 0 0-2.825-3.589l-5.584-7.196 2.423 1.951H212.9v-3.268h5.916q2.733 0 4.508-.628 1.776-.627 2.643-2.04.868-1.41.868-3.741 0-1.96-.625-3.076t-1.636-1.648a6.3 6.3 0 0 0-2.186-.675 19 19 0 0 0-2.286-.144h-9.171l2.657-2.711v30.569zm707.239-74.493-2.226-6.23a1560 1560 0 0 0-2.198-6.11l-4.376-12.215q-.745-2.082-1.624-4.533t-1.783-4.98-1.741-4.861h5.467l3.069 8.93a9124 9124 0 0 1 3.061 8.923l5.475 15.958h.477l5.525-16.052q1.458-4.245 3.04-8.833a2406 2406 0 0 0 3.06-8.926h5.308l-1.713 4.843q-.887 2.508-1.756 4.944-.87 2.435-1.622 4.553l-4.366 12.29q-1.003 2.821-2.15 6.074t-2.217 6.225zm26.674 0v-38.929h24.183v4.238h-22.069l2.733-3.52v37.471l-2.472-3.498h21.884v4.238zm3.77-17.673v-4.108h19.32v4.108h-19.32m28.203 17.673v-38.929h13.164q4.449 0 7.413 1.05 2.963 1.052 4.445 3.369t1.482 6.127q0 3.177-1.24 5.825-1.238 2.648-4.135 4.245t-7.838 1.624l1.577-2.158 6.145 7.688a636 636 0 0 1 3.04 3.797q1.604 2.017 3.141 3.94 1.538 1.92 2.729 3.422h-5.786l-3.724-4.754a1148 1148 0 0 0-3.533-4.486l-6.979-8.996 3.029 2.44h-8.943v-4.086h7.395q3.417 0 5.635-.785 2.219-.783 3.304-2.549 1.085-1.765 1.085-4.677 0-2.449-.782-3.845-.781-1.395-2.044-2.06a7.9 7.9 0 0 0-2.733-.844 24 24 0 0 0-2.858-.18h-11.463l3.321-3.389v38.211zm36.238 0v-38.929h5.02v38.929zm14.767 0v-38.929h23.721v4.247h-20.95l2.085-3.53v38.212zm3.676-17.422v-4.113h18.954v4.113h-18.954m27.298 17.422v-38.929h5.02v38.929zm14.761 0v-38.929h24.183v4.238h-22.069l2.734-3.52v37.471l-2.473-3.498h21.884v4.238zm3.77-17.673v-4.108h19.32v4.108h-19.32m28.21 17.673v-38.929h13.664q4.514 0 8.004 1.299t5.888 3.8 3.634 6.074 1.236 8.13q0 4.123-1.095 7.685-1.096 3.563-3.474 6.244-2.378 2.682-6.243 4.19-3.866 1.507-9.406 1.507h-12.208m4.944-4.113h7.289q5.57 0 8.869-2.04t4.744-5.573q1.446-3.531 1.446-7.984 0-3.425-.852-6.209-.851-2.783-2.616-4.776t-4.503-3.057q-2.737-1.065-6.498-1.064h-7.879v30.703M517.73 212.433v9.189c0 11.154.205 12.548 2.057 14.423 1.12 1.12 2.377 1.577 4.411 1.577 1.394 0 2.08-.114 2.994-.549 1.463-.685 1.829-1.097 2.698-2.925l.662-1.44.069-10.126.091-10.149h4.526v9.92c0 5.463-.091 10.469-.228 11.109-.915 4.8-4.069 7.863-8.755 8.503-5.44.754-10.057-1.418-11.908-5.623-1.074-2.4-1.189-3.772-1.189-14.126v-9.783h4.572m78.24-.045 5.92.091c5.302.114 6.125.183 7.565.64 1.988.64 3.428 1.737 4.388 3.269.663 1.097.709 1.325.709 3.588 0 2.789-.229 3.406-1.943 5.074l-1.074 1.052.914.457c1.143.594 2.263 1.76 2.971 3.154.503.915.572 1.417.572 3.475 0 2.788-.343 3.657-2.08 5.325-2.423 2.309-4.206 2.743-11.886 2.903l-6.057.114v-29.142m-30.492 0 7.017.091c6.834.092 7.063.114 8.937.754 4.64 1.532 7.909 5.006 9.12 9.646.503 1.897.503 6.24 0 8.16-1.188 4.64-4.274 7.909-8.983 9.577l-2.057.731-7.017.092-7.017.068v-29.12m-22.834.045.708 1.852c.389 1.028 2.195 5.851 4 10.697 1.829 4.868 3.383 8.754 3.475 8.64.091-.092 1.988-4.914 4.205-10.697l4.046-10.492h2.491c1.372 0 2.446.092 2.4.183-.045.092-2.628 6.629-5.691 14.514l-5.6 14.332h-4.114L543.1 227.13c-3.017-7.885-5.463-14.422-5.463-14.514s1.12-.183 2.492-.183zm27.634 4.252v20.457h2.743c7.794 0 11.291-1.852 12.731-6.812.572-1.965.412-5.965-.32-7.862-.96-2.446-2.971-4.252-5.783-5.12-.914-.275-2.56-.435-5.348-.526zm30.24 11.771v8.686h2.331c4.434 0 6.789-.709 7.909-2.354 1.211-1.806.365-4.48-1.737-5.532-1.075-.548-1.532-.617-4.846-.708zm0-11.771v7.497h2.514c3.291 0 4.777-.32 5.829-1.28.708-.663.868-.983.96-2.057.16-1.715-.366-2.697-1.806-3.406-.869-.411-1.646-.526-4.274-.64zM484 218v5H9v-5zm655 0v5H664v-5zM699.51 107.245c1.966-.251 7.36-.137 9.577.206 3.109.503 7.452 1.92 10.286 3.383 4.32 2.24 8.206 5.6 10.743 9.326 2.491 3.68 3.474 6.331 4.663 12.708.48 2.514.914 4.869 1.005 5.234l.138.64h-57.12l-.206 1.875c-.32 3.063-.183 9.28.252 12.251 1.028 6.857 3.291 11.657 7.451 15.771 9.051 8.983 24.891 9.715 36.846 1.692 3.13-2.126 4.914-3.794 7.817-7.314 3.657-4.48 3.52-4.389 5.714-4.298l1.828.069-1.028 2.514c-5.692 13.874-16.069 22.994-29.097 25.6-3.2.64-9.714.594-12.96-.091-5.006-1.097-9.417-2.926-13.646-5.76-2.994-1.989-6.948-5.875-8.845-8.709-2.812-4.228-4.915-9.737-5.852-15.223-.617-3.68-.617-12.777 0-16.57 1.486-9.19 4.686-16.024 10.172-21.738 5.942-6.194 14.331-10.537 22.262-11.566m69.44-.388c2.469-.32 7.383-.137 9.851.343 3.955.754 8.663 2.628 12.275 4.845 1.577.983 5.005 3.383 5.6 3.909.228.206-.915 1.989-1.738 2.743-.502.434-.525.434-1.531 0-.549-.252-2.514-1.326-4.366-2.377-7.131-4.069-9.92-4.983-15.611-5.006-2.811-.023-3.931.069-5.143.411-3.908 1.075-6.811 3.246-8.228 6.103-.709 1.463-.778 1.783-.778 3.886 0 1.989.092 2.469.709 3.84.891 1.988 2.4 4.16 3.84 5.486 1.989 1.851 5.394 3.817 13.097 7.611 8.8 4.366 10.811 5.463 14.88 8.16 3.68 2.446 5.417 3.977 7.268 6.468 2.903 3.886 3.886 7.018 3.703 11.818-.091 2.628-.228 3.382-.891 5.325-1.417 4.229-3.909 7.794-7.314 10.492-4.435 3.497-9.715 5.394-16.937 6.102-8.915.846-16.709-1.234-23.977-6.445-2.88-2.035-7.269-6.377-8.275-8.137-.137-.252 2.698-2.72 3.109-2.72.091 0 1.029.777 2.103 1.714 3.748 3.268 6.605 5.234 9.874 6.811 7.04 3.406 11.291 4.092 16.206 2.606 3.748-1.12 7.725-4.046 9.348-6.903 2.766-4.891 1.44-10.194-3.406-13.6-1.897-1.325-5.828-3.588-10.377-5.988-6.468-3.383-12.297-6.994-16.091-9.966-6.834-5.348-9.714-10.651-9.394-17.28.137-3.131.548-4.845 1.851-7.497 2.217-4.526 6.103-8.16 11.063-10.308 2.24-.96 6.606-2.126 9.28-2.446m-285.873 5.234c2.195 1.486 5.852 4.686 5.852 5.097 0 .137-.709.937-1.577 1.806l-1.555 1.577-1.028-1.006c-2.629-2.582-6.674-5.188-10.126-6.514-6.674-2.606-14.948-2.126-21.005 1.166-4.96 2.697-8.595 6.514-10.926 11.451-4.434 9.44-4.754 19.612-.96 29.051 7.474 18.515 25.348 24.732 40.457 14.08.846-.617 3.017-2.514 4.8-4.251 2.674-2.583 4.8-4.343 6.628-5.463.343-.206-.845 4.297-1.554 5.874-.251.618-1.143 2.103-1.966 3.338-7.634 11.474-16.09 17.005-27.474 17.965-10.445.914-20.617-2.994-27.588-10.583-1.829-1.988-4.572-5.965-5.76-8.342-4.891-9.738-5.783-22.492-2.286-32.572 2.24-6.491 6.492-12.914 11.474-17.394 6.309-5.646 14.469-9.303 22.835-10.263 8.274-.96 15.542.709 21.76 4.983M378.392 83.314c1.098.686 1.76 1.737 3.932 6.354 1.051 2.24 2.4 5.166 3.04 6.492 2.514 5.326 3.337 7.04 4.068 8.64.435.914 1.417 2.971 2.172 4.548 1.623 3.429 10.88 23.04 12 25.44.434.937 2.994 6.377 5.691 12.114 2.72 5.76 5.349 11.36 5.874 12.48.526 1.143 3.155 6.697 5.829 12.366 4.708 9.988 5.76 12.411 5.76 13.211 0 .343-.8.366-7.863.32l-7.863-.091-1.097-.64c-.617-.366-1.394-1.029-1.737-1.509-.732-.937-2.674-5.051-7.04-15.017-1.669-3.748-3.086-6.925-3.2-7.017-.137-.16-12.274 4.092-39.588 13.874-9.395 3.36-15.017 5.44-16.275 6.035-1.21.571-3.45 2.514-4.205 3.634-.617.937-1.897 1.234-5.646 1.234-2.674 0-3.428-.046-3.337-.297.114-.274 6.309-14.057 9.28-20.686 2.468-5.485 20.891-46.01 29.28-64.456 7.063-15.475 7.223-15.817 8.343-16.8.937-.823 1.531-.892 2.582-.229M517.592 68l.068 25.051c.046 14.903.137 25.052.274 25.052.252 0 2.355-1.212 6.995-4.069 8.617-5.326 13.92-7.223 20.274-7.223 4.685-.023 8.091.914 11.474 3.132 5.029 3.314 8.16 8.777 9.029 15.725.525 4.366.8 21.966.57 40.686l-.205 18.605-7.497.069-7.497.046v-10.606c0-14.194-.229-41.531-.366-44.228-.251-5.395-2.308-9.715-5.623-11.863-2.01-1.303-3.93-1.806-6.857-1.783-2.902.023-5.12.48-8.365 1.76-5.212 2.034-8.686 4.8-10.309 8.16-1.417 2.971-1.485 3.863-1.143 13.737.206 6.171.252 13.943.115 26.766l-.16 18.057h-14.812V129.05c0-37.051.092-56.068.229-56.182.137-.069 3.291-1.212 7.04-2.515zm78.056 42.925c.046 0 .069 16.686.069 37.075v37.074l-7.383-.046-7.383-.069-.137-1.691c-.297-3.246-.229-64.137.046-65.303.434-1.691 1.554-2.628 4.045-3.337 1.12-.343 4-1.303 6.377-2.148 2.378-.846 4.343-1.555 4.366-1.555m30.24-31.68c.251 0 .32 10.72.32 52.915v52.914h-14.88l-.114-.549c-.069-.297-.16-22.24-.206-48.777-.091-37.257-.046-48.502.183-49.371.32-1.234 1.051-2.171 2.103-2.72.343-.183 1.874-.709 3.36-1.166a107 107 0 0 0 5.828-2.034c1.715-.64 3.246-1.188 3.406-1.211m29.76-10.536c.251-.023.32 11.748.32 58.17v58.195h-14.606l-.137-.778c-.069-.434-.16-24.982-.183-54.56l-.068-53.782.594-1.165c.754-1.44 1.463-1.875 4.571-2.789 1.303-.366 3.932-1.28 5.806-1.989 1.874-.708 3.543-1.302 3.703-1.302m-285.644 42.81a2226 2226 0 0 1-4.206 9.35c-4.046 8.982-16.708 37.21-18.834 42.01-1.371 3.04-3.177 7.063-4.023 8.937-.868 1.875-1.531 3.406-1.508 3.406.045 0 5.234-1.828 11.565-4.091 6.309-2.24 18.492-6.583 27.086-9.623 8.571-3.063 15.611-5.577 15.657-5.6.023 0-5.029-11.474-11.246-25.44-6.217-13.988-11.337-25.463-11.383-25.508-.114-.115-.137-.069-3.108 6.56m334.055 2.744c-2.057-.526-5.92-.755-7.68-.48-5.6.891-11.269 5.074-14.491 10.674-1.052 1.874-2.492 5.737-2.743 7.405l-.114.892h6.514c3.588 0 11.977-.069 18.628-.16l12.092-.16-.16-2.217c-.092-1.212-.366-3.063-.64-4.092-1.532-6.08-5.669-10.377-11.406-11.862M594.71 90.766c.503-.023.686.914.823 3.954.183 4.434-.137 7.36-1.029 9.165-.868 1.76-1.691 2.515-3.954 3.589-1.646.777-5.988 2.011-8.343 2.354l-1.12.183v-6.308c0-6.035 0-6.309.526-7.223.274-.526.846-1.143 1.257-1.394.823-.503 3.977-1.715 8.503-3.269 1.668-.571 3.154-1.029 3.337-1.051m-115.557 240.58q-4.042 0-7.127-1.213-3.083-1.213-5.18-3.387t-3.167-5.104-1.07-6.35q0-4.686 1.928-8.308 1.928-3.623 5.446-5.676t8.272-2.053q1.634 0 3.17.225t2.9.6q1.362.378 2.507.814a18 18 0 0 1 1.973.88l-.361 3.777a25 25 0 0 0-3.499-1.617 19.6 19.6 0 0 0-3.315-.907 18 18 0 0 0-3.124-.284q-2.601 0-4.764.852a10.6 10.6 0 0 0-3.752 2.483q-1.588 1.632-2.449 3.962t-.86 5.265q0 2.662.751 4.966a11.2 11.2 0 0 0 2.308 4.046q1.557 1.743 3.97 2.719 2.415.977 5.717.977 1.228 0 2.445-.123a20 20 0 0 0 2.41-.393q1.194-.27 2.345-.693t2.236-1.017l.472 3.71q-.75.33-1.854.66t-2.45.6q-1.348.27-2.836.43a29 29 0 0 1-3.042.158m6.44-1.79V315.3h3.742v14.198zm24.36 1.801q-3.95 0-6.91-1.27-2.962-1.27-4.926-3.506t-2.943-5.128q-.978-2.891-.979-6.129 0-4.514 1.833-8.158a14.04 14.04 0 0 1 5.322-5.777q3.49-2.134 8.468-2.134 3.796 0 6.7 1.24t4.89 3.448 2.99 5.117 1.007 6.252q0 4.598-1.838 8.225-1.837 3.627-5.298 5.724-3.461 2.096-8.317 2.096m-.1-3.404q2.978 0 5.134-1.03 2.157-1.032 3.56-2.82a12.2 12.2 0 0 0 2.083-4.055q.68-2.266.679-4.736 0-2.655-.735-4.95t-2.177-4.027q-1.44-1.73-3.579-2.703-2.137-.972-4.965-.972-2.918 0-5.085 1.02t-3.606 2.798a12.2 12.2 0 0 0-2.155 4.05 15.8 15.8 0 0 0-.716 4.784q0 2.517.695 4.791a12 12 0 0 0 2.114 4.047q1.419 1.773 3.597 2.788t5.156 1.015m21.424 2.929v-31.056h3.945v30.453l-1.484-2.905h16.95v3.508zm24.587 0v-31.056h10.902q3.6 0 6.385 1.036 2.783 1.036 4.697 3.031 1.913 1.995 2.9 4.846.985 2.85.985 6.486 0 3.29-.874 6.13-.874 2.844-2.77 4.982-1.898 2.139-4.982 3.342-3.083 1.203-7.503 1.203h-9.74m3.945-3.281h5.815q4.444 0 7.075-1.628t3.785-4.445q1.155-2.818 1.154-6.37 0-2.733-.68-4.953t-2.087-3.81-3.592-2.439-5.184-.849h-6.286v24.494m49.871 3.756q-3.686 0-6.638-1.197t-5.02-3.363-3.165-5.098q-1.096-2.934-1.097-6.394 0-4.702 1.93-8.326 1.932-3.623 5.381-5.673t8.023-2.05q1.538 0 3 .218 1.462.219 2.77.592 1.305.373 2.413.807t1.919.889l-.36 3.79a22 22 0 0 0-3.29-1.624 17.4 17.4 0 0 0-3.14-.904 16.5 16.5 0 0 0-2.986-.281q-3.37 0-5.982 1.528-2.612 1.527-4.097 4.347t-1.485 6.706q0 2.604.768 4.89a11.6 11.6 0 0 0 2.301 4.024q1.533 1.736 3.818 2.726t5.303.99q1.104 0 2.213-.142a16 16 0 0 0 2.205-.442q1.097-.3 2.155-.808a14 14 0 0 0 2.062-1.219l.321 3.754a12 12 0 0 1-2.025 1.016q-1.106.433-2.306.706-1.2.274-2.466.406-1.263.132-2.525.132m12.67-.475 1.905-5.275q.995-2.761 1.904-5.254l3.852-10.655 3.57-9.872h5.187l1.686 4.712q.825 2.308 1.853 5.175l3.82 10.687 1.895 5.285q.974 2.715 1.85 5.197h-4.091a5229 5229 0 0 0-3.791-11.037l-5.655-16.46h-.38l-5.699 16.302a1999 1999 0 0 0-1.939 5.566q-1.007 2.904-1.97 5.629zm5.759-7.805.334-3.095h15.738l.275 3.095zm35.731 8.275a22.3 22.3 0 0 1-3.915-.35 28 28 0 0 1-3.637-.89q-1.668-.537-2.691-1.086l.365-3.72q1.476.814 3.049 1.406t3.22.921q1.65.33 3.375.33 1.935 0 3.49-.533 1.554-.531 2.458-1.696.905-1.164.905-3.066 0-1.644-.935-2.72-.934-1.077-2.715-1.87t-4.299-1.574q-2.967-.923-5.053-2.015-2.087-1.091-3.187-2.695-1.1-1.606-1.1-4.078 0-2.425 1.145-4.337 1.146-1.91 3.41-3.02 2.265-1.108 5.61-1.108 1.388 0 2.747.2 1.36.201 2.606.534 1.248.333 2.269.75 1.02.415 1.739.851l-.392 3.755a14.6 14.6 0 0 0-2.802-1.494 17 17 0 0 0-2.936-.886 13.8 13.8 0 0 0-2.712-.294q-1.751 0-3.239.516-1.485.517-2.393 1.6-.907 1.085-.907 2.777 0 1.47.772 2.454.77.986 2.41 1.755t4.237 1.598q3.733 1.188 5.885 2.398 2.15 1.208 3.055 2.795.904 1.587.904 3.9 0 2.534-1.126 4.541t-3.5 3.18q-2.376 1.17-6.112 1.171m-191.474 41.412v-31.056h10.901q3.6 0 6.385 1.036 2.783 1.036 4.697 3.031t2.9 4.846.985 6.486q.001 3.29-.874 6.13-.874 2.843-2.77 4.982-1.897 2.139-4.981 3.342t-7.504 1.203h-9.739m3.945-3.281h5.814q4.444 0 7.075-1.628t3.785-4.445q1.155-2.818 1.154-6.37 0-2.733-.68-4.953t-2.087-3.81-3.592-2.439-5.184-.849h-6.285v24.494m27.79 3.281v-31.057h19.292v3.382H505.79l2.18-2.808v29.892l-1.972-2.79h17.458v3.381zm3.008-14.099v-3.277h15.413v3.277H507.11m31.526 14.57a22.3 22.3 0 0 1-3.916-.352 28 28 0 0 1-3.636-.888q-1.668-.538-2.692-1.087l.366-3.72q1.476.814 3.048 1.406t3.221.921q1.65.33 3.374.33 1.935 0 3.49-.533 1.554-.531 2.459-1.696.904-1.164.904-3.066 0-1.644-.934-2.72-.935-1.077-2.715-1.87t-4.3-1.574q-2.966-.923-5.053-2.015-2.086-1.091-3.186-2.695-1.1-1.606-1.1-4.078 0-2.425 1.145-4.337 1.145-1.91 3.41-3.02 2.265-1.108 5.609-1.108 1.389 0 2.748.2 1.358.201 2.606.534t2.268.75q1.02.415 1.74.851l-.392 3.755a14.6 14.6 0 0 0-2.803-1.494 17 17 0 0 0-2.935-.886 13.8 13.8 0 0 0-2.712-.294q-1.752 0-3.239.517-1.487.516-2.393 1.6-.907 1.084-.907 2.776 0 1.47.771 2.454.772.986 2.41 1.755 1.64.769 4.237 1.598 3.734 1.188 5.885 2.398 2.152 1.208 3.056 2.795.903 1.588.903 3.9 0 2.534-1.125 4.541t-3.5 3.18q-2.376 1.17-6.112 1.171m35.118-.471q-2.07-2.252-3.883-4.22-1.814-1.966-3.543-3.846l-5.899-6.384h-2.126v-3.234h2.11l5.112-5.336q1.806-1.883 3.57-3.733a4263 4263 0 0 0 4.094-4.303h4.793a2640 2640 0 0 0-9.214 9.549l-5.748 5.97-.06-1.731 6.39 7.022a351 351 0 0 1 3.188 3.485 564 564 0 0 0 3.315 3.64 882 882 0 0 1 2.857 3.121zm-18.94 0v-31.056h3.933v31.056zm36.86 0v-30.485l1.559 2.937h-12.22v-3.508h25.222v3.508h-12.22l1.591-2.937v30.485zm32.123.475q-3.95 0-6.91-1.27t-4.925-3.506q-1.964-2.236-2.943-5.128t-.98-6.129q0-4.514 1.833-8.158a14.04 14.04 0 0 1 5.322-5.777q3.49-2.134 8.468-2.134 3.795 0 6.701 1.24t4.889 3.448q1.984 2.208 2.99 5.117t1.007 6.252q0 4.598-1.837 8.225-1.838 3.627-5.298 5.724-3.462 2.096-8.317 2.096m-.1-3.404q2.978 0 5.135-1.03 2.157-1.032 3.56-2.82a12.2 12.2 0 0 0 2.083-4.055q.678-2.266.679-4.736 0-2.655-.736-4.95-.735-2.296-2.176-4.027-1.441-1.73-3.58-2.703-2.137-.972-4.964-.972-2.917 0-5.086 1.02-2.167 1.02-3.605 2.798a12.2 12.2 0 0 0-2.155 4.05 15.8 15.8 0 0 0-.716 4.784q0 2.517.694 4.791a12 12 0 0 0 2.114 4.047q1.42 1.773 3.598 2.788t5.156 1.015m21.42 2.929v-31.057h10.989q3.536 0 5.861.937 2.325.936 3.475 2.903 1.15 1.966 1.15 5.053 0 2.838-1.052 5.049-1.052 2.21-3.524 3.475t-6.741 1.265h-6.795v-3.259h6.048q2.79 0 4.567-.656t2.63-2.088.852-3.76q0-1.923-.63-3.052t-1.637-1.685a6.4 6.4 0 0 0-2.187-.73 16 16 0 0 0-2.286-.175h-8.748l1.92-2.703v30.483zM428 414.646l1.904-5.275q.996-2.76 1.905-5.254l3.851-10.655 3.571-9.872h5.186q.862 2.403 1.687 4.712.825 2.31 1.853 5.175l3.82 10.687 1.894 5.285q.974 2.715 1.85 5.197h-4.09a5228 5228 0 0 0-3.792-11.037l-5.654-16.46h-.38l-5.699 16.302a1999 1999 0 0 0-1.94 5.566 1005 1005 0 0 1-1.97 5.63zm5.758-7.805.334-3.095h15.74l.273 3.095zm35.732 8.275a22.3 22.3 0 0 1-3.916-.35 28 28 0 0 1-3.636-.89q-1.668-.537-2.692-1.086l.366-3.72q1.476.814 3.049 1.406t3.22.921q1.65.33 3.374.33 1.935 0 3.49-.533 1.554-.531 2.459-1.696.905-1.164.905-3.066 0-1.644-.935-2.72t-2.715-1.87-4.3-1.574q-2.966-.923-5.053-2.015-2.086-1.091-3.186-2.695-1.1-1.606-1.1-4.078 0-2.425 1.145-4.337 1.146-1.91 3.41-3.02 2.265-1.108 5.609-1.108 1.389 0 2.748.2 1.358.201 2.606.534t2.268.75q1.02.415 1.74.851l-.392 3.755a14.6 14.6 0 0 0-2.803-1.494 17 17 0 0 0-2.935-.886 13.8 13.8 0 0 0-2.712-.294q-1.752 0-3.239.517-1.486.516-2.393 1.6t-.907 2.776q0 1.47.771 2.454.772.986 2.41 1.755 1.64.769 4.237 1.598 3.734 1.188 5.885 2.398 2.152 1.208 3.056 2.795.903 1.588.903 3.9 0 2.534-1.125 4.541t-3.5 3.18q-2.376 1.17-6.112 1.171m25.2 0a22.3 22.3 0 0 1-3.916-.35 28 28 0 0 1-3.637-.89q-1.668-.537-2.69-1.086l.365-3.72q1.476.814 3.048 1.406t3.221.921q1.65.33 3.374.33 1.935 0 3.49-.533 1.554-.531 2.459-1.696.904-1.164.904-3.066 0-1.644-.934-2.72-.936-1.077-2.715-1.87-1.78-.794-4.3-1.574-2.966-.923-5.053-2.015-2.087-1.091-3.186-2.695-1.1-1.606-1.1-4.078 0-2.425 1.145-4.337 1.145-1.91 3.41-3.02 2.265-1.108 5.609-1.108 1.389 0 2.748.2 1.358.201 2.606.534t2.268.75q1.02.415 1.74.851l-.392 3.755a14.6 14.6 0 0 0-2.803-1.494 17 17 0 0 0-2.936-.886 13.8 13.8 0 0 0-2.711-.294q-1.752 0-3.24.517-1.485.516-2.393 1.6-.906 1.084-.906 2.776 0 1.47.771 2.454.772.986 2.41 1.755 1.64.769 4.237 1.598 3.733 1.188 5.885 2.398 2.151 1.208 3.055 2.795.904 1.588.904 3.9 0 2.534-1.125 4.541t-3.501 3.18q-2.375 1.17-6.111 1.171m16.173-.47V383.59h19.291v3.382H512.55l2.18-2.808v29.892l-1.972-2.79h17.458v3.381zm3.007-14.099v-3.277h15.412v3.277H513.87m31.526 14.57a22.3 22.3 0 0 1-3.916-.351 28 28 0 0 1-3.637-.89q-1.668-.537-2.69-1.086l.365-3.72q1.476.814 3.048 1.406t3.221.921q1.65.33 3.374.33 1.935 0 3.49-.533 1.554-.531 2.459-1.696.904-1.164.904-3.066 0-1.644-.934-2.72-.936-1.077-2.715-1.87-1.78-.794-4.3-1.574-2.966-.923-5.053-2.015-2.086-1.091-3.186-2.695-1.1-1.606-1.1-4.078 0-2.425 1.145-4.337 1.145-1.91 3.41-3.02 2.265-1.108 5.609-1.108 1.389 0 2.748.2 1.358.201 2.606.534t2.268.75q1.02.415 1.74.851l-.392 3.755a14.6 14.6 0 0 0-2.803-1.494 17 17 0 0 0-2.936-.886 13.8 13.8 0 0 0-2.711-.294q-1.752 0-3.24.517-1.486.516-2.392 1.6-.907 1.084-.907 2.776 0 1.47.771 2.454.772.986 2.41 1.755 1.64.769 4.237 1.598 3.733 1.188 5.885 2.398 2.151 1.208 3.055 2.795.904 1.588.904 3.9 0 2.534-1.125 4.541t-3.501 3.18q-2.375 1.17-6.111 1.171m25.2 0a22.3 22.3 0 0 1-3.916-.351 28 28 0 0 1-3.637-.89q-1.668-.537-2.69-1.086l.365-3.72q1.476.814 3.048 1.406t3.221.921q1.65.33 3.374.33 1.935 0 3.49-.533 1.553-.531 2.459-1.696.904-1.164.904-3.066 0-1.644-.935-2.72-.934-1.077-2.715-1.87t-4.299-1.574q-2.966-.923-5.053-2.015-2.086-1.091-3.187-2.695-1.1-1.606-1.1-4.078 0-2.425 1.146-4.337 1.145-1.91 3.41-3.02 2.264-1.108 5.609-1.108 1.39 0 2.747.2 1.359.201 2.607.534 1.247.333 2.268.75 1.02.415 1.74.851l-.392 3.755a14.6 14.6 0 0 0-2.803-1.494 17 17 0 0 0-2.936-.886 13.8 13.8 0 0 0-2.712-.294q-1.752 0-3.238.517-1.487.516-2.394 1.6t-.907 2.776q0 1.47.772 2.454.771.986 2.41 1.755t4.237 1.598q3.733 1.188 5.885 2.398 2.151 1.208 3.055 2.795.904 1.588.904 3.9 0 2.534-1.125 4.541t-3.501 3.18q-2.375 1.17-6.111 1.171m15.062-.47q.32-2.522.63-4.986t.658-5.353l1.282-10.253q.364-2.85.664-5.307.3-2.456.642-5.158h3.969q1.36 3.305 2.62 6.39l2.5 6.14 4.927 12.053h.305l4.867-12.048q1.247-3.075 2.484-6.132 1.238-3.057 2.577-6.403h3.953q.333 2.664.63 5.126.3 2.461.653 5.336l1.267 10.34q.355 2.822.655 5.248t.605 5.006h-3.759l-.956-7.858q-.45-3.725-.849-6.953l-1.127-9.282h-.286l-3.944 10q-1.434 3.648-2.874 7.288a3073 3073 0 0 0-2.681 6.805h-2.679a845 845 0 0 0-1.75-4.355l-1.963-4.85a996 996 0 0 0-1.969-4.83l-4.075-10.058h-.286l-1.122 9.264-.843 6.967q-.451 3.735-.956 7.862zm42.483 0v-31.058h19.292v3.382h-17.606l2.181-2.808v29.892l-1.973-2.79h17.458v3.381zm3.007-14.1v-3.277h15.413v3.277h-15.413m22.504 14.1V383.59h3.56q2.78 3.924 5.345 7.555t5.074 7.175l6.735 9.489h.33V383.59h3.741v31.056h-3.504q-2.3-3.27-4.85-6.87l-5.606-7.915-6.765-9.56h-.318v24.345zm40.48 0V384.16l1.558 2.937h-12.219v-3.508h25.222v3.508h-12.22l1.591-2.937v30.485z"/>

<g>
<path fill="#00494a" class="logos-fill-1" fill-rule="nonzero" d="M3566.495 16.705c-17.271 1.663-35.626 6.94-52.319 15.109-31.579 15.398-54.992 38.604-70.962 70.485-16.404 32.676-20.161 70.557-10.623 106.992 9.467 36.218 32.446 68.099 64.531 89.497 8.672 5.856 24.642 13.52 35.77 17.206 29.05 9.687 60.412 10.41 90.257 2.024 38.444-10.771 72.913-38.17 92.568-73.52 21.968-39.545 25.292-86.1 9.322-128.97-20.522-54.942-71.612-93.618-130.579-98.823-10.406-.94-17.92-.94-27.965 0m39.527 10.482c29.267 5.35 54.198 18 74.937 38.026 13.585 13.085 22.69 25.447 30.423 41.35 33.53 68.823 8.238 151.019-58.461 189.55-34.686 20.026-79.2 24.363-117.716 11.567-47.622-15.904-83.898-56.026-95.315-105.33-3.469-14.964-4.48-37.88-2.313-52.772 9.395-64.702 59.328-114.222 124.365-123.475 10.623-1.518 32.88-.94 44.08 1.084"/>
<path fill="#00494a" class="logos-fill-1" fill-rule="nonzero" d="m3569.53 47.646-12.14 12.073-16.26-5.928c-12.573-4.482-16.476-5.64-16.91-4.844-.36.506-2.24 5.711-4.335 11.422-2.023 5.784-3.902 11.133-4.191 11.856-.506 1.23-1.951 1.301-14.886 1.301h-14.309l-.216 14.965-.217 14.964-13.224 4.772c-8.527 3.036-13.297 5.06-13.224 5.71.072.507 2.529 7.808 5.492 16.122s5.42 15.543 5.42 15.976-5.493 6.217-12.14 12.94l-12.141 12.146 12.646 12.65 12.646 12.652-5.781 16.121c-3.18 8.892-5.709 16.193-5.636 16.266s5.997 2.169 13.08 4.699l12.862 4.554.217 14.17.216 14.096h27.099l4.408 12.58c2.457 6.94 4.77 12.433 5.203 12.289.434-.217 7.732-2.82 16.26-5.856l15.463-5.494 12.646 12.579 12.574 12.65 12.14-12.144c6.72-6.651 12.43-12.145 12.79-12.145.29 0 7.805 2.602 16.621 5.71 8.744 3.182 16.187 5.495 16.476 5.134.362-.29 2.53-6.145 4.914-12.94l4.408-12.363h28.616l.217-14.82.217-14.892 13.296-4.771c9.105-3.253 13.152-5.06 13.08-5.783-.145-.579-2.602-7.808-5.492-16.05-2.963-8.24-5.348-15.397-5.348-15.976 0-.506 5.348-6.29 11.924-12.868l11.996-12-12.357-12.29c-6.793-6.795-12.285-12.723-12.285-13.157-.072-.361 2.385-7.374 5.275-15.543 2.963-8.097 5.42-15.253 5.492-15.832.145-.795-3.685-2.458-12.718-5.71l-12.863-4.628-.217-14.241-.217-14.242h-27.098l-4.48-12.362-4.409-12.434-11.778 4.12c-6.432 2.314-13.875 4.917-16.549 5.784l-4.769 1.59-12.285-12.289c-6.792-6.795-12.501-12.362-12.718-12.362s-5.781 5.494-12.501 12.073m27.749 36.146 14.019 14.025h20.089c14.669 0 20.45.289 21.1.94.65.65.94 6.433.94 21.109v20.097l14.38 14.458c8.888 8.82 14.453 14.965 14.453 15.904 0 .868-5.637 7.085-14.453 15.905l-14.38 14.53v20.242c0 19.23-.145 20.314-1.518 21.037-.867.506-8.96.795-21.028.795h-19.583l-14.092 14.025c-10.333 10.338-14.597 14.025-15.898 14.025-1.3 0-5.564-3.687-15.897-14.025l-14.092-14.025h-19.583c-12.068 0-20.161-.289-21.028-.795-1.373-.723-1.446-1.807-1.446-21.037V200.76l-14.452-14.53c-8.816-8.82-14.381-15.037-14.381-15.905-.072-.94 5.492-7.084 14.38-15.904l14.453-14.458v-20.097c0-14.676.217-20.459.867-21.11s6.432-.94 21.101-.94h20.09l14.09-14.024c10.768-10.772 14.453-14.025 15.898-14.025s5.131 3.253 15.97 14.025"/>
<path fill="#00494a" class="logos-fill-1" d="m3571.047 87.985-9.828 9.832h8.022c5.202 0 8.31.361 8.888.94.65.65.94 8.024.94 28.41 0 23.423.144 27.543 1.083 28.339.94.795 1.373.795 2.313 0 .94-.796 1.156-4.916 1.156-28.339 0-20.386.217-27.76.867-28.41.578-.579 3.685-.94 8.888-.94h8.022l-9.828-9.832c-5.42-5.422-10.045-9.904-10.262-9.904-.216 0-4.841 4.482-10.26 9.904"/>
<path fill="#00494a" class="logos-fill-1" d="M3516.055 118.926v14.17l5.492-5.495c3.18-3.109 6.215-5.494 7.082-5.494.94 0 8.527 7.084 20.811 19.374 13.875 13.88 19.8 19.374 21.029 19.374q1.734 0 1.734-1.301c0-.795-8.671-10.049-19.366-20.748-14.886-14.892-19.294-19.736-19.294-21.181 0-1.302 1.59-3.543 5.42-7.447l5.491-5.494h-28.399z"/>
<path fill="#00494a" class="logos-fill-1" d="m3548.067 110.974-6.214 6.289 15.175 15.109 15.175 15.181v-42.869h-17.849z"/>
<path fill="#00494a" class="logos-fill-1" d="M3590.414 126.155v21.398l15.175-15.181 15.175-15.109-6.215-6.289-6.286-6.29h-17.849z"/>
<path fill="#00494a" class="logos-fill-1" d="M3623.655 110.178c3.83 3.904 5.491 6.145 5.491 7.447 0 1.445-4.48 6.289-19.366 21.181-10.695 10.7-19.366 19.953-19.366 20.748q0 1.3 1.734 1.301c1.228 0 7.154-5.494 21.028-19.374 12.285-12.29 19.873-19.374 20.812-19.374.867 0 3.902 2.385 7.082 5.494l5.492 5.494v-28.41h-28.399z"/>
<path fill="#00494a" class="logos-fill-1" d="m3522.27 136.782-6.215 6.29v17.783h42.852l-15.175-15.181c-8.31-8.386-15.175-15.181-15.175-15.181z"/>
<path fill="#00494a" class="logos-fill-1" d="m3618.885 145.674-15.175 15.181h42.852v-17.856l-6.287-6.289-6.287-6.217z"/>
<path fill="#00494a" class="logos-fill-1" d="m3499.001 160.06-9.9 9.904 10.044 10.049 10.117 10.048v-8.024c0-5.205.29-8.314.867-8.892.65-.65 8.022-.94 28.4-.94 23.413 0 27.532-.145 28.4-1.084.722-.94.722-1.374 0-2.314-.868-.94-4.987-1.156-28.472-1.156-21.752 0-27.677-.145-28.328-.94-.505-.578-.939-4.482-1.083-8.747l-.217-7.736z"/>
<path fill="#00494a" class="logos-fill-1" d="M3653.427 157.891c0 5.205-.361 8.314-.94 8.892-.65.65-8.02.868-28.399.868-23.413 0-27.532.217-28.327 1.156-.795.94-.795 1.374 0 2.314s4.914 1.084 28.327 1.084c20.378 0 27.749.29 28.4.94.578.578.939 3.687.939 8.892v8.024l10.044-10.048 10.045-10.049-10.045-10.049-10.044-10.048z"/>
<path fill="#00494a" class="logos-fill-1" d="M3576.756 166.71c-2.963 3.76-.29 9.327 4.552 9.327s7.516-5.567 4.553-9.326c-1.3-1.59-2.24-2.097-4.553-2.097s-3.251.506-4.552 2.097"/>
<path fill="#00494a" class="logos-fill-1" d="M3516.055 188.398v8.531l6.287 6.289 6.287 6.217 14.741-14.819 14.814-14.82h-42.129z"/>
<path fill="#00494a" class="logos-fill-1" d="M3549.44 199.17c-11.128 11.133-20.016 19.374-20.811 19.374-.723 0-3.902-2.458-6.937-5.422l-5.637-5.494v27.616h27.677l-5.131-5.133c-3.54-3.615-5.058-5.711-5.058-7.012 0-1.446 4.408-6.362 19.294-21.254 10.695-10.627 19.366-19.953 19.366-20.676q0-1.3-1.734-1.301c-1.156 0-7.226 5.567-21.029 19.302"/>
<path fill="#00494a" class="logos-fill-1" d="M3590.414 181.17c0 .722 8.671 10.048 19.366 20.675 14.886 14.892 19.366 19.808 19.366 21.254 0 1.3-1.59 3.397-5.13 7.012l-5.13 5.133h27.676v-27.616l-5.637 5.494c-3.035 2.964-6.214 5.422-6.937 5.422-.795 0-9.755-8.313-20.812-19.374-13.73-13.663-19.872-19.374-21.1-19.374-1.084 0-1.662.506-1.662 1.373"/>
<path fill="#00494a" class="logos-fill-1" d="m3619.246 194.616 14.742 14.819 6.287-6.217 6.287-6.289v-17.133h-42.129z"/>
<path fill="#00494a" class="logos-fill-1" d="M3579.935 184.567c-.65.65-.867 8.024-.867 28.41v27.472l-1.734 1.229c-1.228.867-3.54 1.156-8.527 1.156h-6.865l9.683 9.688 9.683 9.687 9.684-9.687 9.683-9.688h-7.299c-6.07 0-7.515-.216-8.527-1.373-1.156-1.23-1.228-4.338-1.228-28.7 0-26.531-.217-29.134-2.313-29.134-.216 0-.867.434-1.373.94"/>
<path fill="#00494a" class="logos-fill-1" d="m3556.811 207.773-14.958 14.964 6.287 6.29 6.287 6.217h17.776V213.99c0-11.711-.072-21.254-.216-21.254-.073 0-6.938 6.723-15.176 15.037"/>
<path d="M3590.414 213.773v21.471h17.849l6.286-6.29 6.215-6.289-15.175-15.109-15.175-15.181z"/>
<path d="M3471.975 361.466c-4.192 2.82-5.637 6.072-5.637 13.085 0 6.65 1.3 9.904 5.059 12.723 2.529 1.88 7.732 2.458 11.85 1.373 2.747-.722 3.252-1.156 3.252-2.819 0-1.59-.289-1.88-1.373-1.446-5.78 2.386-9.177 2.024-11.923-1.301-2.457-2.82-2.963-4.916-2.53-10.482.579-8.025 5.42-11.495 12.358-8.965 3.252 1.157 3.324 1.157 3.613-.506.434-2.313-2.023-3.397-7.66-3.397-3.324 0-5.058.433-7.01 1.735"/>
<path fill="#00494a" class="logos-fill-1" fill-rule="nonzero" d="M3496.255 361.466c-4.191 2.82-5.637 6.072-5.637 13.085 0 7.012 1.446 10.193 5.782 13.157 2.167 1.446 3.324 1.735 7.154 1.446 8.165-.434 11.706-4.555 12.356-13.953.434-6.65-1.445-11.567-5.275-13.952-3.685-2.169-10.911-2.097-14.38.217m11.345 2.385c1.156.579 2.53 1.952 2.963 3.037 1.156 2.53 1.229 11.566.072 14.747-1.662 4.916-8.744 6.217-12.935 2.458-2.529-2.241-2.529-2.241-2.529-9.542 0-7.374 0-7.374 2.53-9.543 2.745-2.53 6.43-2.964 9.9-1.157"/>
<path fill="#00494a" class="logos-fill-1" d="M3522.92 374.55c0 14.242 0 14.748 1.518 14.748 1.445 0 1.517-.506 1.517-11.35 0-6.29.217-11.422.506-11.422.361 0 3.83 5.133 7.732 11.422 6.431 10.41 7.226 11.35 9.25 11.35h2.24v-29.567h-3.758l-.217 11.494-.216 11.422-7.227-11.422c-6.431-10.338-7.37-11.494-9.25-11.494h-2.095z"/>
<path fill="#00494a" class="logos-fill-1" d="M3555.8 362.333c-4.625 4.627-3.252 9.543 3.757 13.085 5.275 2.603 6.576 3.904 6.576 6.434 0 4.193-4.914 5.639-10.261 2.892-1.59-.795-3.035-1.518-3.18-1.518-.144 0-.216 1.012-.216 2.313 0 1.88.36 2.313 2.818 2.964 7.804 2.169 14.091-.723 15.103-6.868.578-3.325-1.59-6.145-6.793-8.747-6.865-3.398-8.093-5.567-5.058-8.603 1.806-1.807 5.275-1.952 8.31-.434 2.095 1.157 2.168 1.085 2.457-1.084.361-2.53-.578-3.036-6.865-3.036-3.613 0-4.336.289-6.648 2.602"/>
<path fill="#00494a" class="logos-fill-1" d="M3574.227 360.237c-.29.289-.506.94-.506 1.518 0 .723 1.228 1.012 4.191 1.012h4.191v26.532l2.024.071h2.095l-.216-11.566c-.29-15.182-.362-15.037 4.408-15.037 3.324 0 3.83-.217 3.83-1.518 0-1.446-.506-1.518-9.756-1.518-5.347 0-9.972.217-10.261.506"/>
<path fill="#00494a" class="logos-fill-1" d="M3600.314 374.55v14.748h16.692v-1.88c0-1.88-.144-1.88-6.503-1.88h-6.432v-9.903h5.348c4.77 0 5.275-.145 5.275-1.518 0-1.374-.506-1.518-5.348-1.518H3604l.217-4.7.217-4.77h6.214c5.853 0 6.215-.073 6.576-1.663.29-1.735.217-1.735-8.31-1.735h-8.6z"/>
<path fill="#00494a" class="logos-fill-1" d="M3623.076 374.55v14.748h7.154c3.975 0 7.227-.289 7.227-.65s.217-1.23.433-1.88c.434-1.084-.361-1.23-5.275-1.23h-5.78v-25.807h-3.759z"/>
<path fill="#00494a" class="logos-fill-1" d="M3642.804 374.55v14.748h7.154c3.975 0 7.227-.289 7.227-.65s.216-1.23.433-1.88c.434-1.084-.361-1.23-5.275-1.23h-5.781v-25.807h-3.758z"/>
<path fill="#00494a" class="logos-fill-1" d="M3662.532 374.551v14.747h4.119v-29.567h-4.119z"/>
<path fill="#00494a" class="logos-fill-1" fill-rule="nonzero" d="M3677.418 373.9c-2.818 7.88-5.058 14.53-5.058 14.892 0 .29.795.506 1.806.506 1.59 0 1.951-.506 2.746-3.687.867-3.759.94-3.759 4.047-4.048 1.734-.072 4.77-.072 6.72.072l3.541.217.867 3.76c.795 3.18 1.157 3.686 2.746 3.686 1.012 0 1.807-.361 1.807-.94 0-.506-2.023-7.084-4.48-14.603l-4.48-13.663-2.602-.217-2.601-.217zm10.334-2.241 1.95 6.29-2.384.144c-2.89.072-6.865-.145-7.226-.578-.361-.217.795-3.904 3.107-10.121 1.734-4.772 1.879-4.627 4.553 4.265"/>
<path fill="#00494a" class="logos-fill-1" fill-rule="nonzero" d="M3595.327 424.215c-5.636 1.374-9.9 5.06-12.429 10.627-2.312 5.205-2.24 16.483.217 21.688 3.252 6.94 7.732 9.47 16.548 9.47 8.744-.072 14.236-3.325 17.632-10.627 2.313-5.06 2.313-18-.144-22.483-3.975-7.446-12.646-10.916-21.824-8.675m9.756 8.53c2.385 1.23 3.54 5.423 3.54 12.652 0 3.687-.36 7.807-.866 9.109-2.096 6.217-12.502 6.144-15.176-.073-1.59-3.759-1.373-16.265.29-19.374 2.023-3.615 7.587-4.699 12.212-2.313"/>
<path fill="#00494a" class="logos-fill-1" fill-rule="nonzero" d="M3439.095 425.155c-.217.578-3.18 9.687-6.576 20.314-3.396 10.7-6.36 19.663-6.504 19.953-.216.289 1.88.578 4.625.578h4.914l.434-2.82c1.084-6.361 1.084-6.361 8.888-6.144l7.01.217.578 2.313c.289 1.229.722 3.18.94 4.338.433 2.024.65 2.096 5.419 2.096 4.697 0 4.914-.072 4.48-1.735-.217-.94-2.963-10.193-5.998-20.676l-5.564-18.94-6.142-.217c-4.553-.217-6.287 0-6.504.723m8.527 14.82c.94 3.687 1.879 7.446 2.168 8.386.433 1.662.217 1.662-4.625 1.662-3.83 0-4.986-.216-4.986-1.084 0-.867 2.312-8.82 4.191-14.603.723-2.169 1.59-.578 3.252 5.639"/>
<path fill="#00494a" class="logos-fill-1" fill-rule="nonzero" d="m3470.096 445.108.072 20.892h9.467v-12.652l4.913-.505c5.42-.506 9.611-2.314 12.646-5.567 2.746-2.819 3.686-5.566 3.686-10.337 0-5.495-1.879-8.892-6.07-10.989-3.035-1.518-4.48-1.735-14.092-1.735h-10.694zm17.415-13.158c3.975 1.808 4.264 9.11.506 12.29-1.59 1.301-2.746 1.663-5.203 1.374l-3.18-.29v-6.578c0-3.687.217-6.868.506-7.157.795-.795 5.348-.578 7.371.361"/>
<path fill="#00494a" class="logos-fill-1" fill-rule="nonzero" d="M3507.311 445.108V466h9.539v-12.652l4.842-.505c5.492-.506 9.683-2.314 12.718-5.567 2.674-2.819 3.685-5.566 3.613-10.337 0-5.495-1.807-8.892-5.998-10.989-3.035-1.518-4.48-1.735-14.091-1.735h-10.695zm17.416-13.158c3.974 1.808 4.263 9.11.505 12.29-1.662 1.301-2.746 1.663-5.275 1.374l-3.107-.29v-6.578c0-3.687.217-6.868.506-7.157.795-.795 5.275-.578 7.37.361"/>
<path fill="#00494a" class="logos-fill-1" fill-rule="nonzero" d="m3544.454 445.108.073 20.892h9.467v-13.663h6.069l3.396 6.795c3.252 6.507 3.541 6.868 5.926 6.868 2.746 0 8.166-1.374 8.166-2.024 0-.29-2.096-3.47-4.553-7.157-2.529-3.615-4.552-6.94-4.552-7.374s.795-1.301 1.878-1.952c4.625-3.108 6.504-12.65 3.397-17.784-2.674-4.337-6.36-5.422-18.644-5.422l-10.695-.072zm17.416-13.158c2.601 1.157 3.685 4.627 2.746 8.314-.94 3.47-2.53 4.482-7.154 4.482h-3.469v-6.362c0-3.47.217-6.506.506-6.795.795-.795 5.347-.578 7.37.361"/>
<path fill="#00494a" class="logos-fill-1" d="M3622.57 425.589c.217.723 2.313 7.807 4.698 15.76 2.312 7.88 4.914 16.699 5.708 19.518l1.518 5.133h11.996l6.07-18.796c3.324-10.338 6.287-19.736 6.576-20.892l.505-2.097h-4.624c-4.48 0-4.625.145-5.059 2.097-1.662 8.675-8.744 30.868-9.466 30.073-.506-.506-5.275-18.651-7.877-30.073-.506-2.025-.65-2.097-5.492-2.097-4.336 0-4.914.217-4.552 1.374"/>
<path fill="#00494a" class="logos-fill-1" d="M3665.567 445.108V466l13.44-.145 13.442-.216.217-4.049.289-4.048-8.961.217-8.96.289-.217-4.771-.29-4.772h14.525v-7.59h-13.657v-9.109h17.487v-2.024c0-1.157.217-2.892.434-3.832l.434-1.735h-28.183z"/>
<path fill="#00494a" class="logos-fill-1" fill-rule="nonzero" d="M3699.314 445.035V466h9.972c14.525 0 19.511-2.169 23.558-10.41 1.879-3.904 2.095-5.205 2.095-12 0-6.651-.216-7.953-1.878-10.989-1.012-1.807-3.397-4.41-5.203-5.639l-3.252-2.313-12.646-.29-12.646-.216zm21.534-11.928c2.674 1.88 3.902 5.639 3.902 12.434 0 11.133-2.529 13.591-13.152 13.013l-2.818-.145V448c0-5.783.217-11.711.506-13.301l.434-2.892h4.697c3.035 0 5.275.434 6.431 1.301"/>
</g>

<g transform="translate(3835 86)">
<circle cx="154.439" cy="155.561" r="154.439" fill="#00494a" class="logos-fill-1"/>
<path fill="#00494a" class="logos-fill-1" fill-rule="nonzero" d="M405.46 141.665q-7.06 0-12.73-2.162t-9.662-6.154-6.113-9.514q-2.12-5.52-2.12-12.25 0-8.737 3.536-15.584t10.16-10.766q6.623-3.92 15.89-3.92 2.804 0 5.543.36t5.259.987 4.708 1.41 3.875 1.676l-1.013 12.463q-3.159-1.968-6.097-3.19-2.94-1.221-5.64-1.768t-5.15-.547q-4.94 0-8.81 2.191-3.87 2.192-6.086 6.405t-2.217 10.264q0 3.867 1.138 7.315t3.43 6.087q2.294 2.64 5.757 4.15 3.463 1.512 8.099 1.511 1.894 0 3.831-.264a27 27 0 0 0 3.902-.84 23 23 0 0 0 3.92-1.568 28 28 0 0 0 3.89-2.406l.74 12.311a22.7 22.7 0 0 1-3.862 1.703 35 35 0 0 1-4.457 1.185 47 47 0 0 1-4.797.688 54 54 0 0 1-4.925.227m42.874-21.58-11.972-22.784-3.7-7.061q-1.777-3.389-4.088-7.745h15.224q1.494 3.372 2.553 5.797 1.06 2.425 2.015 4.588a1206 1206 0 0 1 2.103 4.785l3.745 8.468h1.095l3.703-8.238a685 685 0 0 0 2.243-4.981q1-2.247 2.112-4.688t2.591-5.73h14.77l-3.892 7.476q-1.947 3.742-3.795 7.288l-11.903 22.825zm-.283 20.493V108.81h13.421v31.768zm60.365 0h-20.368V82.495h23.468q5.964 0 9.971.958 4.006.957 6.388 2.723 2.381 1.765 3.407 4.213 1.025 2.447 1.025 5.457 0 3.72-1.388 6.457t-3.785 4.498-5.416 2.527v1.019q3.488.766 6.18 2.397 2.692 1.632 4.206 4.444 1.513 2.813 1.513 7.113 0 3.642-1.166 6.632t-3.98 5.149-7.7 3.327q-4.887 1.17-12.355 1.169m-7.24-10.073h8.454q3.52 0 5.77-.845 2.247-.844 3.31-2.482 1.06-1.636 1.061-4.018 0-3.64-2.44-5.378t-7.051-1.738h-12.255v-9.405h11.684q2.992 0 4.95-.944 1.956-.945 2.903-2.59.948-1.644.948-3.786 0-3.367-1.982-5.107-1.983-1.74-6.046-1.741h-9.305v38.034m40.764 10.073V82.495h38.535v10.94h-31.838l6.408-8.82v53.844l-5.56-8.82h31.332v10.939zm10.058-24.183v-10.197h27.183v10.197h-27.183m38.493 24.183V82.495h22.249q7.098 0 12.004 1.563 4.908 1.56 7.44 5.224 2.535 3.66 2.535 9.996 0 5.022-1.974 9-1.974 3.976-6.32 6.297-4.348 2.319-11.404 2.347l5.15-4.914 7.904 11.666q1.848 2.7 3.918 5.766t4.055 5.981q1.983 2.917 3.489 5.157h-15.214a2164 2164 0 0 0-8.177-12.682l-9.399-14.812 7.966 6.079H601.21v-9.583h9.7q3.24 0 5.465-.792t3.373-2.707q1.149-1.916 1.149-5.237 0-2.489-.74-4.02-.74-1.533-1.986-2.382a7.5 7.5 0 0 0-2.76-1.153 15.6 15.6 0 0 0-3.07-.303h-18.234l9.513-8.371v55.963zm-213.013 76.807v-58.082h38.535v10.939h-31.838l6.408-8.82v53.844l-5.56-8.82h31.332v10.94zm10.058-24.183v-10.196h27.183v10.196h-27.183m56.943 25.259q-3.61 0-7.421-.607a62 62 0 0 1-7.125-1.546q-3.312-.938-5.38-1.928l.961-11.762a42.5 42.5 0 0 0 5.917 2.687 42 42 0 0 0 6.134 1.735q3.06.612 5.888.612 2.782 0 4.858-.685 2.077-.686 3.23-2.109 1.152-1.422 1.153-3.645 0-2.268-1.492-3.762t-4.26-2.613-6.584-2.223q-5.29-1.53-9.036-3.594t-5.73-5.3-1.983-8.328q0-5.103 2.234-8.998t6.77-6.088q4.536-2.194 11.436-2.194 2.705 0 5.45.348 2.742.349 5.315.92a48 48 0 0 1 4.768 1.308q2.196.735 3.824 1.537l-1.017 11.835a32.4 32.4 0 0 0-5.39-2.743 34 34 0 0 0-5.495-1.676q-2.688-.566-4.905-.566-2.482 0-4.48.66-2 .66-3.186 1.999t-1.185 3.39q0 1.992 1.114 3.34 1.116 1.35 3.464 2.396 2.35 1.046 6.03 2.154 6.947 2.072 10.977 4.333 4.029 2.26 5.724 5.438t1.695 7.971q0 5.346-2.316 9.319t-7.243 6.18q-4.928 2.205-12.714 2.205m48.886 0q-3.61 0-7.421-.607a62 62 0 0 1-7.124-1.546q-3.313-.938-5.38-1.928l.96-11.762a42.5 42.5 0 0 0 5.917 2.687 42 42 0 0 0 6.134 1.735q3.06.612 5.888.612 2.782 0 4.858-.685 2.077-.686 3.23-2.109 1.152-1.422 1.153-3.645 0-2.268-1.491-3.762t-4.26-2.613-6.585-2.223q-5.289-1.53-9.036-3.594-3.745-2.063-5.73-5.3-1.983-3.235-1.983-8.328 0-5.103 2.234-8.998t6.77-6.088q4.537-2.194 11.436-2.194 2.705 0 5.45.348 2.742.349 5.315.92a48 48 0 0 1 4.768 1.308q2.197.735 3.824 1.537l-1.017 11.835a32.4 32.4 0 0 0-5.39-2.743 34 34 0 0 0-5.495-1.676q-2.688-.566-4.905-.566-2.482 0-4.48.66-2 .66-3.185 1.999t-1.186 3.39q0 1.992 1.115 3.34 1.114 1.35 3.464 2.396t6.03 2.154q6.947 2.072 10.976 4.333 4.029 2.26 5.724 5.438t1.695 7.971q0 5.346-2.316 9.319t-7.243 6.18q-4.928 2.205-12.714 2.205m30.436-1.076v-58.082h38.535v10.939H530.5l6.407-8.82v53.844l-5.56-8.82h31.333v10.94zm10.059-24.183v-10.196h27.183v10.196H533.86m38.504 24.183v-58.082h11.683q4.093 5.952 7.713 11.229l7.233 10.547 9.448 13.7h.982v-35.476h12.563v58.082h-11.552a4823 4823 0 0 0-7.005-10.18q-3.653-5.294-7.998-11.571l-9.573-13.849h-.932v35.6zm74.947 0v-55.967l5.062 9.567h-22.578v-11.682h48.373v11.682h-22.579l5.094-9.566v55.966zm38.919 0v-58.082h13.674v58.082zm21.362 0 3.219-9.852q1.69-5.178 3.218-9.811l6.52-19.943q1.773-5.411 3.196-9.744t2.855-8.732h17.24q1.48 4.566 2.89 8.884l3.13 9.608 6.487 19.973q1.58 4.806 3.23 9.89t3.147 9.727h-13.837q-1.319-4.623-2.702-9.509-1.383-4.885-2.63-9.209l-7.965-27.983h-.994l-8.047 27.673q-1.317 4.527-2.747 9.483a1984 1984 0 0 1-2.777 9.545zm13.983-12.135 1.415-10.033h25.933l1.163 10.033zm48.483 12.135v-58.082h13.422v55.935l-4.64-9.535h30.345v11.682zm65.67 1.076q-3.61 0-7.422-.607a62 62 0 0 1-7.124-1.546q-3.313-.938-5.38-1.928l.96-11.762a42.5 42.5 0 0 0 5.918 2.687 42 42 0 0 0 6.133 1.735q3.06.612 5.888.612 2.782 0 4.859-.685 2.076-.686 3.23-2.109 1.152-1.422 1.152-3.645 0-2.268-1.491-3.762t-4.26-2.613-6.585-2.223q-5.29-1.53-9.035-3.594-3.747-2.063-5.73-5.3-1.983-3.235-1.984-8.328 0-5.103 2.235-8.998t6.77-6.088q4.536-2.194 11.435-2.194 2.706 0 5.45.348 2.742.349 5.315.92a48 48 0 0 1 4.769 1.308q2.196.735 3.824 1.537l-1.018 11.835a32.4 32.4 0 0 0-5.39-2.743 34 34 0 0 0-5.494-1.676q-2.69-.566-4.906-.566-2.482 0-4.48.66-2 .66-3.185 1.999t-1.186 3.39q0 1.992 1.115 3.34 1.115 1.35 3.464 2.396t6.03 2.154q6.947 2.072 10.976 4.333 4.029 2.26 5.724 5.438t1.695 7.971q0 5.346-2.316 9.319t-7.243 6.18q-4.927 2.205-12.713 2.205m-430.269 76.818q-7.059 0-12.73-2.161-5.67-2.163-9.661-6.155-3.992-3.992-6.113-9.513-2.12-5.521-2.12-12.25 0-8.738 3.536-15.584 3.536-6.847 10.16-10.767 6.623-3.92 15.89-3.919 2.804 0 5.543.36t5.259.986 4.708 1.411 3.875 1.676l-1.013 12.463q-3.159-1.97-6.097-3.19-2.94-1.222-5.64-1.769t-5.15-.547q-4.94 0-8.81 2.192t-6.086 6.404-2.217 10.264q0 3.867 1.138 7.315t3.43 6.088q2.294 2.64 5.757 4.15t8.099 1.51q1.894 0 3.831-.264a27 27 0 0 0 3.902-.84 23 23 0 0 0 3.92-1.567 28 28 0 0 0 3.89-2.407l.74 12.312a22.7 22.7 0 0 1-3.862 1.703 35 35 0 0 1-4.457 1.185 47 47 0 0 1-4.797.688 54 54 0 0 1-4.925.226m27.652-1.087V236.11h38.535v10.939h-31.838l6.408-8.82v53.844l-5.56-8.82h31.333v10.94zm10.059-24.183v-10.196h27.182v10.196H443.17m38.492 24.183V236.11h22.25q7.096 0 12.004 1.562 4.906 1.562 7.44 5.224t2.534 9.996q0 5.023-1.974 9t-6.32 6.297-11.403 2.348l5.148-4.914 7.906 11.665q1.846 2.702 3.918 5.766 2.07 3.066 4.054 5.982 1.983 2.916 3.489 5.156h-15.214a2164 2164 0 0 0-8.176-12.682l-9.4-14.812 7.966 6.08h-13.503v-9.584h9.7q3.24 0 5.465-.792 2.225-.791 3.374-2.707 1.148-1.914 1.148-5.237 0-2.487-.74-4.02t-1.986-2.382a7.5 7.5 0 0 0-2.76-1.152 15.6 15.6 0 0 0-3.07-.304h-18.233l9.512-8.37v55.963zm68.563 0v-55.966l5.062 9.566h-22.579V236.11h48.373v11.682h-22.579l5.094-9.566v55.966zm38.918 0V236.11h13.675v58.083zm25.364 0V236.11h37.99v11.177h-30.268l5.396-9.06v55.966zm9.748-23.107v-10.721h26.926v10.721h-26.926m37.485 23.107V236.11h13.675v58.083zm25.352 0V236.11h38.535v10.939H693.79l6.407-8.82v53.844l-5.56-8.82h31.333v10.94zm10.059-24.183v-10.196h27.183v10.196H697.15m38.504 24.183V236.11h23.084q6.645 0 11.811 1.918t8.735 5.627 5.425 9.062q1.857 5.355 1.857 12.251 0 6.15-1.64 11.466t-5.242 9.302-9.498 6.222-14.41 2.235h-20.122m13.421-10.72h6.682q6.24 0 9.934-2.436 3.695-2.436 5.306-6.666t1.611-9.585q0-4.05-.945-7.346t-2.91-5.676-5.031-3.656-7.312-1.276h-7.335v36.64"/>
<path fill="#336d6e" class="logos-fill-3" d="M70.05 108.914q23.146 32.148 65.54 32.148t59.382-28.873l-40.533 152.962q-41.753-41.084-57-69.314-15.25-28.231-27.39-86.923"/>
<path fill="#669292" class="logos-fill-2" d="M154.439 265.151q43.993-99.367 115.442-156.237 71.45-56.868 149.31-64.353-57.832-83.446-156.385-10.63-98.55 72.815-108.367 231.22"/>
</g>

<path fill="#00494a" class="logos-fill-1" d="M4982.328 16h5.726l4.962 1.525 4.199 2.67 155.356 155.212 3.053 5.339.764 2.67v7.245l-1.145 3.814-2.29 4.194-156.12 155.975-4.58 2.67-4.581 1.144h-5.726l-3.817-1.144-4.199-2.289-156.882-156.737-2.29-4.576-.764-2.67v-8.008l1.909-4.958 2.672-3.432 154.974-154.83 3.817-2.289zm68.708 395.847 4.199 1.526 3.435 3.05 2.29 4.196.764-2.288.763-4.577 1.145-1.144h9.925l1.145 1.144-.382 4.577-3.435 21.737-3.817 22.118-1.146 2.67-.763.381h-8.78l-1.526-1.144v-3.813l.763-3.433-1.908 1.907-3.817 3.814-4.963 2.67-3.053.762h-6.871l-4.962-1.525-4.2-3.051-3.053-4.195-1.527-4.195-.763-4.195v-7.627l1.527-7.627 2.29-6.102 2.672-4.576 3.435-4.195 3.818-3.051 6.107-3.05 3.435-.764zm-28.628-20.211 4.58 1.144.763.762v2.289l-2.671 5.72-.764.763-6.87.38-1.91.764-1.908 2.288-.763 2.288-.764 4.576h9.161l1.146 1.144v3.814l-.764 3.432-1.145 1.144h-10.306l-.382 4.958-6.107 36.61-1.145 1.144h-10.307l-1.145-1.144.382-4.576 5.726-34.704.763-2.288h-6.107l-1.145-1.144v-3.05l.763-4.196 1.145-1.144h6.871l1.145-7.627 1.909-4.576 3.053-3.814 3.817-2.67 3.818-1.525 3.053-.762zm23.284 30.508-1.909.763-3.053 1.907-3.436 3.813-2.29 4.576-1.527 6.102v7.627l.382 1.526 1.145 3.05 1.909 2.289 2.29 1.525 3.435.763 4.199-.382 2.672-1.144 3.054-2.288 3.053-3.813 1.909-4.577 1.527-6.101v-7.246l-1.527-4.195-2.672-3.05-3.054-1.145zm-112.223-10.678 6.108 1.526 4.58 2.669 2.672 3.05 1.527 3.052.382 1.144v6.483l-1.146 3.432-3.435 3.814-4.962 2.67-4.962 1.525-6.49 1.144-8.779.762h-6.489l.382 5.72 1.908 4.577 3.054 2.288 2.29.763h6.108l4.962-1.526 3.817-3.432 1.145-1.144h3.436l5.343 1.144 1.146 1.144-.382 2.67-3.054 3.813-4.199 3.432-4.58 2.289-5.344 1.525h-11.833l-4.58-1.525-3.436-1.907-3.817-3.432-2.29-3.814-1.527-3.814-.382-2.669v-8.39l.764-4.957 2.29-6.484 3.435-5.72 4.199-4.576 4.58-3.432 4.581-2.288 3.817-1.145 2.672-.38zm-40.843-11.44 1.145 1.143-.381 4.958-1.145 6.483h8.397l1.145.763-.381 6.483-1.146 1.907-.381.381h-9.543l-.382 5.72-3.817 22.5v3.051l1.909 1.907 5.725.381 1.146 1.144v7.246l-1.527 1.144-2.29.382h-9.162l-3.435-1.144-3.054-2.289-1.908-3.432-.382-1.525v-5.34l2.29-14.872 2.672-14.873h-5.725L4871.25 421v-3.814l.764-3.432 1.145-1.144 6.49-.381 1.908-11.06 1.145-1.144zm32.446 21.355-1.146.382-3.817 2.288-3.053 3.432-2.672 5.339-.382 1.907h7.634l5.344-.382 4.962-1.144 3.817-1.906 1.527-2.67v-3.05l-.381-.763-1.527-1.907-3.054-1.526zm237.423-9.915 4.199 1.144 4.58 2.288 3.054 2.67 2.29 3.813.382 1.526v7.246l-1.909 3.813-2.672 2.67-4.962 2.67-4.962 1.525-6.489 1.144-8.78.762h-6.488l.381 4.958 1.145 3.813 1.527 2.289 3.054 1.906 1.908.382h5.726l3.817-1.144 3.817-2.288 2.29-2.67h3.054l4.962.763 1.527.762.382 2.67-2.29 3.432-2.672 2.67-4.199 2.67-3.054 1.525-6.107 1.525h-11.07l-4.58-1.525-3.436-1.907-3.817-3.432-2.672-4.577-1.526-6.101v-7.627l1.145-6.484 1.908-4.957 3.054-5.34 3.054-3.813 3.817-3.432 5.344-3.05 3.817-1.526 4.199-.763zm-6.107 9.534-4.2.763-3.816 2.288-2.672 3.05-2.29 3.814-1.146 3.814h9.161l8.016-1.144 4.2-1.907 1.908-3.05v-3.433l-1.909-2.288-3.054-1.526zm-309.567-9.153h6.49l4.58 1.145 3.435 2.288 2.672 3.05 1.527 3.051.763 2.67v6.102l-3.053 19.067-2.29 13.73-1.146 1.906h-10.688l-.763-1.144.382-4.958 4.198-25.55v-6.102l-1.526-2.288-1.909-1.526-1.527-.381h-6.489l-3.817 1.907-2.672 2.288-1.908 3.05-1.146 3.433-4.962 30.127-1.145 1.144h-10.306l-.764-.763v-3.813l7.253-43.094.763-3.813.764-.763h9.543l1.145 1.144-.382 6.865 3.435-3.814 2.672-2.288 3.817-1.907zm254.982 0h8.78l5.343 1.526 3.818 1.907 3.435 3.05 2.672 4.577.763 2.288v2.288l-1.527 1.525-6.489 1.145h-3.053l-1.527-3.051-1.145-2.288-2.29-1.907-1.909-.763h-4.962l-3.817 1.144-3.054 2.288-3.054 3.432-2.672 5.34-1.527 6.483v6.101l1.527 4.958 2.29 2.67 2.673 1.143h5.725l4.58-1.906 3.054-2.67 3.054-3.813 1.909-.382 7.252 1.907 1.145 1.144v1.907l-3.053 4.576-3.054 3.432-3.817 2.67-3.817 1.907-3.436 1.144-2.672.381h-9.542l-4.963-1.525-4.198-2.67-3.436-3.432-2.672-4.958-.763-2.288-.382-2.67v-8.77l.763-4.958 2.29-6.102 2.291-4.195 3.054-3.813 3.053-3.051 4.963-3.051 4.58-1.907zm-141.996.382h8.78l1.526 1.144v3.05l-.381 4.196 2.29-3.433 3.435-3.05 2.29-1.144 1.91-.382h8.015l.763 1.144v3.432l-.763 3.433-.763 1.144-1.146.381-6.87.381-4.963 1.526-2.29 1.525-1.908 2.288-1.146 2.67-1.145 4.195-1.526 9.915-3.054 17.924-.764 1.907-1.145.762h-8.779l-1.909-1.525v-2.67l1.527-8.008 2.29-14.873 4.2-24.407zm-157.646.381h9.924l1.146 1.144-.382 4.958-1.527 9.152-1.527 10.297-3.053 18.305-1.527 7.627-.764.763h-10.306l-1.145-1.144.382-4.195 3.817-22.5 1.527-10.297 2.29-12.966zm5.726-20.593h3.053l2.672 2.67 2.672 3.432v3.05l-1.908 1.907-4.2 3.432h-3.053l-2.672-2.669-2.672-3.432v-3.051l2.672-2.67z"/>
<path fill="#669292" class="logos-fill-2" d="m4873.873 171.975 4.2 1.525 3.056 2.288 95.47 95.34 3.818 1.906 1.91.381h6.492l3.818-1.525 3.437-2.67 93.56-93.432 4.201-2.67 4.2-1.143h3.82l4.964 1.525 4.2 3.05 2.674 3.814 1.145 3.051.382 2.288v3.051l-.763 3.051-1.528 3.432-2.673 3.051-116.091 115.932-3.437 1.907-3.055.763h-5.728l-3.82-1.526-3.436-2.288-116.091-115.932-2.291-3.813-1.146-3.433v-4.576l.764-3.432 2.291-4.195 3.055-3.05 4.2-2.29 1.528-.38zm41.243-43.475 4.582 1.144 3.82 2.288 52.699 52.627 4.582 2.288 1.146.382h6.11l3.437-1.144 3.818-2.288 51.936-51.865 3.055-1.907 3.819-1.144h5.346l4.2 1.526 3.438 2.288 2.673 3.05 1.91 3.814.381 1.526v6.483l-1.91 4.576-2.672 3.432-71.794 71.695-4.2 2.67-3.437 1.144h-5.347l-4.2-1.526-3.437-2.288-73.32-73.22-2.292-3.814-1.146-3.432v-4.576l.764-3.432 2.291-4.195 3.055-3.051 4.201-2.288 3.819-.763zm72.939-70.932 4.2 1.525 3.437 2.288 29.787 29.746 2.291 3.432 1.146 4.195v5.34l-1.91 4.957-3.437 3.813-29.022 28.983-4.583 2.289-1.145.38h-7.256l-3.819-1.524-3.437-2.67-29.405-29.364-2.29-3.814-1.146-3.432v-4.576l.763-3.433 2.292-4.195 30.932-30.89 3.819-2.287 3.055-.763z"/>

<g>
<path fill="#00494a" class="logos-fill-1" fill-rule="nonzero" d="M5518.338 83.529c5.026-12.251 5.585-15.592 3.91-16.706-1.676-1.114-2.234-3.898-1.676-12.25 1.117-10.024 1.117-11.138-3.909-16.15-3.35-4.455-6.701-6.125-11.169-6.125-3.35 0-9.493 1.114-13.96 2.227-6.702 1.67-8.936 2.228-10.611.557-1.675-1.67-1.675-2.784 0-4.455 1.117-1.113 2.234-3.34 2.234-5.568 0-1.67-1.676-6.126-3.91-9.467-3.909-6.125-3.909-6.125 0-5.012 2.793 1.114 3.91.557 3.91-2.227 0-2.228-1.117-2.784-3.351-2.228-2.792 1.114-3.35.557-2.234-2.784.559-2.227 0-3.341-2.234-3.341s-2.792 1.114-2.233 3.341c1.117 3.341.558 3.898-2.234 2.784-2.234-.556-3.35 0-3.35 2.785 0 2.784.558 3.34 3.908 2.227 3.351-1.114 3.351-1.114-.558 5.569-3.35 6.125-3.91 7.796-1.675 11.694 1.116 2.784 1.675 5.568 1.116 6.125-.558 1.114-2.792 1.67-4.467 1.67s-6.701-1.113-10.61-2.783c-7.26-2.228-8.936-2.228-14.52 0-3.35 1.67-7.26 4.454-8.935 7.239-2.234 3.34-2.792 6.682-1.675 14.478.558 8.353.558 10.58-1.676 11.694-1.675 1.114-1.117 3.898 3.91 16.149 5.584 15.035 5.584 15.035 12.285 12.808 3.91-1.114 12.286-3.341 18.429-3.898 8.935-1.67 15.636-1.67 25.13 0 7.26 1.113 15.636 2.784 18.987 4.455 5.026 2.227 5.026 2.227 11.168-12.808m-70.922-54.015c1.676 0 2.793-1.114 2.793-2.785 0-1.67-1.117-2.784-2.793-2.784-1.117 0-2.233 1.114-2.233 2.784s1.116 2.785 2.233 2.785m55.845 0c1.116 0 2.233-1.114 2.233-2.785 0-1.67-1.117-2.784-2.233-2.784-1.676 0-2.793 1.114-2.793 2.784s1.117 2.785 2.793 2.785m-61.987-1.114c0-1.114-1.117-2.784-2.793-2.784-1.117 0-2.233 1.113-1.675 2.227 0 1.114 1.675 2.227 2.792 2.784s1.676-.557 1.676-2.227m14.519 2.227c1.117-.557 2.234-1.67 2.792-2.784 0-1.114-.558-2.227-2.234-2.227s-2.792 1.67-2.792 2.784c0 1.67 1.117 2.784 2.234 2.227m41.325-.557c1.117-.556 1.117-1.67.558-2.784-.558-.557-1.675-1.67-2.234-1.67-1.117 0-2.233 1.113-2.792 1.67-.558 1.114 0 2.228 1.117 2.784.558.557 2.234.557 3.35 0m13.96.557c1.118-.557 2.793-1.67 2.793-2.784.558-1.114-.559-2.227-1.675-2.227-1.676 0-2.793 1.67-2.793 2.784 0 1.67.559 2.784 1.676 2.227m-46.908 2.785q1.675-.836 1.675-3.342c0-1.113-.559-2.227-1.675-2.227s-2.234.557-2.793 1.67c-.558.557-.558 2.228 0 3.342.559 1.113 1.676 1.113 2.793.557m25.13-.557c.558-1.114.558-2.785-.559-3.898-1.117-1.114-2.234-1.114-2.792.557-1.117 1.113-.559 2.784.558 3.34 1.117 1.671 1.676 1.114 2.792 0m-57.52 1.67c1.675 0 2.792-1.113 2.792-2.784 0-1.114-1.117-2.227-2.792-2.227-1.117 0-2.234 1.113-2.234 2.227 0 1.67 1.117 2.784 2.234 2.784m87.117 0c1.117 0 2.234-1.113 2.234-2.784 0-1.114-1.117-2.227-2.234-2.227-1.675 0-2.792 1.113-2.792 2.227 0 1.67 1.117 2.784 2.792 2.784m-91.585 6.683c1.117 0 2.234-.557 2.234-2.228 0-1.67-1.675-2.784-2.792-2.784-1.675 0-2.792 1.114-2.234 2.227.559 1.114 1.676 2.228 2.792 2.785m83.767 43.435c-1.117 0-2.793-1.114-4.468-2.785-1.117-1.113-2.792-4.455-2.792-6.682 0-2.784 1.117-4.455 2.792-4.455s2.234 1.114 1.675 1.67c-.558 1.114 0 2.228.559 2.228 1.117 0 2.234-1.114 2.792-2.227 1.117-.557.559-2.785-.558-3.898-1.117-1.671-3.35-2.228-3.91-1.671-1.116.557-1.675 0-1.116-2.784.558-2.228.558-5.012 0-6.126-.559-2.227-1.117-2.227-3.35-.557-1.118 1.114-2.235 3.342-2.235 5.012 0 2.228-1.117 2.784-3.35 2.228-2.234-.557-3.91 0-4.468 1.67s-.558 3.341 0 4.455c.559.557 1.675 0 2.234-1.114.558-1.113 1.675-2.227 2.234-2.227 1.117 0 1.675 1.114 1.675 2.784s-1.117 4.455-2.792 6.126c-1.676 1.67-4.468 3.34-6.702 3.34s-5.584-1.113-7.26-2.783c-2.233-1.671-3.908-3.342-3.908-4.455 0-.557.558-1.67 1.675-1.67s3.91 1.67 5.584 2.783c2.793 2.785 2.793 2.785 2.793-5.011 0-8.353 0-8.353-2.793-5.569-1.675 1.67-4.467 2.784-5.584 2.784q-1.675 0-1.675-1.67c0-1.114.558-2.228 1.675-2.785.558-.556 1.675-5.011 1.675-10.58 0-7.796.559-9.466 2.793-9.466 1.675 0 6.142-1.114 9.493-2.228s7.818-2.227 9.494-2.784c2.233 0 5.584 1.67 8.376 3.341 2.234 2.227 5.026 5.569 5.585 7.24.558 1.67 0 6.125-1.117 9.466-1.676 5.011-1.676 7.239 0 11.137s1.675 6.125-.559 11.137c-1.675 3.341-3.35 6.126-4.467 6.126m12.844-43.435c1.675 0 2.792-1.114 2.792-2.228 0-1.67-1.117-2.784-2.792-2.784-1.117 0-2.792 1.114-2.792 2.784 0 1.114 1.675 2.228 2.792 2.228m-84.325 43.435c-1.117 0-2.792-2.785-4.467-6.126-1.676-5.012-2.234-7.796-.559-11.137 1.676-3.898 1.676-6.682 0-11.137-1.117-3.341-1.675-7.796-1.117-9.467.559-1.67 3.351-5.012 6.143-7.239s6.143-3.341 8.935-2.784c2.234.557 7.818 2.227 12.286 3.34 8.377 1.671 8.377 1.671 8.377 11.138 0 5.012 1.116 9.467 1.675 10.023 1.117.557 1.675 1.671 1.675 2.785q0 1.67-1.675 1.67c-1.117 0-3.91-1.113-5.585-2.784-2.792-2.784-2.792-2.784-2.792 5.569 0 7.796 0 7.796 2.792 5.011 1.676-1.113 4.468-2.784 5.585-2.784s1.675 1.114 1.675 1.67c0 1.114-1.675 2.785-3.909 4.456-1.675 1.67-5.026 2.784-7.26 2.784s-5.026-1.67-6.7-3.341c-1.676-2.228-2.793-5.012-2.235-6.126 1.117-2.784 1.676-2.784 3.91-1.114 2.233 1.671 2.233 1.671 2.233-1.67s-.558-3.898-3.909-2.784c-3.35.556-4.467 0-4.467-2.228 0-1.67-1.117-3.898-2.793-5.568-2.233-1.671-2.233-1.114-2.233 4.454 0 3.342-1.117 6.126-1.676 5.569-1.117-.557-2.792 0-3.909 1.67-1.675 2.228-1.675 2.785 0 4.455 1.676 1.671 2.234 1.671 3.35 0 1.118-1.67 2.235-1.67 3.351-1.113s1.676 2.784 1.117 5.012c-.558 1.67-2.233 4.454-3.909 5.568s-3.35 2.228-3.909 2.228m-14.52-36.753c1.676-.557 2.234-2.228 1.676-2.784-.558-1.114-1.675-1.671-2.792-1.671-.559 0-1.676.557-2.792 1.67-.559 1.114-.559 2.228 0 2.785.558.557 2.233.557 3.909 0m102.754.557c1.117 0 2.234-1.114 1.675-2.228 0-1.113-1.675-2.227-2.792-2.784-1.117 0-1.675.557-1.675 2.227 0 1.671 1.117 2.785 2.792 2.785m-102.195 7.796c1.117-.557 1.675-1.67 1.117-2.785-.558-1.113-1.675-1.67-2.792-1.67-.559 0-1.676.557-2.234 1.67-.558 1.114-.558 2.228.558 2.785s2.793.557 3.351 0m101.078.557c1.117-.557 2.792-1.671 2.792-2.785.559-1.113-.558-2.227-1.675-2.227-1.675 0-2.792 1.114-2.792 2.784s.558 2.228 1.675 2.228m-98.286 7.239c.559-1.114.559-2.785-.558-3.898-1.117-1.114-2.234-1.114-2.792.557-.559 1.113-.559 2.784.558 3.34 1.117 1.671 1.675 1.114 2.792 0m96.61 1.67c.56 0 1.676-1.113 1.676-2.227 0-1.67-1.117-3.341-1.675-3.898-1.117-.557-2.234 0-2.792 1.114-.559.556-.559 2.227 0 3.34.558 1.114 1.675 1.671 2.792 1.671m-.558 89.655c-.558-10.024-.558-10.024-19.545 2.227-11.727 7.796-24.572 18.376-35.182 28.957-16.195 16.149-16.195 16.149-21.78 12.25-3.35-2.227-9.493-6.125-13.402-8.91-4.467-2.783-8.935-4.454-10.052-4.454-1.675 0-2.234 3.341-2.234 10.58 0 11.137 0 11.137 10.61 19.49 5.585 4.455 13.403 12.251 17.313 16.706 7.26 8.353 7.26 8.353 17.87-7.24 6.143-9.466 17.87-23.387 27.922-33.967 9.493-9.467 20.104-18.934 23.454-21.718 5.585-3.898 5.585-4.455 5.026-13.921m-178.924 221.36q-14.08 0-22.641-4.522-8.56-4.521-12.443-12.87-3.885-8.346-3.884-19.76v-56.714h21.23v55.551q0 6.627 1.817 11.282 1.815 4.655 5.714 7.091t10.126 2.436q6.389 0 10.215-2.436t5.53-7.091 1.704-11.331v-55.502h21.23v56.794q0 11.373-4.06 19.7t-12.588 12.85-21.95 4.522M5454.586 375a5057 5057 0 0 0-8.02-11.553q-3.767-5.409-7.37-10.606l-12.16-17.392h-5.95v-16.686h5.678l10.88-14.194q3.877-5.046 7.674-10.043 3.796-4.996 8.825-11.668h24.477q-5.965 7.287-11.68 14.333t-11.483 14.201l-14.583 18.048-.402-9.353 16.194 22.428q3.771 5.125 8.057 11.08 4.285 5.957 8.376 11.582l7.143 9.823zm-53.053 0v-92.142h21.23V375zm83.938 0 5.11-15.63q2.685-8.213 5.111-15.564l10.352-31.636q2.814-8.585 5.074-15.46 2.26-6.873 4.533-13.852h27.372q2.352 7.245 4.588 14.094 2.236 6.85 4.97 15.242l10.301 31.686q2.507 7.625 5.127 15.689t4.998 15.431h-21.97q-2.092-7.334-4.29-15.085a3239 3239 0 0 0-4.175-14.609l-12.647-44.393h-1.578l-12.776 43.902a6280 6280 0 0 0-4.362 15.043A3145 3145 0 0 1 5506.8 375zm22.202-19.251 2.247-15.916h41.175l1.846 15.916zm106.254 20.957q-5.73 0-11.783-.962-6.051-.964-11.312-2.452-5.26-1.49-8.542-3.06l1.526-18.658a67.6 67.6 0 0 0 9.395 4.261 66.4 66.4 0 0 0 9.738 2.753q4.86.972 9.349.972 4.417 0 7.714-1.088 3.297-1.087 5.127-3.345t1.83-5.782q0-3.598-2.367-5.968t-6.763-4.146-10.455-3.526q-8.4-2.43-14.347-5.702-5.947-3.273-9.097-8.407-3.15-5.133-3.15-13.211 0-8.098 3.548-14.276t10.75-9.658q7.2-3.48 18.156-3.48 4.297 0 8.652.553 4.356.552 8.44 1.46 4.085.907 7.571 2.074 3.487 1.166 6.072 2.439l-1.616 18.774a51.4 51.4 0 0 0-8.559-4.351q-4.455-1.76-8.723-2.659t-7.789-.898q-3.939 0-7.113 1.047t-5.057 3.17-1.882 5.38q0 3.158 1.77 5.298 1.77 2.142 5.5 3.8 3.73 1.66 9.574 3.417 11.03 3.288 17.427 6.874 6.397 3.587 9.088 8.627t2.691 12.646q0 8.478-3.677 14.783-3.677 6.303-11.5 9.802-7.823 3.5-20.186 3.5M5277 435q.405-3.183.796-6.295.39-3.112.831-6.76l1.618-12.945q.46-3.6.839-6.701.379-3.103.811-6.514h5.011a2396 2396 0 0 1 3.308 8.07q1.59 3.895 3.158 7.751l6.22 15.22h.386l6.146-15.213q1.575-3.882 3.136-7.742 1.563-3.86 3.254-8.086h4.991q.42 3.364.797 6.473.375 3.107.823 6.737l1.6 13.058q.448 3.563.827 6.626t.764 6.321h-4.746q-.637-5.22-1.207-9.923t-1.072-8.779l-1.424-11.72h-.36l-4.981 12.627a5416 5416 0 0 1-3.628 9.203 3880 3880 0 0 0-3.386 8.592h-3.383a1067 1067 0 0 0-2.21-5.5l-2.479-6.122q-1.269-3.138-2.485-6.1l-5.146-12.7h-.361l-1.417 11.698q-.495 4.082-1.064 8.797-.57 4.714-1.207 9.927zm50.612 0 2.404-6.661q1.258-3.487 2.405-6.634l4.864-13.455 4.508-12.465h6.55l2.129 5.95q1.042 2.916 2.34 6.535l4.823 13.495 2.392 6.672q1.23 3.428 2.337 6.563h-5.166q-1.177-3.437-2.428-7.074-1.25-3.639-2.36-6.862l-7.14-20.785h-.48l-7.195 20.585q-1.177 3.36-2.449 7.028t-2.488 7.108zm7.271-9.855.422-3.908h19.873l.346 3.908zm34.156 9.855v-39.215h4.495q3.51 4.954 6.749 9.54 3.24 4.584 6.407 9.06l8.504 11.982h.416v-30.582h4.725V435h-4.424a3354 3354 0 0 0-6.124-8.674l-7.08-9.995-8.542-12.073h-.4V435zm38.002 0 2.404-6.661q1.257-3.487 2.405-6.634l4.863-13.455 4.509-12.465h6.549l2.13 5.95q1.041 2.916 2.339 6.535l4.824 13.495q1.162 3.245 2.392 6.672 1.23 3.428 2.336 6.563h-5.166a6601 6601 0 0 0-2.427-7.074l-2.36-6.862-7.14-20.785h-.48l-7.196 20.585q-1.176 3.36-2.448 7.028t-2.488 7.108zm7.27-9.855.422-3.908h19.874l.346 3.908zm52.719 10.44q-5.105 0-8.999-1.531t-6.541-4.276q-2.647-2.745-4-6.445-1.35-3.7-1.35-8.018 0-5.918 2.434-10.491 2.436-4.574 6.877-7.167 4.442-2.592 10.445-2.592 2.063 0 4.003.283 1.94.284 3.661.76 1.721.474 3.167 1.026 1.445.553 2.49 1.11l-.455 4.77a31 31 0 0 0-4.418-2.041 25 25 0 0 0-4.186-1.146 22.7 22.7 0 0 0-3.945-.358q-3.283 0-6.016 1.075a13.35 13.35 0 0 0-4.737 3.136q-2.006 2.06-3.092 5.002-1.087 2.943-1.087 6.648 0 3.363.95 6.272.948 2.909 2.914 5.108 1.965 2.2 5.013 3.434t7.218 1.233a31 31 0 0 0 3.087-.155 25 25 0 0 0 3.044-.496 24 24 0 0 0 2.96-.875q1.454-.534 2.824-1.284l.596 4.684q-.947.417-2.341.834a35 35 0 0 1-3.095.757 40 40 0 0 1-3.58.542 36 36 0 0 1-3.841.201m8.132-2.259v-18.002h4.725v17.927zm13.614 1.674v-39.215h24.36v4.27h-22.231l2.754-3.546v37.745l-2.491-3.523h22.044V435zm3.797-17.803v-4.138h19.462v4.138h-19.462M5520.01 435q.405-3.183.796-6.295.39-3.112.831-6.76l1.618-12.945q.46-3.6.838-6.701.379-3.103.812-6.514h5.01q1.72 4.172 3.309 8.07 1.589 3.895 3.158 7.751l6.22 15.22h.386l6.146-15.213 3.136-7.742a2228 2228 0 0 0 3.254-8.086h4.991q.42 3.364.796 6.473.377 3.107.824 6.737l1.6 13.058q.448 3.563.827 6.626t.763 6.321h-4.745q-.637-5.22-1.207-9.923t-1.072-8.779l-1.424-11.72h-.36l-4.982 12.627q-1.81 4.605-3.628 9.203a3881 3881 0 0 0-3.385 8.592h-3.383q-1.002-2.514-2.21-5.5-1.21-2.985-2.479-6.122t-2.486-6.1l-5.146-12.7h-.36l-1.417 11.698-1.065 8.797q-.57 4.714-1.206 9.927zm54.073 0v-39.215h24.36v4.27h-22.231l2.754-3.546v37.745l-2.49-3.523h22.043V435zm3.797-17.803v-4.138h19.463v4.138h-19.463M5606.726 435v-39.215h4.495q3.51 4.954 6.749 9.54 3.24 4.584 6.407 9.06l8.504 11.982h.416v-30.582h4.725V435h-4.424a3354 3354 0 0 0-6.124-8.674l-7.08-9.995-8.542-12.073h-.4V435zm51.543 0v-38.493l1.968 3.708h-15.429v-4.43h31.847v4.43h-15.429l2.009-3.708V435zm-292.533 47.594q-2.459 0-4.944-.443a35 35 0 0 1-4.592-1.123q-2.106-.679-3.398-1.372l.461-4.697a29.5 29.5 0 0 0 3.85 1.776q1.985.747 4.067 1.163 2.082.415 4.26.415 2.444 0 4.407-.672 1.962-.67 3.104-2.142 1.143-1.47 1.143-3.871 0-2.075-1.18-3.435-1.181-1.359-3.429-2.361t-5.428-1.987q-3.747-1.167-6.381-2.544t-4.024-3.404q-1.389-2.025-1.389-5.149 0-3.062 1.446-5.476 1.447-2.414 4.306-3.813t7.082-1.4q1.754 0 3.47.253 1.715.255 3.291.674t2.864.946q1.29.526 2.196 1.076l-.494 4.741a18.5 18.5 0 0 0-3.539-1.886 21.3 21.3 0 0 0-3.707-1.12q-1.84-.37-3.424-.37-2.212 0-4.09.652-1.876.653-3.022 2.02-1.145 1.369-1.145 3.506 0 1.855.974 3.1.975 1.243 3.044 2.215t5.35 2.017q4.713 1.501 7.43 3.028 2.718 1.526 3.858 3.53 1.142 2.005 1.142 4.924 0 3.2-1.422 5.735-1.42 2.535-4.42 4.014t-7.717 1.48m31.383-15.92-8.548-14.485-2.625-4.462q-1.267-2.154-2.925-4.942h5.703q1.506 2.65 2.575 4.54t2.03 3.58a819 819 0 0 1 2.119 3.745l3.791 6.673h.511l3.687-6.45 2.236-3.912q1.006-1.761 2.106-3.671 1.1-1.911 2.587-4.505h5.567q-1.41 2.388-2.797 4.747l-2.722 4.63-8.559 14.512zm-.115 15.326v-19.48h4.981V482zm36.841.594q-2.459 0-4.944-.443a35 35 0 0 1-4.592-1.123q-2.106-.679-3.398-1.372l.461-4.697a29.5 29.5 0 0 0 3.85 1.776q1.985.747 4.067 1.163 2.082.415 4.26.415 2.444 0 4.407-.672 1.962-.67 3.104-2.142 1.143-1.47 1.143-3.871 0-2.075-1.18-3.435-1.181-1.359-3.429-2.361t-5.428-1.987q-3.747-1.167-6.381-2.544t-4.024-3.404q-1.389-2.025-1.389-5.149 0-3.062 1.446-5.476 1.447-2.414 4.306-3.813t7.082-1.4q1.755 0 3.47.253 1.715.255 3.291.674t2.864.946q1.29.526 2.196 1.076l-.494 4.741a18.5 18.5 0 0 0-3.539-1.886 21.3 21.3 0 0 0-3.707-1.12q-1.84-.37-3.424-.37-2.212 0-4.09.652-1.876.653-3.022 2.02-1.145 1.369-1.145 3.506 0 1.855.974 3.1.974 1.243 3.044 2.215t5.35 2.017q4.713 1.501 7.43 3.028 2.718 1.526 3.858 3.53 1.142 2.005 1.142 4.924 0 3.2-1.422 5.735-1.42 2.535-4.42 4.014t-7.717 1.48m30.931-.594v-38.493l1.969 3.708h-15.429v-4.43h31.847v4.43h-15.43l2.01-3.708V482zm25.166 0v-39.215h24.36v4.27h-22.231l2.754-3.546v37.745l-2.49-3.523h22.044V482zm3.797-17.803v-4.138h19.463v4.138h-19.463M5521.176 482q.405-3.183.796-6.295t.832-6.76L5524.42 456q.46-3.6.839-6.701.379-3.103.811-6.514h5.011q1.72 4.172 3.308 8.07 1.59 3.895 3.158 7.751l6.22 15.22h.387l6.145-15.213q1.575-3.882 3.137-7.742a2228 2228 0 0 0 3.253-8.086h4.992q.42 3.364.796 6.473.375 3.107.824 6.737l1.6 13.058q.447 3.563.826 6.626t.764 6.321h-4.745q-.638-5.22-1.207-9.923t-1.073-8.779l-1.423-11.72h-.361l-4.98 12.627q-1.812 4.605-3.629 9.203a3881 3881 0 0 0-3.386 8.592h-3.382q-1.002-2.514-2.211-5.5l-2.478-6.122q-1.27-3.138-2.486-6.1l-5.146-12.7h-.361l-1.417 11.698-1.064 8.797q-.57 4.714-1.207 9.927zm65.472.594q-2.46 0-4.944-.443a35 35 0 0 1-4.592-1.123q-2.106-.679-3.398-1.372l.461-4.697a29.5 29.5 0 0 0 3.85 1.776q1.985.747 4.067 1.163 2.082.415 4.26.415 2.444 0 4.406-.672 1.964-.67 3.105-2.142 1.142-1.47 1.142-3.871 0-2.075-1.18-3.435t-3.428-2.361-5.429-1.987q-3.746-1.167-6.38-2.544t-4.024-3.404q-1.39-2.025-1.39-5.149 0-3.062 1.447-5.476t4.306-3.813 7.082-1.4q1.755 0 3.47.253 1.715.255 3.29.674 1.576.42 2.865.946t2.196 1.076l-.494 4.741a18.5 18.5 0 0 0-3.54-1.886 21.3 21.3 0 0 0-3.706-1.12q-1.84-.37-3.424-.37-2.213 0-4.09.652-1.877.653-3.022 2.02-1.145 1.369-1.145 3.506 0 1.855.974 3.1.975 1.243 3.044 2.215t5.35 2.017q4.713 1.501 7.43 3.028 2.716 1.526 3.858 3.53 1.141 2.005 1.141 4.924 0 3.2-1.42 5.735-1.422 2.535-4.421 4.014t-7.717 1.48"/>
<path fill="#00494a" class="logos-fill-1" d="M5475.338 101c47.497 0 86 38.504 86 86s-38.503 86-86 86-86-38.504-86-86 38.504-86 86-86m0 13c-40.316 0-73 32.683-73 73s32.684 73 73 73 73-32.683 73-73-32.683-73-73-73"/>
</g>
</g>
</svg>