<svg xmlns="http://www.w3.org/2000/svg" viewBox="0 0 560 512"><g fill="#00494a"><g fill-rule="evenodd"><path d="M224.926 88.354c-3.748 1.303-6.903 2.446-7.04 2.515-.137.114-.228 19.13-.228 56.182v56.023h14.811l.16-18.057c.137-12.823.091-20.595-.114-26.766-.343-9.874-.275-10.766 1.142-13.737 1.623-3.36 5.098-6.126 10.309-8.16 3.246-1.28 5.463-1.737 8.366-1.76 2.925-.023 4.845.48 6.857 1.783 3.314 2.148 5.371 6.468 5.623 11.863.137 2.697.365 30.034.365 44.228v10.606l7.497-.046 7.497-.069.206-18.605c.229-18.72-.046-36.32-.571-40.686-.869-6.948-4-12.411-9.029-15.725-3.383-2.217-6.788-3.155-11.474-3.132-6.354 0-11.657 1.897-20.274 7.223-4.64 2.857-6.743 4.069-6.994 4.069-.137 0-.229-10.149-.275-25.052L231.692 86zM366.045 88.011c-1.874.709-4.503 1.623-5.805 1.989-3.109.914-3.818 1.348-4.572 2.788l-.594 1.166.068 53.783c.023 29.577.115 54.125.183 54.56l.137.776h14.606V144.88c0-46.423-.069-58.194-.32-58.172-.16 0-1.828.595-3.703 1.303M336.583 98.457a107 107 0 0 1-5.829 2.034c-1.486.457-3.017.983-3.36 1.166-1.051.549-1.783 1.486-2.103 2.72-.228.869-.274 12.114-.183 49.371.046 26.537.137 48.48.206 48.777l.114.549h14.88V150.16c0-42.194-.068-52.914-.32-52.914-.16.023-1.691.571-3.405 1.211"/><path fill-rule="nonzero" d="M89.91 101.543c-1.12.983-1.28 1.325-8.343 16.8-8.389 18.445-26.811 58.97-29.28 64.456-2.971 6.629-9.165 20.412-9.28 20.686-.091.251.663.297 3.337.297 3.749 0 5.029-.297 5.646-1.234.754-1.12 2.994-3.063 4.206-3.635 1.257-.594 6.88-2.674 16.274-6.034 27.314-9.783 39.451-14.034 39.588-13.874.115.091 1.532 3.269 3.2 7.017 4.366 9.966 6.309 14.08 7.04 15.017.343.48 1.12 1.143 1.737 1.509l1.097.64 7.863.091c7.063.046 7.863.023 7.863-.32 0-.8-1.051-3.223-5.76-13.211-2.674-5.669-5.303-11.223-5.828-12.366-.526-1.12-3.155-6.72-5.875-12.48-2.697-5.737-5.257-11.177-5.691-12.114-1.12-2.4-10.377-22.011-12-25.44-.754-1.577-1.737-3.634-2.171-4.548-.732-1.6-1.555-3.315-4.069-8.64-.64-1.326-1.989-4.252-3.04-6.492-2.171-4.617-2.834-5.668-3.931-6.354-1.052-.663-1.646-.594-2.583.229m8.685 46.925c6.218 13.966 11.269 25.44 11.246 25.44-.046.023-7.086 2.537-15.657 5.6-8.594 3.04-20.777 7.383-27.085 9.623-6.332 2.263-11.52 4.091-11.566 4.091-.023 0 .64-1.531 1.508-3.406.846-1.874 2.652-5.897 4.023-8.937 2.126-4.8 14.789-33.028 18.834-42.01.778-1.715 2.675-5.92 4.206-9.35 2.972-6.628 2.994-6.674 3.109-6.56.045.046 5.165 11.52 11.382 25.51"/><path d="M305.474 109.817c-4.526 1.554-7.68 2.766-8.503 3.269-.411.251-.982.868-1.257 1.394-.525.914-.525 1.188-.525 7.223v6.308l1.12-.183c2.354-.342 6.697-1.577 8.342-2.354 2.263-1.074 3.086-1.828 3.955-3.588.891-1.806 1.211-4.732 1.028-9.166-.137-3.04-.32-3.977-.823-3.954-.183.022-1.668.48-3.337 1.051M483.05 124.857c-2.674.32-7.04 1.486-9.28 2.446-4.96 2.148-8.845 5.782-11.063 10.308-1.302 2.652-1.714 4.366-1.85 7.497-.32 6.629 2.56 11.932 9.393 17.28 3.795 2.972 9.623 6.583 16.092 9.966 4.548 2.4 8.48 4.663 10.377 5.988 4.845 3.406 6.171 8.709 3.405 13.6-1.622 2.857-5.6 5.783-9.348 6.903-4.914 1.486-9.166.8-16.206-2.606-3.268-1.577-6.125-3.542-9.874-6.811-1.074-.937-2.011-1.714-2.103-1.714-.411 0-3.245 2.468-3.108 2.72 1.005 1.76 5.394 6.103 8.274 8.137 7.268 5.211 15.063 7.291 23.977 6.445 7.223-.708 12.503-2.605 16.937-6.102 3.406-2.697 5.897-6.263 7.314-10.492.663-1.943.8-2.697.892-5.325.182-4.8-.8-7.932-3.703-11.817-1.852-2.492-3.589-4.023-7.269-6.469-4.068-2.697-6.08-3.794-14.88-8.16-7.702-3.794-11.108-5.76-13.097-7.611-1.44-1.326-2.948-3.497-3.84-5.486-.617-1.371-.708-1.851-.708-3.84 0-2.103.068-2.423.777-3.886 1.417-2.857 4.32-5.028 8.228-6.102 1.212-.343 2.332-.435 5.143-.412 5.692.023 8.48.937 15.612 5.006 1.85 1.051 3.817 2.125 4.365 2.377 1.006.434 1.029.434 1.532 0 .822-.754 1.965-2.537 1.737-2.743-.595-.526-4.023-2.926-5.6-3.908-3.612-2.218-8.32-4.092-12.274-4.846-2.469-.48-7.383-.663-9.852-.343M175.418 125.108c-8.366.96-16.526 4.618-22.834 10.263-4.983 4.48-9.235 10.903-11.475 17.394-3.497 10.08-2.605 22.835 2.286 32.572 1.189 2.377 3.932 6.354 5.76 8.342 6.972 7.589 17.143 11.497 27.589 10.583 11.382-.96 19.84-6.491 27.474-17.965.823-1.235 1.714-2.72 1.965-3.338.709-1.577 1.898-6.08 1.555-5.874-1.829 1.12-3.955 2.88-6.629 5.463-1.783 1.737-3.954 3.634-4.8 4.251-15.108 10.652-32.982 4.435-40.457-14.08-3.794-9.44-3.474-19.61.96-29.05 2.332-4.938 5.966-8.755 10.926-11.452 6.057-3.291 14.331-3.771 21.005-1.166 3.452 1.326 7.498 3.932 10.126 6.514l1.029 1.006 1.554-1.577c.869-.869 1.577-1.669 1.577-1.806 0-.411-3.657-3.611-5.851-5.097-6.217-4.274-13.486-5.943-21.76-4.983"/><path fill-rule="nonzero" d="M413.61 125.246c-7.93 1.028-16.32 5.371-22.262 11.565-5.486 5.714-8.686 12.549-10.171 21.737-.618 3.794-.618 12.892 0 16.572.937 5.485 3.04 10.994 5.851 15.222 1.897 2.835 5.851 6.72 8.846 8.709 4.228 2.834 8.64 4.663 13.645 5.76 3.246.685 9.76.731 12.96.091 13.029-2.605 23.406-11.725 29.097-25.6l1.029-2.514-1.829-.068c-2.194-.092-2.057-.183-5.714 4.297-2.903 3.52-4.686 5.188-7.817 7.314-11.954 8.023-27.794 7.291-36.846-1.692-4.16-4.114-6.423-8.914-7.451-15.77-.434-2.972-.572-9.19-.252-12.252l.206-1.874h57.119l-.136-.64c-.092-.366-.526-2.72-1.006-5.235-1.189-6.377-2.171-9.028-4.663-12.708-2.537-3.726-6.423-7.086-10.743-9.326-2.834-1.463-7.177-2.88-10.285-3.383-2.217-.343-7.612-.457-9.577-.205m4.55 7.017c5.736 1.485 9.873 5.782 11.405 11.862.274 1.029.548 2.88.64 4.092l.16 2.217-12.092.16c-6.65.091-15.04.16-18.628.16h-6.514l.114-.891c.251-1.669 1.691-5.532 2.743-7.406 3.223-5.6 8.891-9.783 14.491-10.674 1.76-.275 5.623-.046 7.68.48"/><path d="M305.383 130.48c-2.377.845-5.257 1.805-6.377 2.148-2.492.709-3.612 1.646-4.046 3.337-.274 1.166-.343 62.057-.046 65.303l.137 1.691 7.383.069 7.383.046V166c0-20.389-.023-37.075-.069-37.075-.022 0-1.988.709-4.365 1.555M227.258 240.216c0 10.354.114 11.726 1.188 14.126 1.852 4.205 6.469 6.377 11.909 5.623 4.685-.64 7.84-3.703 8.754-8.503.137-.64.228-5.646.228-11.109v-9.92h-4.525l-.092 10.149-.068 10.126-.663 1.44c-.869 1.828-1.234 2.24-2.697 2.925-.915.434-1.6.549-2.995.549-2.034 0-3.29-.457-4.41-1.577-1.852-1.875-2.058-3.269-2.058-14.423v-9.189h-4.571zM251.737 230.616c0 .092 2.446 6.629 5.463 14.514l5.463 14.332h4.114l5.6-14.332c3.063-7.885 5.646-14.422 5.692-14.514.045-.091-1.029-.183-2.4-.183h-2.492l-4.045 10.492c-2.218 5.783-4.115 10.605-4.206 10.697-.092.114-1.646-3.772-3.474-8.64a4222 4222 0 0 0-4-10.697l-.709-1.852h-2.514c-1.372 0-2.492.092-2.492.183"/><path fill-rule="nonzero" d="M279.577 244.948v14.56l7.017-.069 7.017-.091 2.058-.732c4.708-1.668 7.794-4.937 8.982-9.577.503-1.92.503-6.263 0-8.16-1.211-4.64-4.48-8.114-9.12-9.646-1.874-.64-2.102-.662-8.937-.754l-7.017-.091zm14.172-9.6c2.811.868 4.822 2.674 5.782 5.12.732 1.897.892 5.897.32 7.862-1.44 4.96-4.937 6.812-12.731 6.812h-2.743v-20.457l4.023.137c2.789.091 4.434.251 5.349.526M310.068 244.948v14.582l6.058-.114c7.68-.16 9.462-.594 11.885-2.903 1.737-1.668 2.08-2.537 2.08-5.325 0-2.058-.068-2.56-.571-3.475-.709-1.394-1.829-2.56-2.972-3.154l-.914-.457 1.074-1.052c1.715-1.668 1.943-2.285 1.943-5.074 0-2.263-.046-2.491-.708-3.588-.96-1.532-2.4-2.629-4.389-3.269-1.44-.457-2.263-.526-7.566-.64l-5.92-.091zm12.046-9.509c1.44.709 1.966 1.691 1.806 3.406-.092 1.074-.252 1.394-.96 2.057-1.052.96-2.537 1.28-5.829 1.28h-2.514v-7.497l3.223.114c2.628.114 3.406.229 4.274.64m1.006 11.817c2.103 1.052 2.948 3.726 1.737 5.532-1.12 1.645-3.474 2.354-7.909 2.354h-2.331v-8.686l3.657.092c3.314.091 3.772.16 4.846.708"/></g><path d="m58.412 349 1.91-5.29q.999-2.769 1.91-5.269l3.862-10.685 3.58-9.9h5.202q.864 2.41 1.691 4.726l1.858 5.19 3.831 10.717 1.9 5.3q.977 2.721 1.856 5.211h-4.103a5242 5242 0 0 0-3.802-11.068l-5.67-16.507h-.382l-5.714 16.348q-.936 2.67-1.945 5.582A1008 1008 0 0 1 62.42 349zm5.775-7.827.335-3.104h15.783l.275 3.104zm39.59 8.304q-3.698 0-6.657-1.201t-5.034-3.372q-2.073-2.172-3.174-5.113t-1.1-6.412q0-4.716 1.936-8.35t5.396-5.689q3.46-2.055 8.045-2.056 1.542 0 3.009.22 1.466.219 2.777.593 1.31.375 2.42.81t1.924.89l-.361 3.8a22 22 0 0 0-3.3-1.627 17.4 17.4 0 0 0-3.147-.906 16.6 16.6 0 0 0-2.995-.282q-3.38 0-5.999 1.532-2.619 1.53-4.108 4.359-1.49 2.828-1.49 6.725 0 2.612.77 4.905a11.6 11.6 0 0 0 2.308 4.034q1.538 1.741 3.83 2.734 2.29.992 5.316.992 1.108 0 2.22-.142a16 16 0 0 0 2.211-.443q1.1-.3 2.161-.81 1.062-.51 2.068-1.222l.322 3.764q-.923.585-2.031 1.02a16 16 0 0 1-2.313.707q-1.204.274-2.472.407t-2.532.133m29.575 0q-3.697 0-6.657-1.201t-5.033-3.372q-2.075-2.172-3.174-5.113-1.1-2.941-1.1-6.412 0-4.716 1.935-8.35t5.396-5.689q3.46-2.055 8.045-2.056 1.543 0 3.01.22 1.465.219 2.776.593 1.31.375 2.42.81t1.925.89l-.362 3.8a22 22 0 0 0-3.299-1.627 17.4 17.4 0 0 0-3.147-.906 16.6 16.6 0 0 0-2.996-.282q-3.38 0-5.998 1.532-2.62 1.53-4.109 4.359-1.49 2.828-1.49 6.725.001 2.612.77 4.905a11.6 11.6 0 0 0 2.308 4.034q1.538 1.741 3.83 2.734t5.317.992q1.107 0 2.22-.142a16 16 0 0 0 2.21-.443q1.1-.3 2.162-.81 1.06-.51 2.067-1.222l.323 3.764q-.924.585-2.032 1.02a16 16 0 0 1-2.312.707q-1.205.274-2.472.407-1.269.132-2.533.133m15.455-.477v-31.144h10.531q3.56 0 5.93.841 2.372.84 3.557 2.695t1.186 4.902q0 2.54-.992 4.66-.99 2.117-3.308 3.395t-6.27 1.3l1.261-1.727 4.916 6.15q1.15 1.424 2.432 3.038t2.513 3.151 2.183 2.739h-4.629l-2.979-3.803a918 918 0 0 0-2.826-3.59l-5.584-7.196 2.423 1.951h-7.154v-3.268h5.916q2.733 0 4.508-.628 1.776-.627 2.643-2.039.868-1.412.868-3.742 0-1.959-.625-3.076t-1.636-1.648a6.3 6.3 0 0 0-2.186-.675 19 19 0 0 0-2.286-.144h-9.17l2.656-2.71V349zm28.926 0v-31.144h19.346v3.39h-17.655l2.187-2.815v29.977l-1.978-2.799h17.507V349zm3.016-14.139v-3.286h15.456v3.286H180.75M203.316 349v-31.143h10.932q3.612 0 6.403 1.038 2.791 1.04 4.71 3.04t2.908 4.86q.99 2.859.989 6.504 0 3.298-.877 6.148-.876 2.85-2.778 4.995t-4.995 3.352Q217.515 349 213.083 349h-9.767m3.956-3.29h5.831q4.456 0 7.096-1.633 2.638-1.632 3.795-4.458t1.157-6.387q0-2.74-.682-4.967-.681-2.227-2.093-3.821t-3.602-2.446q-2.19-.85-5.198-.851h-6.304v24.562m27.935 3.29v-31.143h4.015V349zm19.813 0v-30.57l1.564 2.944H244.33v-3.518h25.293v3.518h-12.254l1.595-2.945V349zm19.646 0v-31.144h19.346v3.39h-17.656l2.188-2.815v29.977l-1.979-2.799h17.507V349zm3.015-14.139v-3.286h15.457v3.286H277.68M300.25 349v-31.143h10.932q3.611 0 6.403 1.038 2.79 1.04 4.71 3.04t2.908 4.86q.989 2.859.989 6.504 0 3.298-.877 6.148-.876 2.85-2.779 4.995-1.902 2.145-4.995 3.352T310.016 349h-9.767m3.956-3.29h5.83q4.458 0 7.096-1.633 2.639-1.632 3.796-4.458 1.156-2.826 1.156-6.387 0-2.74-.681-4.967-.682-2.227-2.093-3.821t-3.603-2.446q-2.19-.85-5.198-.851h-6.303v24.562m44.943 3.762q-1.952 0-3.927-.352a28 28 0 0 1-3.647-.892q-1.672-.54-2.698-1.09l.366-3.73a23.4 23.4 0 0 0 3.057 1.41 20.6 20.6 0 0 0 3.23.924q1.654.33 3.384.33 1.94 0 3.5-.533 1.557-.534 2.465-1.702t.907-3.074q0-1.648-.937-2.728t-2.723-1.875-4.31-1.578q-2.976-.927-5.068-2.02-2.093-1.095-3.196-2.704t-1.103-4.09q0-2.43 1.148-4.348 1.149-1.917 3.42-3.029 2.271-1.11 5.625-1.111 1.393 0 2.755.2 1.363.202 2.614.536t2.275.751q1.023.418 1.744.854l-.393 3.766a14.7 14.7 0 0 0-2.81-1.498 17 17 0 0 0-2.945-.889 14 14 0 0 0-2.719-.295q-1.757 0-3.248.518t-2.4 1.605q-.91 1.088-.91 2.784 0 1.473.774 2.462.774.988 2.417 1.759t4.25 1.602q3.743 1.193 5.9 2.405t3.064 2.804q.907 1.59.907 3.91 0 2.541-1.129 4.554t-3.51 3.189-6.129 1.175m16.283-.472v-31.143h4.016V349zm15.77-31.144v27.626h15.51V349h-19.466v-31.143zm18.727 0 2.455 7.145q1.306 3.801 2.449 7.138l4.38 12.766h.381l4.42-12.842q1.167-3.396 2.433-7.066t2.448-7.14h4.246l-1.37 3.874q-.71 2.006-1.405 3.955-.697 1.948-1.297 3.642l-3.494 9.832q-.801 2.257-1.72 4.86a868 868 0 0 1-1.773 4.98h-5.368l-1.78-4.984q-.947-2.649-1.76-4.888l-3.5-9.772q-.595-1.666-1.3-3.627-.703-1.96-1.426-3.983-.722-2.025-1.393-3.89zM381.2 345.482h-1.487l1.488 2.913zM428.052 349v-31.144h19.346v3.39h-17.655l2.187-2.815v29.977l-1.978-2.799h17.507V349zm3.016-14.139v-3.286h15.456v3.286h-15.456M453.63 349v-31.144h10.531q3.56 0 5.93.841 2.372.84 3.557 2.695t1.186 4.902q0 2.54-.992 4.66-.99 2.117-3.308 3.395t-6.27 1.3l1.261-1.727 4.916 6.15q1.15 1.424 2.432 3.038t2.513 3.151 2.182 2.739h-4.628l-2.979-3.803a918 918 0 0 0-2.826-3.59l-5.584-7.196 2.423 1.951h-7.154v-3.268h5.916q2.733 0 4.508-.628 1.776-.627 2.643-2.039.868-1.412.868-3.742 0-1.959-.625-3.076t-1.636-1.648a6.3 6.3 0 0 0-2.186-.675 19 19 0 0 0-2.286-.144h-9.17l2.656-2.71V349zm36.09-2.588v-20.93h3.295v20.93zm-8.5-8.853v-3.224h20.295v3.224H481.22m-288.627 53.913q-1.952 0-3.926-.352a28 28 0 0 1-3.647-.892q-1.673-.54-2.699-1.09l.367-3.73a23.4 23.4 0 0 0 3.057 1.41 20.6 20.6 0 0 0 3.23.924q1.653.33 3.383.33 1.94 0 3.5-.533 1.558-.534 2.466-1.702.907-1.167.907-3.074 0-1.648-.938-2.728t-2.722-1.875-4.311-1.578q-2.976-.927-5.068-2.02-2.092-1.095-3.196-2.704-1.103-1.61-1.103-4.09 0-2.43 1.149-4.348 1.148-1.917 3.42-3.029 2.27-1.11 5.624-1.111 1.393 0 2.756.2 1.363.202 2.613.536t2.275.751 1.744.854l-.393 3.766a14.7 14.7 0 0 0-2.81-1.498 17 17 0 0 0-2.944-.889 14 14 0 0 0-2.72-.295q-1.756 0-3.247.518t-2.4 1.605q-.91 1.088-.91 2.784 0 1.473.774 2.462.773.988 2.417 1.759t4.249 1.602q3.743 1.193 5.9 2.405 2.159 1.212 3.065 2.804.906 1.59.906 3.91 0 2.541-1.128 4.554-1.13 2.013-3.511 3.189-2.381 1.175-6.129 1.175m28.16.005q-4.357 0-7.08-1.498-2.724-1.5-3.998-4.214t-1.275-6.345v-19.563h3.945v19.17q0 2.83.826 4.856t2.671 3.103q1.845 1.077 4.898 1.077 3.078 0 4.905-1.077 1.829-1.078 2.632-3.103t.803-4.888v-19.138h3.945v19.575q0 3.624-1.29 6.336-1.288 2.713-4 4.21-2.71 1.5-6.983 1.499m19.62-.477v-31.144h11.02q3.547 0 5.878.94 2.332.938 3.485 2.91 1.153 1.971 1.153 5.067 0 2.847-1.055 5.063-1.054 2.217-3.534 3.486-2.48 1.268-6.76 1.268h-6.815v-3.268h6.066q2.798 0 4.58-.658 1.782-.659 2.637-2.094.854-1.435.854-3.771 0-1.928-.632-3.06-.63-1.132-1.641-1.69a6.5 6.5 0 0 0-2.193-.732 16 16 0 0 0-2.293-.175h-8.772l1.926-2.71V391zm27.06 0v-31.144h11.02q3.547 0 5.879.94 2.331.938 3.484 2.91 1.153 1.971 1.153 5.067 0 2.847-1.054 5.063-1.056 2.217-3.534 3.486-2.48 1.268-6.76 1.268h-6.815v-3.268h6.066q2.798 0 4.58-.658 1.781-.659 2.636-2.094t.855-3.771q0-1.928-.632-3.06-.631-1.132-1.642-1.69a6.5 6.5 0 0 0-2.192-.732 16 16 0 0 0-2.293-.175h-8.772l1.926-2.71V391zm27.066 0v-31.143h3.956v30.538l-1.488-2.913h16.998V391zm24.716 0v-31.143h4.016V391zm11.81 0v-31.144h19.345v3.39h-17.655l2.187-2.815v29.977l-1.978-2.799h17.507V391zm3.015-14.139v-3.286h15.456v3.286H334.04M356.602 391v-31.144h10.532q3.559 0 5.93.841 2.37.84 3.556 2.695t1.186 4.902q0 2.54-.992 4.66-.99 2.117-3.308 3.395t-6.27 1.3l1.261-1.727 4.916 6.15q1.15 1.424 2.432 3.038t2.513 3.151T380.54 391h-4.629l-2.979-3.803q-1.436-1.833-2.826-3.59l-5.584-7.196 2.424 1.951h-7.155v-3.268h5.916q2.733 0 4.508-.628 1.776-.627 2.643-2.039.868-1.412.868-3.742 0-1.959-.625-3.076t-1.635-1.648a6.3 6.3 0 0 0-2.186-.675 19 19 0 0 0-2.287-.144h-9.17l2.656-2.71V391z"/></g></svg>