<svg xmlns="http://www.w3.org/2000/svg" viewBox="0 0 350 512"><g fill="#00494a" fill-rule="evenodd"><path fill-rule="nonzero" d="M159.136 3.797c-19.562 1.881-40.352 7.85-59.26 17.09-35.769 17.417-62.289 43.666-80.378 79.726-18.58 36.96-22.836 79.808-12.032 121.02 10.722 40.967 36.751 77.028 73.093 101.232 9.822 6.624 27.911 15.291 40.516 19.462 32.905 10.957 68.428 11.774 102.233 2.29 43.544-12.185 82.587-43.176 104.85-83.161 24.884-44.729 28.649-97.389 10.56-145.879C315.472 53.432 257.603 9.685 190.813 3.797c-11.787-1.063-20.3-1.063-31.677 0m44.773 11.857c33.15 6.051 61.388 20.36 84.88 43.011 15.388 14.8 25.7 28.783 34.459 46.773 37.979 77.845 9.33 170.818-66.218 214.402-39.288 22.65-89.709 27.556-133.335 13.083-53.94-17.99-95.03-63.372-107.962-119.14-3.929-16.926-5.075-42.847-2.62-59.692C23.755 80.907 80.314 24.894 153.98 14.427c12.032-1.717 37.242-1.063 49.929 1.227"/><path fill-rule="nonzero" d="m162.574 38.795-13.751 13.656-18.417-6.706c-14.242-5.07-18.662-6.378-19.153-5.478-.409.572-2.537 6.46-4.91 12.92-2.293 6.541-4.42 12.592-4.748 13.41-.573 1.39-2.21 1.472-16.862 1.472H68.527l-.246 16.926-.245 16.927-14.979 5.397c-9.658 3.434-15.06 5.723-14.979 6.46.082.572 2.865 8.83 6.221 18.234s6.139 17.58 6.139 18.071-6.22 7.033-13.751 14.637L22.936 178.46l14.324 14.31 14.324 14.31-6.548 18.234c-3.602 10.058-6.467 18.317-6.385 18.398.082.082 6.794 2.454 14.815 5.316l14.57 5.151.245 16.027.246 15.945H99.22l4.993 14.228c2.783 7.85 5.402 14.065 5.893 13.901.491-.245 8.758-3.189 18.417-6.623l17.516-6.215 14.324 14.228 14.242 14.31 13.751-13.737c7.612-7.523 14.078-13.738 14.488-13.738.327 0 8.84 2.944 18.826 6.46 9.904 3.598 18.334 6.215 18.662 5.806.409-.327 2.864-6.95 5.565-14.637l4.993-13.983h32.413l.246-16.763.246-16.844 15.06-5.397c10.313-3.68 14.897-5.724 14.815-6.542-.163-.654-2.946-8.831-6.22-18.153-3.356-9.322-6.057-17.417-6.057-18.071 0-.572 6.057-7.114 13.505-14.555l13.587-13.574-13.996-13.901c-7.694-7.686-13.915-14.392-13.915-14.882-.082-.41 2.701-8.34 5.975-17.58 3.356-9.16 6.14-17.254 6.22-17.909.165-.899-4.173-2.78-14.405-6.46l-14.57-5.233-.245-16.108-.246-16.11H252.61l-5.074-13.982-4.993-14.064-13.342 4.66c-7.285 2.617-15.716 5.56-18.744 6.542l-5.402 1.799-13.915-13.9c-7.694-7.687-14.16-13.984-14.406-13.984-.245 0-6.548 6.215-14.16 13.656m31.43 40.885 15.88 15.864h22.755c16.615 0 23.163.327 23.9 1.063s1.064 7.277 1.064 23.877v22.732l16.289 16.354c10.067 9.976 16.37 16.926 16.37 17.99 0 .98-6.385 8.013-16.37 17.989l-16.289 16.436v22.895c0 21.751-.163 22.978-1.719 23.795-.982.573-10.15.9-23.818.9h-22.182l-15.961 15.863c-11.705 11.694-16.534 15.864-18.007 15.864s-6.303-4.17-18.008-15.864l-15.96-15.863h-22.182c-13.67 0-22.837-.327-23.819-.9-1.555-.817-1.637-2.044-1.637-23.795v-22.895l-16.37-16.436c-9.986-9.976-16.29-17.008-16.29-17.99-.08-1.063 6.222-8.013 16.29-17.99l16.37-16.353v-22.732c0-16.6.246-23.141.982-23.877.737-.736 7.285-1.063 23.9-1.063h22.755l15.961-15.864c12.196-12.184 16.37-15.863 18.008-15.863s5.811 3.68 18.089 15.863"/><path d="m164.293 84.423-11.132 11.12h9.086c5.893 0 9.412.41 10.067 1.064.737.736 1.064 9.076 1.064 32.135 0 26.494.164 31.155 1.228 32.054s1.555.9 2.62 0c1.063-.9 1.309-5.56 1.309-32.054 0-23.059.245-31.4.982-32.135.655-.655 4.175-1.063 10.068-1.063h9.085L187.54 84.423c-6.14-6.133-11.378-11.203-11.623-11.203-.246 0-5.484 5.07-11.623 11.203M102.004 119.42v16.028l6.22-6.215c3.602-3.516 7.04-6.215 8.022-6.215 1.064 0 9.659 8.014 23.573 21.915 15.716 15.7 22.428 21.914 23.819 21.914q1.964 0 1.964-1.472c0-.899-9.822-11.366-21.936-23.468-16.861-16.844-21.854-22.323-21.854-23.958 0-1.472 1.8-4.007 6.139-8.423l6.22-6.214h-32.167z"/><path d="m138.264 110.426-7.039 7.114 17.189 17.09 17.188 17.172v-48.49h-20.217zM186.229 127.598v24.204l17.189-17.172 17.188-17.09-7.039-7.114-7.121-7.114h-20.217z"/><path d="M223.88 109.526c4.339 4.416 6.221 6.95 6.221 8.423 0 1.635-5.075 7.114-21.936 23.958-12.114 12.102-21.936 22.569-21.936 23.468q0 1.472 1.964 1.472c1.392 0 8.104-6.214 23.82-21.914 13.914-13.901 22.508-21.915 23.572-21.915.982 0 4.42 2.699 8.022 6.215l6.22 6.215V103.31H217.66zM109.043 139.618l-7.039 7.114v20.115h48.538l-17.189-17.171c-9.413-9.486-17.189-17.172-17.189-17.172z"/><path d="m218.478 149.676-17.188 17.171h48.537V146.65l-7.121-7.114-7.121-7.032zM82.687 165.948 71.474 177.15l11.377 11.366 11.46 11.367v-9.077c0-5.887.326-9.404.981-10.058.737-.736 9.086-1.063 32.168-1.063 26.52 0 31.185-.163 32.167-1.226.819-1.063.819-1.554 0-2.617-.982-1.063-5.647-1.308-32.25-1.308-24.636 0-31.348-.164-32.085-1.063-.573-.654-1.064-5.07-1.228-9.894l-.245-8.75z"/><path d="M257.603 163.495c0 5.887-.41 9.403-1.064 10.058-.737.735-9.085.98-32.167.98-26.52 0-31.186.246-32.086 1.31-.9 1.062-.9 1.553 0 2.616s5.566 1.226 32.086 1.226c23.082 0 31.43.327 32.167 1.063.655.654 1.064 4.17 1.064 10.058v9.077l11.378-11.367 11.377-11.366-11.377-11.366-11.378-11.366zM170.76 173.47c-3.357 4.253-.328 10.55 5.156 10.55s8.512-6.297 5.156-10.55c-1.473-1.798-2.537-2.37-5.156-2.37-2.62 0-3.684.572-5.157 2.37M102.004 198.002v9.649l7.121 7.114 7.121 7.032 16.698-16.763 16.779-16.763h-47.719z"/><path d="M139.82 210.186c-12.606 12.592-22.673 21.914-23.574 21.914-.818 0-4.42-2.78-7.858-6.133l-6.384-6.214v31.236h31.349l-5.811-5.806c-4.011-4.088-5.73-6.46-5.73-7.931 0-1.636 4.993-7.196 21.854-24.04 12.114-12.021 21.936-22.57 21.936-23.387q0-1.472-1.964-1.472c-1.31 0-8.185 6.296-23.819 21.833M186.229 189.825c0 .818 9.822 11.366 21.936 23.386 16.861 16.845 21.936 22.405 21.936 24.04 0 1.472-1.8 3.844-5.811 7.932l-5.812 5.806h31.349v-31.236l-6.384 6.214c-3.438 3.353-7.04 6.133-7.858 6.133-.9 0-11.05-9.404-23.573-21.914-15.552-15.455-22.509-21.915-23.9-21.915-1.228 0-1.883.573-1.883 1.554"/><path d="m218.888 205.034 16.697 16.763 7.121-7.032 7.121-7.114v-19.38h-47.719zM174.36 193.668c-.736.736-.982 9.077-.982 32.136v31.073l-1.964 1.39c-1.392.98-4.01 1.308-9.659 1.308h-7.775l10.968 10.957 10.968 10.957 10.968-10.957 10.968-10.957h-8.267c-6.876 0-8.513-.245-9.659-1.554-1.31-1.39-1.391-4.906-1.391-32.463 0-30.01-.246-32.953-2.62-32.953-.245 0-.982.49-1.554 1.063"/><path d="m148.168 219.916-16.943 16.927 7.121 7.114 7.121 7.032h20.135v-24.04c0-13.247-.081-24.04-.245-24.04-.082 0-7.858 7.604-17.189 17.007M186.229 226.703v24.286h20.217l7.121-7.114 7.039-7.114-17.188-17.09-17.189-17.172zM52.075 393.76c-4.748 3.19-6.385 6.869-6.385 14.8 0 7.523 1.474 11.203 5.73 14.392 2.865 2.126 8.758 2.78 13.424 1.554 3.11-.818 3.683-1.309 3.683-3.19 0-1.798-.327-2.125-1.555-1.635-6.548 2.699-10.395 2.29-13.506-1.472-2.783-3.189-3.356-5.56-2.864-11.856.654-9.077 6.138-13.002 13.996-10.14 3.683 1.309 3.765 1.309 4.093-.572.49-2.617-2.292-3.843-8.677-3.843-3.765 0-5.73.49-7.94 1.962"/><path fill-rule="nonzero" d="M79.577 393.76c-4.748 3.19-6.385 6.869-6.385 14.8s1.637 11.53 6.549 14.883c2.455 1.635 3.765 1.962 8.103 1.635 9.249-.49 13.26-5.151 13.996-15.782.491-7.522-1.637-13.083-5.975-15.781-4.174-2.453-12.36-2.372-16.288.245m12.85 2.698c1.31.655 2.865 2.208 3.356 3.435 1.31 2.862 1.392 13.083.082 16.681-1.882 5.56-9.904 7.032-14.651 2.78-2.865-2.535-2.865-2.535-2.865-10.793 0-8.341 0-8.341 2.865-10.794 3.11-2.862 7.285-3.353 11.213-1.309"/><path d="M109.78 408.56c0 16.11 0 16.682 1.719 16.682 1.637 0 1.719-.573 1.719-12.838 0-7.114.245-12.92.573-12.92.409 0 4.338 5.806 8.758 12.92 7.284 11.775 8.185 12.838 10.477 12.838h2.537v-33.444h-4.256l-.246 13.001-.245 12.92-8.185-12.92c-7.285-11.693-8.35-13.001-10.477-13.001h-2.374zM147.022 394.741c-5.238 5.234-3.683 10.794 4.256 14.8 5.976 2.944 7.449 4.416 7.449 7.278 0 4.743-5.566 6.378-11.623 3.271-1.8-.9-3.438-1.717-3.601-1.717-.164 0-.246 1.145-.246 2.617 0 2.126.41 2.616 3.192 3.352 8.84 2.453 15.961-.818 17.107-7.768.655-3.761-1.8-6.95-7.694-9.894-7.776-3.843-9.167-6.297-5.73-9.73 2.047-2.045 5.976-2.209 9.413-.492 2.374 1.309 2.456 1.227 2.783-1.226.41-2.862-.654-3.434-7.775-3.434-4.093 0-4.912.327-7.53 2.943M167.894 392.37c-.327.327-.573 1.063-.573 1.717 0 .818 1.392 1.145 4.748 1.145h4.747v30.01l2.292.081h2.374l-.246-13.083c-.327-17.172-.41-17.008 4.993-17.008 3.765 0 4.338-.245 4.338-1.717 0-1.636-.573-1.717-11.05-1.717-6.057 0-11.295.245-11.623.572M197.443 408.56v16.682h18.907v-2.126c0-2.126-.164-2.126-7.366-2.126h-7.285v-11.203h6.057c5.402 0 5.975-.163 5.975-1.717s-.573-1.717-6.057-1.717h-6.057l.246-5.315.245-5.397h7.04c6.63 0 7.038-.082 7.448-1.88.327-1.963.245-1.963-9.413-1.963h-9.74zM223.226 408.56v16.682h8.103c4.502 0 8.185-.327 8.185-.736 0-.41.246-1.39.491-2.126.491-1.227-.41-1.39-5.975-1.39h-6.548v-29.192h-4.256zM245.571 408.56v16.682h8.103c4.502 0 8.185-.327 8.185-.736 0-.41.246-1.39.492-2.126.49-1.227-.41-1.39-5.976-1.39h-6.548v-29.192h-4.256zM267.916 408.561v16.681h4.666v-33.444h-4.666z"/><path fill-rule="nonzero" d="M284.778 407.825c-3.192 8.913-5.73 16.435-5.73 16.844 0 .327.9.573 2.047.573 1.8 0 2.21-.573 3.11-4.17.982-4.253 1.064-4.253 4.584-4.58 1.964-.082 5.402-.082 7.612.082l4.01.245.983 4.252c.9 3.598 1.31 4.17 3.11 4.17 1.146 0 2.046-.408 2.046-1.062 0-.573-2.292-8.014-5.075-16.518l-5.074-15.455-2.947-.245-2.947-.245zm11.705-2.535 2.21 7.114-2.702.163c-3.274.082-7.775-.163-8.185-.654-.409-.245.9-4.416 3.52-11.448 1.964-5.397 2.128-5.233 5.157 4.825M191.795 464.737c-6.385 1.553-11.214 5.724-14.079 12.02-2.619 5.887-2.537 18.644.246 24.531 3.683 7.85 8.758 10.712 18.744 10.712 9.904-.082 16.125-3.761 19.972-12.02 2.619-5.724 2.619-20.361-.164-25.43-4.502-8.423-14.324-12.348-24.72-9.813m11.05 9.649c2.7 1.39 4.01 6.132 4.01 14.31 0 4.17-.409 8.83-.982 10.303-2.373 7.032-14.16 6.95-17.189-.082-1.8-4.252-1.555-18.399.328-21.915 2.292-4.088 8.594-5.315 13.833-2.616M14.833 465.8c-.246.654-3.602 10.957-7.449 22.977C3.537 500.88.181 511.02.017 511.346c-.245.327 2.129.654 5.239.654h5.566l.49-3.189c1.229-7.196 1.229-7.196 10.069-6.95l7.94.245.654 2.616c.327 1.39.819 3.598 1.064 4.907.491 2.29.737 2.371 6.139 2.371 5.32 0 5.566-.082 5.075-1.962-.246-1.064-3.356-11.53-6.794-23.387l-6.303-21.424-6.957-.245c-5.156-.245-7.12 0-7.366.818m9.658 16.763c1.064 4.17 2.128 8.422 2.456 9.485.49 1.88.245 1.88-5.239 1.88-4.338 0-5.648-.245-5.648-1.226s2.62-9.976 4.748-16.517c.818-2.454 1.8-.655 3.683 6.378M49.947 488.368 50.029 512H60.75v-14.31l5.566-.572c6.139-.573 10.886-2.617 14.324-6.297 3.11-3.189 4.174-6.296 4.174-11.693 0-6.214-2.128-10.057-6.875-12.429-3.438-1.717-5.075-1.962-15.961-1.962H49.865zm19.726-14.882c4.502 2.044 4.83 10.303.573 13.901-1.8 1.472-3.11 1.88-5.893 1.554l-3.602-.327v-7.441c0-4.17.246-7.769.573-8.096.9-.9 6.057-.654 8.349.41M92.1 488.368V512h10.804v-14.31l5.484-.572c6.221-.573 10.969-2.617 14.406-6.297 3.029-3.189 4.175-6.296 4.093-11.693 0-6.214-2.046-10.057-6.794-12.429-3.438-1.717-5.075-1.962-15.96-1.962H92.017zm19.726-14.882c4.502 2.044 4.83 10.303.573 13.901-1.882 1.472-3.11 1.88-5.975 1.554l-3.52-.327v-7.441c0-4.17.246-7.769.573-8.096.9-.9 5.976-.654 8.35.41M134.172 488.368l.081 23.632h10.723v-15.455h6.875l3.847 7.687c3.684 7.36 4.011 7.768 6.712 7.768 3.11 0 9.25-1.554 9.25-2.29 0-.327-2.374-3.925-5.157-8.095-2.865-4.088-5.157-7.85-5.157-8.34s.9-1.472 2.128-2.208c5.239-3.516 7.367-14.31 3.847-20.116-3.028-4.906-7.203-6.132-21.117-6.132l-12.114-.082zm19.726-14.882c2.946 1.308 4.174 5.233 3.11 9.404-1.064 3.925-2.865 5.07-8.103 5.07h-3.93v-7.196c0-3.925.247-7.36.574-7.687.9-.9 6.057-.654 8.349.41"/><path d="M222.653 466.29c.245.818 2.619 8.832 5.32 17.826 2.62 8.913 5.566 18.89 6.466 22.078l1.72 5.806h13.586l6.876-21.26c3.765-11.693 7.121-22.324 7.448-23.632l.573-2.371h-5.238c-5.075 0-5.239.163-5.73 2.371-1.882 9.813-9.904 34.916-10.722 34.017-.573-.573-5.975-21.097-8.922-34.017-.573-2.29-.737-2.371-6.22-2.371-4.912 0-5.567.245-5.157 1.553M271.354 488.368V512l15.225-.164 15.224-.245.245-4.579.328-4.58-10.15.246-10.15.327-.245-5.397-.327-5.396h16.452v-8.586h-15.47v-10.303h19.808v-2.29c0-1.308.246-3.27.491-4.334l.491-1.962h-31.922z"/><path fill-rule="nonzero" d="M309.579 488.287V512h11.295c16.452 0 22.1-2.453 26.684-11.775 2.128-4.416 2.373-5.887 2.373-13.574 0-7.523-.245-8.995-2.128-12.429-1.146-2.044-3.847-4.988-5.893-6.378l-3.683-2.617-14.324-.327-14.324-.245zm24.391-13.493c3.029 2.127 4.42 6.379 4.42 14.065 0 12.593-2.864 15.373-14.897 14.719l-3.192-.164V491.64c0-6.541.246-13.247.573-15.046l.491-3.27h5.32c3.438 0 5.976.49 7.285 1.471"/></g></svg>