<svg xmlns="http://www.w3.org/2000/svg" viewBox="0 0 560 512"><g fill="#00494a"><g fill-rule="evenodd"><path d="M224.926 88.354c-3.748 1.303-6.903 2.446-7.04 2.515-.137.114-.228 19.13-.228 56.182v56.023h14.811l.16-18.057c.137-12.823.091-20.595-.114-26.766-.343-9.874-.275-10.766 1.142-13.737 1.623-3.36 5.098-6.126 10.309-8.16 3.246-1.28 5.463-1.737 8.366-1.76 2.925-.023 4.845.48 6.857 1.783 3.314 2.148 5.371 6.468 5.623 11.863.137 2.697.365 30.034.365 44.228v10.606l7.497-.046 7.497-.069.206-18.605c.229-18.72-.046-36.32-.571-40.686-.869-6.948-4-12.411-9.029-15.725-3.383-2.217-6.788-3.155-11.474-3.132-6.354 0-11.657 1.897-20.274 7.223-4.64 2.857-6.743 4.069-6.994 4.069-.137 0-.229-10.149-.275-25.052L231.692 86zM366.045 88.011c-1.874.709-4.503 1.623-5.805 1.989-3.109.914-3.818 1.348-4.572 2.788l-.594 1.166.068 53.783c.023 29.577.115 54.125.183 54.56l.137.776h14.606V144.88c0-46.423-.069-58.194-.32-58.172-.16 0-1.828.595-3.703 1.303M336.583 98.457a107 107 0 0 1-5.829 2.034c-1.486.457-3.017.983-3.36 1.166-1.051.549-1.783 1.486-2.103 2.72-.228.869-.274 12.114-.183 49.371.046 26.537.137 48.48.206 48.777l.114.549h14.88V150.16c0-42.194-.068-52.914-.32-52.914-.16.023-1.691.571-3.405 1.211"/><path fill-rule="nonzero" d="M89.91 101.543c-1.12.983-1.28 1.325-8.343 16.8-8.389 18.445-26.811 58.97-29.28 64.456-2.971 6.629-9.165 20.412-9.28 20.686-.091.251.663.297 3.337.297 3.749 0 5.029-.297 5.646-1.234.754-1.12 2.994-3.063 4.206-3.635 1.257-.594 6.88-2.674 16.274-6.034 27.314-9.783 39.451-14.034 39.588-13.874.115.091 1.532 3.269 3.2 7.017 4.366 9.966 6.309 14.08 7.04 15.017.343.48 1.12 1.143 1.737 1.509l1.097.64 7.863.091c7.063.046 7.863.023 7.863-.32 0-.8-1.051-3.223-5.76-13.211-2.674-5.669-5.303-11.223-5.828-12.366-.526-1.12-3.155-6.72-5.875-12.48-2.697-5.737-5.257-11.177-5.691-12.114-1.12-2.4-10.377-22.011-12-25.44-.754-1.577-1.737-3.634-2.171-4.548-.732-1.6-1.555-3.315-4.069-8.64-.64-1.326-1.989-4.252-3.04-6.492-2.171-4.617-2.834-5.668-3.931-6.354-1.052-.663-1.646-.594-2.583.229m8.685 46.925c6.218 13.966 11.269 25.44 11.246 25.44-.046.023-7.086 2.537-15.657 5.6-8.594 3.04-20.777 7.383-27.085 9.623-6.332 2.263-11.52 4.091-11.566 4.091-.023 0 .64-1.531 1.508-3.406.846-1.874 2.652-5.897 4.023-8.937 2.126-4.8 14.789-33.028 18.834-42.01.778-1.715 2.675-5.92 4.206-9.35 2.972-6.628 2.994-6.674 3.109-6.56.045.046 5.165 11.52 11.382 25.51"/><path d="M305.474 109.817c-4.526 1.554-7.68 2.766-8.503 3.269-.411.251-.982.868-1.257 1.394-.525.914-.525 1.188-.525 7.223v6.308l1.12-.183c2.354-.342 6.697-1.577 8.342-2.354 2.263-1.074 3.086-1.828 3.955-3.588.891-1.806 1.211-4.732 1.028-9.166-.137-3.04-.32-3.977-.823-3.954-.183.022-1.668.48-3.337 1.051M483.05 124.857c-2.674.32-7.04 1.486-9.28 2.446-4.96 2.148-8.845 5.782-11.063 10.308-1.302 2.652-1.714 4.366-1.85 7.497-.32 6.629 2.56 11.932 9.393 17.28 3.795 2.972 9.623 6.583 16.092 9.966 4.548 2.4 8.48 4.663 10.377 5.988 4.845 3.406 6.171 8.709 3.405 13.6-1.622 2.857-5.6 5.783-9.348 6.903-4.914 1.486-9.166.8-16.206-2.606-3.268-1.577-6.125-3.542-9.874-6.811-1.074-.937-2.011-1.714-2.103-1.714-.411 0-3.245 2.468-3.108 2.72 1.005 1.76 5.394 6.103 8.274 8.137 7.268 5.211 15.063 7.291 23.977 6.445 7.223-.708 12.503-2.605 16.937-6.102 3.406-2.697 5.897-6.263 7.314-10.492.663-1.943.8-2.697.892-5.325.182-4.8-.8-7.932-3.703-11.817-1.852-2.492-3.589-4.023-7.269-6.469-4.068-2.697-6.08-3.794-14.88-8.16-7.702-3.794-11.108-5.76-13.097-7.611-1.44-1.326-2.948-3.497-3.84-5.486-.617-1.371-.708-1.851-.708-3.84 0-2.103.068-2.423.777-3.886 1.417-2.857 4.32-5.028 8.228-6.102 1.212-.343 2.332-.435 5.143-.412 5.692.023 8.48.937 15.612 5.006 1.85 1.051 3.817 2.125 4.365 2.377 1.006.434 1.029.434 1.532 0 .822-.754 1.965-2.537 1.737-2.743-.595-.526-4.023-2.926-5.6-3.908-3.612-2.218-8.32-4.092-12.274-4.846-2.469-.48-7.383-.663-9.852-.343M175.418 125.108c-8.366.96-16.526 4.618-22.834 10.263-4.983 4.48-9.235 10.903-11.475 17.394-3.497 10.08-2.605 22.835 2.286 32.572 1.189 2.377 3.932 6.354 5.76 8.342 6.972 7.589 17.143 11.497 27.589 10.583 11.382-.96 19.84-6.491 27.474-17.965.823-1.235 1.714-2.72 1.965-3.338.709-1.577 1.898-6.08 1.555-5.874-1.829 1.12-3.955 2.88-6.629 5.463-1.783 1.737-3.954 3.634-4.8 4.251-15.108 10.652-32.982 4.435-40.457-14.08-3.794-9.44-3.474-19.61.96-29.05 2.332-4.938 5.966-8.755 10.926-11.452 6.057-3.291 14.331-3.771 21.005-1.166 3.452 1.326 7.498 3.932 10.126 6.514l1.029 1.006 1.554-1.577c.869-.869 1.577-1.669 1.577-1.806 0-.411-3.657-3.611-5.851-5.097-6.217-4.274-13.486-5.943-21.76-4.983"/><path fill-rule="nonzero" d="M413.61 125.246c-7.93 1.028-16.32 5.371-22.262 11.565-5.486 5.714-8.686 12.549-10.171 21.737-.618 3.794-.618 12.892 0 16.572.937 5.485 3.04 10.994 5.851 15.222 1.897 2.835 5.851 6.72 8.846 8.709 4.228 2.834 8.64 4.663 13.645 5.76 3.246.685 9.76.731 12.96.091 13.029-2.605 23.406-11.725 29.097-25.6l1.029-2.514-1.829-.068c-2.194-.092-2.057-.183-5.714 4.297-2.903 3.52-4.686 5.188-7.817 7.314-11.954 8.023-27.794 7.291-36.846-1.692-4.16-4.114-6.423-8.914-7.451-15.77-.434-2.972-.572-9.19-.252-12.252l.206-1.874h57.119l-.136-.64c-.092-.366-.526-2.72-1.006-5.235-1.189-6.377-2.171-9.028-4.663-12.708-2.537-3.726-6.423-7.086-10.743-9.326-2.834-1.463-7.177-2.88-10.285-3.383-2.217-.343-7.612-.457-9.577-.205m4.55 7.017c5.736 1.485 9.873 5.782 11.405 11.862.274 1.029.548 2.88.64 4.092l.16 2.217-12.092.16c-6.65.091-15.04.16-18.628.16h-6.514l.114-.891c.251-1.669 1.691-5.532 2.743-7.406 3.223-5.6 8.891-9.783 14.491-10.674 1.76-.275 5.623-.046 7.68.48"/><path d="M305.383 130.48c-2.377.845-5.257 1.805-6.377 2.148-2.492.709-3.612 1.646-4.046 3.337-.274 1.166-.343 62.057-.046 65.303l.137 1.691 7.383.069 7.383.046V166c0-20.389-.023-37.075-.069-37.075-.022 0-1.988.709-4.365 1.555M227.258 240.216c0 10.354.114 11.726 1.188 14.126 1.852 4.205 6.469 6.377 11.909 5.623 4.685-.64 7.84-3.703 8.754-8.503.137-.64.228-5.646.228-11.109v-9.92h-4.525l-.092 10.149-.068 10.126-.663 1.44c-.869 1.828-1.234 2.24-2.697 2.925-.915.434-1.6.549-2.995.549-2.034 0-3.29-.457-4.41-1.577-1.852-1.875-2.058-3.269-2.058-14.423v-9.189h-4.571zM251.737 230.616c0 .092 2.446 6.629 5.463 14.514l5.463 14.332h4.114l5.6-14.332c3.063-7.885 5.646-14.422 5.692-14.514.045-.091-1.029-.183-2.4-.183h-2.492l-4.045 10.492c-2.218 5.783-4.115 10.605-4.206 10.697-.092.114-1.646-3.772-3.474-8.64a4222 4222 0 0 0-4-10.697l-.709-1.852h-2.514c-1.372 0-2.492.092-2.492.183"/><path fill-rule="nonzero" d="M279.577 244.948v14.56l7.017-.069 7.017-.091 2.058-.732c4.708-1.668 7.794-4.937 8.982-9.577.503-1.92.503-6.263 0-8.16-1.211-4.64-4.48-8.114-9.12-9.646-1.874-.64-2.102-.662-8.937-.754l-7.017-.091zm14.172-9.6c2.811.868 4.822 2.674 5.782 5.12.732 1.897.892 5.897.32 7.862-1.44 4.96-4.937 6.812-12.731 6.812h-2.743v-20.457l4.023.137c2.789.091 4.434.251 5.349.526M310.068 244.948v14.582l6.058-.114c7.68-.16 9.462-.594 11.885-2.903 1.737-1.668 2.08-2.537 2.08-5.325 0-2.058-.068-2.56-.571-3.475-.709-1.394-1.829-2.56-2.972-3.154l-.914-.457 1.074-1.052c1.715-1.668 1.943-2.285 1.943-5.074 0-2.263-.046-2.491-.708-3.588-.96-1.532-2.4-2.629-4.389-3.269-1.44-.457-2.263-.526-7.566-.64l-5.92-.091zm12.046-9.509c1.44.709 1.966 1.691 1.806 3.406-.092 1.074-.252 1.394-.96 2.057-1.052.96-2.537 1.28-5.829 1.28h-2.514v-7.497l3.223.114c2.628.114 3.406.229 4.274.64m1.006 11.817c2.103 1.052 2.948 3.726 1.737 5.532-1.12 1.645-3.474 2.354-7.909 2.354h-2.331v-8.686l3.657.092c3.314.091 3.772.16 4.846.708"/></g><path d="m176.663 358.612-2.225-6.23a1560 1560 0 0 0-2.198-6.11l-4.377-12.215q-.744-2.082-1.624-4.533-.879-2.451-1.782-4.98t-1.742-4.861h5.468l3.068 8.93a9124 9124 0 0 1 3.061 8.923l5.475 15.958h.477l5.525-16.052q1.458-4.245 3.04-8.833a2406 2406 0 0 0 3.06-8.926h5.309l-1.713 4.843q-.887 2.508-1.757 4.944t-1.621 4.553l-4.367 12.29q-1.002 2.821-2.15 6.074a1085 1085 0 0 1-2.217 6.225zm26.674 0v-38.929h24.183v4.238h-22.069l2.734-3.52v37.471l-2.473-3.498h21.884v4.238zm3.77-17.673v-4.108h19.321v4.108h-19.321m28.203 17.673v-38.929h13.164q4.449 0 7.413 1.05 2.964 1.052 4.446 3.369 1.48 2.317 1.481 6.127 0 3.177-1.239 5.825-1.239 2.647-4.135 4.245-2.897 1.597-7.839 1.624l1.578-2.158 6.145 7.688a636 636 0 0 1 3.04 3.797q1.602 2.017 3.14 3.94a1058 1058 0 0 1 2.729 3.422h-5.786l-3.723-4.754a1148 1148 0 0 0-3.533-4.486l-6.98-8.996 3.03 2.44h-8.944v-4.086h7.395q3.416 0 5.636-.785 2.219-.783 3.303-2.549 1.085-1.765 1.085-4.677 0-2.449-.782-3.845-.78-1.395-2.044-2.06a7.9 7.9 0 0 0-2.732-.844 24 24 0 0 0-2.858-.18h-11.464l3.321-3.389v38.211zm36.238 0v-38.929h5.02v38.929zm14.768 0v-38.929h23.72v4.247h-20.949l2.084-3.53v38.212zm3.676-17.422v-4.113h18.953v4.113h-18.953m27.298 17.422v-38.929h5.02v38.929zm14.76 0v-38.929h24.183v4.238h-22.069l2.734-3.52v37.471l-2.473-3.498h21.885v4.238zm3.77-17.673v-4.108h19.321v4.108H335.82m28.21 17.673v-38.929h13.664q4.515 0 8.004 1.299 3.49 1.299 5.888 3.8 2.399 2.5 3.635 6.074t1.236 8.13q0 4.123-1.096 7.685-1.095 3.563-3.474 6.244-2.377 2.682-6.243 4.19-3.865 1.507-9.405 1.507H364.03m4.945-4.113h7.288q5.57 0 8.87-2.04 3.297-2.04 4.744-5.573 1.446-3.531 1.446-7.984 0-3.425-.852-6.209t-2.617-4.776-4.502-3.057-6.498-1.064h-7.88v30.703"/></g></svg>