<svg xmlns="http://www.w3.org/2000/svg" viewBox="0 0 1699 323"><defs><linearGradient id="a" x1="50%" x2="0%" y1="50%" y2="50%"><stop offset="0%" stop-color="#002c2c"/><stop offset="100%" stop-color="#336d6e"/></linearGradient><linearGradient id="b" x1="50%" x2="0%" y1="50%" y2="50%"><stop offset="0%" stop-color="#336d6e"/><stop offset="100%" stop-color="#002c2c"/></linearGradient></defs><g fill="none"><path fill="#002c2c" d="M405 161.766v158.09h112.921v-21.143h-89.376V161.766zm209.219-2.883c-47.09 0-84.09 35.078-84.09 80.967 0 49.973 36.76 82.889 84.09 82.889 49.733 0 84.09-35.318 84.09-82.89 0-45.888-37-80.966-84.09-80.966m0 21.143c33.876 0 59.584 24.025 59.584 59.824 0 39.402-25.948 61.746-59.584 61.746s-59.584-22.344-59.584-61.746c0-35.799 25.707-59.824 59.584-59.824M807.58 322.739c36.519 0 57.902-18.98 66.791-29.552L861.88 277.09c-11.292 10.33-27.39 24.506-54.298 24.506-38.682 0-61.506-25.467-61.506-59.344 0-34.597 22.344-62.226 59.583-62.226 20.422 0 36.04 7.448 50.214 19.941l12.734-18.26c-11.532-9.85-27.15-22.824-61.506-22.824-49.733 0-84.57 37.48-84.57 83.37 0 44.447 28.11 80.486 85.05 80.486m101.823-160.973v158.09h23.545V250.66h16.098l67.752 69.194h31.954L970.43 239.85v-.721l68.713-77.363h-27.63l-61.505 69.194h-17.059v-69.194zm169.577 158.09h23.545v-62.708h37.72l41.565 62.707h27.149l-43.967-66.55v-.962c19.7-8.169 27.389-25.467 27.389-42.285 0-27.63-18.02-48.292-59.584-48.292h-53.817zm23.545-82.409V182.91h30.512c27.39 0 35.318 11.052 35.318 27.149 0 19.22-11.292 27.39-37.96 27.39zm207.537-78.564c-47.09 0-84.09 35.078-84.09 80.967 0 49.973 36.759 82.889 84.09 82.889 49.733 0 84.09-35.318 84.09-82.89 0-45.888-37-80.966-84.09-80.966m0 21.143c33.876 0 59.584 24.025 59.584 59.824 0 39.402-25.948 61.746-59.584 61.746s-59.584-22.344-59.584-61.746c0-35.799 25.707-59.824 59.584-59.824m169.576 142.713c39.162 0 62.707-21.624 62.707-49.493 0-16.098-6.727-27.87-21.143-35.799-8.649-4.805-23.304-7.688-38.68-9.85-14.657-1.922-24.267-3.124-30.514-6.728-7.688-4.564-10.09-10.33-10.09-16.337 0-11.773 9.13-24.506 36.759-24.506 16.337 0 35.558 5.285 46.85 10.09l7.688-19.7c-14.655-6.968-32.194-11.533-54.538-11.533-35.798 0-60.305 19.941-60.305 45.649 0 13.695 5.526 26.428 20.422 34.357 9.85 5.285 22.104 7.928 38.922 9.85 14.656 1.682 26.188 3.844 32.435 7.689 6.006 3.603 9.61 9.61 9.61 16.818 0 15.857-12.974 28.35-40.363 28.35-19.701 0-39.643-6.968-52.136-12.974l-7.929 20.182c16.338 8.89 34.838 13.935 60.305 13.935m204.654-74.24v-19.701h-80.967v-45.89h90.577v-21.142h-114.122v158.09h118.927v-21.143h-95.382v-50.214z"/><path fill="url(#a)" fill-rule="evenodd" d="M183.169 135.111 503.07 319.73 183.17 504.347l-319.902-184.618zm0 74.305L-8.772 320.3l191.94 110.885L375.11 320.3zm.571 44.582 114.822 66.303-114.822 66.302-114.822-66.302zm7.998 45.726L156.89 319.73l34.847 20.005 34.846-20.005z" transform="matrix(0 1 1 0 -136.56 136.56)"/><path fill="url(#b)" fill-rule="evenodd" d="M184.831 135.111 504.733 319.73 184.83 504.347-135.07 319.729zm0 74.305L-7.109 320.3l191.94 110.885L376.772 320.3zm.571 44.582 114.822 66.303-114.822 66.302-114.821-66.302zm7.998 45.726-34.847 20.005 34.847 20.005 34.846-20.005z" transform="rotate(90 184.831 319.73)"/></g></svg>