<svg xmlns="http://www.w3.org/2000/svg" viewBox="0 0 437 512"><g fill="#00494a"><path d="M260 91.529c5.026-12.251 5.584-15.592 3.91-16.706-1.676-1.114-2.235-3.898-1.676-12.25 1.117-10.024 1.117-11.138-3.91-16.15-3.35-4.455-6.7-6.125-11.168-6.125-3.35 0-9.494 1.114-13.961 2.227-6.701 1.67-8.935 2.228-10.61.557-1.676-1.67-1.676-2.784 0-4.455 1.116-1.113 2.233-3.34 2.233-5.568 0-1.67-1.675-6.126-3.909-9.467-3.909-6.125-3.909-6.125 0-5.012 2.792 1.114 3.91.557 3.91-2.227 0-2.228-1.118-2.784-3.351-2.228-2.793 1.114-3.351.557-2.234-2.784.558-2.227 0-3.341-2.234-3.341s-2.792 1.114-2.234 3.341c1.117 3.341.559 3.898-2.234 2.784-2.233-.556-3.35 0-3.35 2.785 0 2.784.558 3.34 3.909 2.227 3.35-1.114 3.35-1.114-.559 5.569-3.35 6.125-3.909 7.796-1.675 11.694 1.117 2.784 1.675 5.568 1.117 6.125-.558 1.114-2.792 1.67-4.468 1.67-1.675 0-6.7-1.113-10.61-2.783-7.26-2.228-8.935-2.228-14.52 0-3.35 1.67-7.26 4.454-8.934 7.239-2.234 3.34-2.793 6.682-1.676 14.478.559 8.353.559 10.58-1.675 11.694-1.675 1.114-1.117 3.898 3.909 16.149 5.584 15.035 5.584 15.035 12.286 12.808 3.909-1.114 12.285-3.341 18.428-3.898 8.935-1.67 15.637-1.67 25.13 0 7.26 1.113 15.637 2.784 18.987 4.455 5.026 2.227 5.026 2.227 11.169-12.808m-70.922-54.015c1.675 0 2.792-1.114 2.792-2.785 0-1.67-1.117-2.784-2.792-2.784-1.117 0-2.234 1.114-2.234 2.784s1.117 2.785 2.234 2.785m55.844 0c1.117 0 2.234-1.114 2.234-2.785 0-1.67-1.117-2.784-2.234-2.784-1.675 0-2.792 1.114-2.792 2.784s1.117 2.785 2.792 2.785M182.935 36.4c0-1.114-1.117-2.784-2.792-2.784-1.117 0-2.234 1.113-1.675 2.227 0 1.114 1.675 2.227 2.792 2.784s1.675-.557 1.675-2.227m14.52 2.227c1.116-.557 2.233-1.67 2.792-2.784 0-1.114-.559-2.227-2.234-2.227s-2.792 1.67-2.792 2.784c0 1.67 1.117 2.784 2.234 2.227m41.324-.557c1.117-.556 1.117-1.67.559-2.784-.559-.557-1.676-1.67-2.234-1.67-1.117 0-2.234 1.113-2.792 1.67-.559 1.114 0 2.228 1.117 2.784.558.557 2.233.557 3.35 0m13.961.557c1.117-.557 2.792-1.67 2.792-2.784.559-1.114-.558-2.227-1.675-2.227-1.675 0-2.792 1.67-2.792 2.784 0 1.67.558 2.784 1.675 2.227m-46.909 2.785q1.675-.836 1.675-3.342c0-1.113-.558-2.227-1.675-2.227s-2.234.557-2.792 1.67c-.558.557-.558 2.228 0 3.342s1.675 1.113 2.792.557m25.13-.557c.558-1.114.558-2.785-.558-3.898-1.117-1.114-2.234-1.114-2.793.557-1.116 1.113-.558 2.784.559 3.34 1.117 1.671 1.675 1.114 2.792 0m-57.52 1.67c1.676 0 2.793-1.113 2.793-2.784 0-1.114-1.117-2.227-2.792-2.227-1.117 0-2.234 1.113-2.234 2.227 0 1.67 1.117 2.784 2.234 2.784m87.117 0c1.117 0 2.234-1.113 2.234-2.784 0-1.114-1.117-2.227-2.234-2.227-1.675 0-2.792 1.113-2.792 2.227 0 1.67 1.117 2.784 2.792 2.784m-91.584 6.683c1.117 0 2.234-.557 2.234-2.228 0-1.67-1.676-2.784-2.792-2.784-1.676 0-2.793 1.114-2.234 2.227.558 1.114 1.675 2.228 2.792 2.785m83.766 43.435c-1.117 0-2.792-1.114-4.467-2.785-1.117-1.113-2.792-4.455-2.792-6.682 0-2.784 1.116-4.455 2.792-4.455s2.233 1.114 1.675 1.67c-.558 1.114 0 2.228.558 2.228 1.117 0 2.234-1.114 2.793-2.227 1.117-.557.558-2.785-.559-3.898-1.117-1.671-3.35-2.228-3.909-1.671-1.117.557-1.675 0-1.117-2.784.559-2.228.559-5.012 0-6.126-.558-2.227-1.117-2.227-3.35-.557-1.117 1.114-2.234 3.342-2.234 5.012 0 2.228-1.117 2.784-3.35 2.228-2.235-.557-3.91 0-4.468 1.67-.559 1.67-.559 3.341 0 4.455.558.557 1.675 0 2.233-1.114.559-1.113 1.676-2.227 2.234-2.227 1.117 0 1.676 1.114 1.676 2.784s-1.117 4.455-2.793 6.126c-1.675 1.67-4.467 3.34-6.701 3.34s-5.584-1.113-7.26-2.783c-2.233-1.671-3.909-3.342-3.909-4.455 0-.557.559-1.67 1.676-1.67s3.909 1.67 5.584 2.783c2.792 2.785 2.792 2.785 2.792-5.011 0-8.353 0-8.353-2.792-5.569-1.675 1.67-4.468 2.784-5.584 2.784q-1.676 0-1.676-1.67c0-1.114.559-2.228 1.676-2.785.558-.556 1.675-5.011 1.675-10.58 0-7.796.558-9.466 2.792-9.466 1.675 0 6.143-1.114 9.494-2.228s7.818-2.227 9.493-2.784c2.234 0 5.584 1.67 8.377 3.341 2.233 2.227 5.026 5.569 5.584 7.24.559 1.67 0 6.125-1.117 9.466-1.675 5.011-1.675 7.239 0 11.137s1.676 6.125-.558 11.137c-1.676 3.341-3.35 6.126-4.468 6.126m12.844-43.435c1.676 0 2.793-1.114 2.793-2.228 0-1.67-1.117-2.784-2.793-2.784-1.116 0-2.792 1.114-2.792 2.784 0 1.114 1.676 2.228 2.792 2.228M181.26 92.643c-1.117 0-2.792-2.785-4.468-6.126-1.675-5.012-2.234-7.796-.558-11.137 1.675-3.898 1.675-6.682 0-11.137-1.117-3.341-1.676-7.796-1.117-9.467.558-1.67 3.35-5.012 6.143-7.239s6.143-3.341 8.935-2.784c2.234.557 7.818 2.227 12.286 3.34 8.376 1.671 8.376 1.671 8.376 11.138 0 5.012 1.117 9.467 1.675 10.023 1.117.557 1.676 1.671 1.676 2.785q0 1.67-1.676 1.67c-1.116 0-3.909-1.113-5.584-2.784-2.792-2.784-2.792-2.784-2.792 5.569 0 7.796 0 7.796 2.792 5.011 1.675-1.113 4.468-2.784 5.584-2.784 1.117 0 1.676 1.114 1.676 1.67 0 1.114-1.676 2.785-3.91 4.456-1.675 1.67-5.025 2.784-7.259 2.784s-5.026-1.67-6.701-3.341c-1.676-2.228-2.793-5.012-2.234-6.126 1.117-2.784 1.675-2.784 3.909-1.114 2.234 1.671 2.234 1.671 2.234-1.67s-.559-3.898-3.91-2.784c-3.35.556-4.467 0-4.467-2.228 0-1.67-1.117-3.898-2.792-5.568-2.234-1.671-2.234-1.114-2.234 4.454 0 3.342-1.117 6.126-1.675 5.569-1.117-.557-2.792 0-3.91 1.67-1.675 2.228-1.675 2.785 0 4.455 1.676 1.671 2.235 1.671 3.351 0 1.117-1.67 2.234-1.67 3.351-1.113s1.675 2.784 1.117 5.012c-.559 1.67-2.234 4.454-3.91 5.568-1.674 1.114-3.35 2.228-3.908 2.228M166.74 55.89c1.676-.557 2.234-2.228 1.676-2.784-.559-1.114-1.676-1.671-2.793-1.671-.558 0-1.675.557-2.792 1.67-.558 1.114-.558 2.228 0 2.785.559.557 2.234.557 3.91 0m102.754.557c1.116 0 2.233-1.114 1.675-2.228 0-1.113-1.675-2.227-2.792-2.784-1.117 0-1.676.557-1.676 2.227 0 1.671 1.117 2.785 2.793 2.785m-102.195 7.796c1.117-.557 1.675-1.67 1.117-2.785-.559-1.113-1.676-1.67-2.793-1.67-.558 0-1.675.557-2.233 1.67-.559 1.114-.559 2.228.558 2.785s2.792.557 3.35 0m101.078.557c1.117-.557 2.792-1.671 2.792-2.785.558-1.113-.559-2.227-1.675-2.227-1.676 0-2.793 1.114-2.793 2.784s.559 2.228 1.676 2.228m-98.286 7.239c.558-1.114.558-2.785-.559-3.898-1.116-1.114-2.233-1.114-2.792.557-.558 1.113-.558 2.784.559 3.34 1.117 1.671 1.675 1.114 2.792 0m96.61 1.67c.559 0 1.676-1.113 1.676-2.227 0-1.67-1.117-3.341-1.676-3.898-1.117-.557-2.233 0-2.792 1.114-.558.556-.558 2.227 0 3.34.559 1.114 1.675 1.671 2.792 1.671m-.558 89.655c-.559-10.024-.559-10.024-19.546 2.227-11.727 7.796-24.571 18.376-35.181 28.957-16.195 16.149-16.195 16.149-21.78 12.25-3.35-2.227-9.493-6.125-13.402-8.91-4.468-2.783-8.935-4.454-10.052-4.454-1.676 0-2.234 3.341-2.234 10.58 0 11.137 0 11.137 10.61 19.49 5.585 4.455 13.403 12.251 17.312 16.706 7.26 8.353 7.26 8.353 17.87-7.24 6.143-9.466 17.87-23.387 27.922-33.967 9.494-9.467 20.104-18.934 23.455-21.718 5.584-3.898 5.584-4.455 5.026-13.921M87.219 384.724q-14.082 0-22.641-4.522-8.56-4.521-12.444-12.87-3.883-8.346-3.883-19.76v-56.714h21.23v55.551q0 6.627 1.816 11.282t5.715 7.091 10.126 2.436q6.387 0 10.214-2.436t5.53-7.091q1.704-4.655 1.704-11.331v-55.502h21.23v56.794q0 11.373-4.06 19.7t-12.587 12.85-21.95 4.522M196.247 383a5057 5057 0 0 0-8.02-11.553q-3.765-5.409-7.37-10.606l-12.16-17.392h-5.949v-16.686h5.677l10.88-14.194q3.877-5.046 7.674-10.043t8.826-11.668h24.477q-5.965 7.287-11.68 14.333t-11.484 14.201l-14.582 18.048-.402-9.353 16.194 22.428q3.771 5.125 8.056 11.08 4.286 5.957 8.376 11.582 4.092 5.625 7.143 9.823zm-53.052 0v-92.142h21.229V383zm83.938 0 5.11-15.63q2.685-8.213 5.111-15.564l10.352-31.636q2.813-8.585 5.073-15.46 2.26-6.873 4.533-13.852h27.373q2.352 7.245 4.588 14.094 2.235 6.85 4.97 15.242l10.3 31.686a4657 4657 0 0 1 5.128 15.689q2.62 8.065 4.997 15.431h-21.97q-2.092-7.334-4.289-15.085a3239 3239 0 0 0-4.176-14.609l-12.646-44.393h-1.578l-12.777 43.902a6281 6281 0 0 0-4.361 15.043A3145 3145 0 0 1 248.46 383zm22.201-19.251 2.247-15.916h41.176l1.845 15.916zm106.255 20.957q-5.732 0-11.783-.962-6.052-.964-11.312-2.452-5.26-1.49-8.542-3.06l1.525-18.658a67.6 67.6 0 0 0 9.395 4.261 66.4 66.4 0 0 0 9.738 2.753q4.86.972 9.35.972 4.416 0 7.713-1.088 3.297-1.087 5.128-3.345t1.83-5.782q0-3.598-2.367-5.968t-6.764-4.146-10.454-3.526q-8.4-2.43-14.347-5.702-5.948-3.273-9.097-8.407-3.15-5.133-3.15-13.211 0-8.098 3.548-14.276t10.749-9.658 18.156-3.48q4.298 0 8.653.553 4.355.552 8.44 1.46t7.57 2.074 6.072 2.439l-1.615 18.774a51.4 51.4 0 0 0-8.56-4.351q-4.455-1.76-8.722-2.659-4.269-.898-7.79-.898-3.938 0-7.113 1.047t-5.056 3.17q-1.883 2.125-1.883 5.38 0 3.158 1.77 5.298 1.77 2.142 5.5 3.8 3.73 1.66 9.575 3.417 11.03 3.288 17.427 6.874 6.396 3.587 9.088 8.627 2.69 5.04 2.69 12.646 0 8.478-3.676 14.783-3.678 6.303-11.5 9.802-7.824 3.5-20.186 3.5M18.662 443q.405-3.183.796-6.295.39-3.112.83-6.76L21.908 417q.46-3.6.838-6.701.379-3.103.812-6.514h5.01q1.72 4.172 3.309 8.07l3.158 7.751 6.22 15.22h.386l6.145-15.213q1.574-3.882 3.137-7.742t3.254-8.086h4.99q.42 3.364.797 6.473.377 3.107.824 6.737l1.6 13.058q.448 3.563.826 6.626.38 3.064.764 6.321h-4.745q-.637-5.22-1.207-9.923t-1.072-8.779l-1.424-11.72h-.36l-4.982 12.627a5416 5416 0 0 1-3.628 9.203q-1.817 4.597-3.385 8.592H39.79q-1.002-2.514-2.21-5.5-1.21-2.985-2.479-6.122t-2.486-6.1l-5.146-12.7h-.36l-1.417 11.698-1.065 8.797q-.57 4.714-1.206 9.927zm50.611 0q1.148-3.175 2.405-6.661 1.257-3.487 2.404-6.634l4.864-13.455 4.509-12.465h6.549l2.13 5.95q1.041 2.916 2.339 6.535l4.824 13.495q1.162 3.245 2.392 6.672 1.23 3.428 2.336 6.563H98.86q-1.177-3.437-2.427-7.074l-2.36-6.862-7.14-20.785h-.48l-7.196 20.585q-1.176 3.36-2.448 7.028T74.32 443zm7.272-9.855.421-3.908H96.84l.346 3.908zM110.7 443v-39.215h4.494q3.51 4.954 6.75 9.54 3.239 4.584 6.407 9.06l8.504 11.982h.416v-30.582h4.725V443h-4.425a3355 3355 0 0 0-6.123-8.674l-7.08-9.995-8.542-12.073h-.401V443zm38.001 0 2.405-6.661q1.257-3.487 2.404-6.634l4.864-13.455 4.508-12.465h6.55l2.13 5.95q1.041 2.916 2.339 6.535l4.823 13.495 2.392 6.672q1.23 3.428 2.337 6.563h-5.166q-1.177-3.437-2.428-7.074-1.25-3.639-2.36-6.862l-7.14-20.785h-.48l-7.195 20.585q-1.176 3.36-2.449 7.028-1.271 3.667-2.488 7.108zm7.271-9.855.422-3.908h19.873l.347 3.908zm52.718 10.44q-5.104 0-8.998-1.531t-6.542-4.276-3.999-6.445q-1.35-3.7-1.351-8.018 0-5.918 2.435-10.491 2.434-4.574 6.877-7.167 4.44-2.592 10.445-2.592 2.063 0 4.002.283 1.94.284 3.662.76 1.721.474 3.166 1.026 1.446.553 2.491 1.11l-.456 4.77a31 31 0 0 0-4.417-2.041 25 25 0 0 0-4.186-1.146 22.7 22.7 0 0 0-3.946-.358q-3.282 0-6.015 1.075a13.35 13.35 0 0 0-4.738 3.136q-2.004 2.06-3.092 5.002-1.087 2.943-1.087 6.648 0 3.363.95 6.272t2.914 5.108 5.014 3.434 7.218 1.233a31 31 0 0 0 3.086-.155 25 25 0 0 0 3.044-.496 24 24 0 0 0 2.96-.875q1.454-.534 2.825-1.284l.596 4.684q-.947.417-2.342.834a35 35 0 0 1-3.094.757 40 40 0 0 1-3.58.542 36 36 0 0 1-3.842.201m8.133-2.259v-18.002h4.725v17.927zM230.437 443v-39.215h24.36v4.27h-22.231l2.754-3.546v37.745l-2.49-3.523h22.044V443zm3.797-17.803v-4.138h19.463v4.138h-19.463M261.671 443q.405-3.183.796-6.295t.832-6.76L264.916 417q.46-3.6.839-6.701.379-3.103.811-6.514h5.011q1.72 4.172 3.308 8.07 1.59 3.895 3.158 7.751l6.22 15.22h.387l6.145-15.213q1.575-3.882 3.137-7.742t3.253-8.086h4.992q.42 3.364.796 6.473.375 3.107.824 6.737l1.6 13.058q.447 3.563.826 6.626t.764 6.321h-4.745q-.638-5.22-1.207-9.923t-1.073-8.779l-1.424-11.72h-.36l-4.981 12.627q-1.81 4.605-3.628 9.203a3880 3880 0 0 0-3.386 8.592h-3.382q-1.002-2.514-2.211-5.5l-2.478-6.122q-1.27-3.138-2.486-6.1l-5.146-12.7h-.361l-1.417 11.698-1.064 8.797q-.57 4.714-1.207 9.927zm54.074 0v-39.215h24.36v4.27h-22.231l2.754-3.546v37.745l-2.491-3.523h22.044V443zm3.797-17.803v-4.138h19.462v4.138h-19.462M348.388 443v-39.215h4.494q3.51 4.954 6.75 9.54 3.239 4.584 6.407 9.06l8.504 11.982h.416v-30.582h4.725V443h-4.425a3354 3354 0 0 0-6.123-8.674l-7.08-9.995-8.542-12.073h-.401V443zm51.542 0v-38.493l1.969 3.708H386.47v-4.43h31.847v4.43h-15.43l2.01-3.708V443zm-292.532 47.594q-2.459 0-4.945-.443a35 35 0 0 1-4.591-1.123q-2.107-.679-3.399-1.372l.462-4.697a29.5 29.5 0 0 0 3.85 1.776q1.985.747 4.066 1.163 2.082.415 4.26.415 2.445 0 4.407-.672 1.962-.67 3.105-2.142 1.142-1.47 1.142-3.871 0-2.075-1.18-3.435t-3.428-2.361-5.429-1.987q-3.746-1.167-6.38-2.544t-4.024-3.404q-1.39-2.025-1.39-5.149 0-3.062 1.447-5.476t4.306-3.813 7.082-1.4q1.754 0 3.47.253 1.715.255 3.29.674 1.576.42 2.865.946t2.196 1.076l-.495 4.741a18.5 18.5 0 0 0-3.538-1.886 21.3 21.3 0 0 0-3.707-1.12q-1.84-.37-3.425-.37-2.212 0-4.09.652-1.876.653-3.021 2.02-1.145 1.369-1.145 3.506 0 1.855.974 3.1.975 1.243 3.043 2.215 2.07.971 5.35 2.017 4.715 1.501 7.43 3.028 2.718 1.526 3.859 3.53 1.14 2.005 1.141 4.924 0 3.2-1.421 5.735-1.42 2.535-4.42 4.014t-7.717 1.48m31.383-15.92-8.549-14.485-2.625-4.462a1272 1272 0 0 0-2.924-4.942h5.703a2291 2291 0 0 1 2.575 4.54q1.069 1.89 2.03 3.58a819 819 0 0 1 2.118 3.745l3.792 6.673h.51l3.687-6.45 2.237-3.912q1.005-1.761 2.106-3.671 1.1-1.911 2.586-4.505h5.567q-1.41 2.388-2.797 4.747l-2.722 4.63-8.558 14.512zM138.666 490v-19.48h4.981V490zm36.84.594q-2.457 0-4.944-.443a35 35 0 0 1-4.591-1.123q-2.106-.679-3.399-1.372l.462-4.697a29.5 29.5 0 0 0 3.85 1.776q1.985.747 4.066 1.163 2.082.415 4.26.415 2.445 0 4.407-.672 1.963-.67 3.105-2.142 1.142-1.47 1.142-3.871 0-2.075-1.18-3.435t-3.428-2.361-5.429-1.987q-3.746-1.167-6.38-2.544t-4.024-3.404q-1.39-2.025-1.39-5.149 0-3.062 1.447-5.476 1.446-2.414 4.306-3.813t7.082-1.4q1.755 0 3.47.253 1.715.255 3.29.674 1.576.42 2.865.946t2.196 1.076l-.495 4.741a18.5 18.5 0 0 0-3.538-1.886 21.3 21.3 0 0 0-3.707-1.12q-1.84-.37-3.425-.37-2.212 0-4.09.652-1.876.653-3.021 2.02-1.145 1.369-1.145 3.506 0 1.855.974 3.1.975 1.243 3.043 2.215 2.07.971 5.35 2.017 4.715 1.501 7.43 3.028 2.718 1.526 3.859 3.53 1.14 2.005 1.141 4.924 0 3.2-1.421 5.735-1.42 2.535-4.42 4.014t-7.717 1.48m30.932-.594v-38.493l1.969 3.708h-15.43v-4.43h31.848v4.43h-15.43l2.01-3.708V490zm25.166 0v-39.215h24.36v4.27h-22.231l2.754-3.546v37.745l-2.491-3.523h22.044V490zm3.797-17.803v-4.138h19.462v4.138h-19.462M262.838 490q.405-3.183.796-6.295.39-3.112.831-6.76L266.083 464q.46-3.6.838-6.701.379-3.103.812-6.514h5.01q1.72 4.172 3.309 8.07 1.589 3.895 3.158 7.751l6.22 15.22h.386l6.146-15.213 3.136-7.742q1.563-3.86 3.254-8.086h4.991q.42 3.364.796 6.473.377 3.107.824 6.737l1.6 13.058q.448 3.563.827 6.626t.764 6.321h-4.746q-.637-5.22-1.207-9.923t-1.072-8.779l-1.424-11.72h-.36l-4.981 12.627q-1.812 4.605-3.628 9.203A3880 3880 0 0 0 287.35 490h-3.383q-1-2.514-2.21-5.5-1.21-2.985-2.479-6.122t-2.486-6.1l-5.146-12.7h-.36l-1.417 11.698q-.495 4.082-1.064 8.797-.57 4.714-1.207 9.927zm65.472.594q-2.46 0-4.945-.443a35 35 0 0 1-4.592-1.123q-2.106-.679-3.398-1.372l.462-4.697a29.5 29.5 0 0 0 3.85 1.776q1.984.747 4.066 1.163 2.082.415 4.26.415 2.445 0 4.407-.672 1.962-.67 3.105-2.142 1.142-1.47 1.142-3.871 0-2.075-1.18-3.435t-3.429-2.361-5.428-1.987q-3.746-1.167-6.38-2.544-2.636-1.378-4.025-3.404t-1.389-5.149q0-3.062 1.447-5.476t4.305-3.813 7.083-1.4q1.754 0 3.47.253 1.715.255 3.29.674t2.865.946q1.288.526 2.196 1.076l-.495 4.741a18.5 18.5 0 0 0-3.539-1.886 21.3 21.3 0 0 0-3.707-1.12q-1.84-.37-3.424-.37-2.212 0-4.09.652-1.876.653-3.022 2.02-1.145 1.369-1.145 3.506 0 1.855.974 3.1.974 1.243 3.044 2.215t5.35 2.017q4.714 1.501 7.43 3.028 2.718 1.526 3.859 3.53 1.14 2.005 1.14 4.924 0 3.2-1.42 5.735-1.422 2.535-4.42 4.014-3 1.48-7.717 1.48"/><path fill-rule="evenodd" d="M217 109c47.496 0 86 38.504 86 86s-38.504 86-86 86-86-38.504-86-86 38.504-86 86-86m0 13c-40.317 0-73 32.683-73 73s32.683 73 73 73 73-32.683 73-73-32.683-73-73-73"/></g></svg>