<svg xmlns="http://www.w3.org/2000/svg" viewBox="0 0 560 512"><g fill="#00494a"><g fill-rule="evenodd"><path d="M224.926 88.354c-3.748 1.303-6.903 2.446-7.04 2.515-.137.114-.228 19.13-.228 56.182v56.023h14.811l.16-18.057c.137-12.823.091-20.595-.114-26.766-.343-9.874-.275-10.766 1.142-13.737 1.623-3.36 5.098-6.126 10.309-8.16 3.246-1.28 5.463-1.737 8.366-1.76 2.925-.023 4.845.48 6.857 1.783 3.314 2.148 5.371 6.468 5.623 11.863.137 2.697.365 30.034.365 44.228v10.606l7.497-.046 7.497-.069.206-18.605c.229-18.72-.046-36.32-.571-40.686-.869-6.948-4-12.411-9.029-15.725-3.383-2.217-6.788-3.155-11.474-3.132-6.354 0-11.657 1.897-20.274 7.223-4.64 2.857-6.743 4.069-6.994 4.069-.137 0-.229-10.149-.275-25.052L231.692 86zM366.045 88.011c-1.874.709-4.503 1.623-5.805 1.989-3.109.914-3.818 1.348-4.572 2.788l-.594 1.166.068 53.783c.023 29.577.115 54.125.183 54.56l.137.776h14.606V144.88c0-46.423-.069-58.194-.32-58.172-.16 0-1.828.595-3.703 1.303M336.583 98.457a107 107 0 0 1-5.829 2.034c-1.486.457-3.017.983-3.36 1.166-1.051.549-1.783 1.486-2.103 2.72-.228.869-.274 12.114-.183 49.371.046 26.537.137 48.48.206 48.777l.114.549h14.88V150.16c0-42.194-.068-52.914-.32-52.914-.16.023-1.691.571-3.405 1.211"/><path fill-rule="nonzero" d="M89.91 101.543c-1.12.983-1.28 1.325-8.343 16.8-8.389 18.445-26.811 58.97-29.28 64.456-2.971 6.629-9.165 20.412-9.28 20.686-.091.251.663.297 3.337.297 3.749 0 5.029-.297 5.646-1.234.754-1.12 2.994-3.063 4.206-3.635 1.257-.594 6.88-2.674 16.274-6.034 27.314-9.783 39.451-14.034 39.588-13.874.115.091 1.532 3.269 3.2 7.017 4.366 9.966 6.309 14.08 7.04 15.017.343.48 1.12 1.143 1.737 1.509l1.097.64 7.863.091c7.063.046 7.863.023 7.863-.32 0-.8-1.051-3.223-5.76-13.211-2.674-5.669-5.303-11.223-5.828-12.366-.526-1.12-3.155-6.72-5.875-12.48-2.697-5.737-5.257-11.177-5.691-12.114-1.12-2.4-10.377-22.011-12-25.44-.754-1.577-1.737-3.634-2.171-4.548-.732-1.6-1.555-3.315-4.069-8.64-.64-1.326-1.989-4.252-3.04-6.492-2.171-4.617-2.834-5.668-3.931-6.354-1.052-.663-1.646-.594-2.583.229m8.685 46.925c6.218 13.966 11.269 25.44 11.246 25.44-.046.023-7.086 2.537-15.657 5.6-8.594 3.04-20.777 7.383-27.085 9.623-6.332 2.263-11.52 4.091-11.566 4.091-.023 0 .64-1.531 1.508-3.406.846-1.874 2.652-5.897 4.023-8.937 2.126-4.8 14.789-33.028 18.834-42.01.778-1.715 2.675-5.92 4.206-9.35 2.972-6.628 2.994-6.674 3.109-6.56.045.046 5.165 11.52 11.382 25.51"/><path d="M305.474 109.817c-4.526 1.554-7.68 2.766-8.503 3.269-.411.251-.982.868-1.257 1.394-.525.914-.525 1.188-.525 7.223v6.308l1.12-.183c2.354-.342 6.697-1.577 8.342-2.354 2.263-1.074 3.086-1.828 3.955-3.588.891-1.806 1.211-4.732 1.028-9.166-.137-3.04-.32-3.977-.823-3.954-.183.022-1.668.48-3.337 1.051M483.05 124.857c-2.674.32-7.04 1.486-9.28 2.446-4.96 2.148-8.845 5.782-11.063 10.308-1.302 2.652-1.714 4.366-1.85 7.497-.32 6.629 2.56 11.932 9.393 17.28 3.795 2.972 9.623 6.583 16.092 9.966 4.548 2.4 8.48 4.663 10.377 5.988 4.845 3.406 6.171 8.709 3.405 13.6-1.622 2.857-5.6 5.783-9.348 6.903-4.914 1.486-9.166.8-16.206-2.606-3.268-1.577-6.125-3.542-9.874-6.811-1.074-.937-2.011-1.714-2.103-1.714-.411 0-3.245 2.468-3.108 2.72 1.005 1.76 5.394 6.103 8.274 8.137 7.268 5.211 15.063 7.291 23.977 6.445 7.223-.708 12.503-2.605 16.937-6.102 3.406-2.697 5.897-6.263 7.314-10.492.663-1.943.8-2.697.892-5.325.182-4.8-.8-7.932-3.703-11.817-1.852-2.492-3.589-4.023-7.269-6.469-4.068-2.697-6.08-3.794-14.88-8.16-7.702-3.794-11.108-5.76-13.097-7.611-1.44-1.326-2.948-3.497-3.84-5.486-.617-1.371-.708-1.851-.708-3.84 0-2.103.068-2.423.777-3.886 1.417-2.857 4.32-5.028 8.228-6.102 1.212-.343 2.332-.435 5.143-.412 5.692.023 8.48.937 15.612 5.006 1.85 1.051 3.817 2.125 4.365 2.377 1.006.434 1.029.434 1.532 0 .822-.754 1.965-2.537 1.737-2.743-.595-.526-4.023-2.926-5.6-3.908-3.612-2.218-8.32-4.092-12.274-4.846-2.469-.48-7.383-.663-9.852-.343M175.418 125.108c-8.366.96-16.526 4.618-22.834 10.263-4.983 4.48-9.235 10.903-11.475 17.394-3.497 10.08-2.605 22.835 2.286 32.572 1.189 2.377 3.932 6.354 5.76 8.342 6.972 7.589 17.143 11.497 27.589 10.583 11.382-.96 19.84-6.491 27.474-17.965.823-1.235 1.714-2.72 1.965-3.338.709-1.577 1.898-6.08 1.555-5.874-1.829 1.12-3.955 2.88-6.629 5.463-1.783 1.737-3.954 3.634-4.8 4.251-15.108 10.652-32.982 4.435-40.457-14.08-3.794-9.44-3.474-19.61.96-29.05 2.332-4.938 5.966-8.755 10.926-11.452 6.057-3.291 14.331-3.771 21.005-1.166 3.452 1.326 7.498 3.932 10.126 6.514l1.029 1.006 1.554-1.577c.869-.869 1.577-1.669 1.577-1.806 0-.411-3.657-3.611-5.851-5.097-6.217-4.274-13.486-5.943-21.76-4.983"/><path fill-rule="nonzero" d="M413.61 125.246c-7.93 1.028-16.32 5.371-22.262 11.565-5.486 5.714-8.686 12.549-10.171 21.737-.618 3.794-.618 12.892 0 16.572.937 5.485 3.04 10.994 5.851 15.222 1.897 2.835 5.851 6.72 8.846 8.709 4.228 2.834 8.64 4.663 13.645 5.76 3.246.685 9.76.731 12.96.091 13.029-2.605 23.406-11.725 29.097-25.6l1.029-2.514-1.829-.068c-2.194-.092-2.057-.183-5.714 4.297-2.903 3.52-4.686 5.188-7.817 7.314-11.954 8.023-27.794 7.291-36.846-1.692-4.16-4.114-6.423-8.914-7.451-15.77-.434-2.972-.572-9.19-.252-12.252l.206-1.874h57.119l-.136-.64c-.092-.366-.526-2.72-1.006-5.235-1.189-6.377-2.171-9.028-4.663-12.708-2.537-3.726-6.423-7.086-10.743-9.326-2.834-1.463-7.177-2.88-10.285-3.383-2.217-.343-7.612-.457-9.577-.205m4.55 7.017c5.736 1.485 9.873 5.782 11.405 11.862.274 1.029.548 2.88.64 4.092l.16 2.217-12.092.16c-6.65.091-15.04.16-18.628.16h-6.514l.114-.891c.251-1.669 1.691-5.532 2.743-7.406 3.223-5.6 8.891-9.783 14.491-10.674 1.76-.275 5.623-.046 7.68.48"/><path d="M305.383 130.48c-2.377.845-5.257 1.805-6.377 2.148-2.492.709-3.612 1.646-4.046 3.337-.274 1.166-.343 62.057-.046 65.303l.137 1.691 7.383.069 7.383.046V166c0-20.389-.023-37.075-.069-37.075-.022 0-1.988.709-4.365 1.555M227.258 240.216c0 10.354.114 11.726 1.188 14.126 1.852 4.205 6.469 6.377 11.909 5.623 4.685-.64 7.84-3.703 8.754-8.503.137-.64.228-5.646.228-11.109v-9.92h-4.525l-.092 10.149-.068 10.126-.663 1.44c-.869 1.828-1.234 2.24-2.697 2.925-.915.434-1.6.549-2.995.549-2.034 0-3.29-.457-4.41-1.577-1.852-1.875-2.058-3.269-2.058-14.423v-9.189h-4.571zM251.737 230.616c0 .092 2.446 6.629 5.463 14.514l5.463 14.332h4.114l5.6-14.332c3.063-7.885 5.646-14.422 5.692-14.514.045-.091-1.029-.183-2.4-.183h-2.492l-4.045 10.492c-2.218 5.783-4.115 10.605-4.206 10.697-.092.114-1.646-3.772-3.474-8.64a4222 4222 0 0 0-4-10.697l-.709-1.852h-2.514c-1.372 0-2.492.092-2.492.183"/><path fill-rule="nonzero" d="M279.577 244.948v14.56l7.017-.069 7.017-.091 2.058-.732c4.708-1.668 7.794-4.937 8.982-9.577.503-1.92.503-6.263 0-8.16-1.211-4.64-4.48-8.114-9.12-9.646-1.874-.64-2.102-.662-8.937-.754l-7.017-.091zm14.172-9.6c2.811.868 4.822 2.674 5.782 5.12.732 1.897.892 5.897.32 7.862-1.44 4.96-4.937 6.812-12.731 6.812h-2.743v-20.457l4.023.137c2.789.091 4.434.251 5.349.526M310.068 244.948v14.582l6.058-.114c7.68-.16 9.462-.594 11.885-2.903 1.737-1.668 2.08-2.537 2.08-5.325 0-2.058-.068-2.56-.571-3.475-.709-1.394-1.829-2.56-2.972-3.154l-.914-.457 1.074-1.052c1.715-1.668 1.943-2.285 1.943-5.074 0-2.263-.046-2.491-.708-3.588-.96-1.532-2.4-2.629-4.389-3.269-1.44-.457-2.263-.526-7.566-.64l-5.92-.091zm12.046-9.509c1.44.709 1.966 1.691 1.806 3.406-.092 1.074-.252 1.394-.96 2.057-1.052.96-2.537 1.28-5.829 1.28h-2.514v-7.497l3.223.114c2.628.114 3.406.229 4.274.64m1.006 11.817c2.103 1.052 2.948 3.726 1.737 5.532-1.12 1.645-3.474 2.354-7.909 2.354h-2.331v-8.686l3.657.092c3.314.091 3.772.16 4.846.708"/></g><path d="M190.946 349.345q-4.042 0-7.127-1.212-3.083-1.213-5.18-3.387t-3.167-5.104-1.07-6.35q0-4.686 1.928-8.308 1.928-3.623 5.446-5.676t8.272-2.053q1.634 0 3.17.225t2.9.6q1.362.378 2.507.814a18 18 0 0 1 1.973.88l-.361 3.777a25 25 0 0 0-3.499-1.617 19.6 19.6 0 0 0-3.315-.907 18 18 0 0 0-3.124-.284q-2.601 0-4.764.852a10.6 10.6 0 0 0-3.752 2.483q-1.588 1.632-2.449 3.962t-.86 5.265q0 2.662.751 4.966a11.2 11.2 0 0 0 2.308 4.046q1.557 1.743 3.97 2.719 2.415.977 5.717.977 1.228 0 2.445-.123a20 20 0 0 0 2.41-.393q1.193-.27 2.345-.693 1.151-.422 2.236-1.017l.472 3.71q-.75.33-1.854.66t-2.45.6-2.836.43a29 29 0 0 1-3.042.158m6.44-1.788v-14.258h3.742v14.198zm24.36 1.8q-3.95 0-6.91-1.27-2.962-1.27-4.926-3.506t-2.943-5.128q-.978-2.891-.979-6.129 0-4.514 1.833-8.158a14.04 14.04 0 0 1 5.322-5.777q3.49-2.134 8.468-2.134 3.796 0 6.7 1.24 2.906 1.239 4.89 3.448t2.99 5.117 1.007 6.252q0 4.598-1.838 8.225-1.837 3.627-5.298 5.724-3.461 2.096-8.317 2.096m-.1-3.404q2.978 0 5.134-1.03 2.157-1.032 3.56-2.82a12.2 12.2 0 0 0 2.083-4.055q.68-2.266.679-4.736 0-2.655-.735-4.95t-2.177-4.027q-1.44-1.73-3.579-2.703-2.138-.972-4.965-.972-2.917 0-5.085 1.02-2.167 1.02-3.606 2.798a12.2 12.2 0 0 0-2.155 4.05 15.8 15.8 0 0 0-.716 4.784q0 2.517.695 4.791a12 12 0 0 0 2.114 4.047q1.419 1.773 3.597 2.788t5.156 1.015m21.424 2.929v-31.056h3.945v30.453l-1.484-2.905h16.95v3.508zm24.587 0v-31.056h10.902q3.6 0 6.384 1.036t4.698 3.031 2.9 4.846q.985 2.85.985 6.486 0 3.29-.874 6.13-.874 2.844-2.77 4.982-1.898 2.139-4.982 3.342-3.083 1.203-7.503 1.203h-9.74m3.945-3.281h5.815q4.443 0 7.075-1.628t3.785-4.445q1.154-2.818 1.154-6.37 0-2.733-.68-4.953t-2.087-3.81-3.592-2.439q-2.186-.849-5.184-.849h-6.286v24.494m49.871 3.756q-3.687 0-6.638-1.197t-5.02-3.363q-2.067-2.165-3.165-5.098-1.096-2.934-1.097-6.394 0-4.702 1.93-8.326 1.932-3.623 5.381-5.673t8.023-2.05q1.538 0 3 .218 1.462.219 2.77.592 1.306.373 2.413.807t1.919.889l-.36 3.79a22 22 0 0 0-3.29-1.624 17.4 17.4 0 0 0-3.14-.904 16.5 16.5 0 0 0-2.986-.281q-3.37 0-5.982 1.528-2.612 1.527-4.097 4.347t-1.485 6.706q0 2.604.768 4.89a11.6 11.6 0 0 0 2.301 4.024q1.533 1.736 3.818 2.726t5.303.99q1.104 0 2.213-.142a16 16 0 0 0 2.205-.442q1.097-.3 2.155-.808a14 14 0 0 0 2.062-1.219l.321 3.754a12 12 0 0 1-2.025 1.016q-1.106.433-2.306.706-1.2.274-2.466.406-1.263.132-2.525.132m12.67-.475 1.905-5.275q.995-2.761 1.904-5.254l3.852-10.655 3.57-9.872h5.187l1.686 4.712q.825 2.308 1.853 5.175l3.82 10.687 1.895 5.285q.974 2.715 1.85 5.197h-4.091a5229 5229 0 0 0-3.791-11.037l-5.655-16.46h-.38l-5.699 16.302q-.931 2.662-1.939 5.566-1.007 2.904-1.97 5.629zm5.759-7.805.334-3.095h15.738l.275 3.095zm35.731 8.275a22.3 22.3 0 0 1-3.916-.35 28 28 0 0 1-3.636-.89q-1.669-.537-2.691-1.086l.365-3.72q1.477.814 3.049 1.406t3.22.921q1.65.33 3.375.33 1.935 0 3.49-.533 1.554-.531 2.458-1.696.905-1.164.905-3.066 0-1.644-.935-2.72-.934-1.077-2.715-1.87t-4.299-1.574q-2.967-.923-5.053-2.015-2.087-1.091-3.187-2.695-1.1-1.606-1.1-4.078 0-2.425 1.145-4.337 1.146-1.91 3.41-3.02 2.265-1.108 5.61-1.108 1.388 0 2.747.2 1.36.201 2.606.534 1.248.333 2.269.75 1.02.415 1.739.851l-.392 3.755a14.6 14.6 0 0 0-2.802-1.494 17 17 0 0 0-2.936-.886 13.8 13.8 0 0 0-2.712-.294q-1.752 0-3.239.516-1.485.517-2.393 1.6-.907 1.085-.907 2.777 0 1.47.772 2.454.77.986 2.41 1.755t4.237 1.598q3.733 1.188 5.884 2.398 2.152 1.208 3.056 2.795t.904 3.9q0 2.534-1.126 4.541t-3.5 3.18q-2.376 1.17-6.112 1.171M184.16 390.764v-31.056h10.901q3.6 0 6.385 1.036 2.783 1.036 4.697 3.031 1.913 1.995 2.9 4.846.985 2.85.985 6.486.001 3.29-.874 6.13-.874 2.843-2.77 4.982-1.897 2.139-4.981 3.342t-7.504 1.203h-9.739m3.945-3.281h5.814q4.444 0 7.075-1.628t3.785-4.445q1.155-2.818 1.154-6.37 0-2.733-.68-4.953t-2.087-3.81-3.592-2.439-5.184-.849h-6.285v24.494m27.79 3.281v-31.057h19.292v3.382h-17.605l2.18-2.808v29.892l-1.972-2.79h17.458v3.381zm3.008-14.099v-3.277h15.413v3.277h-15.413m31.526 14.57a22.3 22.3 0 0 1-3.916-.352 28 28 0 0 1-3.636-.888q-1.669-.538-2.692-1.087l.366-3.72q1.476.814 3.048 1.406t3.221.921q1.65.33 3.374.33 1.935 0 3.49-.533 1.554-.531 2.459-1.696.904-1.164.904-3.066 0-1.644-.934-2.72-.936-1.077-2.715-1.87-1.78-.794-4.3-1.574-2.966-.923-5.053-2.015-2.086-1.091-3.186-2.695-1.1-1.606-1.1-4.078 0-2.425 1.145-4.337 1.145-1.91 3.41-3.02 2.265-1.108 5.609-1.108 1.389 0 2.748.2 1.358.201 2.606.534t2.268.75q1.02.415 1.74.851l-.392 3.755a14.6 14.6 0 0 0-2.803-1.494 17 17 0 0 0-2.935-.886 13.8 13.8 0 0 0-2.712-.294q-1.752 0-3.239.517-1.487.516-2.393 1.6-.907 1.084-.907 2.776 0 1.47.771 2.454.772.986 2.41 1.755 1.64.769 4.237 1.598 3.734 1.188 5.885 2.398 2.151 1.208 3.056 2.795.903 1.588.903 3.9 0 2.534-1.125 4.541t-3.5 3.18q-2.377 1.17-6.112 1.171m35.118-.471q-2.07-2.252-3.883-4.22-1.814-1.966-3.543-3.846l-5.9-6.384h-2.125v-3.234h2.11l5.112-5.336q1.806-1.883 3.57-3.733a4263 4263 0 0 0 4.094-4.303h4.793a2640 2640 0 0 0-9.214 9.549l-5.748 5.97-.06-1.731 6.39 7.022a351 351 0 0 1 3.188 3.485 564 564 0 0 0 3.314 3.64 882 882 0 0 1 2.858 3.121zm-18.94 0v-31.056h3.933v31.056zm36.86 0v-30.485l1.559 2.937h-12.22v-3.508h25.222v3.508h-12.22l1.591-2.937v30.485zm32.123.475q-3.95 0-6.91-1.27t-4.925-3.506q-1.964-2.236-2.943-5.128t-.98-6.129q0-4.514 1.833-8.158a14.04 14.04 0 0 1 5.322-5.777q3.49-2.134 8.468-2.134 3.795 0 6.701 1.24t4.889 3.448q1.984 2.208 2.99 5.117t1.007 6.252q0 4.598-1.837 8.225-1.838 3.627-5.298 5.724-3.462 2.096-8.317 2.096m-.1-3.404q2.978 0 5.135-1.03 2.156-1.032 3.56-2.82a12.2 12.2 0 0 0 2.083-4.055q.678-2.266.678-4.736 0-2.655-.735-4.95t-2.176-4.027-3.58-2.703q-2.137-.972-4.964-.972-2.917 0-5.086 1.02-2.168 1.02-3.605 2.798a12.2 12.2 0 0 0-2.155 4.05 15.8 15.8 0 0 0-.716 4.784q0 2.517.694 4.791a12 12 0 0 0 2.114 4.047q1.42 1.773 3.598 2.788t5.156 1.015m21.42 2.929v-31.057h10.989q3.536 0 5.861.937 2.326.936 3.475 2.903 1.15 1.966 1.15 5.053 0 2.838-1.052 5.049-1.052 2.21-3.524 3.475t-6.741 1.265h-6.795v-3.259h6.048q2.79 0 4.567-.656t2.63-2.088.852-3.76q0-1.923-.63-3.052t-1.637-1.685a6.4 6.4 0 0 0-2.187-.73 16 16 0 0 0-2.286-.175h-8.748l1.92-2.703v30.483zm-217.117 41.882 1.904-5.275q.996-2.76 1.905-5.254l3.851-10.655 3.571-9.872h5.186q.862 2.403 1.687 4.712.825 2.31 1.853 5.175l3.82 10.687q.92 2.57 1.894 5.285.975 2.715 1.85 5.197h-4.09a5228 5228 0 0 0-3.792-11.037l-5.654-16.46h-.38l-5.699 16.302a1999 1999 0 0 0-1.94 5.566 1005 1005 0 0 1-1.97 5.63zm5.758-7.805.334-3.095h15.739l.274 3.095zm35.732 8.275a22.3 22.3 0 0 1-3.916-.35 28 28 0 0 1-3.636-.89q-1.668-.537-2.692-1.086l.366-3.72q1.476.814 3.049 1.406t3.22.921q1.65.33 3.374.33 1.935 0 3.49-.533 1.554-.531 2.459-1.696.905-1.164.905-3.066 0-1.644-.935-2.72-.934-1.077-2.715-1.87t-4.3-1.574q-2.966-.923-5.053-2.015-2.086-1.091-3.186-2.695-1.1-1.606-1.1-4.078 0-2.425 1.145-4.337 1.145-1.91 3.41-3.02 2.265-1.108 5.609-1.108 1.389 0 2.748.2 1.359.201 2.606.534 1.248.333 2.268.75 1.02.415 1.74.851l-.392 3.755a14.6 14.6 0 0 0-2.803-1.494 17 17 0 0 0-2.935-.886 13.8 13.8 0 0 0-2.712-.294q-1.752 0-3.239.517-1.487.516-2.393 1.6-.907 1.084-.907 2.776 0 1.47.771 2.454.772.986 2.41 1.755 1.64.769 4.237 1.598 3.734 1.188 5.885 2.398 2.152 1.208 3.056 2.795.903 1.588.903 3.9 0 2.534-1.125 4.541t-3.5 3.18q-2.376 1.17-6.112 1.171m25.2 0a22.3 22.3 0 0 1-3.916-.35 28 28 0 0 1-3.637-.89q-1.668-.537-2.69-1.086l.365-3.72q1.476.814 3.048 1.406t3.221.921q1.65.33 3.374.33 1.936 0 3.49-.533 1.554-.531 2.459-1.696.904-1.164.904-3.066 0-1.644-.934-2.72-.936-1.077-2.715-1.87-1.78-.794-4.3-1.574-2.966-.923-5.053-2.015-2.086-1.091-3.187-2.695-1.1-1.606-1.1-4.078 0-2.425 1.146-4.337 1.146-1.91 3.41-3.02 2.265-1.108 5.609-1.108 1.389 0 2.748.2 1.358.201 2.606.534t2.268.75q1.02.415 1.74.851l-.392 3.755a14.6 14.6 0 0 0-2.803-1.494 17 17 0 0 0-2.936-.886 13.8 13.8 0 0 0-2.711-.294q-1.752 0-3.24.517-1.485.516-2.393 1.6-.906 1.084-.906 2.776 0 1.47.771 2.454.772.986 2.41 1.755 1.64.769 4.237 1.598 3.733 1.188 5.885 2.398 2.151 1.208 3.055 2.795.904 1.588.904 3.9 0 2.534-1.125 4.541t-3.501 3.18q-2.375 1.17-6.111 1.171m16.173-.47V401.59h19.291v3.382h-17.605l2.18-2.808v29.892l-1.972-2.79h17.458v3.381zm3.007-14.099v-3.277h15.412v3.277h-15.412m31.526 14.57a22.3 22.3 0 0 1-3.916-.351 28 28 0 0 1-3.637-.89q-1.668-.537-2.69-1.086l.365-3.72q1.476.814 3.048 1.406t3.221.921q1.65.33 3.374.33 1.935 0 3.49-.533 1.554-.531 2.459-1.696.904-1.164.904-3.066 0-1.644-.934-2.72-.936-1.077-2.715-1.87-1.78-.794-4.3-1.574-2.966-.923-5.053-2.015-2.086-1.091-3.186-2.695-1.1-1.606-1.1-4.078 0-2.425 1.145-4.337 1.145-1.91 3.41-3.02 2.265-1.108 5.609-1.108 1.389 0 2.748.2 1.358.201 2.606.534t2.268.75q1.02.415 1.74.851l-.392 3.755a14.6 14.6 0 0 0-2.803-1.494 17 17 0 0 0-2.936-.886 13.8 13.8 0 0 0-2.711-.294q-1.752 0-3.24.517-1.485.516-2.393 1.6-.906 1.084-.906 2.776 0 1.47.771 2.454.772.986 2.41 1.755 1.64.769 4.237 1.598 3.733 1.188 5.885 2.398 2.151 1.208 3.055 2.795.904 1.588.904 3.9 0 2.534-1.125 4.541t-3.501 3.18q-2.375 1.17-6.111 1.171m25.2 0a22.3 22.3 0 0 1-3.916-.351 28 28 0 0 1-3.637-.89q-1.668-.537-2.69-1.086l.365-3.72q1.476.814 3.048 1.406t3.221.921q1.65.33 3.374.33 1.935 0 3.49-.533 1.553-.531 2.459-1.696.904-1.164.904-3.066 0-1.644-.935-2.72t-2.715-1.87-4.299-1.574q-2.966-.923-5.053-2.015-2.086-1.091-3.187-2.695-1.1-1.606-1.1-4.078 0-2.425 1.146-4.337 1.145-1.91 3.41-3.02 2.265-1.108 5.608-1.108 1.39 0 2.748.2 1.359.201 2.607.534 1.246.333 2.268.75 1.02.415 1.74.851l-.392 3.755a14.6 14.6 0 0 0-2.803-1.494 17 17 0 0 0-2.936-.886 13.8 13.8 0 0 0-2.712-.294q-1.752 0-3.238.517-1.487.516-2.394 1.6-.906 1.084-.907 2.776 0 1.47.772 2.454.771.986 2.41 1.755t4.237 1.598q3.733 1.188 5.885 2.398 2.151 1.208 3.055 2.795.904 1.588.904 3.9 0 2.534-1.125 4.541t-3.501 3.18q-2.375 1.17-6.111 1.171m15.062-.47q.32-2.522.63-4.986t.658-5.353l1.282-10.253q.363-2.85.664-5.307.3-2.456.642-5.158h3.969q1.36 3.305 2.62 6.39l2.5 6.14 4.927 12.053h.305l4.867-12.048q1.247-3.075 2.484-6.132 1.238-3.057 2.577-6.403h3.953q.333 2.664.63 5.126.3 2.461.653 5.336l1.267 10.34q.354 2.822.655 5.248.3 2.426.605 5.006h-3.759l-.956-7.858q-.45-3.725-.849-6.953l-1.127-9.282h-.286l-3.944 10q-1.434 3.648-2.874 7.288a3073 3073 0 0 0-2.681 6.805h-2.679a845 845 0 0 0-1.75-4.355l-1.963-4.85a996 996 0 0 0-1.969-4.83l-4.075-10.058h-.286l-1.122 9.264-.843 6.967q-.451 3.735-.956 7.862zm42.483 0v-31.058h19.292v3.382h-17.606l2.181-2.808v29.892l-1.973-2.79h17.458v3.381zm3.007-14.1v-3.277h15.413v3.277H342.94m22.504 14.1V401.59h3.56q2.78 3.924 5.345 7.555t5.074 7.175l6.735 9.489h.33V401.59h3.741v31.056h-3.504q-2.3-3.27-4.85-6.87l-5.606-7.915-6.765-9.56h-.318v24.345zm40.48 0V402.16l1.558 2.937h-12.219v-3.508h25.222v3.508h-12.22l1.591-2.937v30.485z"/></g></svg>