<svg xmlns="http://www.w3.org/2000/svg" viewBox="0 0 1427 512"><g fill="none"><path fill="#00494a" d="M682.258 363.955q-11.209 0-20.211-3.43-9.004-3.429-15.341-9.762-6.338-6.334-9.705-15.093-3.367-8.758-3.367-19.432 0-13.86 5.615-24.723t16.131-17.08q10.516-6.218 25.229-6.218 4.452 0 8.8.57 4.35.571 8.35 1.566a78 78 0 0 1 7.476 2.239q3.474 1.244 6.153 2.657l-1.61 19.772q-5.014-3.124-9.68-5.062-4.666-1.937-8.953-2.805-4.287-.867-8.178-.868-7.843 0-13.988 3.478-6.144 3.476-9.664 10.16-3.52 6.682-3.52 16.282 0 6.134 1.807 11.604 1.807 5.472 5.448 9.658 3.64 4.187 9.14 6.584 5.497 2.397 12.858 2.396 3.008 0 6.084-.42t6.195-1.332a36.3 36.3 0 0 0 6.225-2.486 45 45 0 0 0 6.174-3.818l1.176 19.53q-2.753 1.553-6.132 2.702a55 55 0 0 1-7.077 1.88 74 74 0 0 1-7.617 1.092q-3.92.36-7.818.36m87.894 0q-12.478 0-21.59-3.835t-14.994-10.527q-5.884-6.69-8.743-15.293-2.86-8.6-2.86-18.094 0-13.414 5.324-24.293 5.324-10.88 15.902-17.288 10.579-6.408 26.381-6.408 12.026 0 21.003 3.711t14.954 10.298 8.94 15.26 2.965 18.64q0 13.731-5.44 24.537t-15.989 17.05q-10.549 6.242-25.853 6.242m-.338-17.507q6.432 0 11.192-2.43a22.6 22.6 0 0 0 7.937-6.682q3.177-4.253 4.753-9.707 1.575-5.455 1.576-11.502 0-6.399-1.71-11.93t-4.976-9.677a23 23 0 0 0-7.981-6.471q-4.715-2.325-10.791-2.325-6.28 0-11.071 2.398a23 23 0 0 0-8.04 6.618q-3.246 4.22-4.911 9.715t-1.665 11.672q0 6.12 1.6 11.588 1.6 5.466 4.802 9.694t8.027 6.634 11.258 2.405m61.546 15.783v-92.142h35.325q11.27 0 19.06 2.478 7.791 2.478 11.814 8.288t4.023 15.858q0 7.967-3.134 14.277t-10.035 9.99-18.105 3.723l8.175-7.795 12.551 18.506q2.933 4.286 6.22 9.147 3.289 4.863 6.438 9.49a1759 1759 0 0 1 5.54 8.18h-24.156a3433 3433 0 0 0-12.982-20.119l-14.923-23.498 12.647 9.644h-21.44v-15.203h15.4q5.147 0 8.679-1.256 3.532-1.255 5.356-4.294t1.824-8.309q0-3.945-1.175-6.377-1.174-2.43-3.154-3.778a11.8 11.8 0 0 0-4.38-1.829 24.8 24.8 0 0 0-4.877-.481h-28.95l15.104-13.28v88.78zm89.373 0v-92.142h36.915q11.187 0 18.715 2.77 7.528 2.768 11.331 9.127t3.803 17.133q0 9.118-3.256 16.045t-10.468 10.84-19.138 3.913h-19.629v-16.175h14.766q5.605 0 9.16-1.463t5.255-4.592q1.702-3.13 1.702-8.128 0-3.978-1.198-6.48-1.197-2.505-3.186-3.87a12.5 12.5 0 0 0-4.423-1.903 22.8 22.8 0 0 0-4.908-.536h-24.668l10.164-13.319v88.78zm127.891 1.724q-12.478 0-21.589-3.835t-14.995-10.527q-5.883-6.69-8.743-15.293-2.86-8.6-2.86-18.094 0-13.414 5.324-24.293 5.324-10.88 15.903-17.288 10.578-6.408 26.38-6.408 12.027 0 21.004 3.711T1084 282.226q5.976 6.587 8.94 15.26 2.965 8.674 2.965 18.64 0 13.731-5.44 24.537t-15.989 17.05q-10.549 6.242-25.853 6.242m-.338-17.507q6.432 0 11.192-2.43a22.6 22.6 0 0 0 7.937-6.682q3.178-4.253 4.753-9.707t1.576-11.502q0-6.399-1.71-11.93t-4.975-9.677a23 23 0 0 0-7.982-6.471q-4.715-2.325-10.791-2.325-6.279 0-11.071 2.398a23 23 0 0 0-8.04 6.618q-3.246 4.22-4.91 9.715t-1.666 11.672q0 6.12 1.6 11.588 1.6 5.466 4.803 9.694 3.201 4.229 8.026 6.634t11.258 2.405m61.546 15.783v-92.142h35.325q11.27 0 19.06 2.478 7.791 2.478 11.814 8.288t4.023 15.858q0 7.967-3.134 14.277t-10.035 9.99q-6.9 3.679-18.105 3.723l8.175-7.795 12.551 18.506q2.934 4.286 6.221 9.147 3.288 4.863 6.437 9.49t5.54 8.18h-24.155a3432 3432 0 0 0-12.983-20.119l-14.923-23.498 12.647 9.644h-21.44v-15.203h15.4q5.147 0 8.679-1.256 3.532-1.255 5.356-4.294t1.824-8.309q0-3.945-1.175-6.377-1.174-2.43-3.153-3.778a11.8 11.8 0 0 0-4.382-1.829 24.8 24.8 0 0 0-4.875-.481h-28.95l15.104-13.28v88.78zm83.038 0 5.111-15.63q2.685-8.213 5.11-15.564l10.352-31.637a17939 17939 0 0 1 5.074-15.458q2.26-6.874 4.533-13.853h27.373a9698 9698 0 0 0 4.588 14.093q2.235 6.85 4.97 15.243l10.3 31.685q2.507 7.625 5.127 15.69t4.998 15.43h-21.97q-2.092-7.333-4.289-15.084a3239 3239 0 0 0-4.176-14.609l-12.646-44.393h-1.578l-12.777 43.901a6280 6280 0 0 0-4.361 15.044 3146 3146 0 0 1-4.41 15.142zm22.202-19.252 2.247-15.915h41.175l1.846 15.915zm88.203 19.252v-88.785l8.037 15.176h-35.849v-18.533h76.804v18.533h-35.849l8.087-15.176v88.785zm61.373 0v-92.142h61.184v17.353h-50.55l10.173-13.99v85.417l-8.828-13.992h49.748v17.354zm15.97-38.365v-16.175h43.16v16.175h-43.16m-742.787 160.21v-92.141h36.914q11.187 0 18.715 2.77 7.529 2.768 11.331 9.127 3.803 6.36 3.803 17.133 0 9.118-3.256 16.045t-10.468 10.84q-7.21 3.913-19.138 3.913h-19.629v-16.175h14.766q5.605 0 9.16-1.463t5.255-4.592q1.702-3.13 1.702-8.128 0-3.978-1.198-6.48-1.197-2.504-3.186-3.87a12.5 12.5 0 0 0-4.423-1.903 22.8 22.8 0 0 0-4.908-.536h-24.668l10.164-13.319v88.78zm70.3 0 5.112-15.628q2.685-8.214 5.11-15.565l10.352-31.636q2.814-8.586 5.074-15.46t4.532-13.852h27.373q2.352 7.244 4.588 14.094 2.235 6.848 4.97 15.242l10.301 31.686q2.507 7.624 5.127 15.689a8618 8618 0 0 1 4.998 15.43h-21.97q-2.092-7.333-4.29-15.084a3239 3239 0 0 0-4.175-14.609l-12.647-44.393h-1.578l-12.776 43.901a6280 6280 0 0 0-4.362 15.044 3145 3145 0 0 1-4.41 15.142zm22.202-19.25 2.248-15.916h41.175l1.845 15.916zm76.961 19.25v-92.141h35.325q11.27 0 19.06 2.478 7.791 2.479 11.814 8.288t4.023 15.858q0 7.968-3.134 14.277-3.134 6.31-10.035 9.99t-18.105 3.724l8.175-7.796 12.551 18.507q2.934 4.284 6.221 9.147 3.288 4.862 6.438 9.489 3.15 4.625 5.539 8.18H861.01a3432 3432 0 0 0-12.983-20.119l-14.923-23.497 12.647 9.643h-21.44v-15.202h15.4q5.147-.001 8.679-1.256 3.532-1.257 5.356-4.295t1.824-8.308q0-3.946-1.175-6.378-1.174-2.43-3.153-3.778a11.8 11.8 0 0 0-4.382-1.829 24.8 24.8 0 0 0-4.875-.481h-28.95l15.104-13.28v88.78zm108.86 0v-88.784l8.037 15.176h-35.85v-18.533h76.805v18.533h-35.849l8.087-15.176v88.785zm61.39 0v-92.141h18.55q6.498 9.444 12.246 17.814 5.747 8.37 11.486 16.731l15 21.735h1.56v-56.28h19.945v92.142h-18.34a7647 7647 0 0 0-11.123-16.15q-5.8-8.398-12.698-18.357l-15.2-21.969h-1.48v56.476zm96.928 0v-92.141h61.183v17.354h-50.549l10.173-13.992v85.418l-8.828-13.991h49.747v17.353zm15.97-38.363v-16.175h43.16v16.175h-43.16m61.116 38.364v-92.142h35.325q11.27 0 19.06 2.478 7.792 2.479 11.814 8.288t4.023 15.858q0 7.968-3.134 14.277-3.133 6.31-10.035 9.99-6.9 3.68-18.105 3.724l8.175-7.796 12.552 18.507q2.933 4.284 6.22 9.147 3.288 4.862 6.438 9.489 3.15 4.625 5.539 8.18h-24.155a3432 3432 0 0 0-12.983-20.119l-14.923-23.497 12.648 9.643h-21.44v-15.202h15.4q5.146-.001 8.678-1.256 3.532-1.257 5.356-4.295t1.824-8.308q0-3.946-1.175-6.378-1.175-2.43-3.153-3.778a11.8 11.8 0 0 0-4.381-1.829 24.8 24.8 0 0 0-4.876-.481h-28.95l15.104-13.28v88.78z"/><path fill="#00494a" fill-rule="evenodd" d="M460.916 280.036c8.143 8.153 10.399 16.206 10.52 27.344v4.252l.033 4.528c.033 4.076.044 8.163.044 12.24l.066 12.812c.044 8.075.077 16.162.099 24.237.033 9.21.088 18.409.132 27.619.099 18.927.176 37.842.242 56.77h5.67l1.042-2.843c2.53-7.59 5.865-14.84 9.1-22.155l3.092-7.029 2.124-4.814c3.994-9.067 7.911-18.155 11.828-27.255 3.257-7.558 6.57-15.082 9.98-22.574a277 277 0 0 0 3.918-9.121l1.397-3.372 2.575-6.312c2.971-7.227 6.107-14.377 9.298-21.516l1.255-2.809c1.914-4.241 3.862-8.439 5.985-12.581 1.849-3.647 3.18-7.315 4.457-11.193 3.565-9.298 9.078-16.922 18.31-21.185 9.397-3.063 18.574-2.567 27.52 1.597 8.56 4.627 12.357 10.885 15.603 20.029.89 6.246.132 164.215-.011 187.295h-23.108q-.847-182.855-2.575-184.971c-2.872-1.906-5.083-1.641-8.428-1.223-2.718 2.215-4.05 4.495-5.436 7.69l-1.122 2.578-1.145 2.677-1.144 2.622c-1.585 3.657-3.147 7.315-4.72 10.984-2.333 5.442-4.688 10.873-7.043 16.315l-1.53 3.537-4.951 11.435-1.717 3.955a30921 30921 0 0 1-17.231 39.693l-1.222 2.799-5.754 13.198c-3.202 7.326-6.393 14.652-9.463 22.044l-3.874 9.243a437 437 0 0 0-2.553 6.247c-3.752 8.912-7.603 14.74-15.724 20.05-4.302 1.531-8.065 1.796-12.61 1.752l-2.52-.011c-6.492-.22-11.036-1.366-15.779-6.048l-1.661-1.609c-4.996-5.42-6.316-11.149-6.35-18.354l-.032-4.02-.011-4.364-.033-4.627-.066-12.526-.077-13.098-.132-24.788-.132-28.225c-.11-19.356-.21-38.702-.297-58.058-1.574-.276-3.158-.518-4.743-.76l-2.674-.43c-2.564-.165-2.564-.165-4.39 1.575-1.574 2.028-2.53 3.944-3.521 6.313l-1.134 2.666-1.144 2.743-2.245 5.101-6.305 14.344-2.707 6.147-3.95 8.979-1.2 2.732c-2.387 5.453-4.643 10.94-6.832 16.47a193 193 0 0 1-3.456 8.053l-1.265 2.798-1.276 2.799-2.553 5.63-1.123 2.456c-1.221 2.732-2.398 5.486-3.576 8.24-1.837 4.297-3.708 8.582-5.568 12.868l-2.761 6.346-1.453 3.338-8.924 20.546-1.463 3.371-1.42 3.272-3.774 8.681-5.128 11.821-1.815 4.186-2.476 5.707-1.375 3.162c-1.167 2.7-1.167 2.7-2.19 5.916h-25.308c.946-4.737 2.112-8.163 4.038-12.515l.902-2.06 2.971-6.698 2.069-4.693 4.324-9.805c3.191-7.238 6.36-14.476 9.53-21.725l2.893-6.6c3.213-7.348 6.36-14.729 9.43-22.143 2.146-5.123 4.435-10.19 6.713-15.258a540 540 0 0 0 6.008-13.98c3.279-7.921 6.778-15.732 10.288-23.554a1140 1140 0 0 0 9.276-21.274l4.951-11.633 2.41-5.729c8.143-19.489 8.143-19.489 15.526-26.143l2.751-2.622c11.807-7.656 26.64-4.803 37.83 2.501m-328.5-2.732c8.825 5.332 14.47 12.746 17.232 22.695q.98 8.207 1.411 107.964h45.904q-.55-67.203 3.301-80.423l.936-3.294c5.292-17.56 18.618-32.763 34.276-41.874 11.972-5.872 22.755-9.243 36.102-9.155l3.257.01c7.516.122 14.118.827 21.15 3.636l3.223 1.135c18.42 6.94 33.143 20.965 41.89 38.526 2.201 5.387 3.918 10.917 5.502 16.525l.595 2.082c4.324 19.863-.33 42.238-10.42 59.578-13.59 19.886-32.428 29.646-55.602 34.791q-5.688.739-61.102.496v53.982h-23.108v-53.982h-47.315v53.982h-23.107v-53.982H77.025v-22.033h49.516q-.738-103.954-2.575-107.425c-3.103-2.787-6.096-2.897-10.08-2.875l-2.574-.011c-2.575.055-2.575.055-5.678 1.245-1.243 1.95-1.243 1.95-2.2 4.407l-1.167 2.743-1.277 3.117c-2.981 7.205-6.117 14.333-9.276 21.461a6658 6658 0 0 0-21.434 48.97l-1.43 3.293-9.43 21.77-1.112 2.555-9.86 22.772-6.205 14.344-3.896 8.978-1.826 4.22a1640 1640 0 0 0-11.213 26.44H0c1.42-4.958 2.542-8.791 4.677-13.286 3.796-8.153 7.339-16.415 10.761-24.722 3.73-9.045 7.636-18.012 11.587-26.969l3.3-7.491 2.135-4.859.969-2.214a264 264 0 0 1 6.305-13.209c1.43-2.92 2.542-5.949 3.653-9 1.65-4.407 3.4-8.627 5.568-12.813 1.97-3.8 3.587-7.602 5.072-11.612 3.544-9.342 7.56-18.475 11.576-27.63l3.873-8.857c3.95-9.034 7.978-18.012 12.335-26.848l1.057-2.16c9.44-18.805 31.096-23.883 49.549-14.993m104.16 31.508c-11.74 12.02-17.011 27.2-17.011 43.813.033 2.138.066 4.286.077 6.434.01 3.834.044 7.657.088 11.49.055 3.956.088 7.91.11 11.866q.083 12.774.23 25.548c6.57.099 13.128.165 19.686.209l8.088.066c3.95.055 7.89.11 11.84.132l3.796.022c8.682.165 15.8-.65 23.998-3.646l3.015-1.19c6.504-2.534 12.06-5.145 17.397-9.706 11.532-11.094 16.89-22.827 17.243-38.889l.022-3.525c.022-4.33-.055-8.571-.55-12.879-3.016-13.132-10.916-25.405-22.008-33.05-21.369-12.625-46.479-13.154-66.02 3.305"/><path stroke="#669292" stroke-linecap="round" stroke-linejoin="round" stroke-width="20" d="m26 80.495 164.216 132.04L351 87.266 284.984 235 190.216 28 94.555 235z"/></g></svg>