<svg xmlns="http://www.w3.org/2000/svg" viewBox="0 0 437 512"><g fill="none" fill-rule="evenodd"><path fill="#00494a" d="M215.214 0h6.508l5.64 1.736 4.774 3.037 176.596 176.596 3.471 6.075.868 3.037v8.244l-1.302 4.34-2.603 4.772-177.464 177.465-5.207 3.037-5.207 1.302h-6.508l-4.34-1.302-4.772-2.603L27.336 207.403l-2.604-5.206-.868-3.038v-9.112l2.17-5.64 3.037-3.905L205.234 4.339l4.339-2.603zm78.101 450.386 4.773 1.736 3.905 3.471 2.604 4.773.867-2.603.868-5.207 1.302-1.302h11.281l1.302 1.302-.434 5.207-3.905 24.732-4.339 25.166-1.302 3.037-.868.434h-9.98l-1.735-1.301v-4.34l.868-3.905-2.17 2.17-4.338 4.339-5.641 3.037-3.471.868h-7.81l-5.641-1.736-4.773-3.47-3.471-4.774-1.736-4.773-.868-4.772v-8.678l1.736-8.678 2.603-6.943 3.038-5.207 3.905-4.772 4.339-3.472 6.942-3.47 3.905-.869zm-32.542-22.996 5.207 1.302.867.867v2.604l-3.037 6.508-.868.868-7.81.434-2.17.868-2.169 2.603-.868 2.603-.867 5.207h10.413l1.302 1.302v4.339l-.868 3.905-1.302 1.302h-11.715l-.434 5.64-6.942 41.655-1.302 1.301h-11.715l-1.302-1.301.434-5.207 6.509-39.485.867-2.603h-6.942l-1.302-1.302v-3.471l.868-4.773 1.302-1.302h7.81l1.302-8.678 2.17-5.207 3.47-4.338 4.34-3.038 4.338-1.735 3.472-.868zm26.468 34.712-2.17.867-3.471 2.17-3.905 4.339-2.603 5.207-1.736 6.942v8.678l.434 1.736 1.302 3.47 2.169 2.604 2.603 1.736 3.905.868 4.773-.434 3.038-1.302 3.47-2.603 3.472-4.34 2.17-5.206 1.735-6.942v-8.245l-1.735-4.772-3.038-3.472-3.47-1.301zm-127.566-12.15 6.942 1.736 5.207 3.037 3.037 3.472 1.736 3.47.434 1.302v7.377l-1.302 3.905-3.905 4.339-5.64 3.037-5.642 1.736-7.376 1.301-9.98.868h-7.376l.434 6.509 2.17 5.206 3.47 2.604 2.604.868h6.943l5.64-1.736 4.34-3.905 1.3-1.302h3.906l6.075 1.302 1.301 1.302-.434 3.037-3.47 4.339-4.774 3.905-5.207 2.603-6.074 1.736h-13.45l-5.208-1.736-3.905-2.17-4.339-3.904-2.603-4.34-1.736-4.338-.434-3.037v-9.546l.868-5.64 2.604-7.377 3.905-6.509 4.772-5.206 5.207-3.905 5.207-2.604 4.339-1.302 3.037-.433zm-46.428-13.016 1.302 1.301-.434 5.641-1.301 7.376h9.545l1.302.868-.434 7.376-1.302 2.17-.433.434h-10.848l-.434 6.508-4.339 25.6v3.471l2.17 2.17 6.508.434 1.302 1.301v8.245l-1.736 1.301-2.603.434h-10.414l-3.905-1.302-3.471-2.603-2.17-3.905-.433-1.736v-6.074l2.603-16.922 3.037-16.922h-6.508l-1.302-1.302v-4.339l.868-3.905 1.302-1.302 7.376-.434 2.17-12.583 1.301-1.301zm36.882 24.298-1.302.434-4.339 2.603-3.471 3.905-3.037 6.075-.434 2.17h8.678l6.074-.435 5.641-1.301 4.339-2.17 1.736-3.037v-3.471l-.434-.868-1.736-2.17-3.471-1.735zm269.885-11.281 4.772 1.301 5.207 2.604 3.471 3.037 2.604 4.339.434 1.735v8.245l-2.17 4.339-3.037 3.037-5.64 3.037-5.641 1.736-7.377 1.301-9.98.868h-7.376l.434 5.64 1.302 4.34 1.736 2.603 3.47 2.17 2.17.434h6.509l4.339-1.302 4.339-2.603 2.603-3.038h3.471l5.64.868 1.737.868.433 3.037-2.603 3.905-3.037 3.038-4.773 3.037-3.471 1.735-6.943 1.736h-12.583l-5.207-1.736-3.905-2.17-4.339-3.904-3.037-5.207-1.735-6.942v-8.678l1.301-7.377 2.17-5.64 3.47-6.075 3.472-4.339 4.34-3.905 6.074-3.471 4.339-1.736 4.772-.867zM413.07 460.8l-4.773.868-4.339 2.603-3.037 3.471-2.603 4.34-1.302 4.338h10.414l9.111-1.301 4.773-2.17 2.17-3.471v-3.905l-2.17-2.604-3.47-1.735zM61.18 450.386h7.376l5.207 1.302 3.905 2.604 3.037 3.47 1.736 3.472.867 3.037v6.943l-3.47 21.694-2.604 15.62-1.302 2.17H63.783l-.868-1.301.434-5.641 4.773-29.071v-6.943l-1.736-2.603-2.17-1.736-1.735-.434h-7.376l-4.339 2.17-3.037 2.603-2.17 3.472-1.301 3.905-5.641 34.278-1.302 1.301H25.6l-.868-.867v-4.34l8.244-49.03.868-4.339.868-.868h10.847l1.302 1.302-.434 7.81 3.905-4.339 3.037-2.603 4.34-2.17zm289.844 0h9.98l6.074 1.736 4.339 2.17 3.905 3.47 3.037 5.207.868 2.604v2.603l-1.735 1.736-7.377 1.302h-3.47l-1.737-3.472-1.301-2.603-2.604-2.17-2.17-.867h-5.64l-4.339 1.301-3.47 2.604-3.472 3.905-3.037 6.074-1.736 7.377v6.942l1.736 5.64 2.603 3.038 3.037 1.302h6.509l5.207-2.17 3.47-3.037 3.472-4.339 2.17-.434 8.243 2.17 1.302 1.301v2.17l-3.471 5.207-3.471 3.905-4.34 3.037-4.338 2.17-3.905 1.301-3.038.434h-10.847l-5.64-1.736-4.774-3.037-3.905-3.905-3.037-5.64-.868-2.604-.434-3.037v-9.98l.868-5.64 2.604-6.943 2.603-4.773 3.471-4.339 3.471-3.471 5.641-3.471 5.207-2.17zm-161.41.434h9.98l1.735 1.302v3.471l-.434 4.773 2.603-3.905 3.905-3.471 2.604-1.302 2.17-.434h9.111l.868 1.302v3.905l-.868 3.905-.868 1.302-1.301.434-7.81.434-5.641 1.735-2.604 1.736-2.17 2.603-1.3 3.037-1.302 4.773-1.736 11.282-3.471 20.393-.868 2.17-1.302.867h-9.98l-2.169-1.735v-3.038l1.736-9.112 2.603-16.922 4.773-27.77zm-179.2.434h11.28l1.303 1.302-.434 5.64-1.736 10.414-1.735 11.715-3.472 20.828-1.735 8.678-.868.867H1.302L0 509.397l.434-4.773 4.339-25.6 1.735-11.716 2.604-14.752zm6.508-23.43h3.471l3.038 3.037 3.037 3.905v3.471l-2.17 2.17-4.773 3.905h-3.47l-3.038-3.037-3.037-3.906v-3.47l3.037-3.038z"/><path fill="#669292" d="m91.986 177.464 4.773 1.736 3.472 2.603 108.474 108.475 4.34 2.17 2.169.433h7.376l4.339-1.735 3.905-3.038 106.305-106.305 4.773-3.037 4.773-1.302h4.339l5.64 1.736 4.773 3.471 3.038 4.34 1.301 3.47.434 2.604v3.47l-.868 3.472-1.735 3.905-3.038 3.471-131.905 131.905-3.905 2.17-3.47.868h-6.51l-4.338-1.736-3.905-2.603L74.63 206.102l-2.604-4.34-1.302-3.904v-5.207l.868-3.905 2.604-4.773 3.47-3.471 4.774-2.604 1.735-.434zM138.847 128l5.207 1.302 4.34 2.603 59.877 59.878 5.207 2.603 1.302.434h6.942l3.905-1.301 4.34-2.604 59.01-59.01 3.47-2.17 4.34-1.301h6.074l4.773 1.735 3.905 2.604 3.037 3.471 2.17 4.34.434 1.735v7.376l-2.17 5.207-3.037 3.905L230.4 240.38l-4.773 3.037-3.905 1.302h-6.075l-4.772-1.736-3.906-2.603-83.308-83.309-2.603-4.339-1.302-3.905v-5.207l.868-3.905 2.603-4.773 3.471-3.47 4.773-2.604 4.34-.868zm82.875-80.705 4.773 1.736 3.905 2.603 33.844 33.844 2.603 3.905 1.302 4.773v6.075l-2.17 5.64-3.904 4.34-32.977 32.975-5.206 2.604-1.302.434h-8.244l-4.34-1.736-3.904-3.037-33.41-33.41-2.604-4.34-1.302-3.904V94.59l.868-3.905 2.604-4.773 35.145-35.146 4.34-2.603 3.47-.868z"/></g></svg>